<svg width="20" height="20" viewBox="0 0 20 20" fill="none" xmlns="http://www.w3.org/2000/svg">
<mask id="mask0_11452_3714" style="mask-type:alpha" maskUnits="userSpaceOnUse" x="0" y="0" width="20" height="20">
<circle cx="10" cy="10" r="10" fill="#D9D9D9"/>
</mask>
<g mask="url(#mask0_11452_3714)">
<path d="M24.9994 0H-5V19.9998H24.9994V0Z" fill="#F0F0F0"/>
<path d="M11.8747 0H8.12475V8.1248H-5V11.8747H8.12475V19.9995H11.8747V11.8747H24.9994V8.1248H11.8747V0Z" fill="#D80027"/>
<path d="M18.0726 13.478L24.9992 17.3262V13.478H18.0726Z" fill="#0052B4"/>
<path d="M13.2605 13.478L24.9994 19.9996V18.1555L16.5801 13.478H13.2605Z" fill="#0052B4"/>
<path d="M21.8723 19.9998L13.2603 15.2148V19.9998H21.8723Z" fill="#0052B4"/>
<path d="M13.2605 13.478L24.9994 19.9996V18.1555L16.5801 13.478H13.2605Z" fill="#F0F0F0"/>
<path d="M13.2605 13.478L24.9994 19.9996V18.1555L16.5801 13.478H13.2605Z" fill="#D80027"/>
<path d="M0.293316 13.478L-5 16.4188V13.478H0.293316Z" fill="#0052B4"/>
<path d="M6.73898 14.3076V19.9999H-3.50635L6.73898 14.3076Z" fill="#0052B4"/>
<path d="M3.41935 13.478L-5 18.1555V19.9996L6.73891 13.478H3.41935Z" fill="#D80027"/>
<path d="M1.92653 6.52147L-5 2.67334V6.52147H1.92653Z" fill="#0052B4"/>
<path d="M6.73891 6.52159L-5 0V1.84414L3.41935 6.52159H6.73891Z" fill="#0052B4"/>
<path d="M-1.87317 0L6.73889 4.78491V0H-1.87317Z" fill="#0052B4"/>
<path d="M6.73891 6.52159L-5 0V1.84414L3.41935 6.52159H6.73891Z" fill="#F0F0F0"/>
<path d="M6.73891 6.52159L-5 0V1.84414L3.41935 6.52159H6.73891Z" fill="#D80027"/>
<path d="M19.7058 6.52182L24.9991 3.58105V6.52182H19.7058Z" fill="#0052B4"/>
<path d="M13.2605 5.69233V0H23.5058L13.2605 5.69233Z" fill="#0052B4"/>
<path d="M16.5801 6.52159L24.9994 1.84414V0L13.2605 6.52159H16.5801Z" fill="#D80027"/>
</g>
</svg>
