<svg width="753" height="486" viewBox="0 0 753 486" fill="none" xmlns="http://www.w3.org/2000/svg">
<rect width="281.78" height="198.557" transform="matrix(0.707143 0.707071 -0.707143 0.707071 101.226 262.001)" fill="url(#paint0_linear_11198_28698)"/>
<rect width="281.78" height="244.891" transform="matrix(-0.707143 -0.707071 0.707143 -0.707071 -13.7964 764.066)" fill="url(#paint1_linear_11198_28698)"/>
<rect width="281.78" height="244.22" transform="matrix(0.707143 0.707071 -0.707143 0.707071 271.89 87.1958)" fill="url(#paint2_linear_11198_28698)"/>
<rect width="281.78" height="123.444" transform="matrix(0.707143 0.707071 -0.707143 0.707071 353.888 0)" fill="url(#paint3_linear_11198_28698)"/>
<rect width="281.78" height="123.444" transform="matrix(0.707143 0.707071 -0.707143 0.707071 553.741 197.892)" fill="url(#paint4_linear_11198_28698)"/>
<rect width="281.78" height="197.681" transform="matrix(0.707143 0.707071 -0.707143 0.707071 299.462 462.009)" fill="url(#paint5_linear_11198_28698)"/>
<defs>
<linearGradient id="paint0_linear_11198_28698" x1="232.294" y1="7.62466" x2="140.89" y2="198.557" gradientUnits="userSpaceOnUse">
<stop stop-color="#F3F3F3"/>
<stop offset="1" stop-color="#F9F9F9"/>
</linearGradient>
<linearGradient id="paint1_linear_11198_28698" x1="46.5849" y1="2.49458" x2="277.275" y2="233.184" gradientUnits="userSpaceOnUse">
<stop stop-color="#F9F9F9"/>
<stop offset="0.505962" stop-color="#F9F9F9"/>
<stop offset="1" stop-color="#F6F6F6"/>
</linearGradient>
<linearGradient id="paint2_linear_11198_28698" x1="46.5849" y1="2.48776" x2="276.642" y2="233.177" gradientUnits="userSpaceOnUse">
<stop stop-color="#F9F9F9"/>
<stop offset="0.505962" stop-color="#F9F9F9"/>
<stop offset="1" stop-color="white"/>
</linearGradient>
<linearGradient id="paint3_linear_11198_28698" x1="1.20245e-05" y1="6.67124" x2="207.135" y2="-74.2638" gradientUnits="userSpaceOnUse">
<stop stop-color="white"/>
<stop offset="0.535104" stop-color="#F9F9F9"/>
<stop offset="1" stop-color="#F5F5F7"/>
</linearGradient>
<linearGradient id="paint4_linear_11198_28698" x1="281.78" y1="6.67124" x2="74.6449" y2="-74.2638" gradientUnits="userSpaceOnUse">
<stop stop-color="white"/>
<stop offset="0.528944" stop-color="#F9F9F9"/>
<stop offset="1" stop-color="#FCFCFC"/>
</linearGradient>
<linearGradient id="paint5_linear_11198_28698" x1="262.283" y1="101.035" x2="1.91825" y2="145.195" gradientUnits="userSpaceOnUse">
<stop stop-color="white"/>
<stop offset="0.442354" stop-color="#F8F8F8"/>
<stop offset="1" stop-color="#F9F9F9"/>
</linearGradient>
</defs>
</svg>
