<svg width="753" height="480" viewBox="0 0 753 480" fill="none" xmlns="http://www.w3.org/2000/svg">
<rect width="281.78" height="198.557" transform="matrix(0.707143 0.707071 -0.707143 0.707071 101.226 -223.999)" fill="url(#paint0_linear_11198_28677)"/>
<rect width="281.78" height="244.891" transform="matrix(-0.707143 -0.707071 0.707143 -0.707071 -13.7964 278.066)" fill="url(#paint1_linear_11198_28677)"/>
<rect width="281.78" height="204.388" transform="matrix(0.707143 0.707071 -0.707143 0.707071 154.033 105.507)" fill="url(#paint2_linear_11198_28677)"/>
<rect width="225.448" height="123.444" transform="matrix(0.707143 0.707071 -0.707143 0.707071 11.0009 248.308)" fill="url(#paint3_linear_11198_28677)"/>
<rect width="281.78" height="197.681" transform="matrix(0.707143 0.707071 -0.707143 0.707071 299.462 -23.9908)" fill="url(#paint4_linear_11198_28677)"/>
<defs>
<linearGradient id="paint0_linear_11198_28677" x1="232.294" y1="7.62466" x2="140.89" y2="198.557" gradientUnits="userSpaceOnUse">
<stop stop-color="#F3F3F3"/>
<stop offset="1" stop-color="#F9F9F9"/>
</linearGradient>
<linearGradient id="paint1_linear_11198_28677" x1="46.5849" y1="2.49458" x2="277.275" y2="233.184" gradientUnits="userSpaceOnUse">
<stop stop-color="#F9F9F9"/>
<stop offset="0.505962" stop-color="#F9F9F9"/>
<stop offset="1" stop-color="#F6F6F6"/>
</linearGradient>
<linearGradient id="paint2_linear_11198_28677" x1="281.78" y1="11.0457" x2="55.6163" y2="-42.3273" gradientUnits="userSpaceOnUse">
<stop stop-color="white"/>
<stop offset="0.528944" stop-color="#F0F0F0"/>
<stop offset="1" stop-color="#FCFCFC"/>
</linearGradient>
<linearGradient id="paint3_linear_11198_28677" x1="225.448" y1="6.67124" x2="51.4279" y2="-47.7316" gradientUnits="userSpaceOnUse">
<stop stop-color="white"/>
<stop offset="0.528944" stop-color="#F0F0F0"/>
<stop offset="1" stop-color="white"/>
</linearGradient>
<linearGradient id="paint4_linear_11198_28677" x1="262.283" y1="101.035" x2="1.91825" y2="145.195" gradientUnits="userSpaceOnUse">
<stop stop-color="white"/>
<stop offset="0.442354" stop-color="#F8F8F8"/>
<stop offset="1" stop-color="#F9F9F9"/>
</linearGradient>
</defs>
</svg>
