<svg width="499" height="388" viewBox="0 0 499 388" fill="none" xmlns="http://www.w3.org/2000/svg">
<rect width="186.881" height="131.686" transform="matrix(-0.706725 -0.707489 0.706725 -0.707489 432.011 477.134)" fill="url(#paint0_linear_11198_28761)"/>
<rect width="186.881" height="162.415" transform="matrix(0.706725 0.707489 -0.706725 0.707489 508.251 143.959)" fill="url(#paint1_linear_11198_28761)"/>
<rect width="186.881" height="135.553" transform="matrix(-0.706725 -0.707489 0.706725 -0.707489 397.01 258.471)" fill="url(#paint2_linear_11198_28761)"/>
<rect width="186.881" height="161.971" transform="matrix(-0.706725 -0.707489 0.706725 -0.707489 318.891 593.136)" fill="url(#paint3_linear_11198_28761)"/>
<rect width="186.881" height="81.8701" transform="matrix(-0.706725 -0.707489 0.706725 -0.707489 132.073 519.677)" fill="url(#paint4_linear_11198_28761)"/>
<rect width="149.521" height="81.8701" transform="matrix(-0.706725 -0.707489 0.706725 -0.707489 491.815 163.707)" fill="url(#paint5_linear_11198_28761)"/>
<rect width="186.881" height="131.105" transform="matrix(-0.706725 -0.707489 0.706725 -0.707489 300.616 344.407)" fill="url(#paint6_linear_11198_28761)"/>
<defs>
<linearGradient id="paint0_linear_11198_28761" x1="154.061" y1="5.0568" x2="93.4404" y2="131.686" gradientUnits="userSpaceOnUse">
<stop stop-color="#F3F3F3"/>
<stop offset="1" stop-color="#F9F9F9"/>
</linearGradient>
<linearGradient id="paint1_linear_11198_28761" x1="30.8959" y1="1.65445" x2="183.893" y2="154.652" gradientUnits="userSpaceOnUse">
<stop stop-color="#F9F9F9"/>
<stop offset="0.505962" stop-color="#F9F9F9"/>
<stop offset="1" stop-color="#F6F6F6"/>
</linearGradient>
<linearGradient id="paint2_linear_11198_28761" x1="186.881" y1="7.32566" x2="36.8857" y2="-28.0722" gradientUnits="userSpaceOnUse">
<stop stop-color="white"/>
<stop offset="0.528944" stop-color="#F0F0F0"/>
<stop offset="1" stop-color="#FCFCFC"/>
</linearGradient>
<linearGradient id="paint3_linear_11198_28761" x1="30.8959" y1="1.64992" x2="183.474" y2="154.647" gradientUnits="userSpaceOnUse">
<stop stop-color="#F9F9F9"/>
<stop offset="0.505962" stop-color="#F9F9F9"/>
<stop offset="1" stop-color="white"/>
</linearGradient>
<linearGradient id="paint4_linear_11198_28761" x1="186.881" y1="4.42448" x2="49.5057" y2="-49.253" gradientUnits="userSpaceOnUse">
<stop stop-color="white"/>
<stop offset="0.528944" stop-color="#F9F9F9"/>
<stop offset="1" stop-color="#FCFCFC"/>
</linearGradient>
<linearGradient id="paint5_linear_11198_28761" x1="149.521" y1="4.42448" x2="34.1079" y2="-31.6564" gradientUnits="userSpaceOnUse">
<stop stop-color="white"/>
<stop offset="0.528944" stop-color="#F0F0F0"/>
<stop offset="1" stop-color="white"/>
</linearGradient>
<linearGradient id="paint6_linear_11198_28761" x1="173.951" y1="67.008" x2="1.27221" y2="96.2954" gradientUnits="userSpaceOnUse">
<stop stop-color="white"/>
<stop offset="0.442354" stop-color="#F8F8F8"/>
<stop offset="1" stop-color="#F9F9F9"/>
</linearGradient>
</defs>
</svg>
