<svg width="545" height="461" fill="none" xmlns="http://www.w3.org/2000/svg"><path transform="rotate(-135.003 367.098 -35.478)" fill="url(#paint0_linear_11198_28794)" d="M0 0h281.78v198.557H0z"/><path transform="rotate(-135.003 317.967 87.268)" fill="url(#paint1_linear_11198_28794)" d="M0 0h281.78v244.22H0z"/><path transform="rotate(-135.003 232.643 46.525)" fill="url(#paint2_linear_11198_28794)" d="M0 0h281.78v244.22H0z"/><path transform="rotate(-135.003 295.025 147.847)" fill="url(#paint3_linear_11198_28794)" d="M0 0h281.78v123.444H0z"/><path transform="rotate(-135.003 154.117 90.29)" fill="url(#paint4_linear_11198_28794)" d="M0 0h281.78v194.219H0z"/><defs><linearGradient id="paint0_linear_11198_28794" x1="232.294" y1="7.625" x2="140.89" y2="198.557" gradientUnits="userSpaceOnUse"><stop stop-color="#F0F0F0"/><stop offset="1" stop-color="#F9F9F9"/></linearGradient><linearGradient id="paint1_linear_11198_28794" x1="46.585" y1="2.488" x2="276.642" y2="233.177" gradientUnits="userSpaceOnUse"><stop stop-color="#F9F9F9"/><stop offset=".506" stop-color="#F9F9F9"/><stop offset="1" stop-color="#F9F9F9"/></linearGradient><linearGradient id="paint2_linear_11198_28794" x1="-30.272" y1="151.079" x2="312.898" y2="201.148" gradientUnits="userSpaceOnUse"><stop stop-color="#F9F9F9"/><stop offset=".506" stop-color="#F5F5F5"/><stop offset="1" stop-color="#fff"/></linearGradient><linearGradient id="paint3_linear_11198_28794" x1="0" y1="6.671" x2="207.135" y2="-74.264" gradientUnits="userSpaceOnUse"><stop stop-color="#fff"/><stop offset=".535" stop-color="#F9F9F9"/><stop offset="1" stop-color="#F5F5F7"/></linearGradient><linearGradient id="paint4_linear_11198_28794" x1="281.78" y1="10.496" x2="56.891" y2="-45.355" gradientUnits="userSpaceOnUse"><stop stop-color="#fff"/><stop offset=".529" stop-color="#F6F6F6"/><stop offset="1" stop-color="#FCFCFC"/></linearGradient></defs></svg>