<svg width="545" height="520" fill="none" xmlns="http://www.w3.org/2000/svg"><path transform="rotate(-135.003 474.786 224.522)" fill="url(#paint0_linear_11198_28829)" d="M0 0h281.78v198.557H0z"/><path transform="rotate(-135.003 380.144 70.705)" fill="url(#paint1_linear_11198_28829)" d="M0 0h281.78v204.388H0z"/><path transform="rotate(-135.003 340.33 306.525)" fill="url(#paint2_linear_11198_28829)" d="M0 0h281.78v244.22H0z"/><path transform="rotate(-135.003 261.804 350.29)" fill="url(#paint3_linear_11198_28829)" d="M0 0h281.78v194.219H0z"/><path transform="rotate(-135.003 334.248 165.571)" fill="url(#paint4_linear_11198_28829)" d="M0 0h281.78v197.681H0z"/><defs><linearGradient id="paint0_linear_11198_28829" x1="232.294" y1="7.625" x2="140.89" y2="198.557" gradientUnits="userSpaceOnUse"><stop stop-color="#F0F0F0"/><stop offset="1" stop-color="#F9F9F9"/></linearGradient><linearGradient id="paint1_linear_11198_28829" x1="281.78" y1="11.046" x2="55.616" y2="-42.327" gradientUnits="userSpaceOnUse"><stop stop-color="#F9F9F9"/><stop offset=".529" stop-color="#F0F0F0"/><stop offset="1" stop-color="#FCFCFC"/></linearGradient><linearGradient id="paint2_linear_11198_28829" x1="-30.272" y1="151.079" x2="312.898" y2="201.148" gradientUnits="userSpaceOnUse"><stop stop-color="#F9F9F9"/><stop offset=".506" stop-color="#F5F5F5"/><stop offset="1" stop-color="#fff"/></linearGradient><linearGradient id="paint3_linear_11198_28829" x1="281.78" y1="10.496" x2="56.891" y2="-45.355" gradientUnits="userSpaceOnUse"><stop stop-color="#fff"/><stop offset=".529" stop-color="#F6F6F6"/><stop offset="1" stop-color="#FCFCFC"/></linearGradient><linearGradient id="paint4_linear_11198_28829" x1="262.283" y1="101.035" x2="1.918" y2="145.195" gradientUnits="userSpaceOnUse"><stop stop-color="#fff"/><stop offset=".442" stop-color="#F8F8F8"/><stop offset="1" stop-color="#F9F9F9"/></linearGradient></defs></svg>