<svg width="499" height="388" fill="none" xmlns="http://www.w3.org/2000/svg"><path transform="rotate(-134.969 314.899 149.026)" fill="url(#paint0_linear_11198_28761)" d="M0 0h186.881v131.686H0z"/><path transform="rotate(45.031 80.484 685.024)" fill="url(#paint1_linear_11198_28761)" d="M0 0h186.881v162.415H0z"/><path transform="rotate(-134.969 252.077 46.95)" fill="url(#paint2_linear_11198_28761)" d="M0 0h186.881v135.553H0z"/><path transform="rotate(-134.969 282.382 230.473)" fill="url(#paint3_linear_11198_28761)" d="M0 0h186.881v161.971H0z"/><path transform="rotate(-134.969 173.747 232.464)" fill="url(#paint4_linear_11198_28761)" d="M0 0h186.881v81.87H0z"/><path transform="rotate(-134.969 279.838 -20.083)" fill="url(#paint5_linear_11198_28761)" d="M0 0h149.521v81.87H0z"/><path transform="rotate(-134.969 221.691 109.896)" fill="url(#paint6_linear_11198_28761)" d="M0 0h186.881v131.105H0z"/><defs><linearGradient id="paint0_linear_11198_28761" x1="154.061" y1="5.057" x2="93.44" y2="131.686" gradientUnits="userSpaceOnUse"><stop stop-color="#F3F3F3"/><stop offset="1" stop-color="#F9F9F9"/></linearGradient><linearGradient id="paint1_linear_11198_28761" x1="30.896" y1="1.654" x2="183.893" y2="154.652" gradientUnits="userSpaceOnUse"><stop stop-color="#F9F9F9"/><stop offset=".506" stop-color="#F9F9F9"/><stop offset="1" stop-color="#F6F6F6"/></linearGradient><linearGradient id="paint2_linear_11198_28761" x1="186.881" y1="7.326" x2="36.886" y2="-28.072" gradientUnits="userSpaceOnUse"><stop stop-color="#fff"/><stop offset=".529" stop-color="#F0F0F0"/><stop offset="1" stop-color="#FCFCFC"/></linearGradient><linearGradient id="paint3_linear_11198_28761" x1="30.896" y1="1.65" x2="183.474" y2="154.647" gradientUnits="userSpaceOnUse"><stop stop-color="#F9F9F9"/><stop offset=".506" stop-color="#F9F9F9"/><stop offset="1" stop-color="#fff"/></linearGradient><linearGradient id="paint4_linear_11198_28761" x1="186.881" y1="4.424" x2="49.506" y2="-49.253" gradientUnits="userSpaceOnUse"><stop stop-color="#fff"/><stop offset=".529" stop-color="#F9F9F9"/><stop offset="1" stop-color="#FCFCFC"/></linearGradient><linearGradient id="paint5_linear_11198_28761" x1="149.521" y1="4.424" x2="34.108" y2="-31.656" gradientUnits="userSpaceOnUse"><stop stop-color="#fff"/><stop offset=".529" stop-color="#F0F0F0"/><stop offset="1" stop-color="#fff"/></linearGradient><linearGradient id="paint6_linear_11198_28761" x1="173.951" y1="67.008" x2="1.272" y2="96.295" gradientUnits="userSpaceOnUse"><stop stop-color="#fff"/><stop offset=".442" stop-color="#F8F8F8"/><stop offset="1" stop-color="#F9F9F9"/></linearGradient></defs></svg>