<svg width="753" height="486" fill="none" xmlns="http://www.w3.org/2000/svg"><path transform="rotate(44.997 -265.673 253.2)" fill="url(#paint0_linear_11198_28698)" d="M0 0h281.78v198.557H0z"/><path transform="rotate(-135.003 151.334 384.89)" fill="url(#paint1_linear_11198_28698)" d="M0 0h281.78v244.891H0z"/><path transform="rotate(44.997 30.683 371.822)" fill="url(#paint2_linear_11198_28698)" d="M0 0h281.78v244.22H0z"/><path transform="rotate(44.997 176.944 427.211)" fill="url(#paint3_linear_11198_28698)" d="M0 0h281.78v123.444H0z"/><path transform="rotate(44.997 37.976 767.419)" fill="url(#paint4_linear_11198_28698)" d="M0 0h281.78v123.444H0z"/><path transform="rotate(44.997 -408.004 592.513)" fill="url(#paint5_linear_11198_28698)" d="M0 0h281.78v197.681H0z"/><defs><linearGradient id="paint0_linear_11198_28698" x1="232.294" y1="7.625" x2="140.89" y2="198.557" gradientUnits="userSpaceOnUse"><stop stop-color="#F3F3F3"/><stop offset="1" stop-color="#F9F9F9"/></linearGradient><linearGradient id="paint1_linear_11198_28698" x1="46.585" y1="2.495" x2="277.275" y2="233.184" gradientUnits="userSpaceOnUse"><stop stop-color="#F9F9F9"/><stop offset=".506" stop-color="#F9F9F9"/><stop offset="1" stop-color="#F6F6F6"/></linearGradient><linearGradient id="paint2_linear_11198_28698" x1="46.585" y1="2.488" x2="276.642" y2="233.177" gradientUnits="userSpaceOnUse"><stop stop-color="#F9F9F9"/><stop offset=".506" stop-color="#F9F9F9"/><stop offset="1" stop-color="#fff"/></linearGradient><linearGradient id="paint3_linear_11198_28698" x1="0" y1="6.671" x2="207.135" y2="-74.264" gradientUnits="userSpaceOnUse"><stop stop-color="#fff"/><stop offset=".535" stop-color="#F9F9F9"/><stop offset="1" stop-color="#F5F5F7"/></linearGradient><linearGradient id="paint4_linear_11198_28698" x1="281.78" y1="6.671" x2="74.645" y2="-74.264" gradientUnits="userSpaceOnUse"><stop stop-color="#fff"/><stop offset=".529" stop-color="#F9F9F9"/><stop offset="1" stop-color="#FCFCFC"/></linearGradient><linearGradient id="paint5_linear_11198_28698" x1="262.283" y1="101.035" x2="1.918" y2="145.195" gradientUnits="userSpaceOnUse"><stop stop-color="#fff"/><stop offset=".442" stop-color="#F8F8F8"/><stop offset="1" stop-color="#F9F9F9"/></linearGradient></defs></svg>