<svg width="496" height="981" fill="none" xmlns="http://www.w3.org/2000/svg"><path transform="rotate(44.997 -394.173 -57.049)" fill="url(#paint0_linear_11198_31352)" d="M0 0h281.78v198.557H0z"/><path transform="rotate(44.997 -765.547 171.452)" fill="url(#paint1_linear_11198_31352)" d="M0 0h281.78v204.388H0z"/><path transform="rotate(44.997 -97.817 61.573)" fill="url(#paint2_linear_11198_31352)" d="M0 0h281.78v244.22H0z"/><path transform="rotate(44.997 48.444 116.962)" fill="url(#paint3_linear_11198_31352)" d="M0 0h281.78v123.444H0z"/><path transform="rotate(44.997 -90.523 457.171)" fill="url(#paint4_linear_11198_31352)" d="M0 0h281.78v123.444H0z"/><path transform="rotate(44.997 -536.503 282.264)" fill="url(#paint5_linear_11198_31352)" d="M0 0h281.78v197.681H0z"/><defs><linearGradient id="paint0_linear_11198_31352" x1="232.294" y1="7.625" x2="140.89" y2="198.557" gradientUnits="userSpaceOnUse"><stop stop-color="#F3F3F3"/><stop offset="1" stop-color="#F9F9F9"/></linearGradient><linearGradient id="paint1_linear_11198_31352" x1="281.78" y1="11.046" x2="55.616" y2="-42.327" gradientUnits="userSpaceOnUse"><stop stop-color="#fff"/><stop offset=".529" stop-color="#F0F0F0"/><stop offset="1" stop-color="#FCFCFC"/></linearGradient><linearGradient id="paint2_linear_11198_31352" x1="46.585" y1="2.488" x2="276.642" y2="233.177" gradientUnits="userSpaceOnUse"><stop stop-color="#F9F9F9"/><stop offset=".506" stop-color="#F9F9F9"/><stop offset="1" stop-color="#fff"/></linearGradient><linearGradient id="paint3_linear_11198_31352" x1="0" y1="6.671" x2="207.135" y2="-74.264" gradientUnits="userSpaceOnUse"><stop stop-color="#fff"/><stop offset=".535" stop-color="#F9F9F9"/><stop offset="1" stop-color="#F5F5F7"/></linearGradient><linearGradient id="paint4_linear_11198_31352" x1="281.78" y1="6.671" x2="74.645" y2="-74.264" gradientUnits="userSpaceOnUse"><stop stop-color="#fff"/><stop offset=".529" stop-color="#F9F9F9"/><stop offset="1" stop-color="#FCFCFC"/></linearGradient><linearGradient id="paint5_linear_11198_31352" x1="262.283" y1="101.035" x2="1.918" y2="145.195" gradientUnits="userSpaceOnUse"><stop stop-color="#fff"/><stop offset=".442" stop-color="#F8F8F8"/><stop offset="1" stop-color="#F9F9F9"/></linearGradient></defs></svg>