<svg width="753" height="480" fill="none" xmlns="http://www.w3.org/2000/svg"><path transform="rotate(44.997 321.023 10.2)" fill="url(#paint0_linear_11198_28677)" d="M0 0h281.78v198.557H0z"/><path transform="rotate(-135.003 50.687 141.89)" fill="url(#paint1_linear_11198_28677)" d="M0 0h281.78v244.891H0z"/><path transform="rotate(44.997 -50.351 238.701)" fill="url(#paint2_linear_11198_28677)" d="M0 0h281.78v204.388H0z"/><path transform="rotate(44.997 -294.255 137.434)" fill="url(#paint3_linear_11198_28677)" d="M0 0h225.448v123.444H0z"/><path transform="rotate(44.997 178.692 349.513)" fill="url(#paint4_linear_11198_28677)" d="M0 0h281.78v197.681H0z"/><defs><linearGradient id="paint0_linear_11198_28677" x1="232.294" y1="7.625" x2="140.89" y2="198.557" gradientUnits="userSpaceOnUse"><stop stop-color="#F3F3F3"/><stop offset="1" stop-color="#F9F9F9"/></linearGradient><linearGradient id="paint1_linear_11198_28677" x1="46.585" y1="2.495" x2="277.275" y2="233.184" gradientUnits="userSpaceOnUse"><stop stop-color="#F9F9F9"/><stop offset=".506" stop-color="#F9F9F9"/><stop offset="1" stop-color="#F6F6F6"/></linearGradient><linearGradient id="paint2_linear_11198_28677" x1="281.78" y1="11.046" x2="55.616" y2="-42.327" gradientUnits="userSpaceOnUse"><stop stop-color="#fff"/><stop offset=".529" stop-color="#F0F0F0"/><stop offset="1" stop-color="#FCFCFC"/></linearGradient><linearGradient id="paint3_linear_11198_28677" x1="225.448" y1="6.671" x2="51.428" y2="-47.732" gradientUnits="userSpaceOnUse"><stop stop-color="#fff"/><stop offset=".529" stop-color="#F0F0F0"/><stop offset="1" stop-color="#fff"/></linearGradient><linearGradient id="paint4_linear_11198_28677" x1="262.283" y1="101.035" x2="1.918" y2="145.195" gradientUnits="userSpaceOnUse"><stop stop-color="#fff"/><stop offset=".442" stop-color="#F8F8F8"/><stop offset="1" stop-color="#F9F9F9"/></linearGradient></defs></svg>