<svg width="702" height="355" fill="none" xmlns="http://www.w3.org/2000/svg"><path d="M611.196 356.478c.655 0 1.185-.576 1.185-1.286 0-.711-.53-1.287-1.185-1.287-.654 0-1.185.576-1.185 1.287 0 .71.531 1.286 1.185 1.286zm14.862 1.51c1.053 0 1.907-.927 1.907-2.072 0-1.144-.854-2.072-1.907-2.072s-1.907.928-1.907 2.072c0 1.145.854 2.072 1.907 2.072zm-54.199-2.465c1.053 0 1.906-.928 1.906-2.072 0-1.144-.853-2.072-1.906-2.072s-1.907.928-1.907 2.072c0 1.144.854 2.072 1.907 2.072zm13.751-6.189c1.053 0 1.907-.928 1.907-2.072 0-1.145-.854-2.072-1.907-2.072s-1.907.927-1.907 2.072c0 1.144.854 2.072 1.907 2.072zm14.471-3.776c1.053 0 1.906-.927 1.906-2.072 0-1.144-.853-2.072-1.906-2.072s-1.907.928-1.907 2.072c0 1.145.854 2.072 1.907 2.072zm14.838-1.268c1.053 0 1.906-.928 1.906-2.072 0-1.144-.853-2.072-1.906-2.072-1.054 0-1.907.928-1.907 2.072 0 1.144.853 2.072 1.907 2.072zm14.837 1.268c1.054 0 1.907-.927 1.907-2.072 0-1.144-.853-2.072-1.907-2.072-1.053 0-1.906.928-1.906 2.072 0 1.145.853 2.072 1.906 2.072zm14.471 3.776c1.053 0 1.907-.928 1.907-2.072 0-1.145-.854-2.072-1.907-2.072s-1.907.927-1.907 2.072c0 1.144.854 2.072 1.907 2.072zm13.752 5.117c.509 0 .921-.448.921-1 0-.553-.412-1-.921-1-.509 0-.921.447-.921 1 0 .552.412 1 .921 1zm-108.753-.5c.018 0 .033-.016.033-.036 0-.02-.015-.037-.033-.037-.019 0-.033.017-.033.037 0 .02.014.036.033.036zm12.342-7.511c.798 0 1.446-.703 1.446-1.571 0-.867-.648-1.571-1.446-1.571-.799 0-1.447.704-1.447 1.571 0 .868.648 1.571 1.447 1.571zm13.378-6.591c1.053 0 1.907-.928 1.907-2.072 0-1.145-.854-2.072-1.907-2.072s-1.907.927-1.907 2.072c0 1.144.854 2.072 1.907 2.072zm14.158-4.998c1.053 0 1.907-.927 1.907-2.071 0-1.145-.854-2.072-1.907-2.072s-1.907.927-1.907 2.072c0 1.144.854 2.071 1.907 2.071zm14.661-2.809c1.054 0 1.907-.928 1.907-2.072 0-1.144-.853-2.072-1.907-2.072-1.053 0-1.906.928-1.906 2.072 0 1.144.853 2.072 1.906 2.072zm14.877-.565c1.053 0 1.906-.928 1.906-2.072 0-1.144-.853-2.072-1.906-2.072-1.054 0-1.907.928-1.907 2.072 0 1.144.853 2.072 1.907 2.072zm14.804 1.691c1.053 0 1.907-.928 1.907-2.072 0-1.145-.854-2.072-1.907-2.072s-1.907.927-1.907 2.072c0 1.144.854 2.072 1.907 2.072zm14.445 3.915c1.053 0 1.907-.928 1.907-2.072 0-1.145-.854-2.072-1.907-2.072s-1.907.927-1.907 2.072c0 1.144.854 2.072 1.907 2.072zm13.802 5.736c.89 0 1.611-.784 1.611-1.75s-.721-1.75-1.611-1.75c-.889 0-1.61.784-1.61 1.75s.721 1.75 1.61 1.75zm12.894 7.803c.745 0 1.349-.656 1.349-1.465 0-.81-.604-1.466-1.349-1.466s-1.349.656-1.349 1.466c0 .809.604 1.465 1.349 1.465zm-123.196-13.33c.4 0 .724-.352.724-.786 0-.433-.324-.785-.724-.785-.399 0-.723.352-.723.785 0 .434.324.786.723.786zm13.048-7.186c.709 0 1.283-.624 1.283-1.394 0-.77-.574-1.394-1.283-1.394s-1.283.624-1.283 1.394c0 .77.574 1.394 1.283 1.394zm13.843-5.348c1.017 0 1.841-.896 1.841-2 0-1.105-.824-2.001-1.841-2.001-1.016 0-1.841.896-1.841 2.001 0 1.104.825 2 1.841 2zm14.421-3.952c1.054 0 1.907-.928 1.907-2.072 0-1.145-.853-2.072-1.907-2.072-1.053 0-1.906.927-1.906 2.072 0 1.144.853 2.072 1.906 2.072zm14.771-2.028c1.053 0 1.906-.927 1.906-2.072 0-1.144-.853-2.072-1.906-2.072s-1.907.928-1.907 2.072c0 1.145.854 2.072 1.907 2.072zm14.889 0c1.053 0 1.907-.927 1.907-2.072 0-1.144-.854-2.072-1.907-2.072s-1.907.928-1.907 2.072c0 1.145.854 2.072 1.907 2.072zm14.77 2.028c1.053 0 1.907-.928 1.907-2.072 0-1.145-.854-2.072-1.907-2.072s-1.907.927-1.907 2.072c0 1.144.854 2.072 1.907 2.072zm14.422 4.024c1.053 0 1.907-.928 1.907-2.072 0-1.145-.854-2.072-1.907-2.072s-1.907.927-1.907 2.072c0 1.144.854 2.072 1.907 2.072zm13.843 5.954c1.053 0 1.907-.927 1.907-2.072 0-1.144-.854-2.072-1.907-2.072s-1.907.928-1.907 2.072c0 1.145.854 2.072 1.907 2.072zm13.048 7.615c.962 0 1.742-.847 1.742-1.893 0-1.045-.78-1.893-1.742-1.893s-1.742.848-1.742 1.893c0 1.046.78 1.893 1.742 1.893zm12.045 9.689c1.053 0 1.907-.927 1.907-2.072 0-1.144-.854-2.072-1.907-2.072s-1.907.928-1.907 2.072c0 1.145.854 2.072 1.907 2.072zm-149.184-19.749c.019 0 .034-.016.034-.036 0-.02-.015-.036-.034-.036-.018 0-.033.016-.033.036 0 .02.015.036.033.036zm12.752-6.75c.835 0 1.512-.735 1.512-1.642 0-.907-.677-1.643-1.512-1.643s-1.512.736-1.512 1.643.677 1.642 1.512 1.642zm13.545-7.472c.454 0 .823-.4.823-.893s-.369-.892-.823-.892c-.454 0-.822.399-.822.892s.368.893.822.893zm14.161-5.071c.418 0 .757-.367.757-.821 0-.453-.339-.821-.757-.821-.417 0-.756.368-.756.821 0 .454.339.821.756.821zm14.595-2.249c.907 0 1.643-.799 1.643-1.785 0-.986-.736-1.786-1.643-1.786-.908 0-1.644.8-1.644 1.786s.736 1.785 1.644 1.785zm14.835-1.919c.636 0 1.152-.56 1.152-1.251 0-.691-.516-1.251-1.152-1.251-.637 0-1.152.56-1.152 1.251 0 .691.515 1.251 1.152 1.251zm14.884 1.034c.926 0 1.676-.816 1.676-1.822 0-1.006-.75-1.821-1.676-1.821-.926 0-1.676.815-1.676 1.821s.75 1.822 1.676 1.822zm14.738 2.551c1.053 0 1.907-.927 1.907-2.072 0-1.144-.854-2.072-1.907-2.072s-1.907.928-1.907 2.072c0 1.145.854 2.072 1.907 2.072zm14.401 4.114c1.054 0 1.907-.928 1.907-2.072 0-1.145-.853-2.072-1.907-2.072-1.053 0-1.906.927-1.906 2.072 0 1.144.853 2.072 1.906 2.072zm13.877 5.87c1.053 0 1.907-.927 1.907-2.072 0-1.144-.854-2.072-1.907-2.072s-1.907.928-1.907 2.072c0 1.145.854 2.072 1.907 2.072zm13.169 7.551c1.054 0 1.907-.928 1.907-2.072 0-1.144-.853-2.072-1.907-2.072-1.053 0-1.906.928-1.906 2.072 0 1.144.853 2.072 1.906 2.072zm12.291 9.133c1.053 0 1.907-.928 1.907-2.072 0-1.145-.854-2.072-1.907-2.072s-1.907.927-1.907 2.072c0 1.144.854 2.072 1.907 2.072zm-163.261-14.49c.219 0 .396-.192.396-.429 0-.238-.177-.43-.396-.43-.218 0-.396.192-.396.43 0 .237.178.429.396.429zm12.49-7.957c.655 0 1.185-.576 1.185-1.286 0-.711-.53-1.287-1.185-1.287-.654 0-1.185.576-1.185 1.287 0 .71.531 1.286 1.185 1.286zm13.268-7.025c.817 0 1.48-.719 1.48-1.606 0-.888-.663-1.607-1.48-1.607s-1.479.719-1.479 1.607c0 .887.662 1.606 1.479 1.606zm28.286-11.308c.146 0 .264-.128.264-.286 0-.158-.118-.286-.264-.286-.145 0-.264.128-.264.286 0 .158.119.286.264.286zm14.71-1.639c.6 0 1.086-.528 1.086-1.179s-.486-1.179-1.086-1.179c-.599 0-1.086.528-1.086 1.179s.487 1.179 1.086 1.179zm14.871-1.132c.454 0 .822-.4.822-.893s-.368-.893-.822-.893c-.454 0-.822.4-.822.893s.368.893.822.893zm14.871 1.454c.763 0 1.382-.672 1.382-1.501 0-.829-.619-1.501-1.382-1.501-.764 0-1.382.672-1.382 1.501 0 .829.618 1.501 1.382 1.501zm14.709 2.96c.98 0 1.775-.864 1.775-1.929s-.795-1.929-1.775-1.929c-.981 0-1.775.864-1.775 1.929s.794 1.929 1.775 1.929zm14.383 4.332c1.053 0 1.907-.928 1.907-2.072 0-1.145-.854-2.072-1.907-2.072s-1.907.927-1.907 2.072c0 1.144.854 2.072 1.907 2.072zm13.903 5.799c1.053 0 1.907-.928 1.907-2.072 0-1.145-.854-2.072-1.907-2.072s-1.907.927-1.907 2.072c0 1.144.854 2.072 1.907 2.072zm13.268 7.345c1.053 0 1.907-.928 1.907-2.072 0-1.145-.854-2.072-1.907-2.072s-1.907.927-1.907 2.072c0 1.144.854 2.072 1.907 2.072zm12.49 8.813c1.053 0 1.907-.927 1.907-2.071 0-1.145-.854-2.072-1.907-2.072s-1.907.927-1.907 2.072c0 1.144.854 2.071 1.907 2.071zM533.596 303.55c.273 0 .493-.24.493-.535 0-.296-.22-.535-.493-.535-.272 0-.493.239-.493.535 0 .295.221.535.493.535zm13.016-7.078c.672 0 1.217-.592 1.217-1.323 0-.73-.545-1.322-1.217-1.322-.673 0-1.218.592-1.218 1.322 0 .731.545 1.323 1.218 1.323zm13.653-7.356c.219 0 .396-.192.396-.43 0-.237-.177-.429-.396-.429-.218 0-.396.192-.396.429 0 .238.178.43.396.43zm28.706-7.456c.745 0 1.349-.656 1.349-1.465 0-.81-.604-1.466-1.349-1.466s-1.349.656-1.349 1.466c0 .809.604 1.465 1.349 1.465zm14.783-1.38c1.035 0 1.874-.911 1.874-2.036 0-1.124-.839-2.036-1.874-2.036-1.035 0-1.874.912-1.874 2.036 0 1.125.839 2.036 1.874 2.036zm14.89-1.499c.472 0 .855-.416.855-.929 0-.513-.383-.928-.855-.928-.473 0-.855.415-.855.928 0 .513.382.929.855.929zm14.852 1.172c.473 0 .856-.416.856-.929 0-.513-.383-.928-.856-.928-.472 0-.855.415-.855.928 0 .513.383.929.855.929zm14.68 3.797c1.016 0 1.841-.896 1.841-2.001 0-1.104-.825-2-1.841-2-1.017 0-1.841.896-1.841 2 0 1.105.824 2.001 1.841 2.001zm14.37 4.323c1.053 0 1.907-.928 1.907-2.072 0-1.145-.854-2.072-1.907-2.072s-1.907.927-1.907 2.072c0 1.144.854 2.072 1.907 2.072zm13.926 5.738c1.053 0 1.907-.928 1.907-2.072 0-1.144-.854-2.072-1.907-2.072s-1.907.928-1.907 2.072c0 1.144.854 2.072 1.907 2.072zm13.349 7.173c1.053 0 1.907-.927 1.907-2.072 0-1.144-.854-2.072-1.907-2.072s-1.907.928-1.907 2.072c0 1.145.854 2.072 1.907 2.072zm12.651 8.538c1.053 0 1.907-.927 1.907-2.072 0-1.144-.854-2.071-1.907-2.071s-1.907.927-1.907 2.071c0 1.145.854 2.072 1.907 2.072zm-152.788-29.408c.345 0 .624-.304.624-.678 0-.375-.279-.678-.624-.678s-.625.303-.625.678c0 .374.28.678.625.678zm28.3-9.85c.418 0 .757-.368.757-.821 0-.454-.339-.821-.757-.821-.417 0-.756.367-.756.821 0 .453.339.821.756.821zm14.654-1.639c1.053 0 1.906-.927 1.906-2.072 0-1.144-.853-2.072-1.906-2.072s-1.907.928-1.907 2.072c0 1.145.854 2.072 1.907 2.072zm14.834-1.451c1.054 0 1.907-.928 1.907-2.072 0-1.144-.853-2.072-1.907-2.072-1.053 0-1.906.928-1.906 2.072 0 1.144.853 2.072 1.906 2.072zm14.893-1.643c.219 0 .396-.192.396-.429s-.177-.429-.396-.429c-.219 0-.396.192-.396.429s.177.429.396.429zm14.835 2.736c.871 0 1.578-.767 1.578-1.714s-.707-1.714-1.578-1.714c-.872 0-1.578.767-1.578 1.714s.706 1.714 1.578 1.714zm14.653 2.854c.853 0 1.545-.751 1.545-1.678 0-.927-.692-1.679-1.545-1.679s-1.545.752-1.545 1.679.692 1.678 1.545 1.678zm14.357 4.591c.998 0 1.808-.879 1.808-1.964s-.81-1.965-1.808-1.965c-.999 0-1.808.88-1.808 1.965s.809 1.964 1.808 1.964zm13.944 5.796c1.053 0 1.906-.928 1.906-2.072 0-1.144-.853-2.072-1.906-2.072s-1.907.928-1.907 2.072c0 1.144.854 2.072 1.907 2.072zm13.418 7.021c1.053 0 1.907-.928 1.907-2.072 0-1.144-.854-2.072-1.907-2.072s-1.907.928-1.907 2.072c0 1.144.854 2.072 1.907 2.072zm-111.976-32.282c.399 0 .723-.352.723-.786 0-.434-.324-.785-.723-.785-.4 0-.724.351-.724.785 0 .434.324.786.724.786zm14.733-1.077c1.054 0 1.907-.928 1.907-2.072 0-1.145-.853-2.072-1.907-2.072-1.053 0-1.906.927-1.906 2.072 0 1.144.853 2.072 1.906 2.072zm14.865-1.017c1.053 0 1.907-.927 1.907-2.071 0-1.145-.854-2.072-1.907-2.072s-1.907.927-1.907 2.072c0 1.144.854 2.071 1.907 2.071zm14.891-.733c.509 0 .921-.448.921-1 0-.553-.412-1.001-.921-1.001-.509 0-.921.448-.921 1.001 0 .552.412 1 .921 1zm14.813 2.764c1.053 0 1.906-.927 1.906-2.072 0-1.144-.853-2.072-1.906-2.072-1.054 0-1.907.928-1.907 2.072 0 1.145.853 2.072 1.907 2.072zm14.63 3.031c1.053 0 1.907-.927 1.907-2.072 0-1.144-.854-2.072-1.907-2.072s-1.907.928-1.907 2.072c0 1.145.854 2.072 1.907 2.072zm14.346 4.246c.998 0 1.808-.879 1.808-1.964s-.81-1.965-1.808-1.965c-.999 0-1.808.88-1.808 1.965s.809 1.964 1.808 1.964zm13.96 5.749c1.053 0 1.907-.928 1.907-2.072 0-1.144-.854-2.072-1.907-2.072s-1.907.928-1.907 2.072c0 1.144.854 2.072 1.907 2.072zm13.476 6.891c1.053 0 1.907-.928 1.907-2.072 0-1.145-.854-2.072-1.907-2.072s-1.907.927-1.907 2.072c0 1.144.854 2.072 1.907 2.072zm-97.273-34.845c.745 0 1.349-.656 1.349-1.465s-.604-1.465-1.349-1.465c-.746 0-1.349.656-1.349 1.465s.603 1.465 1.349 1.465zm14.882-.028c1.053 0 1.906-.928 1.906-2.072 0-1.145-.853-2.072-1.906-2.072-1.054 0-1.907.927-1.907 2.072 0 1.144.853 2.072 1.907 2.072zm14.883-.401c.526 0 .954-.464.954-1.036 0-.572-.428-1.036-.954-1.036-.527 0-.955.464-.955 1.036 0 .572.428 1.036.955 1.036zm14.791 2.938c1.053 0 1.907-.928 1.907-2.072 0-1.144-.854-2.072-1.907-2.072s-1.907.928-1.907 2.072c0 1.144.854 2.072 1.907 2.072zm14.609 3.122c1.035 0 1.874-.911 1.874-2.036 0-1.124-.839-2.036-1.874-2.036-1.035 0-1.874.912-1.874 2.036 0 1.125.839 2.036 1.874 2.036zm14.336 4.142c.908 0 1.644-.799 1.644-1.785 0-.987-.736-1.786-1.644-1.786-.908 0-1.644.799-1.644 1.786 0 .986.736 1.785 1.644 1.785zm13.973 5.817c1.017 0 1.841-.895 1.841-2s-.824-2.001-1.841-2.001-1.841.896-1.841 2.001.824 2 1.841 2zm13.527 6.848c1.053 0 1.907-.928 1.907-2.072 0-1.145-.854-2.072-1.907-2.072s-1.907.927-1.907 2.072c0 1.144.854 2.072 1.907 2.072zm-195.369-2.348c.054 0 .099-.048.099-.107s-.045-.107-.099-.107c-.055 0-.099.048-.099.107s.044.107.099.107zm12.806-7.264c.563 0 1.02-.496 1.02-1.108 0-.611-.457-1.107-1.02-1.107s-1.02.496-1.02 1.107c0 .612.457 1.108 1.02 1.108zm13.334-8.286c.019 0 .034-.016.034-.036 0-.02-.015-.036-.034-.036-.018 0-.033.016-.033.036 0 .02.015.036.033.036zm71.942-18.508c.345 0 .625-.304.625-.678 0-.375-.28-.679-.625-.679s-.624.304-.624.679c0 .374.279.678.624.678zm14.892 1.094c1.053 0 1.907-.927 1.907-2.071 0-1.145-.854-2.072-1.907-2.072s-1.907.927-1.907 2.072c0 1.144.854 2.071 1.907 2.071zm14.873.897c1.053 0 1.907-.928 1.907-2.072 0-1.144-.854-2.072-1.907-2.072s-1.907.928-1.907 2.072c0 1.144.854 2.072 1.907 2.072zm14.77 2.088c1.053 0 1.907-.928 1.907-2.072 0-1.144-.854-2.072-1.907-2.072s-1.907.928-1.907 2.072c0 1.144.854 2.072 1.907 2.072zm14.588 2.874c.853 0 1.545-.752 1.545-1.679s-.692-1.678-1.545-1.678-1.545.751-1.545 1.678c0 .927.692 1.679 1.545 1.679zm14.328 3.823c.545 0 .987-.479.987-1.071s-.442-1.072-.987-1.072c-.545 0-.987.48-.987 1.072 0 .592.442 1.071.987 1.071zm13.986 6.424c.98 0 1.775-.864 1.775-1.929s-.795-1.929-1.775-1.929c-.981 0-1.775.864-1.775 1.929s.794 1.929 1.775 1.929zm-195.603 8.869c.164 0 .297-.144.297-.322 0-.178-.133-.322-.297-.322-.164 0-.297.144-.297.322 0 .178.133.322.297.322zm12.631-6.935c.999 0 1.808-.88 1.808-1.965s-.809-1.964-1.808-1.964-1.808.879-1.808 1.964.809 1.965 1.808 1.965zm13.152-8.528c.527 0 .954-.464.954-1.036 0-.572-.427-1.036-.954-1.036-.527 0-.954.464-.954 1.036 0 .572.427 1.036.954 1.036zm86.103-24.112c.127 0 .231-.112.231-.25 0-.139-.104-.251-.231-.251-.128 0-.231.112-.231.251 0 .138.103.25.231.25zm14.896 1.535c.908 0 1.644-.799 1.644-1.785 0-.987-.736-1.786-1.644-1.786-.908 0-1.644.799-1.644 1.786 0 .986.736 1.785 1.644 1.785zm14.859 1.416c1.053 0 1.906-.928 1.906-2.072 0-1.145-.853-2.072-1.906-2.072s-1.907.927-1.907 2.072c0 1.144.854 2.072 1.907 2.072zm14.75 2.252c1.053 0 1.907-.927 1.907-2.072 0-1.144-.854-2.072-1.907-2.072s-1.907.928-1.907 2.072c0 1.145.854 2.072 1.907 2.072zm14.57 3.366c1.053 0 1.907-.928 1.907-2.072 0-1.144-.854-2.072-1.907-2.072s-1.907.928-1.907 2.072c0 1.144.854 2.072 1.907 2.072zm14.319 3.995c.817 0 1.479-.719 1.479-1.606 0-.888-.662-1.607-1.479-1.607-.817 0-1.479.719-1.479 1.607 0 .887.662 1.606 1.479 1.606zm13.996 5.787c.944 0 1.71-.832 1.71-1.858 0-1.025-.766-1.857-1.71-1.857s-1.709.832-1.709 1.857c0 1.026.765 1.858 1.709 1.858zM473.64 254.669c.018 0 .033-.016.033-.036 0-.02-.015-.036-.033-.036-.019 0-.034.016-.034.036 0 .02.015.036.034.036zm11.905-9.73c.018 0 .033-.016.033-.036 0-.02-.015-.036-.033-.036-.018 0-.033.016-.033.036 0 .02.015.036.033.036zm12.47-8.14c.382 0 .691-.335.691-.749s-.309-.75-.691-.75c-.381 0-.69.336-.69.75s.309.749.69.749zm12.982-8.65c.019 0 .034-.016.034-.036 0-.02-.015-.036-.034-.036-.018 0-.033.016-.033.036 0 .02.015.036.033.036zm115.091-27.162c.091 0 .165-.08.165-.179 0-.099-.074-.179-.165-.179-.091 0-.165.08-.165.179 0 .099.074.179.165.179zm14.845 2.015c.436 0 .789-.384.789-.857 0-.474-.353-.857-.789-.857-.436 0-.79.383-.79.857 0 .473.354.857.79.857zm14.73 1.866c.164 0 .297-.144.297-.322 0-.178-.133-.322-.297-.322-.164 0-.297.144-.297.322 0 .178.133.322.297.322zm14.553 3.237c.055 0 .099-.048.099-.107 0-.06-.044-.108-.099-.108-.055 0-.099.048-.099.108 0 .059.044.107.099.107zm14.313 4.489c.055 0 .099-.048.099-.107 0-.06-.044-.108-.099-.108-.055 0-.099.048-.099.108 0 .059.044.107.099.107zm14.007 6.402c.508 0 .921-.448.921-1 0-.553-.413-1-.921-1-.509 0-.921.447-.921 1 0 .552.412 1 .921 1zM394.452 350.574c.073 0 .132-.064.132-.144 0-.079-.059-.143-.132-.143-.072 0-.131.064-.131.143 0 .08.059.144.131.144zm5.917-14.64c.182 0 .33-.16.33-.358 0-.198-.148-.358-.33-.358-.182 0-.33.16-.33.358 0 .198.148.358.33.358zm31.848-54.782c.054 0 .099-.048.099-.108 0-.059-.045-.107-.099-.107-.055 0-.099.048-.099.107 0 .06.044.108.099.108zm9.852-11.715c.272 0 .493-.239.493-.535 0-.295-.221-.535-.493-.535s-.493.24-.493.535c0 .296.221.535.493.535zm10.532-11.942c.018 0 .033-.016.033-.036 0-.02-.015-.037-.033-.037-.019 0-.034.017-.034.037 0 .02.015.036.034.036zm11.173-10.635c.055 0 .099-.048.099-.107s-.044-.107-.099-.107c-.054 0-.098.048-.098.107s.044.107.098.107zm11.771-9.955c.036 0 .066-.032.066-.072 0-.039-.03-.071-.066-.071-.037 0-.066.032-.066.071 0 .04.029.072.066.072zm12.32-8.812c.182 0 .33-.161.33-.358 0-.198-.148-.358-.33-.358-.182 0-.33.16-.33.358 0 .197.148.358.33.358zm12.821-8.168c.219 0 .396-.193.396-.43s-.177-.429-.396-.429c-.218 0-.396.192-.396.429s.178.43.396.43zm13.273-7.707c.037 0 .066-.032.066-.071 0-.04-.029-.072-.066-.072-.036 0-.066.032-.066.072 0 .039.03.071.066.071zm13.671-6.464c.019 0 .033-.016.033-.036 0-.02-.014-.036-.033-.036-.018 0-.033.016-.033.036 0 .02.015.036.033.036zM384.543 343.649c.491 0 .889-.432.889-.964 0-.533-.398-.965-.889-.965-.49 0-.888.432-.888.965 0 .532.398.964.888.964zm6.06-14.965c.399 0 .723-.352.723-.786 0-.434-.324-.785-.723-.785-.4 0-.724.351-.724.785 0 .434.324.786.724.786zm6.861-15.01c.073 0 .132-.064.132-.144 0-.079-.059-.143-.132-.143-.073 0-.132.064-.132.143 0 .08.059.144.132.144zm25.145-39.788c.218 0 .396-.193.396-.43s-.178-.429-.396-.429c-.219 0-.396.192-.396.429s.177.43.396.43zm9.8-10.547c1.053 0 1.907-.927 1.907-2.071 0-1.145-.854-2.072-1.907-2.072s-1.907.927-1.907 2.072c0 1.144.854 2.071 1.907 2.071zm10.453-11.674c.98 0 1.775-.864 1.775-1.929 0-1.066-.795-1.929-1.775-1.929-.98 0-1.775.863-1.775 1.929 0 1.065.795 1.929 1.775 1.929zm11.071-11.081c.853 0 1.545-.752 1.545-1.679s-.692-1.678-1.545-1.678-1.545.751-1.545 1.678c0 .927.692 1.679 1.545 1.679zm11.646-9.734c1.035 0 1.874-.912 1.874-2.036 0-1.125-.839-2.036-1.874-2.036-1.035 0-1.874.911-1.874 2.036 0 1.124.839 2.036 1.874 2.036zm12.181-9.532c.925 0 1.676-.815 1.676-1.821s-.751-1.821-1.676-1.821c-.926 0-1.677.815-1.677 1.821s.751 1.821 1.677 1.821zm12.672-8.652c.854 0 1.545-.752 1.545-1.679s-.691-1.678-1.545-1.678c-.853 0-1.545.751-1.545 1.678 0 .927.692 1.679 1.545 1.679zm13.118-7.778c.798 0 1.446-.704 1.446-1.571 0-.868-.648-1.571-1.446-1.571-.799 0-1.446.703-1.446 1.571 0 .867.647 1.571 1.446 1.571zm13.517-8.339c.018 0 .033-.017.033-.037 0-.019-.015-.036-.033-.036-.019 0-.034.017-.034.036 0 .02.015.037.034.037zm13.866-5.914c.019 0 .034-.016.034-.036 0-.02-.015-.036-.034-.036-.018 0-.033.016-.033.036 0 .02.015.036.033.036zM369.259 350.359c.164 0 .297-.144.297-.322 0-.178-.133-.322-.297-.322-.164 0-.297.144-.297.322 0 .178.133.322.297.322zm5.405-14.941c.236 0 .428-.208.428-.465s-.192-.465-.428-.465c-.237 0-.429.208-.429.465s.192.465.429.465zm6.187-13.188c1.017 0 1.841-.896 1.841-2.001 0-1.104-.824-2-1.841-2s-1.841.896-1.841 2c0 1.105.824 2.001 1.841 2.001zm6.953-15.245c.545 0 .987-.48.987-1.072 0-.591-.442-1.071-.987-1.071-.545 0-.987.48-.987 1.071 0 .592.442 1.072.987 1.072zM413 266.086c.11 0 .198-.096.198-.215 0-.118-.088-.214-.198-.214-.109 0-.198.096-.198.214 0 .119.089.215.198.215zm9.755-10.376c1.053 0 1.906-.928 1.906-2.072 0-1.144-.853-2.072-1.906-2.072-1.054 0-1.907.928-1.907 2.072 0 1.144.853 2.072 1.907 2.072zm10.382-11.609c1.053 0 1.907-.927 1.907-2.072 0-1.144-.854-2.072-1.907-2.072s-1.907.928-1.907 2.072c0 1.145.854 2.072 1.907 2.072zm10.975-10.945c1.053 0 1.907-.927 1.907-2.072 0-1.144-.854-2.072-1.907-2.072s-1.907.928-1.907 2.072c0 1.145.854 2.072 1.907 2.072zm11.531-10.245c1.054 0 1.907-.928 1.907-2.072 0-1.144-.853-2.072-1.907-2.072-1.053 0-1.906.928-1.906 2.072 0 1.144.853 2.072 1.906 2.072zm12.052-9.515c1.053 0 1.907-.928 1.907-2.072 0-1.145-.854-2.072-1.907-2.072s-1.907.927-1.907 2.072c0 1.144.854 2.072 1.907 2.072zm12.533-8.752c1.053 0 1.907-.927 1.907-2.072 0-1.144-.854-2.072-1.907-2.072s-1.907.928-1.907 2.072c0 1.145.854 2.072 1.907 2.072zm12.97-8.101c.981 0 1.775-.864 1.775-1.929 0-1.066-.794-1.929-1.775-1.929-.98 0-1.775.863-1.775 1.929 0 1.065.795 1.929 1.775 1.929zm13.368-7.43c.835 0 1.512-.735 1.512-1.642 0-.907-.677-1.643-1.512-1.643s-1.512.736-1.512 1.643.677 1.642 1.512 1.642zm13.722-7.727c.109 0 .198-.096.198-.215s-.089-.215-.198-.215c-.11 0-.198.096-.198.215s.088.215.198.215zm14.031-5.618c.018 0 .033-.016.033-.036 0-.02-.015-.036-.033-.036-.019 0-.034.016-.034.036 0 .02.015.036.034.036zm14.293-4.561c.018 0 .033-.016.033-.036 0-.02-.015-.036-.033-.036-.019 0-.034.016-.034.036 0 .02.015.036.034.036zm14.508-3.666c.019 0 .034-.016.034-.036 0-.02-.015-.036-.034-.036-.018 0-.033.016-.033.036 0 .02.015.036.033.036zm44.351-4.995c.291 0 .527-.255.527-.57 0-.316-.236-.571-.527-.571-.29 0-.526.255-.526.571 0 .315.236.57.526.57zm14.896-.392c.091 0 .164-.08.164-.178 0-.099-.073-.179-.164-.179-.091 0-.165.08-.165.179 0 .098.074.178.165.178zM359.251 343.68c.727 0 1.316-.641 1.316-1.43 0-.79-.589-1.43-1.316-1.43-.727 0-1.316.64-1.316 1.43 0 .789.589 1.43 1.316 1.43zm5.559-14.841c.817 0 1.479-.719 1.479-1.606 0-.888-.662-1.607-1.479-1.607-.817 0-1.479.719-1.479 1.607 0 .887.662 1.606 1.479 1.606zm6.304-14.199c1.054 0 1.907-.928 1.907-2.072 0-1.145-.853-2.072-1.907-2.072-1.053 0-1.906.927-1.906 2.072 0 1.144.853 2.072 1.906 2.072zm7.035-14.876c.745 0 1.349-.656 1.349-1.466 0-.809-.604-1.465-1.349-1.465s-1.349.656-1.349 1.465c0 .81.604 1.466 1.349 1.466zm34.959-52.607c.582 0 1.053-.512 1.053-1.143 0-.632-.471-1.143-1.053-1.143s-1.053.511-1.053 1.143c0 .631.471 1.143 1.053 1.143zm10.315-10.75c1.053 0 1.907-.927 1.907-2.072 0-1.144-.854-2.072-1.907-2.072s-1.906.928-1.906 2.072c0 1.145.853 2.072 1.906 2.072zm10.886-11.048c1.053 0 1.907-.928 1.907-2.072 0-1.145-.854-2.072-1.907-2.072s-1.907.927-1.907 2.072c0 1.144.854 2.072 1.907 2.072zm11.426-10.385c1.054 0 1.907-.928 1.907-2.072 0-1.145-.853-2.072-1.907-2.072-1.053 0-1.906.927-1.906 2.072 0 1.144.853 2.072 1.906 2.072zm11.932-9.693c1.053 0 1.907-.927 1.907-2.072 0-1.144-.854-2.072-1.907-2.072s-1.907.928-1.907 2.072c0 1.145.854 2.072 1.907 2.072zm12.399-8.969c1.053 0 1.907-.928 1.907-2.072 0-1.145-.854-2.072-1.907-2.072s-1.907.927-1.907 2.072c0 1.144.854 2.072 1.907 2.072zm12.833-8.222c1.053 0 1.906-.928 1.906-2.072 0-1.144-.853-2.072-1.906-2.072-1.054 0-1.907.928-1.907 2.072 0 1.144.853 2.072 1.907 2.072zm13.227-7.447c1.053 0 1.907-.928 1.907-2.072 0-1.144-.854-2.072-1.907-2.072s-1.907.928-1.907 2.072c0 1.144.854 2.072 1.907 2.072zm13.581-6.901c.926 0 1.677-.816 1.677-1.822 0-1.006-.751-1.821-1.677-1.821-.925 0-1.676.815-1.676 1.821s.751 1.822 1.676 1.822zm13.896-7.299c.182 0 .329-.16.329-.357 0-.198-.147-.358-.329-.358-.183 0-.33.16-.33.358 0 .197.147.357.33.357zm14.167-5.324c.018 0 .033-.016.033-.036 0-.02-.015-.036-.033-.036-.018 0-.033.016-.033.036 0 .02.015.036.033.036zm14.399-4.154c.018 0 .033-.017.033-.037 0-.019-.015-.036-.033-.036-.019 0-.034.017-.034.036 0 .02.015.037.034.037zm14.584-3.293c.018 0 .033-.016.033-.036 0-.02-.015-.036-.033-.036-.019 0-.034.016-.034.036 0 .02.015.036.034.036zm29.557-3.575c.219 0 .396-.193.396-.43s-.177-.429-.396-.429c-.218 0-.396.192-.396.429s.178.43.396.43zm14.884.3c.709 0 1.283-.624 1.283-1.394 0-.769-.574-1.394-1.283-1.394s-1.283.625-1.283 1.394c0 .77.574 1.394 1.283 1.394zm14.896-.529c.327 0 .592-.288.592-.643 0-.354-.265-.642-.592-.642-.327 0-.592.288-.592.642 0 .355.265.643.592.643zm14.862.569c.055 0 .099-.048.099-.108 0-.059-.044-.107-.099-.107-.055 0-.099.048-.099.107 0 .06.044.108.099.108zM344.304 351.808c1.053 0 1.907-.927 1.907-2.072 0-1.144-.854-2.072-1.907-2.072s-1.907.928-1.907 2.072c0 1.145.854 2.072 1.907 2.072zm4.973-15.259c1.053 0 1.906-.927 1.906-2.072 0-1.144-.853-2.072-1.906-2.072-1.054 0-1.907.928-1.907 2.072 0 1.145.853 2.072 1.907 2.072zm5.7-14.954c1.053 0 1.907-.928 1.907-2.072 0-1.145-.854-2.072-1.907-2.072s-1.906.927-1.906 2.072c0 1.144.853 2.072 1.906 2.072zm6.414-14.611c1.053 0 1.907-.928 1.907-2.072 0-1.145-.854-2.072-1.907-2.072s-1.907.927-1.907 2.072c0 1.144.854 2.072 1.907 2.072zm7.108-14.225c1.054 0 1.907-.928 1.907-2.072 0-1.145-.853-2.072-1.907-2.072-1.053 0-1.906.927-1.906 2.072 0 1.144.853 2.072 1.906 2.072zm7.784-15.197c.345 0 .625-.303.625-.678 0-.374-.28-.678-.625-.678-.344 0-.624.304-.624.678 0 .375.28.678.624.678zm27.182-39.132c.018 0 .033-.016.033-.036 0-.02-.015-.036-.033-.036-.019 0-.034.016-.034.036 0 .02.015.036.034.036zm10.253-10.312c.745 0 1.349-.656 1.349-1.466 0-.809-.604-1.465-1.349-1.465s-1.349.656-1.349 1.465c0 .81.604 1.466 1.349 1.466zm10.805-10.571c1.035 0 1.874-.912 1.874-2.036 0-1.125-.839-2.037-1.874-2.037-1.035 0-1.874.912-1.874 2.037 0 1.124.839 2.036 1.874 2.036zm11.328-10.478c1.053 0 1.906-.928 1.906-2.072 0-1.145-.853-2.072-1.906-2.072-1.054 0-1.907.927-1.907 2.072 0 1.144.853 2.072 1.907 2.072zm11.819-9.854c1.053 0 1.907-.927 1.907-2.072 0-1.144-.854-2.072-1.907-2.072s-1.907.928-1.907 2.072c0 1.145.854 2.072 1.907 2.072zm12.276-9.168c1.053 0 1.907-.928 1.907-2.072 0-1.144-.854-2.072-1.907-2.072s-1.907.928-1.907 2.072c0 1.144.854 2.072 1.907 2.072zm12.702-8.458c1.053 0 1.907-.927 1.907-2.072 0-1.144-.854-2.072-1.907-2.072s-1.907.928-1.907 2.072c0 1.145.854 2.072 1.907 2.072zm13.091-7.724c1.053 0 1.907-.928 1.907-2.072 0-1.144-.854-2.072-1.907-2.072s-1.907.928-1.907 2.072c0 1.144.854 2.072 1.907 2.072zm13.447-6.969c1.053 0 1.906-.928 1.906-2.072 0-1.145-.853-2.072-1.906-2.072s-1.907.927-1.907 2.072c0 1.144.854 2.072 1.907 2.072zm13.763-6.517c.889 0 1.611-.783 1.611-1.75 0-.966-.722-1.75-1.611-1.75-.89 0-1.611.784-1.611 1.75 0 .967.721 1.75 1.611 1.75zm14.042-7.117c.018 0 .033-.016.033-.036 0-.02-.015-.036-.033-.036-.018 0-.033.016-.033.036 0 .02.015.036.033.036zm14.283-4.596c.018 0 .033-.017.033-.037 0-.02-.015-.036-.033-.036-.018 0-.033.016-.033.036 0 .02.015.037.033.037zm14.486-3.779c.018 0 .033-.017.033-.037 0-.019-.015-.036-.033-.036-.019 0-.034.017-.034.036 0 .02.015.037.034.037zm14.647-2.951c.018 0 .033-.016.033-.036 0-.02-.015-.036-.033-.036-.019 0-.034.016-.034.036 0 .02.015.036.034.036zm14.768-2.111c.019 0 .033-.016.033-.036 0-.02-.014-.037-.033-.037-.018 0-.033.017-.033.037 0 .02.015.036.033.036zm29.744-1.66c.036 0 .066-.032.066-.071 0-.04-.03-.072-.066-.072-.037 0-.066.032-.066.072 0 .039.029.071.066.071zm14.892 1.031c.345 0 .625-.304.625-.678 0-.375-.28-.678-.625-.678s-.624.303-.624.678c0 .374.279.678.624.678zm14.851.629c.018 0 .033-.016.033-.036 0-.02-.015-.037-.033-.037-.018 0-.033.017-.033.037 0 .02.015.036.033.036zm-310.46 206.16c1.053 0 1.907-.927 1.907-2.071 0-1.145-.854-2.072-1.907-2.072s-1.907.927-1.907 2.072c0 1.144.854 2.071 1.907 2.071zm5.134-15.194c1.053 0 1.907-.928 1.907-2.072 0-1.144-.854-2.072-1.907-2.072s-1.907.928-1.907 2.072c0 1.144.854 2.072 1.907 2.072zm5.831-14.897c1.053 0 1.906-.928 1.906-2.072 0-1.145-.853-2.072-1.906-2.072-1.054 0-1.907.927-1.907 2.072 0 1.144.853 2.072 1.907 2.072zm6.51-14.558c1.054 0 1.907-.928 1.907-2.072 0-1.144-.853-2.072-1.907-2.072-1.053 0-1.906.928-1.906 2.072 0 1.144.853 2.072 1.906 2.072zm7.178-14.72c.782 0 1.415-.688 1.415-1.537s-.633-1.537-1.415-1.537c-.781 0-1.414.688-1.414 1.537s.633 1.537 1.414 1.537zm7.824-15.098c.109 0 .198-.096.198-.215 0-.118-.089-.214-.198-.214-.11 0-.198.096-.198.214 0 .119.088.215.198.215zm8.45-13.258c.146 0 .264-.129.264-.287 0-.158-.118-.286-.264-.286-.145 0-.263.128-.263.286 0 .158.118.287.263.287zm9.057-12.996c.073 0 .132-.064.132-.143 0-.079-.059-.143-.132-.143-.073 0-.132.064-.132.143 0 .079.059.143.132.143zm19.837-24.249c.018 0 .033-.016.033-.036 0-.02-.015-.037-.033-.037-.018 0-.033.017-.033.037 0 .02.015.036.033.036zm10.73-10.085c.6 0 1.086-.528 1.086-1.18 0-.651-.486-1.179-1.086-1.179-.6 0-1.086.528-1.086 1.179 0 .652.486 1.18 1.086 1.18zm11.236-9.736c1.053 0 1.907-.927 1.907-2.072 0-1.144-.854-2.072-1.907-2.072s-1.907.928-1.907 2.072c0 1.145.854 2.072 1.907 2.072zm11.712-10.002c1.054 0 1.907-.927 1.907-2.072 0-1.144-.853-2.072-1.907-2.072-1.053 0-1.906.928-1.906 2.072 0 1.145.853 2.072 1.906 2.072zm12.161-9.349c1.053 0 1.907-.927 1.907-2.072 0-1.144-.854-2.072-1.907-2.072s-1.907.928-1.907 2.072c0 1.145.854 2.072 1.907 2.072zm12.579-8.674c1.053 0 1.907-.928 1.907-2.072 0-1.144-.854-2.072-1.907-2.072s-1.907.928-1.907 2.072c0 1.144.854 2.072 1.907 2.072zm12.962-7.975c1.053 0 1.907-.928 1.907-2.072 0-1.144-.854-2.072-1.907-2.072s-1.907.928-1.907 2.072c0 1.144.854 2.072 1.907 2.072zm13.317-7.259c1.053 0 1.906-.928 1.906-2.072 0-1.144-.853-2.072-1.906-2.072-1.054 0-1.907.928-1.907 2.072 0 1.144.853 2.072 1.907 2.072zm13.634-6.522c1.053 0 1.906-.927 1.906-2.072 0-1.144-.853-2.072-1.906-2.072s-1.907.928-1.907 2.072c0 1.145.854 2.072 1.907 2.072zm13.917-5.804c1.035 0 1.874-.912 1.874-2.037 0-1.124-.839-2.036-1.874-2.036-1.035 0-1.874.912-1.874 2.036 0 1.125.839 2.037 1.874 2.037zm14.17-5.86c.6 0 1.086-.528 1.086-1.179 0-.652-.486-1.18-1.086-1.18-.599 0-1.086.528-1.086 1.18 0 .651.487 1.179 1.086 1.179zm14.38-5.365c.019 0 .033-.017.033-.037 0-.02-.014-.036-.033-.036-.018 0-.033.016-.033.036 0 .02.015.037.033.037zm14.558-3.432c.018 0 .033-.016.033-.036 0-.02-.015-.037-.033-.037-.018 0-.033.017-.033.037 0 .02.015.036.033.036zm14.7-2.632c.018 0 .033-.016.033-.036 0-.02-.015-.037-.033-.037-.019 0-.034.017-.034.037 0 .02.015.036.034.036zm14.802-1.827c.018 0 .033-.016.033-.036 0-.02-.015-.037-.033-.037-.019 0-.034.017-.034.037 0 .02.015.036.034.036zm14.867-1.016c.018 0 .033-.017.033-.037 0-.02-.015-.036-.033-.036-.019 0-.034.016-.034.036 0 .02.015.037.034.037zM319.537 351.574c1.053 0 1.906-.928 1.906-2.072 0-1.144-.853-2.072-1.906-2.072-1.054 0-1.907.928-1.907 2.072 0 1.144.853 2.072 1.907 2.072zm4.604-15.395c1.053 0 1.906-.928 1.906-2.072 0-1.144-.853-2.072-1.906-2.072-1.054 0-1.907.928-1.907 2.072 0 1.144.853 2.072 1.907 2.072zm5.282-15.135c1.053 0 1.907-.928 1.907-2.072 0-1.145-.854-2.072-1.907-2.072s-1.907.927-1.907 2.072c0 1.144.854 2.072 1.907 2.072zm5.949-14.841c1.053 0 1.907-.927 1.907-2.072 0-1.144-.854-2.072-1.907-2.072s-1.907.928-1.907 2.072c0 1.145.854 2.072 1.907 2.072zm6.603-14.511c1.053 0 1.907-.927 1.907-2.072 0-1.144-.854-2.072-1.907-2.072s-1.907.928-1.907 2.072c0 1.145.854 2.072 1.907 2.072zm7.239-14.219c1.017 0 1.841-.896 1.841-2 0-1.105-.824-2.001-1.841-2.001s-1.841.896-1.841 2.001c0 1.104.824 2 1.841 2zm7.862-15.216c.272 0 .493-.239.493-.535 0-.295-.221-.535-.493-.535s-.493.24-.493.535c0 .296.221.535.493.535zm8.461-11.927c.98 0 1.775-.864 1.775-1.929s-.795-1.929-1.775-1.929c-.98 0-1.775.864-1.775 1.929s.795 1.929 1.775 1.929zm9.046-13.398c.708 0 1.283-.624 1.283-1.394 0-.77-.575-1.394-1.283-1.394-.709 0-1.283.624-1.283 1.394 0 .77.574 1.394 1.283 1.394zm9.606-13.73c.019 0 .034-.017.034-.037 0-.02-.015-.036-.034-.036-.018 0-.033.016-.033.036 0 .02.015.037.033.037zm20.805-23.054c.073 0 .132-.064.132-.143 0-.079-.059-.143-.132-.143-.073 0-.132.064-.132.143 0 .079.059.143.132.143zm11.151-8.984c.963 0 1.742-.848 1.742-1.893 0-1.046-.779-1.893-1.742-1.893-.962 0-1.742.847-1.742 1.893 0 1.045.78 1.893 1.742 1.893zm11.614-9.957c1.053 0 1.907-.928 1.907-2.072 0-1.145-.854-2.072-1.907-2.072s-1.907.927-1.907 2.072c0 1.144.854 2.072 1.907 2.072zm12.052-9.516c1.053 0 1.907-.927 1.907-2.072 0-1.144-.854-2.072-1.907-2.072s-1.907.928-1.907 2.072c0 1.145.854 2.072 1.907 2.072zm12.462-8.869c1.053 0 1.906-.928 1.906-2.072 0-1.144-.853-2.072-1.906-2.072s-1.907.928-1.907 2.072c0 1.144.854 2.072 1.907 2.072zm12.84-8.207c1.053 0 1.907-.928 1.907-2.072 0-1.145-.854-2.072-1.907-2.072s-1.907.927-1.907 2.072c0 1.144.854 2.072 1.907 2.072zm13.192-7.523c1.053 0 1.906-.927 1.906-2.072 0-1.144-.853-2.072-1.906-2.072-1.054 0-1.907.928-1.907 2.072 0 1.145.853 2.072 1.907 2.072zm13.509-6.856c1.034 0 1.873-.912 1.873-2.036 0-1.125-.839-2.037-1.873-2.037-1.035 0-1.874.912-1.874 2.037 0 1.124.839 2.036 1.874 2.036zm13.797-6.604c.782 0 1.415-.689 1.415-1.537 0-.849-.633-1.537-1.415-1.537-.781 0-1.415.688-1.415 1.537 0 .848.634 1.537 1.415 1.537zm14.052-6.839c.037 0 .066-.032.066-.071 0-.04-.029-.072-.066-.072-.036 0-.066.032-.066.072 0 .039.03.071.066.071zm58.101-13.986c.018 0 .033-.016.033-.036 0-.02-.015-.036-.033-.036-.018 0-.033.016-.033.036 0 .02.015.036.033.036zm29.707-2.344c.018 0 .033-.016.033-.036 0-.02-.015-.036-.033-.036-.018 0-.033.016-.033.036 0 .02.015.036.033.036zM309.347 343.721c1.053 0 1.907-.928 1.907-2.072 0-1.144-.854-2.072-1.907-2.072s-1.907.928-1.907 2.072c0 1.144.854 2.072 1.907 2.072zm4.769-15.515c.962 0 1.742-.848 1.742-1.893 0-1.046-.78-1.893-1.742-1.893s-1.742.847-1.742 1.893c0 1.045.78 1.893 1.742 1.893zm5.419-15.365c.817 0 1.479-.719 1.479-1.606 0-.888-.662-1.607-1.479-1.607-.817 0-1.479.719-1.479 1.607 0 .887.662 1.606 1.479 1.606zm6.06-15.609c.4 0 .723-.352.723-.786 0-.433-.323-.785-.723-.785-.4 0-.723.352-.723.785 0 .434.323.786.723.786zm6.685-13.285c.998 0 1.808-.88 1.808-1.965s-.81-1.965-1.808-1.965c-.999 0-1.808.88-1.808 1.965s.809 1.965 1.808 1.965zm7.298-14.005c1.053 0 1.907-.928 1.907-2.072 0-1.144-.854-2.072-1.907-2.072s-1.907.928-1.907 2.072c0 1.144.854 2.072 1.907 2.072zm7.894-15.336c.237 0 .429-.208.429-.465s-.192-.465-.429-.465c-.236 0-.428.208-.428.465s.192.465.428.465zm8.473-11.705c1.053 0 1.907-.928 1.907-2.072 0-1.145-.854-2.072-1.907-2.072s-1.907.927-1.907 2.072c0 1.144.854 2.072 1.907 2.072zm9.036-12.908c1.034 0 1.873-.912 1.873-2.036 0-1.125-.839-2.036-1.873-2.036-1.035 0-1.874.911-1.874 2.036 0 1.124.839 2.036 1.874 2.036zm9.575-14.042c.201 0 .363-.177.363-.394 0-.217-.162-.394-.363-.394-.2 0-.362.177-.362.394 0 .217.162.394.362.394zm31.763-33.794c.363 0 .657-.32.657-.714 0-.394-.294-.714-.657-.714-.364 0-.658.32-.658.714 0 .394.294.714.658.714zm11.521-8.902c1.053 0 1.906-.928 1.906-2.072 0-1.144-.853-2.072-1.906-2.072-1.054 0-1.907.928-1.907 2.072 0 1.144.853 2.072 1.907 2.072zm11.949-9.667c1.054 0 1.907-.928 1.907-2.072 0-1.145-.853-2.072-1.907-2.072-1.053 0-1.906.927-1.906 2.072 0 1.144.853 2.072 1.906 2.072zm12.35-9.052c1.053 0 1.907-.928 1.907-2.072 0-1.145-.854-2.072-1.907-2.072s-1.907.927-1.907 2.072c0 1.144.854 2.072 1.907 2.072zm12.725-8.417c1.054 0 1.907-.928 1.907-2.072 0-1.144-.853-2.072-1.907-2.072-1.053 0-1.906.928-1.906 2.072 0 1.144.853 2.072 1.906 2.072zm13.071-7.765c1.054 0 1.907-.928 1.907-2.072 0-1.145-.853-2.072-1.907-2.072-1.053 0-1.906.927-1.906 2.072 0 1.144.853 2.072 1.906 2.072zm13.389-7.132c1.035 0 1.874-.912 1.874-2.037 0-1.124-.839-2.036-1.874-2.036-1.034 0-1.873.912-1.873 2.036 0 1.125.839 2.037 1.873 2.037zm13.679-6.628c.926 0 1.676-.815 1.676-1.821s-.75-1.822-1.676-1.822c-.926 0-1.676.816-1.676 1.822 0 1.006.75 1.821 1.676 1.821zm13.939-7.461c.037 0 .066-.032.066-.072 0-.039-.029-.071-.066-.071-.036 0-.066.032-.066.071 0 .04.03.072.066.072zm72.517-17.745c.018 0 .033-.017.033-.037 0-.02-.015-.036-.033-.036-.019 0-.033.017-.033.037 0 .02.014.036.033.036zm14.848-1.318c.018 0 .033-.015.033-.035 0-.02-.015-.036-.033-.036-.019 0-.034.016-.034.036 0 .02.015.036.034.036zm-301.39 253.318c1.054 0 1.907-.928 1.907-2.072 0-1.144-.853-2.072-1.907-2.072-1.053 0-1.906.928-1.906 2.072 0 1.144.853 2.072 1.906 2.072zm4.285-15.504c1.053 0 1.907-.928 1.907-2.072 0-1.144-.854-2.072-1.907-2.072s-1.907.928-1.907 2.072c0 1.144.854 2.072 1.907 2.072zm4.92-15.386c.999 0 1.808-.88 1.808-1.965s-.809-1.964-1.808-1.964c-.998 0-1.808.879-1.808 1.964s.81 1.965 1.808 1.965zm5.547-16.275c.363 0 .657-.32.657-.714 0-.395-.294-.714-.657-.714-.363 0-.658.319-.658.714 0 .394.295.714.658.714zm12.924-29.661c.109 0 .198-.096.198-.215 0-.118-.089-.215-.198-.215-.109 0-.198.097-.198.215 0 .119.089.215.198.215zm7.353-13.436c.436 0 .789-.383.789-.857 0-.473-.353-.857-.789-.857-.436 0-.79.384-.79.857 0 .474.354.857.79.857zm7.925-13.922c.327 0 .592-.288.592-.642 0-.355-.265-.643-.592-.643-.327 0-.592.288-.592.643 0 .354.265.642.592.642zm8.484-13.378c.29 0 .526-.256.526-.571 0-.315-.236-.571-.526-.571-.291 0-.527.256-.527.571 0 .315.236.571.527.571zm9.024-11.949c.763 0 1.382-.672 1.382-1.501 0-.829-.619-1.502-1.382-1.502-.763 0-1.382.673-1.382 1.502s.619 1.501 1.382 1.501zm9.548-12.425c.763 0 1.382-.672 1.382-1.501 0-.829-.619-1.501-1.382-1.501-.763 0-1.382.672-1.382 1.501 0 .829.619 1.501 1.382 1.501zm31.581-35.71c.054 0 .099-.048.099-.108 0-.059-.045-.107-.099-.107-.055 0-.099.048-.099.107 0 .06.044.108.099.108zm11.434-8.41c1.053 0 1.906-.927 1.906-2.072 0-1.144-.853-2.072-1.906-2.072-1.054 0-1.907.928-1.907 2.072 0 1.145.853 2.072 1.907 2.072zm11.854-9.807c1.053 0 1.907-.927 1.907-2.072 0-1.144-.854-2.072-1.907-2.072s-1.907.928-1.907 2.072c0 1.145.854 2.072 1.907 2.072zm12.244-9.218c1.053 0 1.907-.928 1.907-2.072 0-1.144-.854-2.072-1.907-2.072s-1.907.928-1.907 2.072c0 1.144.854 2.072 1.907 2.072zm12.615-8.612c1.053 0 1.907-.927 1.907-2.072 0-1.144-.854-2.072-1.907-2.072s-1.907.928-1.907 2.072c0 1.145.854 2.072 1.907 2.072zm12.956-8.132c.98 0 1.775-.864 1.775-1.929s-.795-1.929-1.775-1.929c-.98 0-1.775.864-1.775 1.929s.795 1.929 1.775 1.929zm13.274-7.74c.781 0 1.415-.689 1.415-1.537 0-.849-.634-1.537-1.415-1.537s-1.415.688-1.415 1.537c0 .848.634 1.537 1.415 1.537zm13.564-7.768c.236 0 .428-.208.428-.465s-.192-.465-.428-.465c-.237 0-.429.208-.429.465s.192.465.429.465zM284.647 343.51c1.054 0 1.907-.928 1.907-2.072 0-1.145-.853-2.072-1.907-2.072-1.053 0-1.906.927-1.906 2.072 0 1.144.853 2.072 1.906 2.072zm4.45-15.449c1.053 0 1.906-.928 1.906-2.072 0-1.144-.853-2.072-1.906-2.072-1.054 0-1.907.928-1.907 2.072 0 1.144.853 2.072 1.907 2.072zm5.062-15.225c1.053 0 1.906-.927 1.906-2.072 0-1.144-.853-2.072-1.906-2.072-1.054 0-1.907.928-1.907 2.072 0 1.145.853 2.072 1.907 2.072zm5.663-16.509c.272 0 .493-.24.493-.535 0-.296-.221-.535-.493-.535s-.493.239-.493.535c0 .295.221.535.493.535zm20.492-43.229c.219 0 .396-.192.396-.43 0-.237-.177-.429-.396-.429-.218 0-.395.192-.395.429 0 .238.177.43.395.43zm7.955-14.079c.018 0 .033-.016.033-.036 0-.02-.015-.036-.033-.036-.018 0-.033.016-.033.036 0 .02.015.036.033.036zm8.493-13.157c.091 0 .165-.081.165-.179 0-.099-.074-.179-.165-.179-.091 0-.165.08-.165.179 0 .098.074.179.165.179zm9.016-11.922c.582 0 1.053-.512 1.053-1.144 0-.631-.471-1.143-1.053-1.143-.581 0-1.053.512-1.053 1.143 0 .632.472 1.144 1.053 1.144zm9.521-12.307c.655 0 1.185-.576 1.185-1.286 0-.711-.53-1.287-1.185-1.287-.654 0-1.185.576-1.185 1.287 0 .71.531 1.286 1.185 1.286zm31.411-34.612c.6 0 1.086-.528 1.086-1.179s-.486-1.179-1.086-1.179c-.599 0-1.085.528-1.085 1.179s.486 1.179 1.085 1.179zm11.353-9.587c1.054 0 1.907-.927 1.907-2.072 0-1.144-.853-2.072-1.907-2.072-1.053 0-1.906.928-1.906 2.072 0 1.145.853 2.072 1.906 2.072zm11.762-9.934c1.054 0 1.907-.927 1.907-2.072 0-1.144-.853-2.072-1.907-2.072-1.053 0-1.906.928-1.906 2.072 0 1.145.853 2.072 1.906 2.072zm12.146-9.372c1.053 0 1.907-.927 1.907-2.072 0-1.144-.854-2.072-1.907-2.072s-1.907.928-1.907 2.072c0 1.145.854 2.072 1.907 2.072zm12.51-9.47c.709 0 1.283-.624 1.283-1.394 0-.77-.574-1.394-1.283-1.394s-1.283.624-1.283 1.394c0 .77.574 1.394 1.283 1.394zm12.847-9.446c.073 0 .132-.064.132-.143 0-.079-.059-.143-.132-.143-.073 0-.132.064-.132.143 0 .079.059.143.132.143zM270.417 351.237c1.053 0 1.907-.927 1.907-2.072 0-1.144-.854-2.071-1.907-2.071s-1.907.927-1.907 2.071c0 1.145.854 2.072 1.907 2.072zm4.006-15.591c1.054 0 1.907-.928 1.907-2.072 0-1.145-.853-2.072-1.907-2.072-1.053 0-1.906.927-1.906 2.072 0 1.144.853 2.072 1.906 2.072zm4.604-15.395c1.054 0 1.907-.928 1.907-2.072 0-1.144-.853-2.072-1.907-2.072-1.053 0-1.906.928-1.906 2.072 0 1.144.853 2.072 1.906 2.072zm5.192-15.173c1.053 0 1.907-.928 1.907-2.072 0-1.144-.854-2.072-1.907-2.072s-1.907.928-1.907 2.072c0 1.144.854 2.072 1.907 2.072zm5.774-16.637c.182 0 .33-.16.33-.358 0-.197-.148-.357-.33-.357-.182 0-.33.16-.33.357 0 .198.148.358.33.358zm20.693-41.833c.782 0 1.415-.688 1.415-1.537s-.633-1.537-1.415-1.537c-.781 0-1.415.688-1.415 1.537s.634 1.537 1.415 1.537zm7.983-14.277c.473 0 .856-.415.856-.928 0-.513-.383-.929-.856-.929-.472 0-.855.416-.855.929 0 .513.383.928.855.928zm8.502-13.22c.509 0 .921-.448.921-1.001 0-.552-.412-1-.921-1-.509 0-.921.448-.921 1 0 .553.412 1.001.921 1.001zm9.007-12.536c.69 0 1.25-.608 1.25-1.358 0-.75-.56-1.358-1.25-1.358-.691 0-1.25.608-1.25 1.358 0 .75.559 1.358 1.25 1.358zm9.496-12.437c.709 0 1.283-.624 1.283-1.394 0-.77-.574-1.394-1.283-1.394s-1.283.624-1.283 1.394c0 .77.574 1.394 1.283 1.394zm31.252-34.963c.564 0 1.02-.496 1.02-1.107 0-.612-.456-1.108-1.02-1.108-.563 0-1.02.496-1.02 1.108 0 .611.457 1.107 1.02 1.107zm11.276-9.757c.98 0 1.775-.863 1.775-1.928 0-1.066-.795-1.929-1.775-1.929-.981 0-1.775.863-1.775 1.929 0 1.065.794 1.928 1.775 1.928zm11.676-10.018c.999 0 1.808-.879 1.808-1.964s-.809-1.965-1.808-1.965c-.998 0-1.808.88-1.808 1.965s.81 1.964 1.808 1.964zm12.052-9.873c.817 0 1.479-.719 1.479-1.607 0-.887-.662-1.607-1.479-1.607-.817 0-1.479.72-1.479 1.607 0 .888.662 1.607 1.479 1.607zm12.407-10.458c.055 0 .099-.048.099-.108 0-.059-.044-.107-.099-.107-.054 0-.099.048-.099.107 0 .06.045.108.099.108zM256.483 359.048c1.053 0 1.907-.928 1.907-2.072 0-1.145-.854-2.072-1.907-2.072s-1.907.927-1.907 2.072c0 1.144.854 2.072 1.907 2.072zm3.588-15.71c1.053 0 1.907-.928 1.907-2.072 0-1.145-.854-2.072-1.907-2.072s-1.907.927-1.907 2.072c0 1.144.854 2.072 1.907 2.072zm4.171-15.542c1.053 0 1.907-.927 1.907-2.072 0-1.144-.854-2.072-1.907-2.072s-1.907.928-1.907 2.072c0 1.145.854 2.072 1.907 2.072zm4.747-15.343c1.054 0 1.907-.927 1.907-2.072 0-1.144-.853-2.072-1.907-2.072-1.053 0-1.906.928-1.906 2.072 0 1.145.853 2.072 1.906 2.072zm5.316-15.123c1.053 0 1.907-.927 1.907-2.072 0-1.144-.854-2.072-1.907-2.072s-1.907.928-1.907 2.072c0 1.145.854 2.072 1.907 2.072zm5.876-16.59c.182 0 .329-.16.329-.358 0-.197-.147-.357-.329-.357-.183 0-.33.16-.33.357 0 .198.147.358.33.358zm13.389-28.666c.308 0 .559-.271.559-.606 0-.335-.251-.607-.559-.607-.309 0-.559.272-.559.607 0 .335.25.606.559.606zm7.492-12.884c.871 0 1.578-.768 1.578-1.714 0-.947-.707-1.715-1.578-1.715-.872 0-1.578.768-1.578 1.715 0 .946.706 1.714 1.578 1.714zm8.007-13.507c.944 0 1.709-.832 1.709-1.858 0-1.025-.765-1.857-1.709-1.857-.944 0-1.71.832-1.71 1.857 0 1.026.766 1.858 1.71 1.858zm8.51-13.751c.709 0 1.283-.624 1.283-1.394 0-.77-.574-1.394-1.283-1.394s-1.283.624-1.283 1.394c0 .77.574 1.394 1.283 1.394zm8.998-12.258c1.035 0 1.874-.912 1.874-2.036 0-1.125-.839-2.037-1.874-2.037-1.034 0-1.873.912-1.873 2.037 0 1.124.839 2.036 1.873 2.036zm9.475-13.493c.527 0 .954-.464.954-1.036 0-.572-.427-1.036-.954-1.036-.527 0-.955.464-.955 1.036 0 .572.428 1.036.955 1.036zm9.93-12.924c.091 0 .165-.08.165-.179 0-.099-.074-.179-.165-.179-.091 0-.165.08-.165.179 0 .099.074.179.165.179zm10.374-11.762c.018 0 .033-.016.033-.036 0-.02-.015-.036-.033-.036-.019 0-.033.016-.033.036 0 .02.014.036.033.036zm10.797-11.082c.054 0 .099-.048.099-.107s-.045-.108-.099-.108c-.055 0-.099.049-.099.108s.044.107.099.107zm11.204-10.309c.237 0 .429-.209.429-.466s-.192-.465-.429-.465-.429.208-.429.465.192.466.429.466zm11.594-9.775c.436 0 .789-.384.789-.857 0-.474-.353-.857-.789-.857-.436 0-.79.383-.79.857 0 .473.354.857.79.857zm11.963-10.112c.2 0 .363-.176.363-.393 0-.218-.163-.394-.363-.394-.201 0-.363.176-.363.394 0 .217.162.393.363.393zm-155.9 230.897c1.053 0 1.907-.928 1.907-2.072 0-1.144-.854-2.072-1.907-2.072s-1.907.928-1.907 2.072c0 1.144.854 2.072 1.907 2.072zm3.761-15.663c1.053 0 1.907-.928 1.907-2.072 0-1.145-.854-2.072-1.907-2.072s-1.907.927-1.907 2.072c0 1.144.854 2.072 1.907 2.072zm4.325-15.492c1.054 0 1.907-.927 1.907-2.072 0-1.144-.853-2.072-1.907-2.072-1.053 0-1.906.928-1.906 2.072 0 1.145.853 2.072 1.906 2.072zm4.881-15.293c1.053 0 1.907-.927 1.907-2.072 0-1.144-.854-2.072-1.907-2.072s-1.907.928-1.907 2.072c0 1.145.854 2.072 1.907 2.072zm5.429-15.074c1.053 0 1.907-.928 1.907-2.072 0-1.145-.854-2.072-1.907-2.072s-1.907.927-1.907 2.072c0 1.144.854 2.072 1.907 2.072zm5.971-15.153c.89 0 1.611-.784 1.611-1.75 0-.967-.721-1.75-1.611-1.75-.889 0-1.61.783-1.61 1.75 0 .966.721 1.75 1.61 1.75zm6.501-14.422c.962 0 1.742-.848 1.742-1.893 0-1.046-.78-1.893-1.742-1.893s-1.742.847-1.742 1.893c0 1.045.78 1.893 1.742 1.893zm7.023-14.098c1.053 0 1.906-.927 1.906-2.072 0-1.144-.853-2.072-1.906-2.072s-1.907.928-1.907 2.072c0 1.145.854 2.072 1.907 2.072zm7.533-13.967c1.053 0 1.907-.927 1.907-2.072 0-1.144-.854-2.072-1.907-2.072s-1.907.928-1.907 2.072c0 1.145.854 2.072 1.907 2.072zm8.031-13.775c.98 0 1.775-.864 1.775-1.929s-.795-1.929-1.775-1.929c-.981 0-1.775.864-1.775 1.929s.794 1.929 1.775 1.929zm8.518-14.533c.345 0 .625-.304.625-.678 0-.375-.28-.678-.625-.678s-.624.303-.624.678c0 .374.279.678.624.678zm8.993-12.047c.781 0 1.415-.688 1.415-1.537s-.634-1.537-1.415-1.537c-.782 0-1.415.688-1.415 1.537s.633 1.537 1.415 1.537zm9.45-13.48c.291 0 .526-.256.526-.571 0-.315-.235-.571-.526-.571-.29 0-.526.256-.526.571 0 .315.236.571.526.571zm9.896-11.743c.473 0 .856-.416.856-.929 0-.513-.383-.929-.856-.929-.472 0-.855.416-.855.929 0 .513.383.929.855.929zm10.326-11.06c.782 0 1.415-.688 1.415-1.537s-.633-1.537-1.415-1.537c-.781 0-1.415.688-1.415 1.537s.634 1.537 1.415 1.537zm10.738-11.115c.835 0 1.512-.735 1.512-1.642 0-.908-.677-1.643-1.512-1.643s-1.512.735-1.512 1.643c0 .907.677 1.642 1.512 1.642zm11.136-10.396c1.017 0 1.841-.895 1.841-2s-.824-2-1.841-2-1.841.895-1.841 2 .824 2 1.841 2zm11.517-10.376c.962 0 1.742-.847 1.742-1.893 0-1.045-.78-1.893-1.742-1.893-.963 0-1.743.848-1.743 1.893 0 1.046.78 1.893 1.743 1.893zM391.92 111.8c.018 0 .033-.016.033-.036 0-.02-.015-.037-.033-.037-.018 0-.033.017-.033.037 0 .02.015.036.033.036zm282.349-73.655c.018 0 .033-.017.033-.037 0-.02-.015-.036-.033-.036-.019 0-.034.016-.034.036 0 .02.015.037.034.037zM232.225 358.962c1.053 0 1.906-.928 1.906-2.072 0-1.144-.853-2.072-1.906-2.072s-1.907.928-1.907 2.072c0 1.144.854 2.072 1.907 2.072zm3.374-15.767c1.053 0 1.907-.928 1.907-2.072 0-1.145-.854-2.072-1.907-2.072s-1.907.927-1.907 2.072c0 1.144.854 2.072 1.907 2.072zm3.924-15.617c1.053 0 1.906-.928 1.906-2.072 0-1.144-.853-2.072-1.906-2.072-1.054 0-1.907.928-1.907 2.072 0 1.144.853 2.072 1.907 2.072zm4.469-15.441c1.053 0 1.906-.928 1.906-2.072 0-1.145-.853-2.072-1.906-2.072s-1.907.927-1.907 2.072c0 1.144.854 2.072 1.907 2.072zm5.007-15.247c1.053 0 1.907-.928 1.907-2.072 0-1.144-.854-2.072-1.907-2.072s-1.907.928-1.907 2.072c0 1.144.854 2.072 1.907 2.072zm5.536-15.03c1.053 0 1.907-.927 1.907-2.072 0-1.144-.854-2.072-1.907-2.072s-1.907.928-1.907 2.072c0 1.145.854 2.072 1.907 2.072zm6.06-14.788c1.053 0 1.907-.928 1.907-2.072 0-1.144-.854-2.072-1.907-2.072s-1.907.928-1.907 2.072c0 1.144.854 2.072 1.907 2.072zm6.573-14.527c1.053 0 1.907-.928 1.907-2.072 0-1.144-.854-2.072-1.907-2.072s-1.907.928-1.907 2.072c0 1.144.854 2.072 1.907 2.072zm7.078-14.244c1.053 0 1.906-.928 1.906-2.072 0-1.145-.853-2.072-1.906-2.072-1.054 0-1.907.927-1.907 2.072 0 1.144.853 2.072 1.907 2.072zm7.571-14.299c.872 0 1.578-.767 1.578-1.714 0-.946-.706-1.714-1.578-1.714-.871 0-1.578.768-1.578 1.714 0 .947.707 1.714 1.578 1.714zm8.054-13.439c.962 0 1.742-.847 1.742-1.893 0-1.045-.78-1.893-1.742-1.893-.963 0-1.743.848-1.743 1.893 0 1.046.78 1.893 1.743 1.893zm8.526-14.811c.183 0 .33-.161.33-.358 0-.198-.147-.358-.33-.358-.182 0-.329.16-.329.358 0 .197.147.358.329.358zm8.985-12.522c.381 0 .69-.335.69-.749s-.309-.75-.69-.75c-.382 0-.691.336-.691.75s.309.749.691.749zm9.43-12.136c.582 0 1.053-.512 1.053-1.144 0-.631-.471-1.143-1.053-1.143-.581 0-1.053.512-1.053 1.143 0 .632.472 1.144 1.053 1.144zm9.862-12.026c.636 0 1.152-.56 1.152-1.251 0-.69-.516-1.25-1.152-1.25-.636 0-1.152.56-1.152 1.25 0 .691.516 1.251 1.152 1.251zm10.281-11.36c.817 0 1.48-.719 1.48-1.607 0-.887-.663-1.607-1.48-1.607s-1.479.72-1.479 1.607c0 .888.662 1.607 1.479 1.607zm10.684-11.602c.655 0 1.185-.576 1.185-1.286 0-.711-.53-1.287-1.185-1.287-.654 0-1.185.576-1.185 1.287 0 .71.531 1.286 1.185 1.286zm11.069-10.225c.963 0 1.743-.848 1.743-1.893 0-1.046-.78-1.894-1.743-1.894-.962 0-1.742.848-1.742 1.894 0 1.045.78 1.893 1.742 1.893zm11.444-11.618c.327 0 .592-.288.592-.643 0-.354-.265-.642-.592-.642-.327 0-.592.288-.592.642 0 .355.265.643.592.643zm36.387-28.762c.018 0 .033-.016.033-.036 0-.02-.015-.036-.033-.036-.018 0-.033.016-.033.036 0 .02.015.036.033.036zm12.758-8.359c.019 0 .034-.017.034-.036 0-.02-.015-.037-.034-.037-.018 0-.033.016-.033.037 0 .02.015.036.033.036zm13.042-7.825c.018 0 .033-.016.033-.036 0-.02-.015-.036-.033-.036-.019 0-.034.016-.034.036 0 .02.015.036.034.036zm230.876-45.88c.018 0 .033-.017.033-.037 0-.02-.015-.036-.033-.036-.018 0-.033.016-.033.036 0 .02.015.037.033.037zm14.746 2.304c.018 0 .033-.016.033-.036 0-.02-.015-.036-.033-.036-.019 0-.034.016-.034.036 0 .02.015.036.034.036zm14.655 2.911c.018 0 .033-.016.033-.036 0-.02-.015-.036-.033-.036-.019 0-.033.016-.033.036 0 .02.014.036.033.036zm-470.925 322.36c1.053 0 1.907-.928 1.907-2.072 0-1.144-.854-2.072-1.907-2.072s-1.907.928-1.907 2.072c0 1.144.854 2.072 1.907 2.072zm3.544-15.722c1.053 0 1.906-.928 1.906-2.072 0-1.145-.853-2.072-1.906-2.072s-1.907.927-1.907 2.072c0 1.144.854 2.072 1.907 2.072zm4.077-15.571c1.053 0 1.907-.927 1.907-2.072 0-1.144-.854-2.072-1.907-2.072s-1.907.928-1.907 2.072c0 1.145.854 2.072 1.907 2.072zm4.604-15.396c1.053 0 1.907-.928 1.907-2.072 0-1.144-.854-2.072-1.907-2.072s-1.907.928-1.907 2.072c0 1.144.854 2.072 1.907 2.072zm5.124-15.2c1.053 0 1.907-.928 1.907-2.072 0-1.144-.854-2.072-1.907-2.072s-1.907.928-1.907 2.072c0 1.144.854 2.072 1.907 2.072zm5.637-14.983c1.053 0 1.907-.928 1.907-2.072 0-1.145-.854-2.072-1.907-2.072s-1.907.927-1.907 2.072c0 1.144.854 2.072 1.907 2.072zm6.143-14.749c1.053 0 1.907-.928 1.907-2.072 0-1.145-.854-2.072-1.907-2.072s-1.907.927-1.907 2.072c0 1.144.854 2.072 1.907 2.072zm6.641-14.456c1.072 0 1.94-.944 1.94-2.108 0-1.164-.868-2.107-1.94-2.107-1.071 0-1.94.943-1.94 2.107 0 1.164.869 2.108 1.94 2.108zm7.129-14.321c1.016 0 1.841-.896 1.841-2.001 0-1.104-.825-2-1.841-2-1.017 0-1.841.896-1.841 2 0 1.105.824 2.001 1.841 2.001zm7.608-14.991c.472 0 .855-.416.855-.928 0-.513-.383-.929-.855-.929s-.855.416-.855.929c0 .512.383.928.855.928zm8.075-13.709c.418 0 .756-.368.756-.821 0-.454-.338-.822-.756-.822s-.757.368-.757.822c0 .453.339.821.757.821zm8.533-13.128c.49 0 .888-.432.888-.964 0-.533-.398-.965-.888-.965-.491 0-.888.432-.888.965 0 .532.397.964.888.964zm8.977-13.062c.418 0 .757-.367.757-.821 0-.454-.339-.821-.757-.821s-.756.367-.756.821c0 .454.338.821.756.821zm9.411-12.047c.673 0 1.218-.592 1.218-1.322 0-.73-.545-1.322-1.218-1.322-.672 0-1.218.592-1.218 1.322 0 .73.546 1.322 1.218 1.322zm9.832-13.02c.237 0 .429-.209.429-.466s-.192-.465-.429-.465-.429.208-.429.465.192.466.429.466zm10.237-11.189c.527 0 .955-.463.955-1.036 0-.572-.428-1.036-.955-1.036-.527 0-.954.464-.954 1.036 0 .573.427 1.036.954 1.036zm10.631-11.125c.636 0 1.152-.56 1.152-1.251 0-.691-.516-1.251-1.152-1.251-.636 0-1.152.56-1.152 1.251 0 .691.516 1.251 1.152 1.251zm11.01-11.586c.29 0 .526-.256.526-.571 0-.315-.236-.571-.526-.571-.291 0-.527.256-.527.571 0 .315.236.571.527.571zm47.513-39.522c.018 0 .033-.016.033-.037 0-.02-.015-.036-.033-.036-.018 0-.033.016-.033.036 0 .02.015.037.033.037zm12.666-8.523c.019 0 .033-.016.033-.036 0-.02-.014-.036-.033-.036-.018 0-.033.016-.033.036 0 .02.015.036.033.036zm12.948-8.007c.018 0 .033-.016.033-.036 0-.02-.015-.036-.033-.036-.019 0-.034.016-.034.036 0 .02.015.036.034.036zm13.211-7.482c.018 0 .033-.017.033-.036 0-.02-.015-.037-.033-.037-.018 0-.033.017-.033.037 0 .02.015.036.033.036zm13.456-6.946c.018 0 .033-.017.033-.037 0-.02-.015-.036-.033-.036-.018 0-.033.017-.033.036 0 .02.015.037.033.037zm13.684-6.403c.018 0 .033-.016.033-.036 0-.02-.015-.036-.033-.036-.019 0-.034.016-.034.036 0 .02.015.036.034.036zm204.536-28.912c.019 0 .034-.016.034-.036 0-.02-.015-.036-.034-.036-.018 0-.033.016-.033.036 0 .02.015.036.033.036zm14.736 2.385c.019 0 .033-.016.033-.036 0-.02-.014-.037-.033-.037-.018 0-.033.017-.033.037 0 .02.015.036.033.036zm14.643 2.973a.034.034 0 00.034-.035c0-.02-.015-.037-.034-.037-.018 0-.033.017-.033.037 0 .02.015.036.033.036zm-488.27 342.57c1.053 0 1.907-.927 1.907-2.072 0-1.144-.854-2.072-1.907-2.072s-1.906.928-1.906 2.072c0 1.145.853 2.072 1.906 2.072zm3.185-15.813c1.053 0 1.907-.928 1.907-2.072 0-1.145-.854-2.072-1.907-2.072s-1.907.927-1.907 2.072c0 1.144.854 2.072 1.907 2.072zm3.705-15.68c1.053 0 1.907-.927 1.907-2.072 0-1.144-.854-2.072-1.907-2.072s-1.907.928-1.907 2.072c0 1.145.854 2.072 1.907 2.072zm4.22-15.525c1.053 0 1.907-.928 1.907-2.072 0-1.145-.854-2.072-1.907-2.072s-1.907.927-1.907 2.072c0 1.144.854 2.072 1.907 2.072zm4.731-15.35c1.053 0 1.907-.928 1.907-2.072 0-1.145-.854-2.072-1.907-2.072s-1.907.927-1.907 2.072c0 1.144.854 2.072 1.907 2.072zm5.235-15.155c1.053 0 1.907-.928 1.907-2.072 0-1.145-.854-2.072-1.907-2.072s-1.907.927-1.907 2.072c0 1.144.854 2.072 1.907 2.072zm5.732-15.014c1.016 0 1.841-.896 1.841-2.001s-.825-2-1.841-2c-1.017 0-1.841.895-1.841 2s.824 2.001 1.841 2.001zm6.222-14.746c.999 0 1.808-.879 1.808-1.964s-.809-1.965-1.808-1.965c-.998 0-1.808.88-1.808 1.965s.81 1.964 1.808 1.964zm6.704-14.455c.998 0 1.808-.88 1.808-1.965s-.81-1.965-1.808-1.965c-.999 0-1.808.88-1.808 1.965s.809 1.965 1.808 1.965zm7.178-14.613c.781 0 1.415-.688 1.415-1.537s-.634-1.537-1.415-1.537-1.415.688-1.415 1.537.634 1.537 1.415 1.537zm7.641-14.613c.418 0 .756-.368.756-.821 0-.454-.338-.822-.756-.822s-.757.368-.757.822c0 .453.339.821.757.821zm8.094-14.017c.201 0 .363-.177.363-.394 0-.217-.162-.394-.363-.394-.2 0-.362.177-.362.394 0 .217.162.394.362.394zm8.54-12.48c.6 0 1.086-.528 1.086-1.18 0-.651-.486-1.179-1.086-1.179-.599 0-1.086.528-1.086 1.179 0 .652.487 1.18 1.086 1.18zm8.971-13.318c.399 0 .723-.352.723-.785 0-.434-.324-.786-.723-.786-.4 0-.724.352-.724.786 0 .433.324.785.724.785zm9.392-12.385c.491 0 .889-.432.889-.965 0-.532-.398-.964-.889-.964-.49 0-.888.432-.888.964 0 .533.398.965.888.965zm9.803-12.477c.345 0 .624-.304.624-.678 0-.375-.279-.678-.624-.678s-.625.303-.625.678c0 .374.28.678.625.678zm10.197-11.015c.745 0 1.349-.656 1.349-1.465s-.604-1.466-1.349-1.466-1.349.657-1.349 1.466c0 .809.604 1.465 1.349 1.465zm10.582-11.966c.454 0 .822-.4.822-.893s-.368-.893-.822-.893c-.454 0-.822.4-.822.893s.368.893.822.893zM398.9 60.337c.019 0 .034-.016.034-.036 0-.02-.015-.036-.034-.036-.018 0-.033.016-.033.036 0 .02.015.036.033.036zm12.857-8.179c.019 0 .033-.016.033-.036 0-.02-.014-.036-.033-.036-.018 0-.033.016-.033.036 0 .02.015.036.033.036zm13.119-7.671c.018 0 .033-.016.033-.036 0-.02-.015-.036-.033-.036-.018 0-.033.016-.033.036 0 .02.015.036.033.036zm13.364-7.153c.019 0 .034-.016.034-.036 0-.02-.015-.036-.034-.036-.018 0-.033.016-.033.036 0 .02.015.036.033.036zm13.592-6.629c.018 0 .033-.017.033-.036 0-.02-.015-.037-.033-.037-.019 0-.034.016-.034.037 0 .02.015.036.034.036zm13.8-6.095c.019 0 .034-.016.034-.036 0-.02-.015-.036-.034-.036-.018 0-.033.016-.033.036 0 .02.015.036.033.036zm13.995-5.552c.019 0 .033-.016.033-.036 0-.02-.014-.036-.033-.036-.018 0-.033.016-.033.036 0 .02.015.036.033.036zM685.344.961c.019 0 .034-.016.034-.036 0-.02-.015-.036-.034-.036-.018 0-.033.016-.033.036 0 .02.015.036.033.036zm14.634 3.033c.018 0 .033-.016.033-.036 0-.02-.015-.036-.033-.036-.018 0-.033.016-.033.036 0 .02.015.036.033.036zM197.434 350.926c1.054 0 1.907-.927 1.907-2.072 0-1.144-.853-2.072-1.907-2.072-1.053 0-1.906.928-1.906 2.072 0 1.145.853 2.072 1.906 2.072zm3.351-15.772c1.054 0 1.907-.928 1.907-2.072 0-1.144-.853-2.072-1.907-2.072-1.053 0-1.906.928-1.906 2.072 0 1.144.853 2.072 1.906 2.072zm3.857-15.637c1.053 0 1.907-.927 1.907-2.072 0-1.144-.854-2.072-1.907-2.072s-1.907.928-1.907 2.072c0 1.145.854 2.072 1.907 2.072zm4.355-15.48c1.053 0 1.907-.928 1.907-2.072 0-1.145-.854-2.072-1.907-2.072s-1.907.927-1.907 2.072c0 1.144.854 2.072 1.907 2.072zm4.851-15.344c1.035 0 1.874-.911 1.874-2.036 0-1.124-.839-2.036-1.874-2.036-1.035 0-1.874.912-1.874 2.036 0 1.125.839 2.036 1.874 2.036zm5.339-15.183c.998 0 1.808-.88 1.808-1.965s-.81-1.964-1.808-1.964c-.999 0-1.808.879-1.808 1.964s.809 1.965 1.808 1.965zm5.821-14.865c1.016 0 1.841-.896 1.841-2.001s-.825-2-1.841-2c-1.017 0-1.841.895-1.841 2s.824 2.001 1.841 2.001zm6.296-14.708c.999 0 1.808-.88 1.808-1.965s-.809-1.965-1.808-1.965c-.998 0-1.808.88-1.808 1.965s.81 1.965 1.808 1.965zm6.763-14.424c.999 0 1.808-.879 1.808-1.964s-.809-1.965-1.808-1.965-1.808.88-1.808 1.965.809 1.964 1.808 1.964zm7.223-14.621c.763 0 1.382-.673 1.382-1.502s-.619-1.501-1.382-1.501c-.763 0-1.382.672-1.382 1.501 0 .829.619 1.502 1.382 1.502zm7.673-13.413c.998 0 1.808-.88 1.808-1.965s-.81-1.964-1.808-1.964c-.999 0-1.808.879-1.808 1.964s.809 1.965 1.808 1.965zm8.113-15.363c.091 0 .165-.08.165-.179 0-.098-.074-.178-.165-.178-.091 0-.165.08-.165.178 0 .099.074.179.165.179zm8.546-13.402c.019 0 .033-.016.033-.036 0-.02-.014-.037-.033-.037-.018 0-.033.017-.033.037 0 .02.015.036.033.036zm8.966-12.143c.418 0 .757-.368.757-.821 0-.454-.339-.822-.757-.822-.417 0-.756.368-.756.822 0 .453.339.821.756.821zm9.375-13.046c.182 0 .329-.16.329-.357 0-.198-.147-.358-.329-.358-.183 0-.33.16-.33.358 0 .197.147.357.33.357zm9.774-12.109c.237 0 .429-.209.429-.466s-.192-.465-.429-.465-.429.208-.429.465.192.466.429.466zm10.16-11.554c.381 0 .69-.335.69-.749s-.309-.75-.69-.75c-.382 0-.691.336-.691.75s.309.749.691.749zm106.646-88.038c.019 0 .034-.016.034-.036 0-.02-.015-.036-.034-.036-.018 0-.033.016-.033.036 0 .02.015.036.033.036zm13.274-7.349c.018 0 .033-.016.033-.036 0-.02-.015-.036-.033-.036-.018 0-.033.016-.033.036 0 .02.015.036.033.036zm13.502-6.842c.019 0 .034-.016.034-.036 0-.02-.015-.036-.034-.036-.018 0-.033.016-.033.036 0 .02.015.036.033.036zm13.714-6.325c.018 0 .033-.016.033-.036 0-.02-.015-.036-.033-.036-.019 0-.034.016-.034.036 0 .02.015.036.034.036zm13.907-5.801c.019 0 .034-.016.034-.036 0-.02-.015-.036-.034-.036-.018 0-.033.016-.033.036 0 .02.015.036.033.036zm14.087-5.271c.019 0 .034-.016.034-.036 0-.02-.015-.036-.034-.036-.018 0-.033.016-.033.036 0 .02.015.036.033.036zM183.883 358.829c1.053 0 1.906-.927 1.906-2.072 0-1.144-.853-2.072-1.906-2.072-1.054 0-1.907.928-1.907 2.072 0 1.145.853 2.072 1.907 2.072zm3.015-15.853c1.053 0 1.906-.927 1.906-2.071 0-1.145-.853-2.072-1.906-2.072s-1.907.927-1.907 2.072c0 1.144.854 2.071 1.907 2.071zm3.509-15.733c1.053 0 1.906-.927 1.906-2.072 0-1.144-.853-2.072-1.906-2.072-1.054 0-1.907.928-1.907 2.072 0 1.145.853 2.072 1.907 2.072zm3.998-15.593c1.053 0 1.906-.928 1.906-2.072 0-1.144-.853-2.072-1.906-2.072-1.054 0-1.907.928-1.907 2.072 0 1.144.853 2.072 1.907 2.072zm4.483-15.545c.999 0 1.808-.88 1.808-1.965s-.809-1.965-1.808-1.965c-.998 0-1.808.88-1.808 1.965s.81 1.965 1.808 1.965zm4.963-15.265c.999 0 1.808-.879 1.808-1.964s-.809-1.965-1.808-1.965c-.998 0-1.808.88-1.808 1.965s.81 1.964 1.808 1.964zm5.438-15.106c.98 0 1.775-.864 1.775-1.929s-.795-1.929-1.775-1.929c-.981 0-1.776.864-1.776 1.929s.795 1.929 1.776 1.929zm5.905-14.719c1.053 0 1.906-.927 1.906-2.072 0-1.144-.853-2.072-1.906-2.072-1.054 0-1.907.928-1.907 2.072 0 1.145.853 2.072 1.907 2.072zm6.365-14.636c1.053 0 1.907-.928 1.907-2.072 0-1.145-.854-2.072-1.907-2.072s-1.906.927-1.906 2.072c0 1.144.853 2.072 1.906 2.072zm6.82-15.143c.673 0 1.218-.592 1.218-1.322 0-.73-.545-1.322-1.218-1.322-.673 0-1.218.592-1.218 1.322 0 .73.545 1.322 1.218 1.322zm7.266-13.382c1.053 0 1.907-.927 1.907-2.072 0-1.144-.854-2.072-1.907-2.072s-1.907.928-1.907 2.072c0 1.145.854 2.072 1.907 2.072zm7.703-14.001c.98 0 1.775-.863 1.775-1.929 0-1.065-.795-1.929-1.775-1.929-.981 0-1.775.864-1.775 1.929 0 1.066.794 1.929 1.775 1.929zm8.132-14.956c.272 0 .493-.24.493-.535 0-.296-.221-.535-.493-.535-.273 0-.493.239-.493.535 0 .295.22.535.493.535zm8.55-13.078c.364 0 .658-.32.658-.714 0-.394-.294-.714-.658-.714-.363 0-.657.32-.657.714 0 .394.294.714.657.714zm8.96-13.539c.054 0 .099-.049.099-.108s-.045-.107-.099-.107c-.055 0-.099.048-.099.107s.044.108.099.108zm9.36-11.702c.508 0 .921-.448.921-1.001 0-.552-.413-1-.921-1-.509 0-.921.448-.921 1 0 .553.412 1.001.921 1.001zM444.471 6.11c.018 0 .033-.017.033-.037 0-.02-.015-.036-.033-.036-.018 0-.033.016-.033.036 0 .02.015.036.033.036zM458.295.072c.018 0 .033-.016.033-.036 0-.02-.015-.036-.033-.036-.019 0-.034.016-.034.036 0 .02.015.036.034.036zm-285.06 350.783c1.053 0 1.907-.928 1.907-2.072 0-1.145-.854-2.072-1.907-2.072s-1.907.927-1.907 2.072c0 1.144.854 2.072 1.907 2.072zm3.178-15.816c1.053 0 1.907-.927 1.907-2.072 0-1.144-.854-2.072-1.907-2.072s-1.906.928-1.906 2.072c0 1.145.853 2.072 1.906 2.072zm3.658-15.693c1.053 0 1.906-.928 1.906-2.072 0-1.145-.853-2.072-1.906-2.072s-1.907.927-1.907 2.072c0 1.144.854 2.072 1.907 2.072zm4.133-15.553c1.053 0 1.906-.928 1.906-2.072 0-1.144-.853-2.072-1.906-2.072s-1.907.928-1.907 2.072c0 1.144.854 2.072 1.907 2.072zm4.602-15.468c1.017 0 1.841-.896 1.841-2 0-1.105-.824-2.001-1.841-2.001s-1.841.896-1.841 2.001c0 1.104.824 2 1.841 2zm5.07-15.15c1.053 0 1.907-.927 1.907-2.072 0-1.144-.854-2.072-1.907-2.072s-1.907.928-1.907 2.072c0 1.145.854 2.072 1.907 2.072zm5.531-15.032c1.053 0 1.907-.927 1.907-2.072 0-1.144-.854-2.071-1.907-2.071s-1.907.927-1.907 2.071c0 1.145.854 2.072 1.907 2.072zm5.984-14.825c1.053 0 1.907-.928 1.907-2.072 0-1.145-.854-2.072-1.907-2.072s-1.907.927-1.907 2.072c0 1.144.854 2.072 1.907 2.072zm6.432-14.601c1.053 0 1.907-.927 1.907-2.072 0-1.144-.854-2.072-1.907-2.072s-1.907.928-1.907 2.072c0 1.145.854 2.072 1.907 2.072zm6.874-15.112c.673 0 1.218-.592 1.218-1.322 0-.731-.545-1.323-1.218-1.323-.673 0-1.218.592-1.218 1.323 0 .73.545 1.322 1.218 1.322zm7.305-13.538c.962 0 1.742-.847 1.742-1.893 0-1.045-.78-1.893-1.742-1.893s-1.742.848-1.742 1.893c0 1.046.78 1.893 1.742 1.893zm7.732-14.478c.636 0 1.152-.56 1.152-1.251 0-.691-.516-1.251-1.152-1.251-.636 0-1.152.56-1.152 1.251 0 .691.516 1.251 1.152 1.251zm8.149-13.948c.436 0 .789-.384.789-.857s-.353-.857-.789-.857c-.436 0-.789.384-.789.857s.353.857.789.857zm8.556-13.072c.527 0 .954-.464.954-1.036 0-.572-.427-1.036-.954-1.036-.527 0-.954.464-.954 1.036 0 .572.427 1.036.954 1.036zm8.954-13.938c.018 0 .033-.016.033-.036 0-.02-.015-.036-.033-.036-.018 0-.033.016-.033.036 0 .02.015.036.033.036zm9.343-12.572c.036 0 .066-.032.066-.072 0-.039-.03-.071-.066-.071-.037 0-.066.032-.066.071 0 .04.029.072.066.072zM162.645 342.355c.781 0 1.414-.688 1.414-1.537 0-.848-.633-1.537-1.414-1.537-.782 0-1.415.689-1.415 1.537 0 .849.633 1.537 1.415 1.537zm3.332-15.242c1.053 0 1.907-.928 1.907-2.072 0-1.145-.854-2.072-1.907-2.072s-1.907.927-1.907 2.072c0 1.144.854 2.072 1.907 2.072zm3.797-15.653c1.053 0 1.907-.927 1.907-2.072 0-1.144-.854-2.072-1.907-2.072s-1.907.928-1.907 2.072c0 1.145.854 2.072 1.907 2.072zm4.26-15.513c1.053 0 1.907-.927 1.907-2.072 0-1.144-.854-2.072-1.907-2.072s-1.907.928-1.907 2.072c0 1.145.854 2.072 1.907 2.072zm4.718-15.355c1.053 0 1.906-.928 1.906-2.072 0-1.145-.853-2.072-1.906-2.072-1.054 0-1.907.927-1.907 2.072 0 1.144.853 2.072 1.907 2.072zm5.17-15.182c1.053 0 1.907-.928 1.907-2.072 0-1.144-.854-2.072-1.907-2.072s-1.907.928-1.907 2.072c0 1.144.854 2.072 1.907 2.072zm5.618-14.993c1.053 0 1.907-.927 1.907-2.072 0-1.144-.854-2.072-1.907-2.072s-1.907.928-1.907 2.072c0 1.145.854 2.072 1.907 2.072zm6.06-14.788c1.053 0 1.907-.928 1.907-2.072 0-1.144-.854-2.072-1.907-2.072s-1.907.928-1.907 2.072c0 1.144.854 2.072 1.907 2.072zm6.494-14.57c1.054 0 1.907-.928 1.907-2.072 0-1.144-.853-2.072-1.907-2.072-1.053 0-1.906.928-1.906 2.072 0 1.144.853 2.072 1.906 2.072zm6.924-15.871c.272 0 .493-.239.493-.535 0-.295-.221-.535-.493-.535-.273 0-.493.24-.493.535 0 .296.22.535.493.535zm7.345-12.582c1.035 0 1.873-.912 1.873-2.036 0-1.125-.838-2.036-1.873-2.036-1.035 0-1.874.911-1.874 2.036 0 1.124.839 2.036 1.874 2.036zm7.759-14.928c.473 0 .856-.416.856-.928 0-.513-.383-.929-.856-.929-.472 0-.855.416-.855.929 0 .512.383.928.855.928zm8.164-13.076c.709 0 1.283-.624 1.283-1.394 0-.769-.574-1.393-1.283-1.393s-1.283.624-1.283 1.393c0 .77.574 1.394 1.283 1.394zm8.561-14.498c.073 0 .132-.064.132-.143 0-.079-.059-.143-.132-.143-.073 0-.132.064-.132.143 0 .079.059.143.132.143zm8.95-12.691c.2 0 .362-.177.362-.394 0-.218-.162-.394-.362-.394-.201 0-.363.176-.363.394 0 .217.162.394.363.394zM149.084 348.757c.019 0 .034-.017.034-.037 0-.02-.015-.036-.034-.036-.018 0-.033.016-.033.036 0 .02.015.037.033.037zm3.022-14.494c.709 0 1.283-.624 1.283-1.394 0-.77-.574-1.394-1.283-1.394s-1.283.624-1.283 1.394c0 .77.574 1.394 1.283 1.394zm3.477-15.064c1.053 0 1.907-.928 1.907-2.072 0-1.145-.854-2.072-1.907-2.072s-1.906.927-1.906 2.072c0 1.144.853 2.072 1.906 2.072zm3.931-15.613c1.053 0 1.907-.928 1.907-2.072 0-1.145-.854-2.072-1.907-2.072s-1.907.927-1.907 2.072c0 1.144.854 2.072 1.907 2.072zm4.382-15.474c1.053 0 1.906-.928 1.906-2.072 0-1.144-.853-2.072-1.906-2.072-1.054 0-1.907.928-1.907 2.072 0 1.144.853 2.072 1.907 2.072zm4.824-15.316c1.053 0 1.907-.928 1.907-2.072 0-1.145-.854-2.072-1.907-2.072s-1.907.927-1.907 2.072c0 1.144.854 2.072 1.907 2.072zm5.266-15.143c1.053 0 1.907-.927 1.907-2.072 0-1.144-.854-2.072-1.907-2.072s-1.907.928-1.907 2.072c0 1.145.854 2.072 1.907 2.072zm5.703-14.956c1.053 0 1.906-.928 1.906-2.072 0-1.145-.853-2.072-1.906-2.072-1.054 0-1.907.927-1.907 2.072 0 1.144.853 2.072 1.907 2.072zm6.13-14.753c1.053 0 1.907-.927 1.907-2.072 0-1.144-.854-2.072-1.907-2.072s-1.907.928-1.907 2.072c0 1.145.854 2.072 1.907 2.072zm6.554-14.538c1.053 0 1.906-.927 1.906-2.072 0-1.144-.853-2.072-1.906-2.072s-1.907.928-1.907 2.072c0 1.145.854 2.072 1.907 2.072zm6.972-16.092c.146 0 .264-.129.264-.287 0-.158-.118-.286-.264-.286-.146 0-.264.128-.264.286 0 .158.118.287.264.287zm7.38-12.491c.944 0 1.709-.832 1.709-1.857 0-1.026-.765-1.858-1.709-1.858-.944 0-1.709.832-1.709 1.858 0 1.025.765 1.857 1.709 1.857zm7.786-15.195c.237 0 .429-.208.429-.465s-.192-.465-.429-.465-.429.208-.429.465.192.465.429.465zm8.179-13.281c.363 0 .657-.32.657-.714 0-.395-.294-.714-.657-.714-.364 0-.658.319-.658.714 0 .394.294.714.658.714zm8.565-13.708c.128 0 .231-.112.231-.251 0-.138-.103-.25-.231-.25-.127 0-.231.112-.231.25 0 .139.104.251.231.251zm-92.811 198.145c.018 0 .033-.017.033-.037 0-.02-.015-.036-.033-.036-.019 0-.033.016-.033.036 0 .02.014.037.033.037zm3.171-15.675c.091 0 .165-.08.165-.179 0-.099-.074-.179-.165-.179-.091 0-.165.08-.165.179 0 .099.074.179.165.179zm3.616-13.883c1.017 0 1.841-.896 1.841-2.001 0-1.104-.824-2-1.841-2s-1.841.896-1.841 2c0 1.105.824 2.001 1.841 2.001zm4.059-15.506c1.053 0 1.907-.928 1.907-2.072 0-1.144-.854-2.072-1.907-2.072s-1.907.928-1.907 2.072c0 1.144.854 2.072 1.907 2.072zm4.494-15.432c1.053 0 1.906-.928 1.906-2.072 0-1.145-.853-2.072-1.906-2.072-1.054 0-1.907.927-1.907 2.072 0 1.144.853 2.072 1.907 2.072zm4.928-15.277c1.053 0 1.907-.928 1.907-2.072 0-1.145-.854-2.072-1.907-2.072s-1.907.927-1.907 2.072c0 1.144.854 2.072 1.907 2.072zm5.356-15.107c1.053 0 1.907-.928 1.907-2.072 0-1.144-.854-2.072-1.907-2.072s-1.906.928-1.906 2.072c0 1.144.853 2.072 1.906 2.072zm5.782-14.919c1.053 0 1.907-.928 1.907-2.072 0-1.144-.854-2.072-1.907-2.072s-1.907.928-1.907 2.072c0 1.144.854 2.072 1.907 2.072zm6.198-14.722c1.053 0 1.907-.928 1.907-2.072 0-1.144-.854-2.072-1.907-2.072s-1.907.928-1.907 2.072c0 1.144.854 2.072 1.907 2.072zm6.61-15.4c.6 0 1.086-.528 1.086-1.179 0-.652-.486-1.18-1.086-1.18-.6 0-1.086.528-1.086 1.18 0 .651.486 1.179 1.086 1.179zm7.016-14.388c.546 0 .988-.48.988-1.072 0-.592-.442-1.071-.988-1.071-.545 0-.987.479-.987 1.071s.442 1.072.987 1.072zm7.417-13.505c.817 0 1.479-.72 1.479-1.607 0-.888-.662-1.607-1.479-1.607-.817 0-1.479.719-1.479 1.607 0 .887.662 1.607 1.479 1.607zm7.808-15.214c.091 0 .165-.081.165-.179 0-.099-.074-.179-.165-.179-.091 0-.165.08-.165.179 0 .098.074.179.165.179zm8.194-13.057c.327 0 .593-.287.593-.642 0-.355-.266-.642-.593-.642-.327 0-.592.287-.592.642 0 .355.265.642.592.642zm-81.924 168.553c.127 0 .231-.112.231-.25 0-.139-.104-.251-.231-.251-.128 0-.231.112-.231.251 0 .138.103.25.231.25zm3.75-15.062c.435 0 .789-.384.789-.857s-.354-.857-.789-.857c-.436 0-.79.384-.79.857s.354.857.79.857zm4.176-14.323c1.054 0 1.907-.928 1.907-2.072 0-1.144-.853-2.072-1.907-2.072-1.053 0-1.906.928-1.906 2.072 0 1.144.853 2.072 1.906 2.072zm4.604-15.397c1.054 0 1.907-.928 1.907-2.072 0-1.144-.853-2.072-1.907-2.072-1.053 0-1.906.928-1.906 2.072 0 1.144.853 2.072 1.906 2.072zm5.026-15.239c1.053 0 1.907-.928 1.907-2.072 0-1.144-.854-2.072-1.907-2.072s-1.907.928-1.907 2.072c0 1.144.854 2.072 1.907 2.072zm5.442-15.069c1.053 0 1.907-.928 1.907-2.072 0-1.145-.854-2.072-1.907-2.072s-1.907.927-1.907 2.072c0 1.144.854 2.072 1.907 2.072zm5.856-14.885c1.053 0 1.906-.928 1.906-2.072 0-1.145-.853-2.072-1.906-2.072s-1.907.927-1.907 2.072c0 1.144.854 2.072 1.907 2.072zm6.262-14.688c1.053 0 1.907-.928 1.907-2.072 0-1.145-.854-2.072-1.907-2.072s-1.907.927-1.907 2.072c0 1.144.854 2.072 1.907 2.072zm6.664-16.193c.183 0 .33-.16.33-.358 0-.198-.147-.358-.33-.358-.182 0-.329.16-.329.358 0 .198.147.358.329.358zm14.509-28.597c.018 0 .033-.017.033-.037 0-.019-.015-.036-.033-.036-.018 0-.033.017-.033.036 0 .02.015.037.033.037zm-62.82 125.833c.091 0 .165-.08.165-.179 0-.099-.074-.179-.165-.179-.091 0-.165.08-.165.179 0 .099.074.179.165.179zm4.293-13.645c1.035 0 1.874-.912 1.874-2.036 0-1.125-.839-2.036-1.874-2.036-1.035 0-1.874.911-1.874 2.036 0 1.124.839 2.036 1.874 2.036zm4.706-15.323c1.053 0 1.907-.928 1.907-2.072 0-1.145-.854-2.072-1.907-2.072s-1.907.927-1.907 2.072c0 1.144.854 2.072 1.907 2.072zm5.119-15.204c1.053 0 1.907-.927 1.907-2.072 0-1.144-.854-2.072-1.907-2.072s-1.907.928-1.907 2.072c0 1.145.854 2.072 1.907 2.072zm5.525-15.033c1.053 0 1.907-.928 1.907-2.072 0-1.145-.854-2.072-1.907-2.072s-1.907.927-1.907 2.072c0 1.144.854 2.072 1.907 2.072zm5.926-14.853c1.053 0 1.907-.928 1.907-2.072 0-1.144-.854-2.072-1.907-2.072s-1.907.928-1.907 2.072c0 1.144.854 2.072 1.907 2.072zm6.324-15.586c.582 0 1.053-.512 1.053-1.144 0-.631-.471-1.143-1.053-1.143s-1.053.512-1.053 1.143c0 .632.471 1.144 1.053 1.144zm-42.138 81.88c.146 0 .264-.128.264-.286 0-.158-.118-.286-.264-.286-.146 0-.264.128-.264.286 0 .158.118.286.264.286zm4.399-13.68c1.053 0 1.907-.928 1.907-2.072 0-1.145-.854-2.072-1.907-2.072s-1.907.927-1.907 2.072c0 1.144.854 2.072 1.907 2.072zm4.807-15.322c1.053 0 1.907-.928 1.907-2.072 0-1.144-.854-2.072-1.907-2.072s-1.907.928-1.907 2.072c0 1.144.854 2.072 1.907 2.072zm5.205-15.168c1.053 0 1.907-.927 1.907-2.072 0-1.144-.854-2.072-1.907-2.072s-1.907.928-1.907 2.072c0 1.145.854 2.072 1.907 2.072zm5.603-15.001c1.053 0 1.907-.928 1.907-2.072 0-1.144-.854-2.072-1.907-2.072s-1.906.928-1.906 2.072c0 1.144.853 2.072 1.906 2.072zm5.996-15.533c.691 0 1.25-.608 1.25-1.358 0-.75-.559-1.358-1.25-1.358-.69 0-1.25.608-1.25 1.358 0 .75.56 1.358 1.25 1.358zm-36.227 67.451c.454 0 .822-.4.822-.893s-.368-.893-.822-.893c-.455 0-.823.4-.823.893s.368.893.823.893zm4.504-14.252c1.053 0 1.907-.928 1.907-2.072 0-1.144-.854-2.072-1.907-2.072s-1.907.928-1.907 2.072c0 1.144.854 2.072 1.907 2.072zm4.901-15.289c1.053 0 1.906-.928 1.906-2.072 0-1.145-.853-2.072-1.906-2.072-1.054 0-1.907.927-1.907 2.072 0 1.144.853 2.072 1.907 2.072zm5.289-15.132c1.053 0 1.906-.928 1.906-2.072 0-1.144-.853-2.072-1.906-2.072s-1.907.928-1.907 2.072c0 1.144.854 2.072 1.907 2.072zm5.677-14.967c1.053 0 1.907-.928 1.907-2.072 0-1.145-.854-2.072-1.907-2.072s-1.906.927-1.906 2.072c0 1.144.853 2.072 1.906 2.072zm6.06-16.467c.201 0 .363-.176.363-.394 0-.217-.162-.393-.363-.393-.2 0-.362.176-.362.393 0 .218.162.394.362.394zM252.428 19.957c.018 0 .033-.017.033-.037 0-.02-.015-.036-.033-.036-.019 0-.033.017-.033.036 0 .02.014.037.033.037zM263.5 9.124c.018 0 .033-.016.033-.036 0-.02-.015-.036-.033-.036-.018 0-.033.016-.033.036 0 .02.015.036.033.036zM93.989 271.833c.998 0 1.808-.879 1.808-1.964s-.81-1.965-1.808-1.965c-.999 0-1.808.88-1.808 1.965s.81 1.964 1.808 1.964zm4.602-15.287c1.053 0 1.907-.928 1.907-2.072 0-1.145-.854-2.072-1.907-2.072s-1.907.927-1.907 2.072c0 1.144.854 2.072 1.907 2.072zm4.99-15.254c1.053 0 1.906-.928 1.906-2.072 0-1.144-.853-2.072-1.906-2.072s-1.907.928-1.907 2.072c0 1.144.854 2.072 1.907 2.072zm5.371-15.101c1.053 0 1.907-.928 1.907-2.072 0-1.145-.854-2.072-1.907-2.072s-1.907.927-1.907 2.072c0 1.144.854 2.072 1.907 2.072zm5.748-14.934c1.054 0 1.907-.927 1.907-2.071 0-1.145-.853-2.072-1.907-2.072-1.053 0-1.906.927-1.906 2.072 0 1.144.853 2.071 1.906 2.071zm42.158-87.566c.019 0 .034-.016.034-.036 0-.02-.015-.036-.034-.036-.018 0-.033.016-.033.036 0 .02.015.036.033.036zm8.256-13.475c.019 0 .034-.016.034-.036 0-.02-.015-.036-.034-.036-.018 0-.033.016-.033.036 0 .02.015.036.033.036zm8.593-13.224c.018 0 .033-.017.033-.036 0-.02-.015-.037-.033-.037-.019 0-.034.017-.034.037 0 .02.015.036.034.036zm58.22-73.565c.019 0 .033-.016.033-.036 0-.02-.014-.036-.033-.036-.018 0-.033.016-.033.036 0 .02.015.037.033.037zm21.774-22.095c.018 0 .033-.016.033-.036 0-.02-.015-.036-.033-.036-.019 0-.034.016-.034.036 0 .02.015.036.034.036zM79.509 277.985c.237 0 .429-.208.429-.465s-.192-.466-.429-.466-.429.209-.429.466.192.465.429.465zm4.319-13.887c1.053 0 1.906-.927 1.906-2.072 0-1.144-.853-2.072-1.906-2.072-1.054 0-1.907.928-1.907 2.072 0 1.145.853 2.072 1.906 2.072zm4.697-15.362c1.053 0 1.907-.928 1.907-2.072 0-1.145-.854-2.072-1.907-2.072s-1.907.927-1.907 2.072c0 1.144.854 2.072 1.907 2.072zm5.075-15.22c1.053 0 1.907-.928 1.907-2.072 0-1.144-.854-2.072-1.907-2.072s-1.906.928-1.906 2.072c0 1.144.853 2.072 1.906 2.072zm5.447-15.067c1.053 0 1.907-.928 1.907-2.072 0-1.145-.854-2.072-1.907-2.072s-1.906.927-1.906 2.072c0 1.144.853 2.072 1.906 2.072zm5.817-15.619c.69 0 1.25-.608 1.25-1.358 0-.75-.56-1.358-1.25-1.358-.691 0-1.25.608-1.25 1.358 0 .75.559 1.358 1.25 1.358zm19.618-44.946c.018 0 .033-.016.033-.036 0-.02-.015-.036-.033-.036-.018 0-.033.016-.033.036 0 .02.015.036.033.036zm7.247-14.144c.018 0 .033-.016.033-.036 0-.02-.015-.036-.033-.036-.019 0-.034.016-.034.036 0 .02.015.036.034.036zm7.592-13.928c.019 0 .034-.016.034-.036 0-.02-.015-.036-.034-.036-.018 0-.033.016-.033.036 0 .02.015.036.033.036zm7.932-13.704c.019 0 .034-.016.034-.036 0-.02-.015-.036-.034-.036-.018 0-.033.016-.033.036 0 .02.015.036.033.036zm8.267-13.466c.018 0 .033-.016.033-.036 0-.02-.015-.036-.033-.036-.019 0-.034.016-.034.036 0 .02.015.036.034.036zm8.595-13.224c.018 0 .033-.016.033-.036 0-.02-.015-.036-.033-.036-.019 0-.033.016-.033.036 0 .02.014.036.033.036zm68.815-84.93c.018 0 .033-.016.033-.036 0-.02-.015-.036-.033-.036-.018 0-.033.016-.033.036 0 .02.015.036.033.036zM61.562 301.031c.054 0 .099-.048.099-.108 0-.059-.045-.107-.1-.107-.054 0-.098.048-.098.107 0 .06.044.108.099.108zm3.667-15.583c.11 0 .198-.096.198-.215s-.089-.215-.198-.215c-.11 0-.198.096-.198.215s.088.215.198.215zm4.044-13.76c1.035 0 1.874-.911 1.874-2.036 0-1.124-.84-2.036-1.874-2.036-1.035 0-1.874.912-1.874 2.036 0 1.125.839 2.036 1.874 2.036zm4.417-15.423c1.054 0 1.907-.928 1.907-2.072 0-1.145-.853-2.072-1.906-2.072s-1.907.927-1.907 2.072c0 1.144.853 2.072 1.907 2.072zm4.79-15.331c1.052 0 1.906-.927 1.906-2.072 0-1.144-.854-2.072-1.907-2.072s-1.907.928-1.907 2.072c0 1.145.854 2.072 1.907 2.072zm5.156-15.187c1.053 0 1.907-.928 1.907-2.072 0-1.144-.854-2.072-1.907-2.072s-1.906.928-1.906 2.072c0 1.144.853 2.072 1.906 2.072zm5.52-15.035c1.053 0 1.907-.928 1.907-2.072 0-1.145-.854-2.072-1.907-2.072s-1.907.927-1.907 2.072c0 1.144.854 2.072 1.907 2.072zm5.882-16.625c.164 0 .297-.144.297-.322 0-.177-.133-.322-.297-.322-.164 0-.296.145-.296.322 0 .178.132.322.296.322zm6.238-14.987c.018 0 .033-.017.033-.037 0-.019-.015-.036-.033-.036-.019 0-.034.017-.034.036 0 .02.015.037.034.037zm6.588-14.518c.018 0 .033-.017.033-.037 0-.02-.015-.036-.033-.036-.019 0-.033.016-.033.036 0 .02.014.037.033.037zm6.937-14.327c.019 0 .034-.016.034-.036 0-.02-.015-.037-.034-.037-.018 0-.033.017-.033.037 0 .02.015.036.033.036zm7.28-14.125c.019 0 .033-.016.033-.036 0-.02-.014-.036-.033-.036-.018 0-.033.016-.033.036 0 .02.015.036.033.036zm7.617-13.913c.019 0 .034-.016.034-.036 0-.02-.015-.036-.034-.036-.018 0-.033.016-.033.036 0 .02.015.036.033.036zm7.949-13.69c.018 0 .033-.016.033-.036 0-.02-.015-.036-.033-.036-.019 0-.033.016-.033.036 0 .02.014.036.033.036zm8.277-13.461c.019 0 .034-.016.034-.036 0-.02-.015-.036-.034-.036-.018 0-.033.016-.033.036 0 .02.015.036.033.036zm8.599-13.22c.019 0 .034-.017.034-.036 0-.02-.015-.037-.034-.037-.018 0-.033.017-.033.037 0 .02.015.036.033.036zM51.139 294.181c.6 0 1.086-.528 1.086-1.179s-.486-1.179-1.086-1.179c-.6 0-1.086.528-1.086 1.179s.486 1.179 1.086 1.179zm3.778-14.91c.98 0 1.775-.863 1.775-1.929 0-1.065-.794-1.928-1.775-1.928-.98 0-1.775.863-1.775 1.928 0 1.066.795 1.929 1.775 1.929zm4.148-15.405c1.053 0 1.907-.928 1.907-2.072 0-1.145-.854-2.072-1.907-2.072s-1.907.927-1.907 2.072c0 1.144.854 2.072 1.907 2.072zm4.512-15.428c1.053 0 1.907-.927 1.907-2.072 0-1.144-.854-2.072-1.907-2.072s-1.907.928-1.907 2.072c0 1.145.854 2.072 1.907 2.072zm4.876-15.298c1.053 0 1.907-.927 1.907-2.072 0-1.144-.854-2.072-1.907-2.072s-1.907.928-1.907 2.072c0 1.145.854 2.072 1.907 2.072zm5.234-15.155c1.053 0 1.907-.928 1.907-2.072 0-1.144-.854-2.072-1.907-2.072s-1.906.928-1.906 2.072c0 1.144.853 2.072 1.906 2.072zm5.591-15.255c.926 0 1.676-.816 1.676-1.822 0-1.006-.75-1.821-1.676-1.821-.926 0-1.677.815-1.677 1.821s.751 1.822 1.677 1.822zm5.942-16.631c.02 0 .034-.016.034-.036 0-.02-.015-.036-.033-.036-.019 0-.034.016-.034.036 0 .02.015.036.034.036zm6.293-14.674c.018 0 .033-.016.033-.036 0-.02-.015-.036-.033-.036-.019 0-.034.016-.034.036 0 .02.015.036.034.036zm6.636-14.494c.018 0 .033-.016.033-.036 0-.02-.015-.037-.033-.037-.019 0-.034.017-.034.037 0 .02.015.036.034.036zm6.975-14.304c.018 0 .033-.016.033-.036 0-.02-.015-.036-.033-.036-.019 0-.033.016-.033.036 0 .02.014.036.033.036zm7.311-14.106c.018 0 .033-.017.033-.037 0-.02-.015-.036-.033-.036-.018 0-.033.016-.033.036 0 .02.015.037.033.037zm7.64-13.896c.019 0 .034-.016.034-.036 0-.02-.015-.036-.034-.036-.018 0-.033.016-.033.036 0 .02.015.036.033.036zM37.227 302.07c.636 0 1.152-.56 1.152-1.251 0-.69-.516-1.25-1.152-1.25-.636 0-1.152.56-1.152 1.25 0 .691.515 1.251 1.152 1.251zm3.523-14.98c1.016 0 1.84-.895 1.84-2s-.824-2.001-1.84-2.001c-1.017 0-1.841.896-1.841 2.001s.824 2 1.84 2zm3.886-15.557c1.053 0 1.906-.928 1.906-2.072 0-1.145-.853-2.072-1.906-2.072s-1.907.927-1.907 2.072c0 1.144.854 2.072 1.907 2.072zm4.246-15.517c1.053 0 1.907-.928 1.907-2.072 0-1.144-.854-2.072-1.907-2.072s-1.906.928-1.906 2.072c0 1.144.853 2.072 1.906 2.072zm4.604-15.397c1.053 0 1.907-.927 1.907-2.072 0-1.144-.854-2.072-1.907-2.072s-1.907.928-1.907 2.072c0 1.145.854 2.072 1.907 2.072zm4.958-15.264c1.053 0 1.907-.928 1.907-2.072 0-1.144-.853-2.072-1.907-2.072-1.053 0-1.906.928-1.906 2.072 0 1.144.853 2.072 1.906 2.072zm5.309-15.198c1.017 0 1.841-.896 1.841-2 0-1.105-.824-2.001-1.84-2.001-1.018 0-1.842.896-1.842 2.001 0 1.104.824 2 1.841 2zm5.66-16.263c.363 0 .658-.319.658-.714 0-.394-.295-.713-.658-.713-.363 0-.657.319-.657.713 0 .395.294.714.657.714zm6.002-15.492c.019 0 .033-.016.033-.036 0-.02-.014-.036-.033-.036-.018 0-.033.016-.033.036 0 .02.015.036.033.036zm6.343-14.649c.018 0 .033-.016.033-.036 0-.02-.015-.036-.033-.036-.018 0-.033.016-.033.036 0 .02.015.036.033.036zm6.68-14.47c.019 0 .034-.016.034-.036 0-.02-.015-.036-.034-.036-.018 0-.033.016-.033.036 0 .02.015.036.033.036zm7.013-14.282c.019 0 .034-.016.034-.036 0-.02-.015-.036-.034-.036-.018 0-.033.016-.033.036 0 .02.015.036.033.036zM23.484 309.678c.508 0 .92-.448.92-1s-.412-1-.92-1c-.51 0-.922.448-.922 1s.413 1 .922 1zm3.276-16.363c.219 0 .396-.192.396-.429s-.177-.43-.396-.43c-.218 0-.396.193-.396.43s.178.429.396.429zm3.634-14.056c1.053 0 1.907-.928 1.907-2.072 0-1.145-.854-2.072-1.907-2.072s-1.907.927-1.907 2.072c0 1.144.854 2.072 1.907 2.072zm3.988-15.599c1.053 0 1.907-.928 1.907-2.072 0-1.144-.854-2.072-1.907-2.072s-1.907.928-1.907 2.072c0 1.144.854 2.072 1.907 2.072zm4.342-15.486c1.053 0 1.907-.928 1.907-2.072 0-1.145-.854-2.072-1.907-2.072s-1.907.927-1.907 2.072c0 1.144.854 2.072 1.907 2.072zm4.69-15.401c1.035 0 1.874-.911 1.874-2.036 0-1.124-.84-2.036-1.874-2.036-1.035 0-1.874.912-1.874 2.036 0 1.125.839 2.036 1.874 2.036zm5.039-15.271c1.016 0 1.84-.896 1.84-2 0-1.105-.824-2.001-1.84-2.001-1.017 0-1.841.896-1.841 2.001 0 1.104.824 2 1.84 2zm5.381-15.237c.944 0 1.71-.832 1.71-1.858 0-1.025-.766-1.857-1.71-1.857s-1.71.832-1.71 1.857c0 1.026.766 1.858 1.71 1.858zm5.724-16.769c.018 0 .033-.016.033-.036 0-.02-.015-.036-.033-.036-.019 0-.033.016-.033.036 0 .02.014.036.033.036zm6.06-14.788c.018 0 .033-.016.033-.036 0-.02-.015-.036-.033-.036-.019 0-.034.016-.034.036 0 .02.015.036.034.036zM9.9 317.252c.345 0 .625-.303.625-.678 0-.375-.28-.678-.625-.678s-.624.303-.624.678c0 .375.28.678.624.678zm6.43-31.684c.308 0 .558-.272.558-.607 0-.335-.25-.607-.559-.607-.309 0-.559.272-.559.607 0 .335.25.607.56.607zm3.74-14.205c1.052 0 1.906-.928 1.906-2.072 0-1.145-.854-2.072-1.907-2.072s-1.906.927-1.906 2.072c0 1.144.853 2.072 1.906 2.072zm4.087-16.317c.673 0 1.218-.592 1.218-1.322 0-.73-.545-1.322-1.218-1.322-.672 0-1.218.592-1.218 1.322 0 .73.546 1.322 1.218 1.322zm4.43-14.849c.98 0 1.776-.864 1.776-1.929s-.795-1.929-1.776-1.929c-.98 0-1.775.864-1.775 1.929s.795 1.929 1.775 1.929zm4.776-15.298c.998 0 1.808-.88 1.808-1.965s-.81-1.964-1.808-1.964c-.999 0-1.808.879-1.808 1.964s.81 1.965 1.808 1.965zm5.114-15.17c1.017 0 1.841-.895 1.841-2s-.824-2-1.84-2c-1.017 0-1.842.895-1.842 2s.825 2 1.841 2zm5.451-16.958c.054 0 .099-.048.099-.108 0-.059-.045-.107-.1-.107-.054 0-.098.048-.098.107 0 .06.044.108.099.108zm-37.996 84.99c.363 0 .657-.32.657-.714 0-.394-.294-.714-.657-.714-.363 0-.658.32-.658.714 0 .394.295.714.658.714zm3.842-15.212c.581 0 1.053-.512 1.053-1.144 0-.631-.472-1.143-1.053-1.143-.582 0-1.053.512-1.053 1.143 0 .632.471 1.144 1.053 1.144zm4.18-15.467c.618 0 1.12-.544 1.12-1.215s-.502-1.215-1.12-1.215c-.618 0-1.118.544-1.118 1.215s.5 1.215 1.118 1.215zm4.52-15.532c.564 0 1.02-.496 1.02-1.108 0-.612-.456-1.108-1.02-1.108-.563 0-1.02.496-1.02 1.108 0 .612.457 1.108 1.02 1.108zm4.856-14.735c.854 0 1.545-.751 1.545-1.678 0-.927-.692-1.679-1.545-1.679s-1.545.752-1.545 1.679.692 1.678 1.545 1.678zm5.187-16.71c.073 0 .132-.064.132-.143 0-.079-.06-.143-.132-.143-.073 0-.132.064-.132.143 0 .079.059.143.132.143zm-24.741 38.7c.4 0 .724-.352.724-.785 0-.434-.324-.786-.724-.786-.4 0-.723.352-.723.786 0 .433.324.785.723.785zm4.604-16.146c.019 0 .033-.016.033-.036 0-.02-.014-.036-.033-.036-.018 0-.033.016-.033.036 0 .02.015.036.033.036zM6.455 44.899c.019 0 .034-.016.034-.036 0-.02-.015-.036-.034-.036-.018 0-.033.016-.033.036 0 .02.015.036.033.036zm7.85-13.758c.018 0 .033-.016.033-.036 0-.02-.015-.036-.033-.036-.019 0-.034.016-.034.036 0 .02.015.036.034.036zm8.115-13.577c.018 0 .033-.016.033-.036 0-.02-.015-.036-.034-.036-.018 0-.033.016-.033.036 0 .02.015.036.033.036zm8.374-13.389c.019 0 .034-.016.034-.036 0-.02-.015-.036-.034-.036-.018 0-.033.016-.033.036 0 .02.015.036.033.036zM4.695 23.555c.018 0 .033-.017.033-.036 0-.02-.015-.037-.033-.037-.018 0-.033.017-.033.037 0 .02.015.036.033.036zm8.125-13.57c.018 0 .033-.016.033-.036 0-.02-.015-.036-.033-.036-.019 0-.034.016-.034.036 0 .02.015.036.034.036zm-9.6-7.578c.018 0 .033-.016.033-.036 0-.02-.015-.036-.033-.036-.019 0-.034.016-.034.036 0 .02.015.036.034.036z" opacity=".32" fill="#fff"/></svg>