<svg width="801" height="299" fill="none" xmlns="http://www.w3.org/2000/svg"><path d="M155.338 294.351c.146 0 .264-.128.264-.286 0-.158-.118-.287-.264-.287-.145 0-.263.129-.263.287 0 .158.118.286.263.286zm14.71-1.639c.6 0 1.086-.528 1.086-1.179s-.486-1.179-1.086-1.179c-.599 0-1.086.528-1.086 1.179s.487 1.179 1.086 1.179zm14.871-1.132c.454 0 .822-.4.822-.893s-.368-.893-.822-.893c-.454 0-.822.4-.822.893s.368.893.822.893zm14.871 1.454c.763 0 1.382-.672 1.382-1.501 0-.829-.619-1.501-1.382-1.501-.763 0-1.382.672-1.382 1.501 0 .829.619 1.501 1.382 1.501zm14.709 2.96c.98 0 1.775-.864 1.775-1.929s-.795-1.929-1.775-1.929c-.981 0-1.775.864-1.775 1.929s.794 1.929 1.775 1.929zm14.383 4.332c1.053 0 1.907-.928 1.907-2.072 0-1.145-.854-2.072-1.907-2.072s-1.907.927-1.907 2.072c0 1.144.854 2.072 1.907 2.072zm-112.27-3.854c.672 0 1.217-.592 1.217-1.323 0-.73-.545-1.322-1.217-1.322-.673 0-1.218.592-1.218 1.322 0 .731.545 1.323 1.218 1.323zm13.653-7.356c.219 0 .396-.193.396-.43s-.177-.429-.396-.429c-.218 0-.396.192-.396.429s.178.43.396.43zm28.706-7.456c.745 0 1.349-.656 1.349-1.466 0-.809-.604-1.465-1.349-1.465s-1.349.656-1.349 1.465c0 .81.604 1.466 1.349 1.466zm14.783-1.38c1.035 0 1.874-.911 1.874-2.036 0-1.124-.839-2.036-1.874-2.036-1.035 0-1.874.912-1.874 2.036 0 1.125.839 2.036 1.874 2.036zm14.89-1.499c.472 0 .855-.416.855-.929 0-.512-.383-.928-.855-.928s-.855.416-.855.928c0 .513.383.929.855.929zm14.852 1.172c.473 0 .856-.416.856-.929 0-.513-.383-.928-.856-.928-.472 0-.855.415-.855.928 0 .513.383.929.855.929zm14.68 3.797c1.016 0 1.841-.896 1.841-2.001 0-1.104-.825-2-1.841-2-1.017 0-1.841.896-1.841 2 0 1.105.824 2.001 1.841 2.001zm14.37 4.323c1.053 0 1.907-.928 1.907-2.072 0-1.145-.854-2.072-1.907-2.072s-1.907.927-1.907 2.072c0 1.144.854 2.072 1.907 2.072zm13.926 5.738c1.053 0 1.907-.928 1.907-2.072 0-1.144-.854-2.072-1.907-2.072s-1.907.928-1.907 2.072c0 1.144.854 2.072 1.907 2.072zm13.349 7.173c1.053 0 1.907-.927 1.907-2.072 0-1.144-.854-2.072-1.907-2.072s-1.907.928-1.907 2.072c0 1.145.854 2.072 1.907 2.072zm-140.137-20.87c.345 0 .624-.304.624-.678 0-.375-.279-.678-.624-.678s-.625.303-.625.678c0 .374.28.678.625.678zm28.3-9.85c.418 0 .757-.368.757-.821 0-.454-.339-.821-.757-.821-.417 0-.756.367-.756.821 0 .453.339.821.756.821zm14.654-1.639c1.053 0 1.906-.927 1.906-2.072 0-1.144-.853-2.072-1.906-2.072s-1.907.928-1.907 2.072c0 1.145.854 2.072 1.907 2.072zm14.834-1.451c1.054 0 1.907-.927 1.907-2.072 0-1.144-.853-2.072-1.907-2.072-1.053 0-1.906.928-1.906 2.072 0 1.145.853 2.072 1.906 2.072zm14.893-1.642c.219 0 .396-.193.396-.43s-.177-.429-.396-.429c-.219 0-.396.192-.396.429s.177.43.396.43zm14.835 2.735c.871 0 1.578-.767 1.578-1.714s-.707-1.714-1.578-1.714c-.872 0-1.578.767-1.578 1.714s.706 1.714 1.578 1.714zm14.653 2.854c.853 0 1.545-.751 1.545-1.678 0-.927-.692-1.678-1.545-1.678s-1.545.751-1.545 1.678c0 .927.692 1.678 1.545 1.678zm14.357 4.591c.998 0 1.808-.879 1.808-1.964s-.81-1.965-1.808-1.965c-.999 0-1.808.88-1.808 1.965s.809 1.964 1.808 1.964zm13.944 5.796c1.053 0 1.906-.928 1.906-2.072 0-1.145-.853-2.072-1.906-2.072s-1.907.927-1.907 2.072c0 1.144.854 2.072 1.907 2.072zm13.418 7.021c1.053 0 1.907-.928 1.907-2.072 0-1.145-.854-2.072-1.907-2.072s-1.907.927-1.907 2.072c0 1.144.854 2.072 1.907 2.072zm12.785 8.301c1.053 0 1.906-.928 1.906-2.072 0-1.145-.853-2.072-1.906-2.072s-1.907.927-1.907 2.072c0 1.144.854 2.072 1.907 2.072zm-124.761-40.583c.399 0 .723-.352.723-.786 0-.434-.324-.785-.723-.785-.4 0-.724.351-.724.785 0 .434.324.786.724.786zm14.733-1.077c1.054 0 1.907-.928 1.907-2.072 0-1.144-.853-2.072-1.907-2.072-1.053 0-1.906.928-1.906 2.072 0 1.144.853 2.072 1.906 2.072zm14.865-1.016c1.053 0 1.906-.928 1.906-2.072 0-1.145-.853-2.072-1.906-2.072s-1.907.927-1.907 2.072c0 1.144.854 2.072 1.907 2.072zm14.891-.734c.509 0 .921-.448.921-1 0-.553-.412-1.001-.921-1.001-.509 0-.921.448-.921 1.001 0 .552.412 1 .921 1zm14.813 2.764c1.053 0 1.906-.927 1.906-2.072 0-1.144-.853-2.071-1.906-2.071s-1.907.927-1.907 2.071c0 1.145.854 2.072 1.907 2.072zm14.63 3.031c1.053 0 1.907-.927 1.907-2.072 0-1.144-.854-2.072-1.907-2.072s-1.907.928-1.907 2.072c0 1.145.854 2.072 1.907 2.072zm14.346 4.246c.998 0 1.808-.879 1.808-1.964s-.81-1.965-1.808-1.965c-.999 0-1.808.88-1.808 1.965s.809 1.964 1.808 1.964zm13.96 5.749c1.053 0 1.907-.927 1.907-2.072 0-1.144-.854-2.072-1.907-2.072s-1.907.928-1.907 2.072c0 1.145.854 2.072 1.907 2.072zm13.476 6.89c1.053 0 1.907-.927 1.907-2.071 0-1.145-.854-2.072-1.907-2.072s-1.907.927-1.907 2.072c0 1.144.854 2.071 1.907 2.071zm12.898 8.094c1.053 0 1.907-.928 1.907-2.072 0-1.145-.854-2.072-1.907-2.072s-1.907.927-1.907 2.072c0 1.144.854 2.072 1.907 2.072zm12.232 9.236c1.053 0 1.906-.928 1.906-2.072 0-1.145-.853-2.072-1.906-2.072-1.054 0-1.907.927-1.907 2.072 0 1.144.853 2.072 1.907 2.072zm-122.404-52.173c.745 0 1.349-.657 1.349-1.466 0-.809-.604-1.465-1.349-1.465s-1.349.656-1.349 1.465.604 1.466 1.349 1.466zm14.883-.029c1.053 0 1.906-.928 1.906-2.072 0-1.144-.853-2.072-1.906-2.072-1.054 0-1.907.928-1.907 2.072 0 1.144.853 2.072 1.907 2.072zm14.883-.401c.526 0 .954-.464.954-1.036 0-.572-.428-1.036-.954-1.036-.527 0-.955.464-.955 1.036 0 .572.428 1.036.955 1.036zm14.791 2.938c1.053 0 1.907-.928 1.907-2.072 0-1.144-.854-2.072-1.907-2.072s-1.907.928-1.907 2.072c0 1.144.854 2.072 1.907 2.072zm14.609 3.122c1.035 0 1.874-.911 1.874-2.036 0-1.124-.839-2.036-1.874-2.036-1.035 0-1.874.912-1.874 2.036 0 1.125.839 2.036 1.874 2.036zm14.336 4.142c.908 0 1.644-.799 1.644-1.785 0-.987-.736-1.786-1.644-1.786-.908 0-1.644.799-1.644 1.786 0 .986.736 1.785 1.644 1.785zm13.973 5.818c1.017 0 1.841-.896 1.841-2.001s-.824-2-1.841-2-1.841.895-1.841 2 .824 2.001 1.841 2.001zm13.527 6.847c1.053 0 1.907-.928 1.907-2.072 0-1.145-.854-2.072-1.907-2.072s-1.907.927-1.907 2.072c0 1.144.854 2.072 1.907 2.072zm12.995 7.908c1.053 0 1.907-.927 1.907-2.072 0-1.144-.854-2.072-1.907-2.072s-1.907.928-1.907 2.072c0 1.145.854 2.072 1.907 2.072zm12.384 8.992c1.053 0 1.907-.928 1.907-2.072 0-1.145-.854-2.072-1.907-2.072s-1.907.927-1.907 2.072c0 1.144.854 2.072 1.907 2.072zm11.697 10.02c1.053 0 1.907-.928 1.907-2.072 0-1.145-.854-2.072-1.907-2.072s-1.907.927-1.907 2.072c0 1.144.854 2.072 1.907 2.072zm10.939 10.986c1.053 0 1.906-.928 1.906-2.072 0-1.145-.853-2.072-1.906-2.072-1.054 0-1.907.927-1.907 2.072 0 1.144.853 2.072 1.907 2.072zM75.669 261.347c.054 0 .099-.049.099-.108s-.045-.107-.1-.107c-.054 0-.098.048-.098.107s.044.108.099.108zm12.806-7.265c.563 0 1.02-.496 1.02-1.108 0-.611-.457-1.107-1.02-1.107s-1.02.496-1.02 1.107c0 .612.457 1.108 1.02 1.108zm13.334-8.286c.019 0 .034-.016.034-.036 0-.02-.015-.036-.034-.036-.018 0-.033.016-.033.036 0 .02.015.036.033.036zm71.942-18.509c.345 0 .625-.303.625-.678 0-.374-.28-.678-.625-.678s-.624.304-.624.678c0 .375.279.678.624.678zm14.892 1.096c1.053 0 1.907-.928 1.907-2.072 0-1.145-.854-2.072-1.907-2.072s-1.907.927-1.907 2.072c0 1.144.854 2.072 1.907 2.072zm14.873.896c1.053 0 1.906-.927 1.906-2.072 0-1.144-.853-2.072-1.906-2.072s-1.907.928-1.907 2.072c0 1.145.854 2.072 1.907 2.072zm14.77 2.088c1.053 0 1.907-.928 1.907-2.072 0-1.144-.854-2.072-1.907-2.072s-1.907.928-1.907 2.072c0 1.144.854 2.072 1.907 2.072zm14.588 2.873c.853 0 1.545-.751 1.545-1.678 0-.927-.692-1.678-1.545-1.678s-1.545.751-1.545 1.678c0 .927.692 1.678 1.545 1.678zm14.328 3.824c.545 0 .987-.479.987-1.071s-.442-1.072-.987-1.072c-.545 0-.987.48-.987 1.072 0 .592.442 1.071.987 1.071zm13.986 6.424c.98 0 1.775-.864 1.775-1.929s-.795-1.929-1.775-1.929c-.981 0-1.775.864-1.775 1.929s.794 1.929 1.775 1.929zm13.568 6.817c1.053 0 1.907-.928 1.907-2.072 0-1.144-.854-2.072-1.907-2.072s-1.907.928-1.907 2.072c0 1.144.854 2.072 1.907 2.072zm13.079 7.744c1.054 0 1.907-.928 1.907-2.072 0-1.145-.853-2.072-1.907-2.072-1.053 0-1.906.927-1.906 2.072 0 1.144.853 2.072 1.906 2.072zm12.518 8.775c1.053 0 1.907-.928 1.907-2.072 0-1.145-.854-2.072-1.907-2.072s-1.906.927-1.906 2.072c0 1.144.853 2.072 1.906 2.072zm11.886 9.753c1.053 0 1.907-.928 1.907-2.072 0-1.145-.854-2.072-1.907-2.072s-1.907.927-1.907 2.072c0 1.144.854 2.072 1.907 2.072zm11.192 10.682c1.053 0 1.907-.928 1.907-2.072 0-1.145-.854-2.072-1.907-2.072s-1.907.927-1.907 2.072c0 1.144.854 2.072 1.907 2.072zm10.435 11.549c1.053 0 1.907-.927 1.907-2.071 0-1.145-.854-2.072-1.907-2.072s-1.907.927-1.907 2.072c0 1.144.854 2.071 1.907 2.071zM65.585 253.357c.164 0 .297-.144.297-.322 0-.178-.133-.322-.297-.322-.164 0-.297.144-.297.322 0 .178.133.322.297.322zm12.631-6.935c.999 0 1.808-.88 1.808-1.965s-.81-1.964-1.808-1.964-1.808.879-1.808 1.964.81 1.965 1.808 1.965zm13.152-8.528c.527 0 .954-.464.954-1.036 0-.572-.427-1.036-.954-1.036-.527 0-.954.464-.954 1.036 0 .572.427 1.036.954 1.036zm86.103-24.112c.127 0 .231-.112.231-.25 0-.139-.104-.251-.231-.251-.128 0-.231.112-.231.251 0 .138.103.25.231.25zm14.896 1.535c.908 0 1.644-.799 1.644-1.785 0-.987-.736-1.786-1.644-1.786-.908 0-1.644.799-1.644 1.786 0 .986.736 1.785 1.644 1.785zm14.859 1.416c1.053 0 1.906-.928 1.906-2.072 0-1.144-.853-2.072-1.906-2.072-1.054 0-1.907.928-1.907 2.072 0 1.144.853 2.072 1.907 2.072zm14.75 2.252c1.053 0 1.907-.927 1.907-2.072 0-1.144-.854-2.072-1.907-2.072s-1.907.928-1.907 2.072c0 1.145.854 2.072 1.907 2.072zm14.57 3.366c1.053 0 1.907-.928 1.907-2.072 0-1.144-.854-2.072-1.907-2.072s-1.907.928-1.907 2.072c0 1.144.854 2.072 1.907 2.072zm14.319 3.995c.817 0 1.479-.719 1.479-1.606 0-.888-.662-1.607-1.479-1.607-.817 0-1.479.719-1.479 1.607 0 .887.662 1.606 1.479 1.606zm13.996 5.787c.944 0 1.71-.832 1.71-1.857 0-1.026-.766-1.858-1.71-1.858s-1.709.832-1.709 1.858c0 1.025.765 1.857 1.709 1.857zm13.608 6.833c1.072 0 1.94-.944 1.94-2.108 0-1.164-.868-2.108-1.94-2.108-1.071 0-1.939.944-1.939 2.108 0 1.164.868 2.108 1.939 2.108zm13.152 7.563c1.053 0 1.907-.927 1.907-2.072 0-1.144-.854-2.072-1.907-2.072s-1.907.928-1.907 2.072c0 1.145.854 2.072 1.907 2.072zm12.631 8.578c1.054 0 1.907-.927 1.907-2.072 0-1.144-.853-2.072-1.907-2.072-1.053 0-1.906.928-1.906 2.072 0 1.145.853 2.072 1.906 2.072zm12.052 9.514c1.053 0 1.907-.928 1.907-2.072 0-1.145-.854-2.072-1.907-2.072s-1.907.927-1.907 2.072c0 1.144.854 2.072 1.907 2.072zm11.41 10.402c1.053 0 1.907-.927 1.907-2.072 0-1.144-.854-2.072-1.907-2.072s-1.907.928-1.907 2.072c0 1.145.854 2.072 1.907 2.072zm10.715 11.245c1.053 0 1.906-.928 1.906-2.072 0-1.145-.853-2.072-1.906-2.072-1.054 0-1.907.927-1.907 2.072 0 1.144.853 2.072 1.907 2.072zm9.967 12.028c1.053 0 1.906-.927 1.906-2.072 0-1.144-.853-2.072-1.906-2.072s-1.907.928-1.907 2.072c0 1.145.854 2.072 1.907 2.072zM43.64 254.669c.018 0 .033-.016.033-.036 0-.02-.015-.036-.033-.036-.019 0-.034.016-.034.036 0 .02.015.036.034.036zm11.905-9.73c.018 0 .033-.016.033-.036 0-.02-.015-.036-.033-.036-.018 0-.033.016-.033.036 0 .02.015.036.033.036zm12.47-8.14c.382 0 .69-.335.69-.75 0-.414-.308-.749-.69-.749-.381 0-.69.335-.69.749 0 .415.309.75.69.75zm12.982-8.65c.019 0 .034-.016.034-.036 0-.02-.015-.036-.034-.036-.018 0-.033.016-.033.036 0 .02.015.036.033.036zm115.091-27.162c.091 0 .165-.08.165-.179 0-.099-.074-.179-.165-.179-.091 0-.165.08-.165.179 0 .099.074.179.165.179zm14.845 2.015c.436 0 .789-.384.789-.857 0-.474-.353-.857-.789-.857-.436 0-.79.383-.79.857 0 .473.354.857.79.857zm14.73 1.866c.164 0 .297-.144.297-.322 0-.178-.133-.322-.297-.322-.164 0-.297.144-.297.322 0 .178.133.322.297.322zm14.553 3.237c.055 0 .099-.048.099-.107 0-.06-.044-.108-.099-.108-.055 0-.099.048-.099.108 0 .059.044.107.099.107zm14.313 4.489c.055 0 .099-.048.099-.107 0-.06-.044-.108-.099-.108-.055 0-.099.048-.099.108 0 .059.044.107.099.107zm14.007 6.402c.508 0 .921-.448.921-1 0-.553-.413-1-.921-1-.509 0-.921.447-.921 1 0 .552.412 1 .921 1zm13.64 7.502c1.017 0 1.841-.895 1.841-2s-.824-2-1.841-2-1.841.895-1.841 2 .824 2 1.841 2zm13.216 7.539c1.053 0 1.907-.928 1.907-2.072 0-1.145-.854-2.072-1.907-2.072s-1.907.927-1.907 2.072c0 1.144.854 2.072 1.907 2.072zm12.733 8.4c1.053 0 1.907-.927 1.907-2.072 0-1.144-.854-2.072-1.907-2.072s-1.907.928-1.907 2.072c0 1.145.854 2.072 1.907 2.072zm12.194 9.296c1.053 0 1.907-.928 1.907-2.072 0-1.144-.854-2.072-1.907-2.072s-1.907.928-1.907 2.072c0 1.144.854 2.072 1.907 2.072zm11.602 10.152c1.053 0 1.907-.928 1.907-2.072 0-1.145-.854-2.072-1.907-2.072s-1.907.927-1.907 2.072c0 1.144.854 2.072 1.907 2.072zm10.958 10.961c1.054 0 1.907-.928 1.907-2.072 0-1.144-.853-2.072-1.907-2.072-1.053 0-1.906.928-1.906 2.072 0 1.144.853 2.072 1.906 2.072zm10.269 11.727c1.053 0 1.907-.928 1.907-2.072 0-1.144-.854-2.072-1.907-2.072s-1.907.928-1.907 2.072c0 1.144.854 2.072 1.907 2.072zm9.532 12.437c1.054 0 1.907-.927 1.907-2.072 0-1.144-.853-2.072-1.907-2.072-1.053 0-1.906.928-1.906 2.072 0 1.145.853 2.072 1.906 2.072zM2.217 281.152c.054 0 .099-.048.099-.108 0-.059-.045-.107-.1-.107-.054 0-.098.048-.098.107 0 .06.044.108.099.108zm9.852-11.715c.272 0 .493-.239.493-.535 0-.295-.22-.535-.493-.535-.272 0-.493.24-.493.535 0 .296.22.535.493.535zM22.6 257.495c.02 0 .034-.017.034-.036 0-.02-.015-.037-.033-.037-.019 0-.034.017-.034.037 0 .019.015.036.034.036zm11.175-10.635c.054 0 .098-.048.098-.107s-.044-.107-.098-.107c-.055 0-.1.048-.1.107s.045.107.1.107zm11.77-9.955c.036 0 .066-.032.066-.072 0-.039-.03-.071-.066-.071-.037 0-.066.032-.066.071 0 .04.03.072.066.072zm12.32-8.812c.182 0 .33-.161.33-.358 0-.198-.148-.358-.33-.358-.182 0-.33.16-.33.358 0 .197.148.358.33.358zm12.821-8.168c.219 0 .396-.192.396-.43 0-.237-.177-.429-.396-.429-.218 0-.396.192-.396.429 0 .238.178.43.396.43zm13.274-7.707c.036 0 .065-.032.065-.071 0-.04-.03-.072-.066-.072-.036 0-.066.032-.066.072 0 .039.03.071.066.071zm13.67-6.464c.019 0 .034-.016.034-.036 0-.02-.016-.036-.034-.036-.018 0-.033.016-.033.036 0 .02.015.036.033.036zm174.577.107c.073 0 .132-.064.132-.143 0-.079-.059-.143-.132-.143-.073 0-.132.064-.132.143 0 .079.059.143.132.143zm13.671 7.214c.473 0 .855-.415.855-.928 0-.513-.382-.929-.855-.929-.472 0-.855.416-.855.929 0 .513.383.928.855.928zm13.273 8.492c1.053 0 1.907-.927 1.907-2.072 0-1.144-.854-2.072-1.907-2.072s-1.907.928-1.907 2.072c0 1.145.854 2.072 1.907 2.072zm12.821 8.24c1.053 0 1.907-.928 1.907-2.072 0-1.144-.854-2.072-1.907-2.072s-1.907.928-1.907 2.072c0 1.144.854 2.072 1.907 2.072zm12.32 9.098c1.053 0 1.907-.927 1.907-2.072 0-1.144-.854-2.072-1.907-2.072s-1.907.928-1.907 2.072c0 1.145.854 2.072 1.907 2.072zm11.77 9.92c1.053 0 1.907-.928 1.907-2.072 0-1.144-.854-2.072-1.907-2.072s-1.907.928-1.907 2.072c0 1.144.854 2.072 1.907 2.072zm11.175 10.705c1.053 0 1.906-.927 1.906-2.072 0-1.144-.853-2.072-1.906-2.072s-1.907.928-1.907 2.072c0 1.145.854 2.072 1.907 2.072zm10.531 11.445c1.053 0 1.907-.928 1.907-2.072 0-1.145-.854-2.072-1.907-2.072s-1.906.927-1.906 2.072c0 1.144.853 2.072 1.906 2.072zm9.852 12.142c1.053 0 1.907-.928 1.907-2.072 0-1.145-.854-2.072-1.907-2.072s-1.907.927-1.907 2.072c0 1.144.854 2.072 1.907 2.072zm9.129 12.789c1.053 0 1.907-.928 1.907-2.072 0-1.144-.854-2.072-1.907-2.072s-1.906.928-1.906 2.072c0 1.144.853 2.072 1.906 2.072zM2.41 263.339c1.052 0 1.906-.927 1.906-2.072 0-1.144-.854-2.072-1.907-2.072s-1.907.928-1.907 2.072c0 1.145.854 2.072 1.907 2.072zm10.452-11.675c.98 0 1.775-.863 1.775-1.929 0-1.065-.795-1.928-1.775-1.928-.98 0-1.775.863-1.775 1.928 0 1.066.795 1.929 1.775 1.929zm11.071-11.08c.853 0 1.545-.752 1.545-1.679s-.692-1.678-1.545-1.678-1.545.751-1.545 1.678c0 .927.692 1.679 1.545 1.679zm11.647-9.734c1.034 0 1.873-.912 1.873-2.036 0-1.125-.839-2.037-1.874-2.037-1.035 0-1.874.912-1.874 2.037 0 1.124.84 2.036 1.874 2.036zm12.18-9.532c.925 0 1.676-.815 1.676-1.821s-.75-1.821-1.676-1.821c-.926 0-1.677.815-1.677 1.821s.75 1.821 1.677 1.821zm12.672-8.652c.854 0 1.545-.752 1.545-1.679s-.691-1.678-1.545-1.678c-.853 0-1.545.751-1.545 1.678 0 .927.692 1.679 1.545 1.679zm13.118-7.778c.798 0 1.446-.704 1.446-1.571 0-.868-.648-1.571-1.446-1.571-.8 0-1.447.703-1.447 1.571 0 .867.648 1.571 1.447 1.571zm13.517-8.339c.018 0 .033-.016.033-.036 0-.02-.015-.036-.033-.036-.019 0-.034.016-.034.036 0 .02.015.036.034.036zm13.866-5.914c.019 0 .034-.016.034-.036 0-.02-.015-.036-.034-.036-.018 0-.033.016-.033.036 0 .02.015.036.033.036zm174.946 2.845c.019 0 .034-.016.034-.036 0-.02-.015-.036-.034-.036-.018 0-.033.016-.033.036 0 .02.015.036.033.036zm13.698 7.325c.508 0 .921-.448.921-1.001 0-.552-.413-1-.921-1-.509 0-.922.448-.922 1 0 .553.413 1.001.922 1.001zm13.323 6.883c.327 0 .592-.288.592-.642 0-.355-.265-.643-.592-.643-.327 0-.592.288-.592.643 0 .354.265.642.592.642zm12.898 9.522c1.054 0 1.907-.927 1.907-2.072 0-1.144-.853-2.072-1.907-2.072-1.053 0-1.906.928-1.906 2.072 0 1.145.853 2.072 1.906 2.072zm12.433 8.918c1.053 0 1.907-.927 1.907-2.072 0-1.144-.854-2.072-1.907-2.072s-1.907.928-1.907 2.072c0 1.145.854 2.072 1.907 2.072zm11.92 9.709c1.053 0 1.907-.928 1.907-2.072 0-1.144-.854-2.072-1.907-2.072s-1.907.928-1.907 2.072c0 1.144.854 2.072 1.907 2.072zm11.363 10.467c1.053 0 1.907-.928 1.907-2.072 0-1.144-.854-2.072-1.907-2.072s-1.906.928-1.906 2.072c0 1.144.853 2.072 1.906 2.072zm10.766 11.185c1.053 0 1.907-.928 1.907-2.072 0-1.145-.854-2.072-1.907-2.072s-1.906.927-1.906 2.072c0 1.144.853 2.072 1.906 2.072zm10.132 11.866c1.053 0 1.907-.928 1.907-2.072 0-1.144-.854-2.072-1.907-2.072s-1.907.928-1.907 2.072c0 1.144.854 2.072 1.907 2.072zm9.462 12.502c1.053 0 1.907-.928 1.907-2.072 0-1.144-.854-2.072-1.907-2.072s-1.907.928-1.907 2.072c0 1.144.854 2.072 1.907 2.072zm8.755 13.096c1.053 0 1.907-.928 1.907-2.072 0-1.145-.854-2.072-1.907-2.072s-1.907.927-1.907 2.072c0 1.144.854 2.072 1.907 2.072zM3.137 244.101c1.053 0 1.907-.927 1.907-2.071 0-1.145-.854-2.072-1.907-2.072s-1.907.927-1.907 2.072c0 1.144.854 2.071 1.907 2.071zm10.975-10.945c1.053 0 1.907-.927 1.907-2.072 0-1.144-.854-2.072-1.907-2.072s-1.907.928-1.907 2.072c0 1.145.854 2.072 1.907 2.072zm11.531-10.245c1.053 0 1.907-.928 1.907-2.072 0-1.144-.854-2.072-1.907-2.072s-1.907.928-1.907 2.072c0 1.144.854 2.072 1.907 2.072zm12.052-9.515c1.053 0 1.907-.928 1.907-2.072 0-1.144-.854-2.072-1.907-2.072s-1.907.928-1.907 2.072c0 1.144.854 2.072 1.907 2.072zm12.533-8.752c1.053 0 1.907-.927 1.907-2.072 0-1.144-.854-2.072-1.907-2.072s-1.907.928-1.907 2.072c0 1.145.854 2.072 1.907 2.072zm12.97-8.101c.98 0 1.775-.864 1.775-1.929s-.794-1.929-1.775-1.929c-.98 0-1.775.864-1.775 1.929s.795 1.929 1.775 1.929zm13.368-7.43c.835 0 1.512-.735 1.512-1.642 0-.907-.677-1.643-1.512-1.643s-1.512.736-1.512 1.643.677 1.642 1.512 1.642zm13.722-7.727c.109 0 .198-.096.198-.215s-.089-.215-.198-.215c-.11 0-.198.096-.198.215s.088.215.198.215zm14.031-5.618c.018 0 .033-.016.033-.036 0-.02-.015-.036-.033-.036-.019 0-.034.016-.034.036 0 .02.015.036.034.036zm14.293-4.561c.018 0 .033-.016.033-.036 0-.02-.015-.036-.033-.036-.019 0-.034.016-.034.036 0 .02.015.036.034.036zm14.508-3.666c.019 0 .034-.016.034-.036 0-.02-.015-.036-.034-.036-.018 0-.033.016-.033.036 0 .02.015.036.033.036zm44.351-4.995c.291 0 .527-.255.527-.57 0-.316-.236-.571-.527-.571-.29 0-.526.255-.526.571 0 .315.236.57.526.57zm14.896-.392c.091 0 .164-.08.164-.178 0-.099-.073-.179-.164-.179-.092 0-.165.08-.165.179 0 .098.073.178.165.178zm100.905 26.389c.545 0 .987-.48.987-1.072 0-.592-.442-1.072-.987-1.072-.545 0-.987.48-.987 1.072 0 .592.442 1.072.987 1.072zm13.367 6.107c.018 0 .033-.016.033-.036 0-.02-.015-.036-.033-.036-.019 0-.033.016-.033.036 0 .02.014.036.033.036zm12.971 8.352c.218 0 .396-.193.396-.43s-.178-.429-.396-.429c-.219 0-.396.192-.396.429s.177.43.396.43zm12.532 10.072c.89 0 1.611-.784 1.611-1.75 0-.967-.721-1.75-1.611-1.75s-1.611.783-1.611 1.75c0 .966.721 1.75 1.611 1.75zm12.052 9.407c.835 0 1.512-.735 1.512-1.642 0-.907-.677-1.643-1.512-1.643s-1.512.736-1.512 1.643.677 1.642 1.512 1.642zm11.531 10.675c1.053 0 1.907-.927 1.907-2.072 0-1.144-.854-2.072-1.907-2.072s-1.907.928-1.907 2.072c0 1.145.854 2.072 1.907 2.072zm10.975 10.945c1.053 0 1.907-.927 1.907-2.071 0-1.145-.854-2.072-1.907-2.072s-1.907.927-1.907 2.072c0 1.144.854 2.071 1.907 2.071zm10.382 11.609c1.053 0 1.907-.927 1.907-2.072 0-1.144-.854-2.072-1.907-2.072s-1.907.928-1.907 2.072c0 1.145.854 2.072 1.907 2.072zm9.755 12.233c1.053 0 1.907-.927 1.907-2.072 0-1.144-.854-2.072-1.907-2.072s-1.907.928-1.907 2.072c0 1.145.854 2.072 1.907 2.072zm9.096 12.819c1.053 0 1.906-.928 1.906-2.072 0-1.145-.853-2.072-1.906-2.072s-1.907.927-1.907 2.072c0 1.144.854 2.072 1.907 2.072zm8.409 13.36c1.053 0 1.907-.927 1.907-2.071 0-1.145-.854-2.072-1.907-2.072s-1.907.927-1.907 2.072c0 1.144.854 2.071 1.907 2.071zM4.31 225.359c1.052 0 1.906-.928 1.906-2.072 0-1.145-.854-2.072-1.907-2.072s-1.907.927-1.907 2.072c0 1.144.854 2.072 1.907 2.072zm11.425-10.385c1.053 0 1.907-.928 1.907-2.072 0-1.144-.854-2.072-1.907-2.072s-1.906.928-1.906 2.072c0 1.144.853 2.072 1.906 2.072zm11.932-9.693c1.053 0 1.907-.927 1.907-2.072 0-1.144-.854-2.072-1.907-2.072s-1.907.928-1.907 2.072c0 1.145.854 2.072 1.907 2.072zm12.399-8.969c1.053 0 1.907-.928 1.907-2.072 0-1.145-.854-2.072-1.907-2.072s-1.907.927-1.907 2.072c0 1.144.854 2.072 1.907 2.072zm12.832-8.222c1.054 0 1.907-.927 1.907-2.072 0-1.144-.853-2.072-1.907-2.072-1.053 0-1.906.928-1.906 2.072 0 1.145.853 2.072 1.907 2.072zm13.228-7.447c1.053 0 1.907-.928 1.907-2.072 0-1.144-.854-2.072-1.907-2.072s-1.907.928-1.907 2.072c0 1.144.854 2.072 1.907 2.072zm13.581-6.901c.926 0 1.677-.816 1.677-1.822 0-1.006-.75-1.821-1.677-1.821-.925 0-1.676.815-1.676 1.821s.75 1.822 1.676 1.822zm13.896-7.299c.182 0 .33-.16.33-.358 0-.197-.148-.357-.33-.357-.182 0-.33.16-.33.357 0 .198.148.358.33.358zm14.167-5.324c.018 0 .033-.016.033-.036 0-.02-.015-.036-.033-.036-.018 0-.033.016-.033.036 0 .02.015.036.033.036zm14.398-4.154c.019 0 .034-.017.034-.037 0-.019-.015-.036-.034-.036-.018 0-.033.017-.033.036 0 .02.015.037.033.037zm14.585-3.293c.018 0 .033-.016.033-.036 0-.02-.015-.036-.033-.036-.019 0-.034.016-.034.036 0 .02.015.036.034.036zm29.557-3.575c.219 0 .396-.193.396-.43s-.177-.429-.396-.429c-.218 0-.396.192-.396.429s.178.43.396.43zm14.884.3c.709 0 1.283-.624 1.283-1.394 0-.77-.574-1.394-1.283-1.394s-1.283.624-1.283 1.394c0 .77.574 1.394 1.283 1.394zm14.896-.529c.327 0 .592-.288.592-.643 0-.354-.265-.642-.592-.642-.327 0-.592.288-.592.642 0 .355.265.643.592.643zm14.862.568c.055 0 .099-.048.099-.107s-.044-.107-.099-.107c-.055 0-.099.048-.099.107s.044.107.099.107zm86.011 26.28c.799 0 1.446-.704 1.446-1.571 0-.868-.647-1.571-1.446-1.571-.798 0-1.446.703-1.446 1.571 0 .867.648 1.571 1.446 1.571zm13.409 5.516c.018 0 .033-.016.033-.036 0-.02-.015-.036-.033-.036-.019 0-.034.016-.034.036 0 .02.015.036.034.036zm13.033 7.944c.073 0 .132-.064.132-.143 0-.079-.059-.143-.132-.143-.073 0-.132.064-.132.143 0 .079.059.143.132.143zm12.621 10.528c1.053 0 1.907-.927 1.907-2.072 0-1.144-.854-2.072-1.907-2.072s-1.907.928-1.907 2.072c0 1.145.854 2.072 1.907 2.072zm12.171 8.977c.871 0 1.578-.767 1.578-1.714s-.707-1.714-1.578-1.714c-.872 0-1.578.767-1.578 1.714s.706 1.714 1.578 1.714zm11.683 10.401c1.053 0 1.906-.927 1.906-2.072 0-1.144-.853-2.072-1.906-2.072-1.054 0-1.907.928-1.907 2.072 0 1.145.853 2.072 1.907 2.072zm11.161 10.722c1.053 0 1.906-.928 1.906-2.072 0-1.145-.853-2.072-1.906-2.072-1.054 0-1.907.927-1.907 2.072 0 1.144.853 2.072 1.907 2.072zm10.604 11.367c1.053 0 1.907-.928 1.907-2.072 0-1.145-.854-2.072-1.907-2.072s-1.907.927-1.907 2.072c0 1.144.854 2.072 1.907 2.072zm10.018 11.979c1.053 0 1.907-.928 1.907-2.072 0-1.144-.854-2.072-1.907-2.072s-1.907.928-1.907 2.072c0 1.144.854 2.072 1.907 2.072zm9.401 12.557c1.053 0 1.906-.928 1.906-2.072 0-1.144-.853-2.072-1.906-2.072-1.054 0-1.907.928-1.907 2.072 0 1.144.853 2.072 1.907 2.072zm8.757 13.096c1.053 0 1.906-.928 1.906-2.072 0-1.145-.853-2.072-1.906-2.072-1.054 0-1.907.927-1.907 2.072 0 1.144.853 2.072 1.907 2.072zm8.084 13.594c1.053 0 1.907-.927 1.907-2.072 0-1.144-.854-2.072-1.907-2.072s-1.906.928-1.906 2.072c0 1.145.853 2.072 1.906 2.072zM5.85 207.069c1.054 0 1.907-.928 1.907-2.072 0-1.145-.853-2.072-1.906-2.072-1.054 0-1.907.927-1.907 2.072 0 1.144.853 2.072 1.907 2.072zm11.82-9.854c1.053 0 1.907-.927 1.907-2.072 0-1.144-.854-2.072-1.907-2.072s-1.907.928-1.907 2.072c0 1.145.854 2.072 1.907 2.072zm12.276-9.168c1.053 0 1.907-.928 1.907-2.072 0-1.144-.854-2.072-1.907-2.072s-1.907.928-1.907 2.072c0 1.144.854 2.072 1.907 2.072zm12.702-8.458c1.053 0 1.907-.927 1.907-2.072 0-1.144-.854-2.072-1.907-2.072s-1.907.928-1.907 2.072c0 1.145.854 2.072 1.907 2.072zm13.091-7.724c1.053 0 1.907-.928 1.907-2.072 0-1.145-.854-2.072-1.907-2.072s-1.907.927-1.907 2.072c0 1.144.854 2.072 1.907 2.072zm13.447-6.97c1.053 0 1.906-.927 1.906-2.072 0-1.144-.853-2.072-1.906-2.072-1.054 0-1.907.928-1.907 2.072 0 1.145.853 2.072 1.907 2.072zm13.763-6.516c.89 0 1.61-.783 1.61-1.75 0-.966-.72-1.75-1.61-1.75-.89 0-1.611.784-1.611 1.75 0 .967.721 1.75 1.61 1.75zm14.042-7.117c.019 0 .034-.016.034-.036 0-.02-.016-.036-.034-.036-.018 0-.033.016-.033.036 0 .02.015.036.033.036zm14.283-4.596c.018 0 .033-.017.033-.037 0-.02-.015-.036-.033-.036-.018 0-.033.016-.033.036 0 .02.015.037.033.037zm14.486-3.779c.018 0 .033-.016.033-.036 0-.02-.015-.037-.033-.037-.019 0-.034.017-.034.037 0 .02.015.036.034.036zm14.647-2.951c.018 0 .033-.016.033-.036 0-.02-.015-.036-.033-.036-.019 0-.034.016-.034.036 0 .02.015.036.034.036zm14.768-2.111c.019 0 .034-.016.034-.036 0-.02-.015-.037-.034-.037-.018 0-.033.017-.033.037 0 .02.015.036.033.036zm29.743-1.66c.037 0 .066-.032.066-.071 0-.04-.029-.072-.066-.072-.036 0-.066.032-.066.072 0 .039.03.071.066.071zm14.893 1.031c.345 0 .625-.304.625-.678 0-.375-.28-.678-.625-.678s-.624.303-.624.678c0 .374.279.678.624.678zm14.851.629c.018 0 .033-.016.033-.036 0-.02-.015-.037-.033-.037-.018 0-.033.017-.033.037 0 .02.015.036.033.036zm85.99 25.534c.272 0 .493-.24.493-.535 0-.296-.221-.535-.493-.535s-.493.239-.493.535c0 .295.221.535.493.535zm13.447 6.969c.272 0 .493-.24.493-.535 0-.296-.221-.535-.493-.535-.273 0-.494.239-.494.535 0 .295.221.535.494.535zm13.09 7.226c.018 0 .033-.016.033-.036 0-.02-.015-.037-.033-.037-.019 0-.033.017-.033.037 0 .02.014.036.033.036zm12.702 10.028c.817 0 1.479-.719 1.479-1.607 0-.887-.662-1.607-1.479-1.607-.817 0-1.479.72-1.479 1.607 0 .888.662 1.607 1.479 1.607zm12.275 9.454c.963 0 1.743-.847 1.743-1.893 0-1.045-.78-1.893-1.743-1.893-.962 0-1.742.848-1.742 1.893 0 1.046.78 1.893 1.742 1.893zm11.82 9.997c1.035 0 1.874-.912 1.874-2.036 0-1.125-.839-2.036-1.874-2.036-1.035 0-1.874.911-1.874 2.036 0 1.124.839 2.036 1.874 2.036zm11.327 10.55c1.054 0 1.907-.928 1.907-2.072 0-1.145-.853-2.072-1.907-2.072-1.053 0-1.906.927-1.906 2.072 0 1.144.853 2.072 1.906 2.072zm10.806 11.142c1.053 0 1.907-.928 1.907-2.072 0-1.145-.854-2.072-1.907-2.072s-1.907.927-1.907 2.072c0 1.144.854 2.072 1.907 2.072zm10.253 11.741c1.054 0 1.907-.928 1.907-2.072 0-1.145-.853-2.072-1.907-2.072-1.053 0-1.906.927-1.906 2.072 0 1.144.853 2.072 1.906 2.072zm9.676 12.308c1.053 0 1.907-.928 1.907-2.072 0-1.144-.854-2.072-1.907-2.072s-1.907.928-1.907 2.072c0 1.144.854 2.072 1.907 2.072zm9.068 12.843c1.053 0 1.907-.928 1.907-2.072 0-1.144-.854-2.072-1.907-2.072s-1.907.928-1.907 2.072c0 1.144.854 2.072 1.907 2.072zm8.438 13.339c1.053 0 1.906-.927 1.906-2.072 0-1.144-.853-2.072-1.906-2.072-1.054 0-1.907.928-1.907 2.072 0 1.145.853 2.072 1.907 2.072zm7.783 13.803c1.053 0 1.907-.928 1.907-2.072 0-1.145-.854-2.072-1.907-2.072s-1.907.927-1.907 2.072c0 1.144.854 2.072 1.907 2.072zM7.701 189.192c1.054 0 1.907-.927 1.907-2.072 0-1.144-.853-2.072-1.907-2.072-1.053 0-1.906.928-1.906 2.072 0 1.145.853 2.072 1.906 2.072zm12.161-9.349c1.053 0 1.907-.927 1.907-2.072 0-1.144-.854-2.072-1.907-2.072s-1.907.928-1.907 2.072c0 1.145.854 2.072 1.907 2.072zm12.578-8.674c1.054 0 1.907-.928 1.907-2.072 0-1.144-.853-2.072-1.906-2.072s-1.907.928-1.907 2.072c0 1.144.854 2.072 1.907 2.072zm12.963-7.975c1.053 0 1.907-.928 1.907-2.072 0-1.144-.854-2.072-1.907-2.072s-1.907.928-1.907 2.072c0 1.144.854 2.072 1.907 2.072zm13.317-7.259c1.053 0 1.906-.928 1.906-2.072 0-1.144-.853-2.072-1.906-2.072s-1.907.928-1.907 2.072c0 1.144.853 2.072 1.907 2.072zm13.634-6.522c1.053 0 1.906-.927 1.906-2.072 0-1.144-.853-2.072-1.906-2.072s-1.907.928-1.907 2.072c0 1.145.853 2.072 1.907 2.072zm13.917-5.804c1.035 0 1.874-.912 1.874-2.037 0-1.124-.839-2.036-1.874-2.036-1.035 0-1.874.912-1.874 2.036 0 1.125.84 2.037 1.874 2.037zm14.17-5.86c.6 0 1.086-.528 1.086-1.179 0-.652-.486-1.18-1.086-1.18-.6 0-1.086.528-1.086 1.18 0 .651.487 1.179 1.086 1.179zm14.38-5.365c.018 0 .033-.017.033-.037 0-.02-.015-.036-.033-.036-.018 0-.033.016-.033.036 0 .02.015.037.033.037zm14.558-3.432c.018 0 .033-.016.033-.036 0-.02-.015-.037-.033-.037-.018 0-.033.017-.033.037 0 .02.015.036.033.036zm14.7-2.632c.018 0 .033-.016.033-.036 0-.02-.015-.036-.033-.036-.019 0-.034.016-.034.036 0 .02.015.036.034.036zm14.801-1.827c.019 0 .034-.016.034-.036 0-.02-.015-.037-.034-.037-.018 0-.033.017-.033.037 0 .02.015.036.033.036zm14.868-1.016c.018 0 .033-.017.033-.037 0-.02-.015-.036-.033-.036-.019 0-.034.016-.034.036 0 .02.015.037.034.037zm102.762 15.784c.146 0 .264-.128.264-.286 0-.158-.118-.287-.264-.287-.146 0-.264.129-.264.287 0 .158.118.286.264.286zm41.308 18.891c.381 0 .691-.336.691-.75s-.31-.75-.691-.75c-.381 0-.69.336-.69.75s.309.75.69.75zm13.143 6.976c.055 0 .099-.048.099-.107s-.044-.107-.099-.107c-.055 0-.099.048-.099.107s.044.107.099.107zm12.775 8.291c.036 0 .066-.032.066-.071 0-.04-.03-.072-.066-.072-.037 0-.066.032-.066.072 0 .039.029.071.066.071zm12.373 9.836c.454 0 .823-.399.823-.892 0-.494-.369-.893-.823-.893-.454 0-.822.399-.822.893 0 .493.368.892.822.892zm11.941 10.786c1.017 0 1.841-.896 1.841-2.001 0-1.104-.824-2-1.841-2s-1.841.896-1.841 2c0 1.105.824 2.001 1.841 2.001zm11.477 10.283c.999 0 1.808-.88 1.808-1.965s-.809-1.964-1.808-1.964c-.998 0-1.808.879-1.808 1.964s.81 1.965 1.808 1.965zm10.988 11.038c1.053 0 1.907-.928 1.907-2.072 0-1.144-.854-2.072-1.907-2.072s-1.907.928-1.907 2.072c0 1.144.854 2.072 1.907 2.072zm10.466 11.519c1.054 0 1.907-.927 1.907-2.072 0-1.144-.853-2.072-1.907-2.072-1.053 0-1.906.928-1.906 2.072 0 1.145.853 2.072 1.906 2.072zm9.923 12.074c1.053 0 1.907-.927 1.907-2.071 0-1.145-.854-2.072-1.907-2.072s-1.907.927-1.907 2.072c0 1.144.854 2.071 1.907 2.071zm9.35 12.602c1.053 0 1.907-.928 1.907-2.072 0-1.144-.854-2.072-1.907-2.072s-1.907.928-1.907 2.072c0 1.144.854 2.072 1.907 2.072zm8.757 13.096c1.053 0 1.906-.928 1.906-2.072 0-1.145-.853-2.072-1.906-2.072-1.054 0-1.907.927-1.907 2.072 0 1.144.853 2.072 1.907 2.072zm8.139 13.557c1.053 0 1.907-.927 1.907-2.072 0-1.144-.854-2.072-1.907-2.072s-1.907.928-1.907 2.072c0 1.145.854 2.072 1.907 2.072zm7.502 13.983c1.053 0 1.907-.927 1.907-2.072 0-1.144-.854-2.072-1.907-2.072s-1.907.928-1.907 2.072c0 1.145.854 2.072 1.907 2.072zM9.81 171.691c1.054 0 1.908-.927 1.908-2.072 0-1.144-.854-2.072-1.907-2.072s-1.907.928-1.907 2.072c0 1.145.854 2.072 1.907 2.072zm12.463-8.869c1.053 0 1.907-.928 1.907-2.072 0-1.145-.854-2.072-1.907-2.072s-1.907.927-1.907 2.072c0 1.144.854 2.072 1.907 2.072zm12.84-8.207c1.053 0 1.907-.928 1.907-2.072 0-1.145-.854-2.072-1.907-2.072s-1.907.927-1.907 2.072c0 1.144.854 2.072 1.907 2.072zm13.191-7.523c1.054 0 1.907-.927 1.907-2.072 0-1.144-.853-2.072-1.907-2.072-1.053 0-1.906.928-1.906 2.072 0 1.145.853 2.072 1.906 2.072zm13.51-6.856c1.035 0 1.873-.912 1.873-2.036 0-1.125-.838-2.036-1.873-2.036-1.035 0-1.874.911-1.874 2.036 0 1.124.839 2.036 1.874 2.036zm13.797-6.604c.782 0 1.415-.689 1.415-1.537 0-.849-.633-1.537-1.415-1.537-.781 0-1.415.688-1.415 1.537 0 .848.634 1.537 1.415 1.537zm14.052-6.839c.037 0 .066-.032.066-.072 0-.039-.03-.071-.066-.071-.036 0-.066.032-.066.071 0 .04.03.072.066.072zm58.101-13.986c.018 0 .033-.016.033-.036 0-.02-.015-.036-.033-.036-.018 0-.033.016-.033.036 0 .02.015.036.033.036zm29.707-2.344c.018 0 .033-.016.033-.036 0-.02-.015-.036-.033-.036-.018 0-.033.016-.033.036 0 .02.015.036.033.036zm116.755 21.739c.055 0 .099-.048.099-.107 0-.06-.044-.108-.099-.108-.055 0-.099.048-.099.108 0 .059.044.107.099.107zm13.797 6.105c.055 0 .099-.048.099-.107 0-.06-.044-.108-.099-.108-.054 0-.099.048-.099.108 0 .059.045.107.099.107zm26.701 14.272c.018 0 .033-.016.033-.036 0-.02-.015-.036-.033-.036-.018 0-.033.016-.033.036 0 .02.015.036.033.036zm37.354 28.27c.872 0 1.578-.768 1.578-1.714 0-.947-.706-1.714-1.578-1.714-.871 0-1.578.767-1.578 1.714 0 .946.707 1.714 1.578 1.714zm11.613 10.422c1.017 0 1.841-.895 1.841-2s-.824-2-1.841-2c-1.016 0-1.84.895-1.84 2s.824 2 1.84 2zm11.151 10.806c1.054 0 1.907-.928 1.907-2.072 0-1.145-.853-2.072-1.907-2.072-1.053 0-1.906.927-1.906 2.072 0 1.144.853 2.072 1.906 2.072zm10.661 11.308c1.053 0 1.907-.927 1.907-2.072 0-1.144-.854-2.072-1.907-2.072s-1.907.928-1.907 2.072c0 1.145.854 2.072 1.907 2.072zm10.145 11.852c1.053 0 1.907-.928 1.907-2.072 0-1.145-.854-2.072-1.907-2.072s-1.907.927-1.907 2.072c0 1.144.854 2.072 1.907 2.072zm9.607 12.373c1.053 0 1.906-.928 1.906-2.072 0-1.145-.853-2.072-1.906-2.072-1.054 0-1.907.927-1.907 2.072 0 1.144.853 2.072 1.907 2.072zm9.045 12.863c1.053 0 1.906-.928 1.906-2.072 0-1.144-.853-2.072-1.906-2.072s-1.907.928-1.907 2.072c0 1.144.854 2.072 1.907 2.072zm8.462 13.321c1.053 0 1.906-.927 1.906-2.072 0-1.144-.853-2.072-1.906-2.072-1.054 0-1.907.928-1.907 2.072 0 1.145.853 2.072 1.907 2.072zm7.861 13.75c1.053 0 1.907-.927 1.907-2.072 0-1.144-.854-2.072-1.907-2.072s-1.907.928-1.907 2.072c0 1.145.854 2.072 1.907 2.072zm7.238 14.148c1.053 0 1.907-.927 1.907-2.072 0-1.144-.854-2.072-1.907-2.072s-1.906.928-1.906 2.072c0 1.145.853 2.072 1.906 2.072zM-.21 163.588c1.053 0 1.906-.928 1.906-2.072 0-1.145-.853-2.072-1.907-2.072-1.053 0-1.906.927-1.906 2.072 0 1.144.853 2.072 1.906 2.072zm12.35-9.052c1.052 0 1.906-.928 1.906-2.072 0-1.145-.854-2.072-1.907-2.072s-1.906.927-1.906 2.072c0 1.144.853 2.072 1.906 2.072zm12.724-8.417c1.054 0 1.907-.928 1.907-2.072 0-1.144-.853-2.072-1.907-2.072-1.053 0-1.906.928-1.906 2.072 0 1.144.853 2.072 1.907 2.072zm13.071-7.766c1.053 0 1.907-.927 1.907-2.072 0-1.144-.853-2.072-1.907-2.072-1.053 0-1.906.928-1.906 2.072 0 1.145.853 2.072 1.906 2.072zm13.39-7.131c1.034 0 1.873-.912 1.873-2.037 0-1.124-.839-2.036-1.873-2.036-1.035 0-1.874.912-1.874 2.036 0 1.125.839 2.037 1.873 2.037zm13.678-6.628c.926 0 1.676-.815 1.676-1.821s-.75-1.822-1.676-1.822c-.926 0-1.676.816-1.676 1.822 0 1.006.75 1.821 1.676 1.821zm13.939-7.461c.037 0 .066-.032.066-.072 0-.039-.03-.071-.066-.071-.036 0-.066.032-.066.071 0 .04.03.072.066.072zm72.517-17.745c.018 0 .033-.017.033-.036 0-.02-.015-.037-.033-.037-.019 0-.033.017-.033.037 0 .02.014.036.033.036zm14.848-1.318c.018 0 .033-.015.033-.035 0-.02-.015-.036-.033-.036-.019 0-.034.016-.034.036 0 .02.015.036.034.036zm145.4 28.288c.237 0 .429-.208.429-.465s-.192-.465-.429-.465c-.236 0-.428.208-.428.465s.192.465.428.465zm64.367 39.987c.037 0 .066-.032.066-.072 0-.039-.029-.071-.066-.071-.036 0-.066.032-.066.071 0 .04.03.072.066.072zm11.739 11.895c1.017 0 1.841-.896 1.841-2 0-1.105-.824-2.001-1.841-2.001s-1.841.896-1.841 2.001c0 1.104.824 2 1.841 2zm11.299 10.621c1.054 0 1.907-.927 1.907-2.072 0-1.144-.853-2.072-1.907-2.072-1.053 0-1.906.928-1.906 2.072 0 1.145.853 2.072 1.906 2.072zm10.837 11.108c1.053 0 1.907-.928 1.907-2.072 0-1.144-.854-2.072-1.907-2.072s-1.907.928-1.907 2.072c0 1.144.854 2.072 1.907 2.072zm10.347 11.645c1.054 0 1.907-.928 1.907-2.072 0-1.145-.853-2.072-1.907-2.072-1.053 0-1.906.927-1.906 2.072 0 1.144.853 2.072 1.906 2.072zm9.839 12.154c1.053 0 1.907-.928 1.907-2.072 0-1.144-.854-2.072-1.907-2.072s-1.907.928-1.907 2.072c0 1.144.854 2.072 1.907 2.072zm9.307 12.64c1.053 0 1.907-.928 1.907-2.072 0-1.145-.854-2.072-1.907-2.072s-1.907.927-1.907 2.072c0 1.144.854 2.072 1.907 2.072zm8.757 13.095c1.053 0 1.907-.927 1.907-2.072 0-1.144-.854-2.072-1.907-2.072s-1.907.928-1.907 2.072c0 1.145.854 2.072 1.907 2.072zm8.187 13.561c1.071 0 1.94-.944 1.94-2.108 0-1.164-.869-2.107-1.94-2.107s-1.94.943-1.94 2.107c0 1.164.869 2.108 1.94 2.108zm7.597 13.887c1.054 0 1.907-.928 1.907-2.072 0-1.145-.853-2.072-1.907-2.072-1.053 0-1.906.927-1.906 2.072 0 1.144.853 2.072 1.906 2.072zm6.994 14.292c1.053 0 1.907-.928 1.907-2.072 0-1.144-.854-2.072-1.907-2.072s-1.907.928-1.907 2.072c0 1.144.854 2.072 1.907 2.072zM2.04 146.307c1.053 0 1.907-.928 1.907-2.072 0-1.144-.854-2.072-1.907-2.072s-1.907.928-1.907 2.072c0 1.144.854 2.072 1.907 2.072zm12.615-8.612c1.053 0 1.907-.927 1.907-2.072 0-1.144-.854-2.072-1.907-2.072s-1.907.928-1.907 2.072c0 1.145.854 2.072 1.907 2.072zm12.956-8.132c.98 0 1.775-.864 1.775-1.929s-.795-1.929-1.775-1.929c-.98 0-1.775.864-1.775 1.929s.795 1.929 1.775 1.929zm13.274-7.74c.782 0 1.415-.689 1.415-1.537 0-.849-.633-1.537-1.415-1.537-.781 0-1.415.688-1.415 1.537 0 .848.634 1.537 1.415 1.537zm13.564-7.768c.236 0 .428-.208.428-.465s-.192-.465-.428-.465c-.237 0-.43.208-.43.465s.193.465.43.465zm337.447 50.955c.89 0 1.611-.783 1.611-1.75 0-.966-.721-1.75-1.611-1.75s-1.611.784-1.611 1.75c0 .967.721 1.75 1.611 1.75zm11.433 10.696c1.053 0 1.907-.927 1.907-2.072 0-1.144-.854-2.072-1.907-2.072s-1.906.928-1.906 2.072c0 1.145.853 2.072 1.906 2.072zm10.997 10.922c1.053 0 1.906-.928 1.906-2.072 0-1.144-.853-2.072-1.906-2.072s-1.907.928-1.907 2.072c0 1.144.854 2.072 1.907 2.072zm10.533 11.446c1.053 0 1.907-.928 1.907-2.072 0-1.144-.854-2.072-1.907-2.072s-1.907.928-1.907 2.072c0 1.144.854 2.072 1.907 2.072zm10.051 11.949c1.053 0 1.907-.928 1.907-2.072 0-1.144-.854-2.072-1.907-2.072s-1.906.928-1.906 2.072c0 1.144.853 2.072 1.906 2.072zm9.548 12.425c1.053 0 1.907-.928 1.907-2.072 0-1.145-.854-2.072-1.907-2.072s-1.907.927-1.907 2.072c0 1.144.854 2.072 1.907 2.072zm9.025 12.879c1.053 0 1.907-.928 1.907-2.072 0-1.145-.854-2.072-1.907-2.072s-1.907.927-1.907 2.072c0 1.144.854 2.072 1.907 2.072zm8.484 13.199c.998 0 1.808-.879 1.808-1.964s-.81-1.965-1.808-1.965c-.999 0-1.808.88-1.808 1.965s.809 1.964 1.808 1.964zm7.925 13.672c.98 0 1.775-.864 1.775-1.929s-.795-1.929-1.775-1.929c-.981 0-1.775.864-1.775 1.929s.794 1.929 1.775 1.929zm7.352 14.221c1.053 0 1.907-.927 1.907-2.072 0-1.144-.854-2.072-1.907-2.072s-1.907.928-1.907 2.072c0 1.145.854 2.072 1.907 2.072zm6.763 14.423c1.053 0 1.907-.927 1.907-2.072 0-1.144-.854-2.072-1.907-2.072s-1.907.928-1.907 2.072c0 1.145.854 2.072 1.907 2.072zM4.481 128.658c.709 0 1.283-.624 1.283-1.394 0-.77-.574-1.394-1.283-1.394s-1.283.624-1.283 1.394c0 .77.574 1.394 1.283 1.394zm12.847-9.446c.073 0 .132-.064.132-.143 0-.079-.06-.143-.132-.143-.073 0-.132.064-.132.143 0 .079.06.143.132.143zm378.615 31.185c.036 0 .066-.032.066-.072 0-.039-.03-.071-.066-.071-.037 0-.066.032-.066.071 0 .04.029.072.066.072zm11.559 12.212c1.053 0 1.907-.928 1.907-2.072 0-1.145-.854-2.072-1.907-2.072s-1.907.927-1.907 2.072c0 1.144.854 2.072 1.907 2.072zm11.143 10.744c1.053 0 1.907-.927 1.907-2.072 0-1.144-.854-2.072-1.907-2.072s-1.907.928-1.907 2.072c0 1.145.854 2.072 1.907 2.072zm10.703 11.259c1.053 0 1.907-.928 1.907-2.072 0-1.145-.854-2.072-1.907-2.072s-1.907.927-1.907 2.072c0 1.144.854 2.072 1.907 2.072zm10.245 11.752c1.054 0 1.907-.928 1.907-2.072 0-1.145-.853-2.072-1.907-2.072-1.053 0-1.906.927-1.906 2.072 0 1.144.853 2.072 1.906 2.072zm9.767 12.224c1.053 0 1.907-.928 1.907-2.072 0-1.145-.854-2.072-1.907-2.072s-1.907.927-1.907 2.072c0 1.144.854 2.072 1.907 2.072zm9.27 12.671c1.053 0 1.907-.927 1.907-2.072 0-1.144-.854-2.072-1.907-2.072s-1.907.928-1.907 2.072c0 1.145.854 2.072 1.907 2.072zm8.757 13.096c1.053 0 1.907-.927 1.907-2.072 0-1.144-.854-2.072-1.907-2.072s-1.907.928-1.907 2.072c0 1.145.854 2.072 1.907 2.072zm8.227 13.461c1.035 0 1.874-.912 1.874-2.037 0-1.124-.839-2.036-1.874-2.036-1.035 0-1.874.912-1.874 2.036 0 1.125.839 2.037 1.874 2.037zm7.68 13.906c1.053 0 1.907-.928 1.907-2.072 0-1.144-.854-2.072-1.907-2.072s-1.907.928-1.907 2.072c0 1.144.854 2.072 1.907 2.072zm7.12 14.218c1.053 0 1.907-.928 1.907-2.072 0-1.144-.854-2.072-1.907-2.072s-1.907.928-1.907 2.072c0 1.144.854 2.072 1.907 2.072zm6.547 14.541c1.053 0 1.907-.928 1.907-2.072 0-1.144-.854-2.072-1.907-2.072s-1.907.928-1.907 2.072c0 1.144.854 2.072 1.907 2.072zm-97.002-153.009c.019 0 .033-.016.033-.036 0-.02-.014-.036-.033-.036-.018 0-.033.016-.033.036 0 .02.015.036.033.036zm11.676 10.196c.092 0 .165-.08.165-.179 0-.098-.073-.178-.165-.178-.091 0-.165.08-.165.178 0 .099.074.179.165.179zm11.276 12.436c1.035 0 1.874-.912 1.874-2.037 0-1.124-.839-2.036-1.874-2.036-1.034 0-1.873.912-1.873 2.036 0 1.125.839 2.037 1.873 2.037zm10.86 11.117c1.053 0 1.907-.928 1.907-2.072 0-1.145-.854-2.072-1.907-2.072s-1.907.927-1.907 2.072c0 1.144.854 2.072 1.907 2.072zm10.423 11.53c1.035 0 1.874-.912 1.874-2.036 0-1.125-.839-2.037-1.874-2.037-1.035 0-1.874.912-1.874 2.037 0 1.124.839 2.036 1.874 2.036zm9.969 12.065c1.053 0 1.907-.928 1.907-2.072 0-1.144-.854-2.072-1.907-2.072s-1.907.928-1.907 2.072c0 1.144.854 2.072 1.907 2.072zm9.496 12.473c1.053 0 1.907-.928 1.907-2.072 0-1.144-.854-2.072-1.907-2.072s-1.907.928-1.907 2.072c0 1.144.854 2.072 1.907 2.072zm9.007 12.893c1.053 0 1.907-.928 1.907-2.072 0-1.144-.854-2.072-1.907-2.072s-1.906.928-1.906 2.072c0 1.144.853 2.072 1.906 2.072zm8.502 13.15c.98 0 1.775-.864 1.775-1.929s-.795-1.929-1.775-1.929c-.98 0-1.775.864-1.775 1.929s.795 1.929 1.775 1.929zm7.983 13.704c.999 0 1.808-.88 1.808-1.965s-.809-1.965-1.808-1.965-1.808.88-1.808 1.965.809 1.965 1.808 1.965zm7.448 14.126c1.053 0 1.907-.928 1.907-2.072 0-1.144-.854-2.072-1.907-2.072s-1.907.928-1.907 2.072c0 1.144.854 2.072 1.907 2.072zm6.902 14.346c1.053 0 1.907-.927 1.907-2.072 0-1.144-.854-2.072-1.907-2.072s-1.907.928-1.907 2.072c0 1.145.854 2.072 1.907 2.072zm6.343 14.648c1.053 0 1.907-.928 1.907-2.072 0-1.145-.854-2.072-1.907-2.072s-1.906.927-1.906 2.072c0 1.144.853 2.072 1.906 2.072zM403.951 126.118c.781 0 1.415-.688 1.415-1.537 0-.848-.634-1.537-1.415-1.537-.782 0-1.415.689-1.415 1.537 0 .849.633 1.537 1.415 1.537zm11.78 8.731c.182 0 .33-.161.33-.358 0-.198-.148-.358-.33-.358-.182 0-.33.16-.33.358 0 .197.148.358.33.358zm11.401 11.132c.546 0 .988-.48.988-1.072 0-.592-.442-1.071-.988-1.071-.545 0-.987.479-.987 1.071s.442 1.072.987 1.072zm11.003 11.913c1.053 0 1.906-.928 1.906-2.072 0-1.144-.853-2.072-1.906-2.072-1.054 0-1.907.928-1.907 2.072 0 1.144.853 2.072 1.907 2.072zm10.588 11.031c.871 0 1.578-.767 1.578-1.714 0-.946-.707-1.714-1.578-1.714-.872 0-1.578.768-1.578 1.714 0 .947.706 1.714 1.578 1.714zm10.153 12.203c1.053 0 1.906-.928 1.906-2.072 0-1.144-.853-2.072-1.906-2.072s-1.907.928-1.907 2.072c0 1.144.854 2.072 1.907 2.072zm9.705 12.284c1.053 0 1.907-.928 1.907-2.072 0-1.145-.854-2.072-1.907-2.072s-1.907.927-1.907 2.072c0 1.144.854 2.072 1.907 2.072zm9.238 12.699c1.053 0 1.907-.927 1.907-2.071 0-1.145-.854-2.072-1.907-2.072s-1.907.927-1.907 2.072c0 1.144.854 2.071 1.907 2.071zm8.755 13.132c1.071 0 1.94-.944 1.94-2.108 0-1.164-.869-2.108-1.94-2.108s-1.94.944-1.94 2.108c0 1.164.869 2.108 1.94 2.108zm8.261 13.328c.999 0 1.808-.879 1.808-1.964s-.809-1.965-1.808-1.965c-.998 0-1.808.88-1.808 1.965s.81 1.964 1.808 1.964zm7.752 13.931c1.054 0 1.907-.927 1.907-2.072 0-1.144-.853-2.072-1.907-2.072-1.053 0-1.906.928-1.906 2.072 0 1.145.853 2.072 1.906 2.072zm7.229 14.154c1.053 0 1.907-.928 1.907-2.072 0-1.145-.854-2.072-1.907-2.072s-1.907.927-1.907 2.072c0 1.144.854 2.072 1.907 2.072zm6.697 14.461c1.053 0 1.907-.928 1.907-2.072 0-1.145-.854-2.072-1.907-2.072s-1.906.927-1.906 2.072c0 1.144.853 2.072 1.906 2.072zm6.15 14.743c1.053 0 1.907-.927 1.907-2.072 0-1.144-.854-2.072-1.907-2.072s-1.906.928-1.906 2.072c0 1.145.853 2.072 1.906 2.072zM244.269 38.145c.018 0 .033-.017.033-.037 0-.02-.015-.036-.033-.036-.019 0-.034.016-.034.036 0 .02.015.037.034.037zM407.917 111.8c.019 0 .034-.016.034-.036 0-.02-.015-.036-.034-.036-.018 0-.033.016-.033.036 0 .02.015.036.033.036zm11.878 10.128c.2 0 .363-.176.363-.394 0-.217-.163-.393-.363-.393-.201 0-.363.176-.363.393 0 .218.162.394.363.394zm11.516 10.875c.509 0 .922-.448.922-1s-.413-1-.922-1c-.508 0-.921.448-.921 1s.413 1 .921 1zm11.137 10.539c.399 0 .723-.352.723-.786 0-.433-.324-.785-.723-.785-.4 0-.724.352-.724.785 0 .434.324.786.724.786zm10.737 12.507c1.053 0 1.907-.928 1.907-2.072 0-1.144-.854-2.072-1.907-2.072s-1.907.928-1.907 2.072c0 1.144.854 2.072 1.907 2.072zm10.327 10.918c.673 0 1.218-.592 1.218-1.322 0-.73-.545-1.322-1.218-1.322-.673 0-1.218.592-1.218 1.322 0 .73.545 1.322 1.218 1.322zm9.896 12.851c1.053 0 1.906-.928 1.906-2.072 0-1.145-.853-2.072-1.906-2.072-1.054 0-1.907.927-1.907 2.072 0 1.144.853 2.072 1.907 2.072zm9.45 12.514c1.053 0 1.906-.927 1.906-2.072 0-1.144-.853-2.072-1.906-2.072-1.054 0-1.907.928-1.907 2.072 0 1.145.853 2.072 1.907 2.072zm8.992 12.906c1.053 0 1.907-.928 1.907-2.072 0-1.144-.854-2.072-1.907-2.072s-1.907.928-1.907 2.072c0 1.144.854 2.072 1.907 2.072zm8.518 13.21c1.017 0 1.841-.896 1.841-2.001 0-1.104-.824-2-1.841-2s-1.841.896-1.841 2c0 1.105.824 2.001 1.841 2.001zm8.031 13.633c1.016 0 1.841-.896 1.841-2.001s-.825-2-1.841-2c-1.017 0-1.841.895-1.841 2s.824 2.001 1.841 2.001zm7.533 14.038c1.053 0 1.907-.927 1.907-2.072 0-1.144-.854-2.072-1.907-2.072s-1.907.928-1.907 2.072c0 1.145.854 2.072 1.907 2.072zm7.023 14.277c1.053 0 1.907-.928 1.907-2.072 0-1.145-.854-2.072-1.907-2.072s-1.907.927-1.907 2.072c0 1.144.854 2.072 1.907 2.072zm6.501 14.565c1.053 0 1.907-.928 1.907-2.072 0-1.145-.854-2.072-1.907-2.072s-1.907.927-1.907 2.072c0 1.144.854 2.072 1.907 2.072zm5.971 14.831c1.053 0 1.906-.928 1.906-2.072 0-1.145-.853-2.072-1.906-2.072-1.054 0-1.907.927-1.907 2.072 0 1.144.853 2.072 1.907 2.072zM2.339 69.317c.018 0 .033-.016.033-.036 0-.02-.015-.036-.033-.036-.019 0-.034.016-.034.036 0 .02.015.036.034.036zm230.876-45.88c.018 0 .033-.017.033-.037 0-.02-.015-.036-.033-.036-.018 0-.033.016-.033.036 0 .02.015.037.033.037zm14.746 2.304c.018 0 .033-.016.033-.036 0-.02-.015-.036-.033-.036-.019 0-.034.016-.034.036 0 .02.015.036.034.036zm14.655 2.911c.018 0 .033-.016.033-.036 0-.02-.015-.036-.033-.036-.019 0-.034.016-.034.036 0 .02.015.036.034.036zm136.948 61.225c.018 0 .033-.016.033-.036 0-.02-.015-.036-.033-.036-.018 0-.033.016-.033.036 0 .02.015.037.033.037zm12.299 9.138c.018 0 .033-.016.033-.036 0-.02-.015-.036-.033-.036-.019 0-.034.016-.034.036 0 .02.015.036.034.036zm45.727 41.783c.201 0 .363-.176.363-.394 0-.217-.162-.393-.363-.393-.2 0-.362.176-.362.393 0 .218.162.394.362.394zm10.485 11.893c.399 0 .723-.352.723-.785 0-.434-.324-.786-.723-.786-.4 0-.724.352-.724.786 0 .433.324.785.724.785zm10.073 11.393c.128 0 .231-.113.231-.251s-.103-.25-.231-.25c-.127 0-.231.112-.231.25s.104.251.231.251zm9.648 14.047c.998 0 1.808-.88 1.808-1.965s-.81-1.964-1.808-1.964c-.999 0-1.808.879-1.808 1.964s.809 1.965 1.808 1.965zm9.209 12.833c1.054 0 1.907-.928 1.907-2.072 0-1.145-.853-2.072-1.907-2.072-1.053 0-1.906.927-1.906 2.072 0 1.144.853 2.072 1.906 2.072zm8.756 12.988c.998 0 1.808-.88 1.808-1.965s-.81-1.965-1.808-1.965c-.999 0-1.808.88-1.808 1.965s.809 1.965 1.808 1.965zm8.292 13.45c.999 0 1.808-.88 1.808-1.965s-.809-1.964-1.808-1.964c-.998 0-1.808.879-1.808 1.964s.81 1.965 1.808 1.965zm7.814 13.89c1.053 0 1.906-.928 1.906-2.072 0-1.144-.853-2.072-1.906-2.072s-1.907.928-1.907 2.072c0 1.144.854 2.072 1.907 2.072zm7.325 14.094c1.054 0 1.907-.928 1.907-2.072 0-1.144-.853-2.072-1.907-2.072-1.053 0-1.906.928-1.906 2.072 0 1.144.853 2.072 1.906 2.072zm6.827 14.389c1.053 0 1.907-.927 1.907-2.072 0-1.144-.854-2.072-1.907-2.072s-1.907.928-1.907 2.072c0 1.145.854 2.072 1.907 2.072zm6.317 14.66c1.053 0 1.907-.928 1.907-2.072 0-1.144-.854-2.072-1.907-2.072s-1.907.928-1.907 2.072c0 1.144.854 2.072 1.907 2.072zm5.8 14.912c1.053 0 1.906-.928 1.906-2.072 0-1.145-.853-2.072-1.906-2.072s-1.907.927-1.907 2.072c0 1.144.854 2.072 1.907 2.072zM5.242 53.223c.018 0 .033-.017.033-.036 0-.02-.015-.037-.033-.037-.018 0-.033.017-.033.037 0 .02.015.036.033.036zm13.456-6.946c.018 0 .033-.017.033-.037 0-.02-.015-.036-.033-.036-.018 0-.033.017-.033.036 0 .02.015.037.033.037zm13.684-6.403c.018 0 .033-.016.033-.036 0-.02-.015-.036-.033-.036-.019 0-.034.016-.034.036 0 .02.015.036.034.036zm204.536-28.912c.019 0 .034-.016.034-.036 0-.02-.015-.036-.034-.036-.018 0-.033.016-.033.036 0 .02.015.036.033.036zm14.736 2.385c.019 0 .034-.016.034-.036 0-.02-.015-.037-.034-.037-.018 0-.033.017-.033.037 0 .02.015.036.033.036zm14.643 2.973a.034.034 0 00.034-.035c0-.02-.015-.037-.034-.037-.018 0-.033.017-.033.037 0 .02.015.036.033.036zm137.124 60.914c.018 0 .033-.016.033-.036 0-.02-.015-.036-.033-.036-.019 0-.034.016-.034.036 0 .02.015.036.034.036zm12.367 9.026c.019 0 .034-.016.034-.036 0-.02-.015-.037-.034-.037-.018 0-.033.017-.033.037 0 .02.015.036.033.036zm76.856 76.131c.018 0 .033-.016.033-.036 0-.02-.015-.036-.033-.036-.019 0-.033.016-.033.036 0 .02.014.036.033.036zm9.41 14.584c1.053 0 1.907-.928 1.907-2.072 0-1.144-.854-2.072-1.907-2.072s-1.907.928-1.907 2.072c0 1.144.854 2.072 1.907 2.072zm8.977 12.918c1.054 0 1.907-.927 1.907-2.072 0-1.144-.853-2.071-1.907-2.071-1.053 0-1.906.927-1.906 2.071 0 1.145.853 2.072 1.906 2.072zm8.534 13.164c.998 0 1.808-.879 1.808-1.964s-.81-1.965-1.808-1.965c-.999 0-1.809.88-1.809 1.965s.81 1.964 1.809 1.964zm8.075 13.674c1.034 0 1.873-.912 1.873-2.037 0-1.124-.839-2.036-1.873-2.036-1.035 0-1.874.912-1.874 2.036 0 1.125.839 2.037 1.874 2.037zm7.607 13.954c1.053 0 1.907-.927 1.907-2.072 0-1.144-.854-2.071-1.907-2.071s-1.907.927-1.907 2.071c0 1.145.854 2.072 1.907 2.072zm7.129 14.214c1.053 0 1.906-.927 1.906-2.072 0-1.144-.853-2.072-1.906-2.072s-1.907.928-1.907 2.072c0 1.145.854 2.072 1.907 2.072zm6.64 14.492c1.054 0 1.907-.928 1.907-2.072 0-1.145-.853-2.072-1.907-2.072-1.053 0-1.906.927-1.906 2.072 0 1.144.853 2.072 1.906 2.072zm6.144 14.749c1.053 0 1.907-.928 1.907-2.072 0-1.145-.854-2.072-1.907-2.072s-1.907.927-1.907 2.072c0 1.144.854 2.072 1.907 2.072zm5.637 14.983c1.053 0 1.906-.928 1.906-2.072 0-1.144-.853-2.072-1.906-2.072s-1.907.928-1.907 2.072c0 1.144.854 2.072 1.907 2.072zM8.24 37.334c.019 0 .034-.016.034-.036 0-.02-.015-.036-.034-.036-.018 0-.033.016-.033.036 0 .02.015.036.033.036zm13.592-6.629c.018 0 .033-.017.033-.036 0-.02-.015-.037-.033-.037-.019 0-.034.016-.034.037 0 .02.015.036.034.036zm13.8-6.095c.019 0 .034-.016.034-.036 0-.02-.015-.036-.034-.036-.018 0-.033.016-.033.036 0 .02.015.036.033.036zm13.995-5.552c.018 0 .033-.016.033-.036 0-.02-.014-.036-.033-.036-.018 0-.033.016-.033.036 0 .02.015.036.033.036zM255.344.961c.019 0 .034-.016.034-.036 0-.02-.015-.036-.034-.036-.018 0-.033.016-.033.036 0 .02.015.036.033.036zm14.634 3.033c.018 0 .033-.016.033-.036 0-.02-.015-.036-.033-.036-.019 0-.033.016-.033.036 0 .02.014.036.033.036zm14.523 3.602c.019 0 .034-.016.034-.036 0-.02-.015-.036-.034-.036-.018 0-.033.016-.033.036 0 .02.015.036.033.036zm122.761 57.015c.019 0 .034-.016.034-.036 0-.02-.015-.036-.034-.036-.018 0-.033.016-.033.036 0 .02.015.036.033.036zm12.434 8.919c.018 0 .033-.017.033-.037 0-.02-.015-.036-.033-.036-.019 0-.034.016-.034.036 0 .02.015.036.034.036zm12.131 9.396c.018 0 .033-.016.033-.036 0-.02-.015-.036-.033-.036-.019 0-.034.016-.034.036 0 .02.015.036.034.036zm75.181 78.428c.182 0 .329-.16.329-.357 0-.198-.147-.358-.329-.358-.182 0-.33.16-.33.358 0 .197.148.357.33.357zm9.183 13.855c.745 0 1.349-.656 1.349-1.465 0-.81-.604-1.466-1.349-1.466s-1.349.656-1.349 1.466c0 .809.604 1.465 1.349 1.465zm8.757 13.418c.908 0 1.644-.799 1.644-1.786 0-.986-.736-1.785-1.644-1.785-.908 0-1.644.799-1.644 1.785 0 .987.736 1.786 1.644 1.786zm8.318 13.571c.98 0 1.775-.863 1.775-1.928 0-1.066-.795-1.929-1.775-1.929-.98 0-1.775.863-1.775 1.929 0 1.065.795 1.928 1.775 1.928zm7.87 13.889c1.053 0 1.906-.928 1.906-2.072 0-1.144-.853-2.072-1.906-2.072s-1.907.928-1.907 2.072c0 1.144.854 2.072 1.907 2.072zm7.409 14.044c1.053 0 1.907-.928 1.907-2.072 0-1.145-.854-2.072-1.907-2.072s-1.906.927-1.906 2.072c0 1.144.853 2.072 1.906 2.072zm6.943 14.323c1.053 0 1.907-.928 1.907-2.072 0-1.145-.854-2.072-1.907-2.072s-1.907.927-1.907 2.072c0 1.144.854 2.072 1.907 2.072zm6.463 14.586c1.053 0 1.907-.928 1.907-2.072 0-1.144-.854-2.072-1.907-2.072s-1.907.928-1.907 2.072c0 1.144.854 2.072 1.907 2.072zm5.979 14.828c1.053 0 1.906-.928 1.906-2.072 0-1.145-.853-2.072-1.906-2.072s-1.907.927-1.907 2.072c0 1.144.854 2.072 1.907 2.072zm5.484 14.194c.618 0 1.119-.544 1.119-1.215s-.501-1.215-1.119-1.215-1.119.544-1.119 1.215.501 1.215 1.119 1.215zM11.32 21.633c.018 0 .033-.016.033-.036 0-.02-.015-.037-.034-.037-.018 0-.033.017-.033.037 0 .02.015.036.033.036zm13.713-6.325c.018 0 .033-.017.033-.037 0-.02-.015-.036-.033-.036-.019 0-.034.017-.034.037 0 .02.015.036.034.036zM38.94 9.507c.019 0 .034-.016.034-.036 0-.02-.015-.036-.034-.036-.018 0-.033.016-.033.036 0 .02.015.036.033.036zm14.088-5.271c.018 0 .033-.016.033-.036 0-.02-.015-.036-.033-.036-.019 0-.034.016-.034.036 0 .02.015.036.034.036zm370.561 56.589c.018 0 .033-.016.033-.036 0-.02-.015-.036-.033-.036-.019 0-.034.016-.034.036 0 .02.015.036.034.036zm12.203 9.287c.018 0 .033-.017.033-.036 0-.02-.015-.037-.033-.037-.019 0-.034.016-.034.037 0 .02.015.036.034.036zm94.423 102.708c.073 0 .132-.064.132-.143 0-.079-.059-.143-.132-.143-.073 0-.132.064-.132.143 0 .079.059.143.132.143zm8.546 15.082c.999 0 1.808-.88 1.808-1.965s-.809-1.964-1.808-1.964c-.998 0-1.808.879-1.808 1.964s.81 1.965 1.808 1.965zm8.113 13.685c1.053 0 1.907-.928 1.907-2.072 0-1.145-.854-2.072-1.907-2.072s-1.907.927-1.907 2.072c0 1.144.854 2.072 1.907 2.072zm7.673 13.875c1.053 0 1.907-.927 1.907-2.072 0-1.144-.854-2.072-1.907-2.072s-1.906.928-1.906 2.072c0 1.145.853 2.072 1.906 2.072zm7.223 14.159c1.053 0 1.906-.928 1.906-2.072 0-1.145-.853-2.072-1.906-2.072-1.054 0-1.907.927-1.907 2.072 0 1.144.853 2.072 1.907 2.072zm6.762 14.423c1.054 0 1.907-.927 1.907-2.072 0-1.144-.853-2.072-1.907-2.072-1.053 0-1.906.928-1.906 2.072 0 1.145.853 2.072 1.906 2.072zm6.297 14.672c1.053 0 1.907-.927 1.907-2.072 0-1.144-.854-2.072-1.907-2.072s-1.906.928-1.906 2.072c0 1.145.853 2.072 1.906 2.072zm5.821 14.651c.926 0 1.676-.816 1.676-1.822 0-1.006-.75-1.821-1.676-1.821-.926 0-1.676.815-1.676 1.821s.75 1.822 1.676 1.822zM14.471 6.11c.018 0 .033-.017.033-.037 0-.02-.014-.036-.033-.036-.018 0-.033.016-.033.036 0 .02.015.036.033.036zM28.295.072c.018 0 .033-.016.033-.036 0-.02-.015-.036-.033-.036-.019 0-.034.016-.034.036 0 .02.015.036.034.036zm399.171 48.073c.019 0 .034-.017.034-.037 0-.02-.015-.036-.034-.036-.018 0-.033.016-.033.036 0 .02.015.037.033.037zm12.271 9.179c.019 0 .033-.016.033-.036 0-.02-.014-.036-.033-.036-.018 0-.033.016-.033.036 0 .02.015.036.033.036zm11.978 9.626c.018 0 .033-.016.033-.036 0-.02-.015-.036-.033-.036-.019 0-.033.016-.033.036 0 .02.014.036.033.036zm83.663 91.684c.018 0 .033-.016.033-.036 0-.02-.015-.036-.033-.036-.019 0-.034.016-.034.036 0 .02.015.036.034.036zm8.757 13.096c.018 0 .033-.017.033-.037 0-.02-.015-.036-.033-.036-.019 0-.034.016-.034.036 0 .02.015.037.034.037zm8.341 15.09c.872 0 1.578-.768 1.578-1.714 0-.947-.706-1.714-1.578-1.714-.871 0-1.578.767-1.578 1.714 0 .946.707 1.714 1.578 1.714zm7.919 14.07c1.053 0 1.906-.927 1.906-2.072 0-1.144-.853-2.072-1.906-2.072-1.054 0-1.907.928-1.907 2.072 0 1.145.853 2.072 1.907 2.072zm7.486 13.996c1.053 0 1.906-.928 1.906-2.072 0-1.144-.853-2.072-1.906-2.072-1.054 0-1.907.928-1.907 2.072 0 1.144.853 2.072 1.907 2.072zm7.044 14.264c1.053 0 1.906-.927 1.906-2.072 0-1.144-.853-2.072-1.906-2.072-1.054 0-1.907.928-1.907 2.072 0 1.145.853 2.072 1.907 2.072zm6.593 14.516c1.053 0 1.907-.927 1.907-2.072 0-1.144-.854-2.072-1.907-2.072s-1.907.928-1.907 2.072c0 1.145.854 2.072 1.907 2.072zm6.137 14.751c1.053 0 1.907-.927 1.907-2.072 0-1.144-.854-2.072-1.907-2.072s-1.907.928-1.907 2.072c0 1.145.854 2.072 1.907 2.072zm5.671 13.327c.219 0 .396-.193.396-.43s-.177-.429-.396-.429c-.218 0-.395.192-.395.429s.177.43.395.43zM431.331 35.485c.018 0 .033-.016.033-.036 0-.02-.015-.036-.033-.036-.018 0-.033.016-.033.036 0 .02.015.036.033.036zm12.335 9.078c.018 0 .033-.017.033-.037 0-.02-.015-.036-.033-.036-.018 0-.033.016-.033.036 0 .02.015.036.033.036zm12.054 9.515c.018 0 .033-.016.033-.036 0-.02-.015-.036-.033-.036-.019 0-.034.016-.034.036 0 .02.015.036.034.036zm84.724 90.659c.073 0 .132-.064.132-.143 0-.079-.059-.143-.132-.143-.072 0-.132.064-.132.143 0 .079.06.143.132.143zm8.955 13.225c.218 0 .396-.192.396-.429s-.178-.43-.396-.43c-.219 0-.396.193-.396.43s.177.429.396.429zm8.556 13.357c.272 0 .493-.24.493-.535 0-.295-.221-.535-.493-.535s-.493.24-.493.535c0 .295.221.535.493.535zm8.149 15.091c1.053 0 1.906-.928 1.906-2.072 0-1.145-.853-2.072-1.906-2.072-1.054 0-1.907.927-1.907 2.072 0 1.144.853 2.072 1.907 2.072zm7.731 13.836c1.053 0 1.906-.927 1.906-2.071 0-1.145-.853-2.072-1.906-2.072s-1.907.927-1.907 2.072c0 1.144.854 2.071 1.907 2.071zm7.306 14.109c1.053 0 1.907-.928 1.907-2.072 0-1.145-.854-2.072-1.907-2.072s-1.907.927-1.907 2.072c0 1.144.854 2.072 1.907 2.072zm6.873 14.362c1.053 0 1.907-.927 1.907-2.072 0-1.144-.854-2.072-1.907-2.072s-1.907.928-1.907 2.072c0 1.145.854 2.072 1.907 2.072zm6.432 14.601c1.053 0 1.906-.928 1.906-2.072 0-1.145-.853-2.072-1.906-2.072-1.054 0-1.907.927-1.907 2.072 0 1.144.853 2.072 1.907 2.072zm5.985 14.825c1.053 0 1.907-.927 1.907-2.072 0-1.144-.854-2.071-1.907-2.071s-1.907.927-1.907 2.071c0 1.145.854 2.072 1.907 2.072zm5.53 13.638c.345 0 .625-.304.625-.678 0-.375-.28-.678-.625-.678s-.624.303-.624.678c0 .374.279.678.624.678zM447.58 31.826c.018 0 .033-.016.033-.036 0-.02-.015-.036-.033-.036-.018 0-.033.016-.033.036 0 .02.015.036.033.036zm12.123 9.41c.018 0 .033-.016.033-.036 0-.02-.015-.036-.033-.036-.019 0-.034.016-.034.036 0 .02.015.036.034.036zm94.861 103.036c.418 0 .757-.367.757-.821 0-.453-.339-.821-.757-.821-.417 0-.756.368-.756.821 0 .454.339.821.756.821zm8.756 12.776c.255 0 .462-.224.462-.501s-.207-.501-.462-.501-.462.224-.462.501.207.501.462.501zm8.365 14.039c.582 0 1.053-.512 1.053-1.144 0-.631-.471-1.143-1.053-1.143s-1.053.512-1.053 1.143c0 .632.471 1.144 1.053 1.144zm7.96 14.611c1.054 0 1.907-.928 1.907-2.072 0-1.145-.853-2.072-1.907-2.072-1.053 0-1.906.927-1.906 2.072 0 1.144.853 2.072 1.906 2.072zm7.554 13.953c1.053 0 1.907-.928 1.907-2.072 0-1.145-.854-2.072-1.907-2.072s-1.907.927-1.907 2.072c0 1.144.854 2.072 1.907 2.072zm7.135 14.212c1.053 0 1.907-.928 1.907-2.072 0-1.145-.854-2.072-1.907-2.072s-1.907.927-1.907 2.072c0 1.144.854 2.072 1.907 2.072zm6.71 14.452c1.053 0 1.907-.928 1.907-2.072 0-1.144-.854-2.072-1.907-2.072s-1.907.928-1.907 2.072c0 1.144.854 2.072 1.907 2.072zm6.278 14.681c1.053 0 1.907-.928 1.907-2.072 0-1.145-.854-2.072-1.907-2.072s-1.906.927-1.906 2.072c0 1.144.853 2.072 1.906 2.072zm5.839 14.894c1.054 0 1.907-.928 1.907-2.072 0-1.145-.853-2.072-1.907-2.072-1.053 0-1.906.927-1.906 2.072 0 1.144.853 2.072 1.906 2.072zm5.395 13.766c.382 0 .691-.336.691-.75s-.309-.749-.691-.749c-.381 0-.69.335-.69.749s.309.75.69.75zM451.478 19.113c.018 0 .033-.016.033-.036 0-.02-.015-.036-.033-.036-.019 0-.034.016-.034.036 0 .02.015.036.034.036zm12.188 9.308c.018 0 .033-.016.033-.036 0-.02-.015-.036-.033-.036-.018 0-.033.016-.033.036 0 .02.015.036.033.036zm11.914 9.719c.018 0 .033-.016.033-.035 0-.02-.015-.037-.033-.037-.019 0-.034.017-.034.037 0 .02.015.036.034.036zm93.003 104.75c.255 0 .462-.225.462-.501 0-.277-.207-.501-.462-.501s-.462.224-.462.501c0 .276.207.501.462.501zm8.565 12.886c.073 0 .132-.064.132-.143 0-.079-.059-.143-.132-.143-.073 0-.132.064-.132.143 0 .079.059.143.132.143zm8.179 13.494c.054 0 .099-.048.099-.107s-.045-.107-.099-.107c-.055 0-.099.048-.099.107s.044.107.099.107zm7.785 15.732c1.035 0 1.874-.912 1.874-2.037 0-1.124-.839-2.036-1.874-2.036-1.035 0-1.874.912-1.874 2.036 0 1.125.839 2.037 1.874 2.037zm7.38 14.098c1.053 0 1.907-.928 1.907-2.072 0-1.145-.854-2.072-1.907-2.072s-1.907.927-1.907 2.072c0 1.144.854 2.072 1.907 2.072zm6.972 14.307c1.053 0 1.907-.928 1.907-2.072 0-1.145-.854-2.072-1.907-2.072s-1.907.927-1.907 2.072c0 1.144.854 2.072 1.907 2.072zm6.554 14.537c1.053 0 1.907-.927 1.907-2.072 0-1.144-.854-2.072-1.907-2.072s-1.907.928-1.907 2.072c0 1.145.854 2.072 1.907 2.072zm6.13 14.753c1.053 0 1.907-.928 1.907-2.072 0-1.145-.854-2.072-1.907-2.072s-1.907.927-1.907 2.072c0 1.144.854 2.072 1.907 2.072zm5.702 14.956c1.053 0 1.907-.927 1.907-2.072 0-1.144-.854-2.072-1.907-2.072s-1.907.928-1.907 2.072c0 1.145.854 2.072 1.907 2.072zm5.267 13.821c.381 0 .69-.336.69-.75s-.309-.75-.69-.75c-.382 0-.691.336-.691.75s.309.75.691.75zm4.825 15.067c.255 0 .462-.224.462-.501s-.207-.501-.462-.501-.462.224-.462.501.207.501.462.501zM467.613 15.634c.019 0 .033-.016.033-.036 0-.02-.014-.037-.033-.037-.018 0-.033.017-.033.037 0 .02.015.036.033.036zm11.986 9.616c.019 0 .034-.017.034-.037 0-.02-.015-.036-.034-.036-.018 0-.033.016-.033.036 0 .02.015.036.033.036zm94.15 103.09c.019 0 .034-.016.034-.036 0-.02-.015-.036-.034-.036-.018 0-.033.016-.033.036 0 .02.015.036.033.036zm8.757 13.132c.037 0 .066-.032.066-.071 0-.04-.029-.072-.066-.072-.036 0-.066.032-.066.072 0 .039.03.071.066.071zm8.383 14.025c.364 0 .658-.32.658-.714 0-.395-.294-.714-.658-.714-.363 0-.657.319-.657.714 0 .394.294.714.657.714zm15.616 27.784c.472 0 .855-.416.855-.929 0-.513-.383-.929-.855-.929-.473 0-.855.416-.855.929 0 .513.382.929.855.929zm7.216 15.305c1.053 0 1.907-.928 1.907-2.072 0-1.144-.854-2.072-1.907-2.072s-1.907.928-1.907 2.072c0 1.144.854 2.072 1.907 2.072zm6.814 14.396c1.053 0 1.907-.927 1.907-2.072 0-1.144-.854-2.072-1.907-2.072s-1.907.928-1.907 2.072c0 1.145.854 2.072 1.907 2.072zm6.405 14.615c1.054 0 1.907-.928 1.907-2.072 0-1.144-.853-2.072-1.907-2.072-1.053 0-1.906.928-1.906 2.072 0 1.144.853 2.072 1.906 2.072zm5.991 14.822c1.053 0 1.907-.927 1.907-2.072 0-1.144-.854-2.072-1.907-2.072s-1.907.928-1.907 2.072c0 1.145.854 2.072 1.907 2.072zm5.57 14.087c.582 0 1.053-.511 1.053-1.143 0-.631-.471-1.143-1.053-1.143s-1.053.512-1.053 1.143c0 .632.471 1.143 1.053 1.143zm5.142 14.264c.109 0 .198-.096.198-.214 0-.119-.089-.215-.198-.215-.11 0-.198.096-.198.215 0 .118.088.214.198.214zm4.712 17.072c.981 0 1.775-.864 1.775-1.929s-.794-1.929-1.775-1.929c-.98 0-1.775.864-1.775 1.929s.795 1.929 1.775 1.929zM471.545 2.869c.019 0 .034-.017.034-.036 0-.02-.015-.037-.034-.037-.018 0-.033.017-.033.037 0 .02.015.036.033.036zm12.052 9.515c.019 0 .034-.016.034-.036 0-.02-.015-.036-.034-.036-.018 0-.033.016-.033.036 0 .02.015.036.033.036zm95.232 101.944c.018 0 .033-.016.033-.036 0-.02-.015-.036-.033-.036-.018 0-.033.016-.033.036 0 .02.015.036.033.036zm8.936 12.953c.019 0 .034-.017.034-.037 0-.02-.015-.036-.034-.036-.018 0-.033.016-.033.036 0 .02.015.037.033.037zm8.576 13.237c.019 0 .034-.017.034-.037 0-.02-.015-.036-.034-.036-.018 0-.033.016-.033.036 0 .02.015.037.033.037zm23.488 42.086c.418 0 .757-.368.757-.821 0-.454-.339-.822-.757-.822-.417 0-.756.368-.756.822 0 .453.339.821.756.821zm7.059 15.506c1.053 0 1.907-.928 1.907-2.072 0-1.144-.854-2.072-1.907-2.072s-1.907.928-1.907 2.072c0 1.144.854 2.072 1.907 2.072zm6.664 14.479c1.053 0 1.907-.928 1.907-2.072 0-1.145-.854-2.072-1.907-2.072s-1.907.927-1.907 2.072c0 1.144.854 2.072 1.907 2.072zm6.262 14.688c1.053 0 1.907-.928 1.907-2.072 0-1.145-.854-2.072-1.907-2.072s-1.907.927-1.907 2.072c0 1.144.854 2.072 1.907 2.072zm5.855 14.885c1.054 0 1.907-.928 1.907-2.072 0-1.145-.853-2.072-1.907-2.072-1.053 0-1.906.927-1.906 2.072 0 1.144.853 2.072 1.906 2.072zm5.443 14.568c.799 0 1.446-.703 1.446-1.571s-.647-1.571-1.446-1.571c-.799 0-1.446.703-1.446 1.571s.647 1.571 1.446 1.571zm5.026 15.561c.962 0 1.742-.847 1.742-1.893 0-1.045-.78-1.893-1.742-1.893-.963 0-1.743.848-1.743 1.893 0 1.046.78 1.893 1.743 1.893zm4.604 15.29c.908 0 1.644-.8 1.644-1.786s-.736-1.786-1.644-1.786c-.908 0-1.644.8-1.644 1.786s.736 1.786 1.644 1.786zM499.436 9.346c.019 0 .034-.016.034-.036 0-.02-.015-.037-.034-.037-.018 0-.033.017-.033.037 0 .02.015.036.033.036zm93.499 103.848c.018 0 .033-.017.033-.037 0-.019-.015-.036-.033-.036-.019 0-.034.017-.034.036 0 .02.015.037.034.037zm8.756 13.097c.019 0 .034-.016.034-.036 0-.02-.015-.036-.034-.036-.018 0-.033.016-.033.036 0 .02.015.036.033.036zm31.399 55.53c.291 0 .526-.256.526-.571 0-.315-.235-.571-.526-.571-.29 0-.526.256-.526.571 0 .315.236.571.526.571zm6.907 15.378c.817 0 1.479-.719 1.479-1.606 0-.888-.662-1.607-1.479-1.607-.817 0-1.479.719-1.479 1.607 0 .887.662 1.606 1.479 1.606zm6.521 15.021c1.053 0 1.906-.928 1.906-2.072 0-1.144-.853-2.072-1.906-2.072-1.054 0-1.907.928-1.907 2.072 0 1.144.853 2.072 1.907 2.072zm6.125 14.756c1.053 0 1.907-.928 1.907-2.072 0-1.144-.854-2.072-1.907-2.072s-1.907.928-1.907 2.072c0 1.144.854 2.072 1.907 2.072zm5.725 14.946c1.054 0 1.907-.928 1.907-2.072 0-1.145-.853-2.072-1.907-2.072-1.053 0-1.906.927-1.906 2.072 0 1.144.853 2.072 1.906 2.072zm5.325 14.618c.798 0 1.446-.703 1.446-1.571 0-.867-.648-1.571-1.446-1.571-.799 0-1.447.704-1.447 1.571 0 .868.648 1.571 1.447 1.571zm4.912 14.391c.345 0 .624-.303.624-.678 0-.374-.279-.678-.624-.678s-.625.304-.625.678c0 .375.28.678.625.678zm4.499 14.826c.037 0 .066-.032.066-.071 0-.04-.029-.072-.066-.072-.036 0-.066.032-.066.072 0 .039.03.071.066.071zm-66.155-173.621c.019 0 .033-.016.033-.036 0-.02-.014-.036-.033-.036-.018 0-.033.016-.033.036 0 .02.015.036.033.036zm46.105 84.328c.654 0 1.185-.576 1.185-1.287 0-.71-.531-1.286-1.185-1.286-.655 0-1.185.576-1.185 1.286 0 .711.53 1.287 1.185 1.287zm6.38 15.414c1.053 0 1.907-.927 1.907-2.072 0-1.144-.854-2.072-1.907-2.072s-1.907.928-1.907 2.072c0 1.145.854 2.072 1.907 2.072zm5.995 14.819c1.054 0 1.907-.927 1.907-2.072 0-1.144-.853-2.072-1.907-2.072-1.053 0-1.906.928-1.906 2.072 0 1.145.853 2.072 1.906 2.072zm5.604 15.002c1.053 0 1.907-.928 1.907-2.072 0-1.145-.854-2.072-1.907-2.072s-1.907.927-1.907 2.072c0 1.144.854 2.072 1.907 2.072zm5.205 15.167c1.053 0 1.907-.928 1.907-2.072 0-1.144-.854-2.072-1.907-2.072s-1.907.928-1.907 2.072c0 1.144.854 2.072 1.907 2.072zm4.807 13.536c.145 0 .264-.128.264-.287 0-.158-.119-.286-.264-.286-.146 0-.264.128-.264.286 0 .159.118.287.264.287zm4.4 15.217c.018 0 .033-.017.033-.036 0-.02-.015-.037-.033-.037-.019 0-.034.017-.034.037 0 .019.015.036.034.036zm-19.386-89.83c.509 0 .921-.447.921-1 0-.552-.412-1-.921-1-.509 0-.921.448-.921 1 0 .553.412 1 .921 1zm6.248 15.767c1.054 0 1.907-.927 1.907-2.072 0-1.144-.853-2.072-1.907-2.072-1.053 0-1.906.928-1.906 2.072 0 1.145.853 2.072 1.906 2.072zm5.869 14.88c1.053 0 1.907-.928 1.907-2.072 0-1.144-.854-2.072-1.907-2.072s-1.907.928-1.907 2.072c0 1.144.854 2.072 1.907 2.072zm5.485 15.051c1.053 0 1.907-.927 1.907-2.072 0-1.144-.854-2.072-1.907-2.072s-1.907.928-1.907 2.072c0 1.145.854 2.072 1.907 2.072zm5.095 15.105c.998 0 1.808-.879 1.808-1.964s-.81-1.965-1.808-1.965c-.999 0-1.808.88-1.808 1.965s.809 1.964 1.808 1.964zm4.703 13.683c.146 0 .264-.128.264-.287 0-.158-.118-.286-.264-.286-.146 0-.264.128-.264.286 0 .159.118.287.264.287zm-14.442-74.777c.545 0 .987-.48.987-1.072 0-.592-.442-1.072-.987-1.072-.546 0-.988.48-.988 1.072 0 .592.442 1.072.988 1.072zm6.119 15.759c1.054 0 1.907-.927 1.907-2.071 0-1.145-.853-2.072-1.907-2.072-1.053 0-1.906.927-1.906 2.072 0 1.144.853 2.071 1.906 2.071zm5.749 14.934c1.053 0 1.907-.928 1.907-2.072 0-1.144-.854-2.072-1.907-2.072s-1.907.928-1.907 2.072c0 1.144.854 2.072 1.907 2.072zm5.371 15.101c1.053 0 1.907-.927 1.907-2.072 0-1.144-.854-2.072-1.907-2.072s-1.907.928-1.907 2.072c0 1.145.854 2.072 1.907 2.072zm4.99 14.753c.799 0 1.446-.704 1.446-1.571 0-.868-.647-1.571-1.446-1.571-.799 0-1.446.703-1.446 1.571 0 .867.647 1.571 1.446 1.571zm-9.316-60.851c.563 0 1.02-.496 1.02-1.108 0-.612-.457-1.107-1.02-1.107-.564 0-1.021.495-1.021 1.107s.457 1.108 1.021 1.108zm5.997 15.781c1.053 0 1.907-.928 1.907-2.072 0-1.145-.854-2.072-1.907-2.072s-1.906.927-1.906 2.072c0 1.144.853 2.072 1.906 2.072zm5.632 14.915c1.017 0 1.841-.896 1.841-2 0-1.105-.824-2.001-1.841-2.001s-1.841.896-1.841 2.001c0 1.104.824 2 1.841 2zm5.263 15.075c.98 0 1.775-.864 1.775-1.929s-.795-1.929-1.775-1.929c-.981 0-1.775.864-1.775 1.929s.794 1.929 1.775 1.929zm4.886 14.006c.327 0 .592-.287.592-.642 0-.355-.265-.642-.592-.642-.327 0-.592.287-.592.642 0 .355.265.642.592.642zm-8.909-60.348c.436 0 .79-.384.79-.857 0-.474-.354-.858-.79-.858-.436 0-.789.384-.789.858 0 .473.353.857.789.857zm5.882 16.089c1.053 0 1.907-.928 1.907-2.072 0-1.144-.854-2.072-1.907-2.072s-1.907.928-1.907 2.072c0 1.144.854 2.072 1.907 2.072zm5.519 14.964c1.017 0 1.841-.896 1.841-2.001s-.824-2-1.841-2c-1.016 0-1.841.895-1.841 2s.825 2.001 1.841 2.001zm5.158 13.437c.127 0 .231-.112.231-.251 0-.138-.104-.25-.231-.25-.128 0-.231.112-.231.25 0 .139.103.251.231.251zm4.788 15.187c.055 0 .099-.048.099-.107s-.044-.108-.099-.108c-.054 0-.099.049-.099.108s.045.107.099.107zm-14.634-75.489c.055 0 .099-.048.099-.107 0-.06-.044-.108-.099-.108-.054 0-.099.048-.099.108 0 .059.045.107.099.107zm6.12 14.976c.164 0 .296-.144.296-.322 0-.178-.132-.322-.296-.322-.164 0-.297.144-.297.322 0 .178.133.322.297.322zm5.766 16.07c.745 0 1.349-.656 1.349-1.466 0-.809-.604-1.465-1.349-1.465s-1.349.656-1.349 1.465c0 .81.604 1.466 1.349 1.466zm5.414 15.437c.926 0 1.676-.815 1.676-1.821s-.75-1.822-1.676-1.822c-.926 0-1.676.816-1.676 1.822 0 1.006.75 1.821 1.676 1.821zm5.056 13.73c.164 0 .297-.145.297-.323 0-.177-.133-.322-.297-.322-.164 0-.297.145-.297.322 0 .178.133.323.297.323zm-3.444-45.807c.019 0 .034-.016.034-.036 0-.02-.015-.036-.034-.036-.018 0-.033.016-.033.036 0 .02.015.036.033.036zm5.66 15.19c.128 0 .231-.112.231-.25 0-.139-.103-.251-.231-.251-.127 0-.231.112-.231.251 0 .138.104.25.231.25zm5.309 16.697c.925 0 1.676-.815 1.676-1.821s-.751-1.822-1.676-1.822c-.926 0-1.677.816-1.677 1.822 0 1.006.751 1.821 1.677 1.821zm4.958 14.873c.727 0 1.316-.64 1.316-1.43 0-.789-.589-1.429-1.316-1.429-.727 0-1.316.64-1.316 1.429 0 .79.589 1.43 1.316 1.43zm-3.167-47.027c.019 0 .034-.016.034-.036 0-.02-.015-.036-.034-.036-.018 0-.033.016-.033.036 0 .02.015.036.033.036zm5.553 15.023c.018 0 .033-.016.033-.036 0-.02-.015-.036-.033-.036-.019 0-.034.016-.034.036 0 .02.015.036.034.036zm5.21 16.38c.636 0 1.152-.56 1.152-1.251 0-.69-.516-1.25-1.152-1.25-.636 0-1.152.56-1.152 1.25 0 .691.516 1.251 1.152 1.251zm4.864 14.195c.073 0 .132-.065.132-.144 0-.079-.059-.143-.132-.143-.073 0-.132.064-.132.143 0 .079.059.144.132.144zm-93.22-212.716c.018 0 .033-.016.033-.036 0-.02-.015-.036-.033-.036-.018 0-.033.016-.033.036 0 .02.015.037.033.037zm9.188 12.743c.019 0 .034-.016.034-.036 0-.02-.015-.036-.034-.036-.018 0-.033.016-.033.036 0 .02.015.036.033.036zm8.902 12.982c.019 0 .034-.017.034-.037 0-.02-.015-.036-.034-.036-.018 0-.033.017-.033.036 0 .02.015.037.033.037zm66.444 126.224c.018 0 .033-.016.033-.036 0-.02-.015-.037-.033-.037-.018 0-.033.017-.033.037 0 .02.015.036.033.036zm5.784 14.954c.037 0 .066-.032.066-.072 0-.039-.029-.071-.066-.071-.036 0-.066.032-.066.071 0 .04.03.072.066.072zm5.451 15.031c.018 0 .033-.017.033-.037 0-.019-.015-.036-.033-.036-.018 0-.033.017-.033.036 0 .02.015.037.033.037zM679.818 24.598c.018 0 .033-.017.033-.037 0-.02-.015-.036-.033-.036-.018 0-.033.017-.033.037 0 .02.015.036.033.036zm9.04 12.866c.018 0 .033-.016.033-.036 0-.02-.015-.036-.033-.036-.018 0-.033.016-.033.036 0 .02.015.036.033.036zm74.065 140.033c.018 0 .033-.017.033-.037 0-.02-.015-.036-.033-.036-.019 0-.034.016-.034.036 0 .02.015.037.034.037zm5.681 14.965c.018 0 .033-.016.033-.036 0-.02-.015-.036-.033-.036-.019 0-.034.016-.034.036 0 .02.015.036.034.036zM684.796 10.67c.018 0 .033-.016.033-.036 0-.02-.015-.036-.033-.036-.018 0-.033.016-.033.036 0 .02.015.036.033.036zm9.172 12.757c.018 0 .033-.016.033-.036 0-.02-.015-.036-.033-.036-.018 0-.033.016-.033.036 0 .02.015.037.033.037zm8.897 12.985c.018 0 .033-.016.033-.036 0-.02-.015-.036-.033-.036-.019 0-.034.016-.034.036 0 .02.015.036.034.036zm72.821 140.815c.018 0 .033-.017.033-.037 0-.02-.015-.036-.033-.036-.019 0-.034.016-.034.036 0 .02.015.037.034.037zM699.013 9.443c.018 0 .033-.016.033-.036 0-.02-.015-.036-.033-.036-.018 0-.033.016-.033.036 0 .02.015.036.033.036zm9.03 12.875c.019 0 .033-.016.033-.036 0-.02-.014-.036-.033-.036-.018 0-.033.016-.033.036 0 .02.015.036.033.036zm5.113-14.04c.019 0 .034-.016.034-.036 0-.02-.015-.036-.034-.036-.018 0-.033.016-.033.036 0 .02.015.036.033.036zm8.892 12.99c.018 0 .033-.016.033-.036 0-.02-.015-.036-.033-.036-.019 0-.033.016-.033.036 0 .02.014.036.033.036zm5.179-14.094c.018 0 .033-.016.033-.036 0-.02-.015-.036-.033-.036-.019 0-.034.016-.034.036 0 .02.015.036.034.036z" opacity=".32" fill="#003B0F"/></svg>