<svg width="702" height="537" fill="none" xmlns="http://www.w3.org/2000/svg"><path d="M614.919 92.352c1.053 0 1.906-.928 1.906-2.072 0-1.145-.853-2.072-1.906-2.072-1.054 0-1.907.927-1.907 2.072 0 1.144.853 2.072 1.907 2.072zm11.855 0c1.053 0 1.907-.928 1.907-2.072 0-1.145-.854-2.072-1.907-2.072s-1.907.927-1.907 2.072c0 1.144.854 2.072 1.907 2.072zm-8.192 12.253c1.053 0 1.907-.928 1.907-2.072 0-1.145-.854-2.072-1.907-2.072s-1.907.927-1.907 2.072c0 1.144.854 2.072 1.907 2.072zm-13.256-4.681c1.054 0 1.907-.928 1.907-2.072 0-1.144-.853-2.072-1.907-2.072-1.053 0-1.906.928-1.906 2.072 0 1.144.853 2.072 1.906 2.072zm0-15.144c1.054 0 1.907-.928 1.907-2.072 0-1.145-.853-2.072-1.907-2.072-1.053 0-1.906.927-1.906 2.072 0 1.144.853 2.072 1.906 2.072zm13.256-4.681c1.053 0 1.907-.928 1.907-2.072 0-1.145-.854-2.072-1.907-2.072s-1.907.927-1.907 2.072c0 1.144.854 2.072 1.907 2.072zm20.048 12.253c1.053 0 1.907-.928 1.907-2.072 0-1.145-.854-2.072-1.907-2.072s-1.907.927-1.907 2.072c0 1.144.854 2.072 1.907 2.072zm-4.528 15.144c1.053 0 1.906-.928 1.906-2.072 0-1.144-.853-2.072-1.906-2.072s-1.907.928-1.907 2.072c0 1.144.854 2.072 1.907 2.072zm-11.856 9.36c1.053 0 1.907-.928 1.907-2.072 0-1.144-.854-2.072-1.907-2.072s-1.907.928-1.907 2.072c0 1.144.854 2.072 1.907 2.072zm-14.655 0c1.053 0 1.907-.928 1.907-2.072 0-1.144-.854-2.072-1.907-2.072s-1.907.928-1.907 2.072c0 1.144.854 2.072 1.907 2.072zm-11.856-9.36c1.053 0 1.907-.928 1.907-2.072 0-1.144-.854-2.072-1.907-2.072s-1.907.928-1.907 2.072c0 1.144.854 2.072 1.907 2.072zm-4.528-15.144c1.053 0 1.906-.928 1.906-2.072 0-1.145-.853-2.072-1.906-2.072s-1.907.927-1.907 2.072c0 1.144.854 2.072 1.907 2.072zm4.528-15.145c1.053 0 1.907-.927 1.907-2.072 0-1.144-.854-2.072-1.907-2.072s-1.907.928-1.907 2.072c0 1.145.854 2.072 1.907 2.072zm11.856-9.359c1.053 0 1.907-.928 1.907-2.072 0-1.145-.854-2.072-1.907-2.072s-1.907.927-1.907 2.072c0 1.144.854 2.072 1.907 2.072zm14.655-.215c.944 0 1.709-.832 1.709-1.857 0-1.026-.765-1.857-1.709-1.857-.944 0-1.709.831-1.709 1.857 0 1.025.765 1.857 1.709 1.857zm11.856 9.574c1.053 0 1.906-.927 1.906-2.072 0-1.144-.853-2.072-1.906-2.072s-1.907.928-1.907 2.072c0 1.145.854 2.072 1.907 2.072zm16.384 15.145c1.053 0 1.907-.928 1.907-2.072 0-1.145-.854-2.072-1.907-2.072s-1.907.927-1.907 2.072c0 1.144.854 2.072 1.907 2.072zm-3.075 15.72c1.054 0 1.907-.927 1.907-2.072 0-1.144-.853-2.072-1.907-2.072-1.053 0-1.906.928-1.906 2.072 0 1.145.853 2.072 1.906 2.072zm-8.694 13.001c1.053 0 1.907-.928 1.907-2.072 0-1.144-.854-2.072-1.907-2.072s-1.906.928-1.906 2.072c0 1.144.853 2.072 1.906 2.072zm-12.807 8.036c1.053 0 1.906-.928 1.906-2.072 0-1.145-.853-2.072-1.906-2.072s-1.907.927-1.907 2.072c0 1.144.854 2.072 1.907 2.072zm-14.71 1.68c1.053 0 1.907-.928 1.907-2.072 0-1.144-.854-2.072-1.907-2.072s-1.907.928-1.907 2.072c0 1.144.854 2.072 1.907 2.072zm-14.065-4.967c1.053 0 1.906-.928 1.906-2.072 0-1.144-.853-2.072-1.906-2.072-1.054 0-1.907.928-1.907 2.072 0 1.144.853 2.072 1.907 2.072zm-10.992-10.754c1.053 0 1.907-.927 1.907-2.072 0-1.144-.854-2.072-1.907-2.072s-1.907.928-1.907 2.072c0 1.145.854 2.072 1.907 2.072zm-6.015-14.681c1.053 0 1.907-.927 1.907-2.072 0-1.144-.854-2.072-1.907-2.072s-1.907.928-1.907 2.072c0 1.145.854 2.072 1.907 2.072zm0-16.071c1.053 0 1.907-.928 1.907-2.072 0-1.144-.854-2.072-1.907-2.072s-1.907.928-1.907 2.072c0 1.144.854 2.072 1.907 2.072zm6.015-14.681c1.053 0 1.907-.928 1.907-2.072 0-1.144-.854-2.072-1.907-2.072s-1.907.928-1.907 2.072c0 1.144.854 2.072 1.907 2.072zm10.992-10.753c1.053 0 1.906-.928 1.906-2.072 0-1.145-.853-2.072-1.906-2.072-1.054 0-1.907.927-1.907 2.072 0 1.144.853 2.072 1.907 2.072zm14.066-6.504c.272 0 .493-.24.493-.535 0-.296-.221-.535-.493-.535s-.493.24-.493.535c0 .295.221.535.493.535zm14.709 1.182c.019 0 .034-.017.034-.037 0-.02-.015-.036-.034-.036-.018 0-.033.016-.033.036 0 .02.015.036.033.036zm12.807 10.07c1.053 0 1.907-.927 1.907-2.072 0-1.144-.854-2.072-1.907-2.072s-1.906.928-1.906 2.072c0 1.145.853 2.072 1.906 2.072zm8.694 13.001c1.054 0 1.907-.927 1.907-2.072 0-1.144-.853-2.072-1.907-2.072-1.053 0-1.906.928-1.906 2.072 0 1.145.853 2.072 1.906 2.072zm14.931 15.721c1.053 0 1.907-.928 1.907-2.072 0-1.145-.854-2.072-1.907-2.072s-1.907.927-1.907 2.072c0 1.144.854 2.072 1.907 2.072zm-2.322 15.924c1.053 0 1.907-.927 1.907-2.072 0-1.144-.854-2.072-1.907-2.072s-1.907.928-1.907 2.072c0 1.145.854 2.072 1.907 2.072zm-6.735 14.365c1.053 0 1.907-.928 1.907-2.072 0-1.145-.854-2.072-1.907-2.072s-1.907.927-1.907 2.072c0 1.144.854 2.072 1.907 2.072zm-10.492 11.401c1.053 0 1.907-.928 1.907-2.072 0-1.144-.854-2.072-1.907-2.072s-1.907.928-1.907 2.072c0 1.144.854 2.072 1.907 2.072zm-13.22 7.318c1.053 0 1.907-.928 1.907-2.072 0-1.144-.854-2.072-1.907-2.072s-1.906.928-1.906 2.072c0 1.144.853 2.072 1.906 2.072zm-14.654 2.523c1.053 0 1.906-.928 1.906-2.072 0-1.145-.853-2.072-1.906-2.072-1.054 0-1.907.927-1.907 2.072 0 1.144.853 2.072 1.907 2.072zm-14.656-2.523c1.053 0 1.907-.928 1.907-2.072 0-1.144-.854-2.072-1.907-2.072s-1.907.928-1.907 2.072c0 1.144.854 2.072 1.907 2.072zm-13.219-7.318c1.053 0 1.907-.928 1.907-2.072 0-1.144-.854-2.072-1.907-2.072s-1.907.928-1.907 2.072c0 1.144.854 2.072 1.907 2.072zm-10.493-11.401c1.053 0 1.907-.928 1.907-2.072 0-1.145-.854-2.072-1.907-2.072s-1.906.927-1.906 2.072c0 1.144.853 2.072 1.906 2.072zm-6.734-14.365c1.053 0 1.907-.927 1.907-2.072 0-1.144-.854-2.072-1.907-2.072s-1.907.928-1.907 2.072c0 1.145.854 2.072 1.907 2.072zm-2.322-15.924c1.053 0 1.907-.928 1.907-2.072 0-1.145-.854-2.072-1.907-2.072s-1.907.927-1.907 2.072c0 1.144.854 2.072 1.907 2.072zm2.322-15.925c1.053 0 1.907-.927 1.907-2.072 0-1.144-.854-2.072-1.907-2.072s-1.907.928-1.907 2.072c0 1.145.854 2.072 1.907 2.072zm6.734-14.364c1.053 0 1.907-.928 1.907-2.072 0-1.144-.854-2.072-1.907-2.072s-1.906.928-1.906 2.072c0 1.144.853 2.072 1.906 2.072zm10.493-11.401c1.053 0 1.907-.928 1.907-2.072 0-1.144-.854-2.072-1.907-2.072s-1.907.928-1.907 2.072c0 1.144.854 2.072 1.907 2.072zm13.22-8.104c.654 0 1.185-.576 1.185-1.286 0-.71-.531-1.287-1.185-1.287s-1.185.576-1.185 1.287c0 .71.531 1.286 1.185 1.286zm14.655-3.666c.072 0 .131-.064.131-.143 0-.08-.059-.143-.131-.143-.073 0-.132.064-.132.143 0 .079.059.143.132.143zm27.874 9.769c.036 0 .066-.032.066-.071 0-.04-.03-.072-.066-.072-.037 0-.066.032-.066.072 0 .04.029.071.066.071zm10.492 12.689c.691 0 1.251-.609 1.251-1.359s-.56-1.358-1.251-1.358c-.69 0-1.25.608-1.25 1.358 0 .75.56 1.358 1.25 1.358zm6.735 15.077c1.053 0 1.907-.927 1.907-2.072 0-1.144-.854-2.072-1.907-2.072s-1.907.928-1.907 2.072c0 1.145.854 2.072 1.907 2.072zm14.178 15.925c1.053 0 1.906-.928 1.906-2.072 0-1.145-.853-2.072-1.906-2.072-1.054 0-1.907.927-1.907 2.072 0 1.144.853 2.072 1.907 2.072zm-1.863 16.019c1.053 0 1.907-.928 1.907-2.072 0-1.144-.854-2.072-1.907-2.072s-1.907.928-1.907 2.072c0 1.144.854 2.072 1.907 2.072zm-5.47 15.012c1.053 0 1.907-.927 1.907-2.072 0-1.144-.854-2.072-1.907-2.072s-1.907.928-1.907 2.072c0 1.145.854 2.072 1.907 2.072zm-8.734 13.064c1.053 0 1.907-.928 1.907-2.072 0-1.145-.854-2.072-1.907-2.072s-1.907.927-1.907 2.072c0 1.144.854 2.072 1.907 2.072zm-11.449 10.291c1.053 0 1.907-.927 1.907-2.072 0-1.144-.854-2.072-1.907-2.072s-1.907.928-1.907 2.072c0 1.145.854 2.072 1.907 2.072zm-13.445 6.875c1.053 0 1.907-.928 1.907-2.072 0-1.144-.854-2.072-1.907-2.072s-1.907.928-1.907 2.072c0 1.144.854 2.072 1.907 2.072zm-14.597 3.025c1.053 0 1.907-.927 1.907-2.072 0-1.144-.854-2.071-1.907-2.071s-1.907.927-1.907 2.071c0 1.145.854 2.072 1.907 2.072zm-14.83-1.014c1.053 0 1.907-.928 1.907-2.072 0-1.144-.854-2.072-1.907-2.072s-1.907.928-1.907 2.072c0 1.144.854 2.072 1.907 2.072zm-14.131-4.988c1.053 0 1.907-.928 1.907-2.072 0-1.145-.854-2.072-1.907-2.072s-1.907.927-1.907 2.072c0 1.144.854 2.072 1.907 2.072zm-12.546-8.653c1.053 0 1.907-.928 1.907-2.072 0-1.145-.854-2.072-1.907-2.072s-1.907.927-1.907 2.072c0 1.144.854 2.072 1.907 2.072zm-10.173-11.77c1.053 0 1.907-.928 1.907-2.072 0-1.144-.854-2.072-1.907-2.072s-1.907.928-1.907 2.072c0 1.144.854 2.072 1.907 2.072zm-7.158-14.15c1.053 0 1.907-.927 1.907-2.072 0-1.144-.854-2.072-1.907-2.072s-1.907.928-1.907 2.072c0 1.145.854 2.072 1.907 2.072zm-3.695-15.638c1.053 0 1.906-.928 1.906-2.072 0-1.144-.853-2.072-1.906-2.072-1.054 0-1.907.928-1.907 2.072 0 1.144.853 2.072 1.907 2.072zm0-16.146c1.053 0 1.906-.928 1.906-2.072 0-1.145-.853-2.072-1.906-2.072-1.054 0-1.907.927-1.907 2.072 0 1.144.853 2.072 1.907 2.072zm3.695-15.639c1.053 0 1.907-.927 1.907-2.072 0-1.144-.854-2.072-1.907-2.072s-1.907.928-1.907 2.072c0 1.145.854 2.072 1.907 2.072zm7.158-14.15c1.053 0 1.907-.927 1.907-2.071 0-1.144-.854-2.072-1.907-2.072s-1.907.928-1.907 2.072c0 1.144.854 2.072 1.907 2.072zm10.173-11.984c.944 0 1.709-.831 1.709-1.857s-.765-1.857-1.709-1.857c-.944 0-1.709.831-1.709 1.857s.765 1.857 1.709 1.857zm12.546-10.081c.219 0 .396-.192.396-.429s-.177-.43-.396-.43c-.219 0-.396.193-.396.43s.177.43.396.43zm14.131-5.31c.055 0 .099-.048.099-.107 0-.06-.044-.108-.099-.108-.055 0-.099.048-.099.108 0 .059.044.107.099.107zm14.83-.085c.527 0 .955-.465.955-1.037 0-.572-.428-1.036-.955-1.036-.527 0-.954.464-.954 1.036 0 .572.427 1.036.954 1.036zm14.598 2.774c.399 0 .723-.351.723-.785 0-.434-.324-.786-.723-.786-.4 0-.723.352-.723.786 0 .434.323.785.723.785zm13.445 6.126c.018 0 .033-.017.033-.036 0-.02-.015-.037-.033-.037-.019 0-.034.017-.034.037 0 .02.015.036.034.036zm20.183 24.64c.672 0 1.218-.591 1.218-1.322 0-.73-.546-1.322-1.218-1.322-.673 0-1.218.592-1.218 1.322 0 .73.545 1.323 1.218 1.323zm5.469 15.762c1.053 0 1.907-.927 1.907-2.072 0-1.144-.854-2.072-1.907-2.072s-1.907.928-1.907 2.072c0 1.145.854 2.072 1.907 2.072zm13.719 15.449c.763 0 1.382-.672 1.382-1.501 0-.83-.619-1.501-1.382-1.501-.763 0-1.382.672-1.382 1.5 0 .83.619 1.502 1.382 1.502zm-1.555 16.57c1.017 0 1.841-.895 1.841-2s-.824-2-1.841-2-1.841.895-1.841 2 .824 2 1.841 2zm-4.596 15.404c1.035 0 1.874-.911 1.874-2.036s-.839-2.036-1.874-2.036c-1.035 0-1.874.911-1.874 2.036s.839 2.036 1.874 2.036zm-7.434 14.03c1.053 0 1.906-.928 1.906-2.072 0-1.144-.853-2.072-1.906-2.072s-1.907.928-1.907 2.072c0 1.144.854 2.072 1.907 2.072zm-9.953 12.01c1.053 0 1.907-.928 1.907-2.072 0-1.145-.854-2.072-1.907-2.072s-1.907.927-1.907 2.072c0 1.144.854 2.072 1.907 2.072zm-12.03 9.497c1.053 0 1.907-.928 1.907-2.072 0-1.144-.854-2.072-1.907-2.072s-1.907.928-1.907 2.072c0 1.144.854 2.072 1.907 2.072zm-13.585 6.574c1.053 0 1.907-.928 1.907-2.072 0-1.144-.854-2.072-1.907-2.072s-1.907.928-1.907 2.072c0 1.144.854 2.072 1.907 2.072zm-14.546 3.358c1.053 0 1.906-.927 1.906-2.072 0-1.144-.853-2.072-1.906-2.072-1.054 0-1.907.928-1.907 2.072 0 1.145.853 2.072 1.907 2.072zm-14.873 0c1.053 0 1.907-.927 1.907-2.072 0-1.144-.854-2.072-1.907-2.072s-1.907.928-1.907 2.072c0 1.145.854 2.072 1.907 2.072zm-14.546-3.358c1.053 0 1.906-.928 1.906-2.072 0-1.144-.853-2.072-1.906-2.072s-1.907.928-1.907 2.072c0 1.144.854 2.072 1.907 2.072zm-13.585-6.574c1.053 0 1.907-.928 1.907-2.072 0-1.144-.854-2.072-1.907-2.072s-1.907.928-1.907 2.072c0 1.144.854 2.072 1.907 2.072zm-12.031-9.497c1.054 0 1.907-.928 1.907-2.072 0-1.145-.853-2.072-1.907-2.072-1.053 0-1.906.927-1.906 2.072 0 1.144.853 2.072 1.906 2.072zm-9.952-12.01c1.053 0 1.907-.928 1.907-2.072 0-1.144-.854-2.072-1.907-2.072s-1.907.928-1.907 2.072c0 1.144.854 2.072 1.907 2.072zm-7.434-13.994c1.053 0 1.906-.928 1.906-2.072 0-1.144-.853-2.072-1.906-2.072-1.054 0-1.907.928-1.907 2.072 0 1.144.853 2.072 1.907 2.072zm-4.596-15.368c1.053 0 1.906-.928 1.906-2.072 0-1.144-.853-2.072-1.906-2.072-1.054 0-1.907.928-1.907 2.072 0 1.144.853 2.072 1.907 2.072zm-1.555-16.071c1.053 0 1.907-.928 1.907-2.072 0-1.145-.854-2.072-1.907-2.072s-1.907.927-1.907 2.072c0 1.144.854 2.072 1.907 2.072zm1.555-16.072c1.053 0 1.906-.927 1.906-2.071 0-1.145-.853-2.072-1.906-2.072-1.054 0-1.907.927-1.907 2.072 0 1.144.853 2.072 1.907 2.072zm4.596-15.367c1.053 0 1.906-.928 1.906-2.072 0-1.145-.853-2.072-1.906-2.072-1.054 0-1.907.927-1.907 2.072 0 1.144.853 2.072 1.907 2.072zm7.434-14.565c.764 0 1.382-.672 1.382-1.501 0-.83-.618-1.502-1.382-1.502-.763 0-1.382.673-1.382 1.502s.619 1.5 1.382 1.5zm9.953-12.904c.309 0 .559-.272.559-.607 0-.335-.25-.607-.559-.607-.308 0-.559.272-.559.607 0 .335.251.607.559.607zm25.615-16.177c.255 0 .462-.224.462-.501s-.207-.501-.462-.501-.461.224-.461.5c0 .278.206.502.461.502zm14.547-2.323c.781 0 1.414-.688 1.414-1.537 0-.848-.633-1.537-1.414-1.537-.782 0-1.415.689-1.415 1.537 0 .85.633 1.537 1.415 1.537zm14.873-.572c.49 0 .888-.432.888-.965 0-.532-.398-.964-.888-.964-.491 0-.889.432-.889.964 0 .533.398.965.889.965zm14.545 4.358c.999 0 1.808-.88 1.808-1.964 0-1.085-.809-1.965-1.808-1.965s-1.808.88-1.808 1.965.809 1.965 1.808 1.965zm13.586 5.574c.49 0 .888-.432.888-.964 0-.533-.398-.965-.888-.965-.491 0-.889.432-.889.965 0 .532.398.964.889.964zm12.029 10.426c.963 0 1.743-.847 1.743-1.893 0-1.045-.78-1.893-1.743-1.893-.962 0-1.742.848-1.742 1.893 0 1.046.78 1.893 1.742 1.893zm9.953 10.153c.018 0 .033-.016.033-.036 0-.02-.015-.036-.033-.036-.018 0-.033.016-.033.036 0 .02.015.036.033.036zm7.435 15.636c.853 0 1.545-.752 1.545-1.678 0-.927-.692-1.679-1.545-1.679-.854 0-1.545.752-1.545 1.679 0 .926.691 1.678 1.545 1.678zm4.595 15.227c.782 0 1.415-.688 1.415-1.537 0-.85-.633-1.537-1.415-1.537-.781 0-1.415.688-1.415 1.537s.634 1.537 1.415 1.537zm13.411 15.928c.708 0 1.283-.624 1.283-1.394 0-.77-.575-1.394-1.283-1.394-.709 0-1.284.624-1.284 1.394 0 .77.575 1.394 1.284 1.394zm-1.334 15.708c.509 0 .921-.448.921-1 0-.553-.412-1.001-.921-1.001-.508 0-.921.448-.921 1.001 0 .552.413 1 .921 1zm-3.959 16.549c.999 0 1.808-.88 1.808-1.965s-.809-1.965-1.808-1.965c-.998 0-1.808.88-1.808 1.965s.81 1.965 1.808 1.965zm-6.455 14.673c1.053 0 1.907-.927 1.907-2.072 0-1.144-.854-2.072-1.907-2.072s-1.907.928-1.907 2.072c0 1.145.854 2.072 1.907 2.072zm-8.745 13.08c1.053 0 1.906-.928 1.906-2.072 0-1.144-.853-2.072-1.906-2.072-1.054 0-1.907.928-1.907 2.072 0 1.144.853 2.072 1.907 2.072zm-10.754 11.172c1.053 0 1.907-.927 1.907-2.072 0-1.144-.854-2.072-1.907-2.072s-1.907.928-1.907 2.072c0 1.145.854 2.072 1.907 2.072zm-12.418 8.907c1.053 0 1.907-.928 1.907-2.072 0-1.144-.854-2.072-1.907-2.072s-1.907.928-1.907 2.072c0 1.144.854 2.072 1.907 2.072zm-13.682 6.354c1.053 0 1.907-.928 1.907-2.072 0-1.144-.854-2.072-1.907-2.072s-1.907.928-1.907 2.072c0 1.144.854 2.072 1.907 2.072zm-14.505 3.598c1.053 0 1.907-.928 1.907-2.072 0-1.144-.854-2.072-1.907-2.072s-1.907.928-1.907 2.072c0 1.144.854 2.072 1.907 2.072zm-14.863.725c1.054 0 1.907-.928 1.907-2.072 0-1.144-.853-2.072-1.907-2.072-1.053 0-1.906.928-1.906 2.072 0 1.144.853 2.072 1.906 2.072zm-14.743-3.956c.146 0 .264-.128.264-.287 0-.158-.118-.286-.264-.286-.146 0-.264.128-.264.286 0 .159.118.287.264.287zm-14.15-5.139c.073 0 .132-.064.132-.143 0-.079-.059-.143-.132-.143-.073 0-.132.064-.132.143 0 .079.059.143.132.143zm-13.102-6.017c.908 0 1.644-.8 1.644-1.786s-.736-1.786-1.644-1.786c-.908 0-1.644.8-1.644 1.786s.736 1.786 1.644 1.786zm-11.634-9.795c1.053 0 1.906-.928 1.906-2.072 0-1.144-.853-2.072-1.906-2.072-1.054 0-1.907.928-1.907 2.072 0 1.144.853 2.072 1.907 2.072zm-9.788-12.176c1.053 0 1.907-.927 1.907-2.072 0-1.144-.854-2.072-1.907-2.072s-1.907.928-1.907 2.072c0 1.145.854 2.072 1.907 2.072zm-7.632-13.877c1.053 0 1.907-.928 1.907-2.072 0-1.145-.854-2.072-1.907-2.072s-1.907.927-1.907 2.072c0 1.144.854 2.072 1.907 2.072zm-5.228-15.138c1.053 0 1.907-.927 1.907-2.072 0-1.144-.854-2.072-1.907-2.072s-1.907.928-1.907 2.072c0 1.145.854 2.072 1.907 2.072zm-2.656-15.906c1.053 0 1.907-.928 1.907-2.072 0-1.145-.854-2.072-1.907-2.072s-1.907.927-1.907 2.072c0 1.144.854 2.072 1.907 2.072zm0-16.168c1.053 0 1.907-.928 1.907-2.072 0-1.144-.854-2.072-1.907-2.072s-1.907.928-1.907 2.072c0 1.144.854 2.072 1.907 2.072zm2.656-16.442c.782 0 1.415-.688 1.415-1.537s-.633-1.537-1.415-1.537c-.781 0-1.415.688-1.415 1.537 0 .85.634 1.537 1.415 1.537zm5.229-15.638c.527 0 .954-.464.954-1.036 0-.572-.427-1.036-.954-1.036-.527 0-.954.464-.954 1.036 0 .572.427 1.036.954 1.036zm7.632-13.199c.871 0 1.577-.768 1.577-1.715 0-.946-.706-1.714-1.577-1.714-.872 0-1.578.768-1.578 1.714 0 .947.706 1.715 1.578 1.715zm9.787-11.819c1.053 0 1.906-.927 1.906-2.072 0-1.144-.853-2.072-1.906-2.072-1.054 0-1.907.928-1.907 2.073 0 1.144.853 2.072 1.907 2.072zM569.2 16.698c.853 0 1.545-.752 1.545-1.679s-.692-1.678-1.545-1.678c-.854 0-1.545.752-1.545 1.678 0 .927.691 1.679 1.545 1.679zm13.102-8.197c.582 0 1.053-.512 1.053-1.143 0-.632-.471-1.144-1.053-1.144-.581 0-1.053.512-1.053 1.144 0 .631.472 1.143 1.053 1.143zm14.15-4.461c.853 0 1.545-.75 1.545-1.678 0-.927-.692-1.678-1.545-1.678-.854 0-1.546.751-1.546 1.678 0 .927.692 1.679 1.546 1.679zm14.744-2.562c.655 0 1.185-.576 1.185-1.286 0-.71-.53-1.287-1.185-1.287-.654 0-1.185.576-1.185 1.287 0 .71.531 1.286 1.185 1.286zm14.862 1.51c1.053 0 1.907-.927 1.907-2.072 0-1.144-.854-2.072-1.907-2.072s-1.907.928-1.907 2.072c0 1.145.854 2.072 1.907 2.072zm14.505 3.599c1.053 0 1.907-.928 1.907-2.072 0-1.145-.854-2.072-1.907-2.072s-1.907.927-1.907 2.072c0 1.144.854 2.072 1.907 2.072zm13.683 5.639c.69 0 1.25-.608 1.25-1.358 0-.75-.56-1.358-1.25-1.358-.691 0-1.251.608-1.251 1.358 0 .75.56 1.358 1.251 1.358zm12.417 9.621c1.053 0 1.907-.927 1.907-2.072 0-1.144-.854-2.072-1.907-2.072s-1.907.928-1.907 2.072c0 1.145.854 2.072 1.907 2.072zm10.754 11.101c1.016 0 1.841-.896 1.841-2 0-1.105-.825-2-1.841-2-1.017 0-1.841.895-1.841 2 0 1.104.824 2 1.841 2zm8.745 12.937c.944 0 1.709-.832 1.709-1.858 0-1.026-.765-1.857-1.709-1.857-.944 0-1.709.831-1.709 1.857s.765 1.858 1.709 1.858zm6.455 14.781c1.053 0 1.907-.928 1.907-2.072 0-1.145-.854-2.072-1.907-2.072s-1.907.927-1.907 2.072c0 1.144.854 2.072 1.907 2.072zm3.958 15.584c1.054 0 1.907-.927 1.907-2.072 0-1.144-.853-2.072-1.907-2.072-1.053 0-1.906.928-1.906 2.072 0 1.145.853 2.072 1.906 2.072zm2.853 62.891c1.053 0 1.906-.927 1.906-2.072 0-1.144-.853-2.072-1.906-2.072-1.054 0-1.907.928-1.907 2.072 0 1.145.853 2.072 1.907 2.072zm-7.778 13.788c1.054 0 1.907-.927 1.907-2.072 0-1.144-.853-2.072-1.907-2.072-1.053 0-1.906.928-1.906 2.072 0 1.145.853 2.072 1.906 2.072zm-9.665 12.298c1.053 0 1.906-.928 1.906-2.072 0-1.144-.853-2.072-1.906-2.072s-1.907.928-1.907 2.072c0 1.144.854 2.072 1.907 2.072zm-11.318 10.503c1.053 0 1.907-.928 1.907-2.072 0-1.144-.854-2.072-1.907-2.072s-1.907.928-1.907 2.072c0 1.144.854 2.072 1.907 2.072zm-12.689 8.451c1.053 0 1.907-.928 1.907-2.072 0-1.144-.854-2.072-1.907-2.072s-1.907.928-1.907 2.072c0 1.144.854 2.072 1.907 2.072zm-13.751 6.189c1.053 0 1.907-.928 1.907-2.072 0-1.144-.854-2.072-1.907-2.072s-1.907.928-1.907 2.072c0 1.144.854 2.072 1.907 2.072zm-14.471 3.775c1.054 0 1.907-.928 1.907-2.072 0-1.144-.853-2.072-1.907-2.072-1.053 0-1.906.928-1.906 2.072 0 1.144.853 2.072 1.906 2.072zm-14.837 1.269c1.053 0 1.906-.928 1.906-2.072 0-1.145-.853-2.072-1.906-2.072-1.054 0-1.907.927-1.907 2.072 0 1.144.853 2.072 1.907 2.072zm-14.838-2.341c.509 0 .921-.447.921-1 0-.552-.412-1-.921-1-.509 0-.921.448-.921 1 0 .553.412 1 .921 1zm-40.911-18.594c.418 0 .757-.368.757-.821 0-.454-.339-.821-.757-.821-.417 0-.756.367-.756.821 0 .453.339.821.756.821zm-11.318-9.252c1.053 0 1.907-.928 1.907-2.072 0-1.144-.854-2.072-1.907-2.072s-1.907.928-1.907 2.072c0 1.144.854 2.072 1.907 2.072zm-9.666-12.298c1.053 0 1.907-.927 1.907-2.072 0-1.144-.854-2.072-1.907-2.072s-1.906.928-1.906 2.072c0 1.145.853 2.072 1.906 2.072zm-7.777-13.788c1.053 0 1.907-.927 1.907-2.072 0-1.144-.854-2.072-1.907-2.072s-1.907.928-1.907 2.072c0 1.145.854 2.072 1.907 2.072zm-5.696-14.942c1.054 0 1.907-.928 1.907-2.072 0-1.144-.853-2.072-1.907-2.072-1.053 0-1.906.928-1.906 2.072 0 1.144.853 2.072 1.906 2.072zm-3.474-15.724c1.053 0 1.907-.928 1.907-2.072 0-1.144-.854-2.072-1.907-2.072s-1.907.928-1.907 2.072c0 1.144.854 2.072 1.907 2.072zm-1.168-16.302c.963 0 1.743-.848 1.743-1.893 0-1.046-.78-1.893-1.743-1.893-.962 0-1.742.847-1.742 1.893 0 1.045.78 1.893 1.742 1.893zm1.168-17.766c.128 0 .231-.112.231-.25 0-.139-.103-.25-.231-.25-.127 0-.23.111-.23.25 0 .138.103.25.23.25zm3.475-15.937c.018 0 .033-.017.033-.037 0-.02-.015-.036-.033-.036-.019 0-.033.016-.033.036 0 .02.014.036.033.036zm5.696-14.943c.018 0 .033-.016.033-.036 0-.02-.015-.036-.033-.036-.019 0-.034.016-.034.036 0 .02.015.036.034.036zm7.777-12.039c.908 0 1.644-.8 1.644-1.786s-.736-1.786-1.644-1.786c-.908 0-1.644.8-1.644 1.786s.736 1.786 1.644 1.786zm9.665-12.048c1.035 0 1.874-.91 1.874-2.035s-.839-2.037-1.874-2.037c-1.035 0-1.874.912-1.874 2.037 0 1.124.839 2.036 1.874 2.036zM559.17 8.544c.835 0 1.512-.735 1.512-1.642 0-.908-.677-1.643-1.512-1.643s-1.512.735-1.512 1.643c0 .907.677 1.642 1.512 1.642zM571.859.523c1.053 0 1.906-.928 1.906-2.072 0-1.144-.853-2.072-1.906-2.072s-1.907.928-1.907 2.072c0 1.144.854 2.072 1.907 2.072zm98.809 6.772c.2 0 .363-.176.363-.393 0-.218-.163-.394-.363-.394-.201 0-.363.176-.363.394 0 .217.162.393.363.393zm11.317 12.145c1.035 0 1.874-.91 1.874-2.035s-.839-2.037-1.874-2.037c-1.035 0-1.874.912-1.874 2.037 0 1.124.839 2.036 1.874 2.036zm9.665 12.334c1.054 0 1.907-.927 1.907-2.072 0-1.144-.853-2.072-1.907-2.072-1.053 0-1.906.928-1.906 2.072 0 1.145.853 2.072 1.906 2.072zm7.778 13.788c1.053 0 1.906-.927 1.906-2.072 0-1.144-.853-2.072-1.906-2.072-1.054 0-1.907.928-1.907 2.072 0 1.145.853 2.072 1.907 2.072zm-2.77 121.318c1.053 0 1.907-.927 1.907-2.072 0-1.144-.854-2.072-1.907-2.072s-1.907.928-1.907 2.072c0 1.145.854 2.072 1.907 2.072zm-10.341 11.636c1.053 0 1.907-.928 1.907-2.072 0-1.144-.854-2.072-1.907-2.072s-1.907.928-1.907 2.072c0 1.144.854 2.072 1.907 2.072zm-11.731 9.959c1.053 0 1.907-.928 1.907-2.072 0-1.144-.854-2.072-1.907-2.072s-1.907.928-1.907 2.072c0 1.144.854 2.072 1.907 2.072zm-12.893 8.087c1.053 0 1.907-.927 1.907-2.071 0-1.145-.854-2.072-1.907-2.072s-1.907.927-1.907 2.072c0 1.144.854 2.071 1.907 2.071zm-13.802 6.059c1.053 0 1.907-.928 1.907-2.072 0-1.144-.854-2.072-1.907-2.072s-1.907.928-1.907 2.072c0 1.144.854 2.072 1.907 2.072zm-14.445 3.915c1.053 0 1.907-.928 1.907-2.072 0-1.144-.854-2.072-1.907-2.072s-1.907.928-1.907 2.072c0 1.144.854 2.072 1.907 2.072zm-14.804 1.655c1.035 0 1.873-.912 1.873-2.036 0-1.125-.838-2.036-1.873-2.036-1.035 0-1.874.911-1.874 2.036 0 1.124.839 2.036 1.874 2.036zm-14.876-2.101c.256 0 .462-.224.462-.501 0-.276-.206-.5-.462-.5-.255 0-.461.224-.461.5 0 .277.206.501.461.501zm-14.662-3.273c.019 0 .034-.016.034-.036 0-.02-.015-.036-.034-.036-.018 0-.033.016-.033.036 0 .02.015.036.033.036zm-50.94-30.352c.835 0 1.512-.736 1.512-1.643s-.677-1.642-1.512-1.642-1.512.735-1.512 1.642c0 .907.677 1.643 1.512 1.643zm-9.569-11.963c1.053 0 1.907-.928 1.907-2.072 0-1.145-.854-2.072-1.907-2.072s-1.907.927-1.907 2.072c0 1.144.854 2.072 1.907 2.072zm-7.89-13.717c1.053 0 1.907-.928 1.907-2.072 0-1.144-.854-2.072-1.907-2.072s-1.906.928-1.906 2.072c0 1.144.853 2.072 1.906 2.072zm-6.054-14.849c1.017 0 1.841-.896 1.841-2.001 0-1.104-.824-2-1.841-2s-1.841.896-1.841 2c0 1.105.824 2.001 1.841 2.001zm-4.103-16.155c.708 0 1.283-.625 1.283-1.394 0-.77-.575-1.394-1.283-1.394-.709 0-1.283.624-1.283 1.394 0 .769.574 1.394 1.283 1.394zm-2.072-16.735c.345 0 .625-.304.625-.679 0-.374-.28-.678-.625-.678s-.624.304-.624.678c0 .375.279.678.624.678zm0-16.817c.019 0 .034-.016.034-.036 0-.02-.015-.037-.034-.037-.018 0-.033.017-.033.037 0 .02.015.036.033.036zm2.072-16.019c.018 0 .033-.017.033-.037 0-.02-.015-.036-.033-.036-.019 0-.034.016-.034.036 0 .02.015.037.034.037zm4.103-15.55a.034.034 0 00.034-.035c0-.02-.015-.037-.034-.037-.018 0-.033.017-.033.036 0 .02.015.037.033.037zm6.055-14.777c.018 0 .033-.016.033-.036 0-.02-.015-.036-.033-.036-.018 0-.033.016-.033.036 0 .02.015.036.033.036zm7.889-13.682c.036 0 .066-.032.066-.071 0-.04-.03-.072-.066-.072-.037 0-.066.032-.066.072 0 .04.029.072.066.072zm9.569-10.962c.763 0 1.382-.672 1.382-1.501 0-.83-.619-1.502-1.382-1.502-.764 0-1.382.672-1.382 1.502 0 .829.618 1.5 1.382 1.5zm148.153-6.765c.183 0 .33-.16.33-.358 0-.198-.147-.358-.33-.358-.182 0-.329.16-.329.358 0 .197.147.358.329.358zm10.341 13.206c.98 0 1.775-.863 1.775-1.929 0-1.065-.795-1.928-1.775-1.928-.981 0-1.775.863-1.775 1.928 0 1.066.794 1.93 1.775 1.93zm4.686 162.86c1.053 0 1.907-.928 1.907-2.072 0-1.145-.854-2.072-1.907-2.072s-1.906.927-1.906 2.072c0 1.144.853 2.072 1.906 2.072zm-10.853 11.075c1.053 0 1.907-.928 1.907-2.072 0-1.144-.854-2.072-1.907-2.072s-1.907.928-1.907 2.072c0 1.144.854 2.072 1.907 2.072zm-12.045 9.51c1.053 0 1.907-.928 1.907-2.072 0-1.144-.854-2.072-1.907-2.072s-1.907.928-1.907 2.072c0 1.144.854 2.072 1.907 2.072zm-13.048 7.794c1.053 0 1.907-.928 1.907-2.072 0-1.144-.854-2.072-1.907-2.072s-1.907.928-1.907 2.072c0 1.144.854 2.072 1.907 2.072zm-13.843 5.955c1.053 0 1.907-.928 1.907-2.072 0-1.144-.854-2.072-1.907-2.072s-1.907.928-1.907 2.072c0 1.144.854 2.072 1.907 2.072zm-14.422 4.024c1.053 0 1.907-.928 1.907-2.072 0-1.144-.854-2.072-1.907-2.072s-1.907.928-1.907 2.072c0 1.144.854 2.072 1.907 2.072zm-14.77 2.027c1.053 0 1.907-.927 1.907-2.072 0-1.144-.854-2.072-1.907-2.072s-1.907.928-1.907 2.072c0 1.145.854 2.072 1.907 2.072zm-14.889-2.035c.019 0 .034-.017.034-.036 0-.02-.015-.037-.034-.037-.018 0-.033.017-.033.037 0 .019.015.036.033.036zm-14.77-2.027c.018 0 .033-.017.033-.037 0-.019-.015-.036-.033-.036-.018 0-.033.017-.033.036 0 .02.015.037.033.037zm-14.422-4.025c.019 0 .034-.016.034-.036 0-.02-.015-.036-.034-.036-.018 0-.033.016-.033.036 0 .02.015.036.033.036zm-59.279-46.727c.055 0 .099-.048.099-.107 0-.06-.044-.108-.099-.108-.054 0-.099.048-.099.108 0 .059.045.107.099.107zm-7.978-13.554c.109 0 .198-.096.198-.214 0-.119-.089-.215-.198-.215-.109 0-.198.096-.198.215 0 .118.089.214.198.214zm-6.339-14.423c.219 0 .396-.192.396-.43 0-.237-.177-.429-.396-.429-.219 0-.396.192-.396.429 0 .238.177.43.396.43zm-7.39-31.671c.018 0 .033-.017.033-.036 0-.02-.015-.037-.033-.037-.019 0-.034.017-.034.037 0 .019.015.036.034.036zm-.936-16.147c.019 0 .034-.016.034-.036 0-.02-.015-.036-.034-.036-.018 0-.033.016-.033.036 0 .02.015.036.033.036zm.936-16.146c.018 0 .033-.016.033-.036 0-.02-.015-.036-.033-.036-.019 0-.034.016-.034.036 0 .02.015.036.034.036zm2.789-15.892c.018 0 .033-.017.033-.037 0-.02-.015-.036-.033-.036-.018 0-.033.017-.033.036 0 .02.015.037.033.037zm201.259-54.15c1.035 0 1.874-.912 1.874-2.036 0-1.125-.839-2.036-1.874-2.036-1.035 0-1.874.911-1.874 2.036 0 1.124.839 2.036 1.874 2.036zm-6.789 200.445c1.053 0 1.907-.928 1.907-2.072 0-1.144-.854-2.072-1.907-2.072s-1.907.928-1.907 2.072c0 1.144.854 2.072 1.907 2.072zm-12.291 9.132c1.054 0 1.907-.927 1.907-2.072 0-1.144-.853-2.071-1.907-2.071-1.053 0-1.906.927-1.906 2.071 0 1.145.853 2.072 1.906 2.072zm-13.169 7.551c1.053 0 1.907-.927 1.907-2.072 0-1.144-.854-2.072-1.907-2.072s-1.907.928-1.907 2.072c0 1.145.854 2.072 1.907 2.072zm-13.877 5.871c1.054 0 1.907-.928 1.907-2.072 0-1.144-.853-2.072-1.907-2.072-1.053 0-1.906.928-1.906 2.072 0 1.144.853 2.072 1.906 2.072zm-14.401 4.113c1.053 0 1.907-.927 1.907-2.072 0-1.144-.854-2.072-1.907-2.072s-1.907.928-1.907 2.072c0 1.145.854 2.072 1.907 2.072zm-14.738 2.301c1.053 0 1.907-.927 1.907-2.072 0-1.144-.854-2.072-1.907-2.072s-1.907.928-1.907 2.072c0 1.145.854 2.072 1.907 2.072zm-14.885-1.536c.036 0 .066-.033.066-.072 0-.04-.03-.072-.066-.072-.037 0-.066.032-.066.072 0 .039.029.072.066.072zm-14.835-1.42c.019 0 .034-.017.034-.037 0-.02-.015-.036-.034-.036-.018 0-.033.016-.033.036 0 .02.015.037.033.037zm-14.594-3.214c.019 0 .033-.016.033-.036 0-.02-.014-.036-.033-.036-.018 0-.033.016-.033.036 0 .02.015.036.033.036zm-14.161-4.999c.018 0 .033-.016.033-.036 0-.02-.015-.036-.033-.036-.019 0-.033.016-.033.036 0 .02.014.036.033.036zm-81.19-107.892c.019 0 .034-.016.034-.036 0-.02-.015-.036-.034-.036-.018 0-.033.016-.033.036 0 .02.015.036.033.036zm-1.697-16.074c.018 0 .033-.017.033-.037 0-.02-.015-.036-.033-.036-.019 0-.034.017-.034.037 0 .02.015.036.034.036zm0-16.179c.018 0 .033-.016.033-.036 0-.02-.015-.036-.033-.036-.019 0-.034.016-.034.036 0 .02.015.036.034.036zm1.697-16.075c.019 0 .034-.016.034-.036 0-.02-.015-.036-.034-.036-.018 0-.033.016-.033.036 0 .02.015.036.033.036zM698.543 217.42c1.053 0 1.907-.928 1.907-2.072 0-1.144-.854-2.072-1.907-2.072s-1.907.928-1.907 2.072c0 1.144.854 2.072 1.907 2.072zm-12.49 8.814c1.053 0 1.907-.928 1.907-2.072 0-1.144-.854-2.072-1.907-2.072s-1.907.928-1.907 2.072c0 1.144.854 2.072 1.907 2.072zm-13.268 7.345c1.053 0 1.907-.928 1.907-2.072 0-1.144-.854-2.072-1.907-2.072s-1.907.928-1.907 2.072c0 1.144.854 2.072 1.907 2.072zm-13.903 5.799c1.053 0 1.907-.928 1.907-2.072 0-1.144-.854-2.072-1.907-2.072s-1.907.928-1.907 2.072c0 1.144.854 2.072 1.907 2.072zm-14.383 4.189c1.053 0 1.907-.928 1.907-2.072 0-1.145-.854-2.072-1.907-2.072s-1.907.927-1.907 2.072c0 1.144.854 2.072 1.907 2.072zm-14.71 2.532c1.053 0 1.907-.928 1.907-2.072 0-1.145-.854-2.072-1.907-2.072s-1.907.927-1.907 2.072c0 1.144.854 2.072 1.907 2.072zm-14.87.381c.817 0 1.479-.72 1.479-1.607 0-.888-.662-1.607-1.479-1.607-.817 0-1.479.719-1.479 1.607 0 .887.662 1.607 1.479 1.607zm-29.581-4.949c.019 0 .034-.016.034-.036 0-.02-.015-.036-.034-.036-.018 0-.033.016-.033.036 0 .02.015.036.033.036zm-14.383-4.188c.018 0 .033-.017.033-.037 0-.02-.015-.036-.033-.036-.018 0-.033.016-.033.036 0 .02.015.037.033.037zm-13.903-5.799c.019 0 .034-.017.034-.037 0-.02-.015-.036-.034-.036-.018 0-.033.016-.033.036 0 .02.015.037.033.037zm-81.295-109.085c.019 0 .034-.016.034-.036 0-.02-.015-.037-.034-.037-.018 0-.033.017-.033.037 0 .02.015.036.033.036zm-2.33-15.984c.019 0 .034-.016.034-.036 0-.02-.015-.036-.034-.036-.018 0-.033.016-.033.036 0 .02.015.036.033.036zm-.778-16.159c.018 0 .033-.016.033-.036 0-.02-.015-.036-.033-.036-.019 0-.034.016-.034.036 0 .02.015.036.034.036zm229.823 139.865c1.053 0 1.907-.927 1.907-2.072 0-1.144-.854-2.072-1.907-2.072s-1.907.928-1.907 2.072c0 1.145.854 2.072 1.907 2.072zm-12.651 8.539c1.053 0 1.907-.928 1.907-2.072 0-1.145-.854-2.072-1.907-2.072s-1.907.927-1.907 2.072c0 1.144.854 2.072 1.907 2.072zm-13.349 7.173c1.053 0 1.907-.928 1.907-2.072 0-1.145-.854-2.072-1.907-2.072s-1.907.927-1.907 2.072c0 1.144.854 2.072 1.907 2.072zm-13.926 5.738c1.053 0 1.907-.928 1.907-2.072 0-1.144-.854-2.072-1.907-2.072s-1.907.928-1.907 2.072c0 1.144.854 2.072 1.907 2.072zm-14.37 4.251c1.053 0 1.906-.927 1.906-2.072 0-1.144-.853-2.072-1.906-2.072-1.054 0-1.907.928-1.907 2.072 0 1.145.853 2.072 1.907 2.072zm-14.68 2.725c1.053 0 1.907-.927 1.907-2.072 0-1.144-.854-2.072-1.907-2.072s-1.907.928-1.907 2.072c0 1.145.854 2.072 1.907 2.072zm-14.853 1.137c1.035 0 1.874-.912 1.874-2.037 0-1.124-.839-2.036-1.874-2.036-1.035 0-1.874.912-1.874 2.036 0 1.125.839 2.037 1.874 2.037zm-44.214-7.835c.019 0 .034-.016.034-.036 0-.02-.015-.036-.034-.036-.018 0-.033.016-.033.036 0 .02.015.036.033.036zm-14.164-4.999c.019 0 .033-.016.033-.036 0-.02-.014-.037-.033-.037-.018 0-.033.017-.033.037 0 .02.015.036.033.036zm-13.654-6.463c.018 0 .033-.016.033-.036 0-.02-.015-.036-.033-.036-.018 0-.033.016-.033.036 0 .02.015.036.033.036zm-81.34-110.051c.019 0 .034-.016.034-.036 0-.02-.015-.036-.034-.036-.018 0-.033.016-.033.036 0 .02.015.036.033.036zm-2.861-15.882c.018 0 .033-.016.033-.036 0-.02-.015-.036-.033-.036-.019 0-.033.016-.033.036 0 .02.014.036.033.036zm-1.438-16.107c.019 0 .034-.016.034-.036 0-.02-.015-.036-.034-.036-.018 0-.033.016-.033.036 0 .02.015.036.033.036zm232.6 152.768c1.053 0 1.907-.928 1.907-2.072 0-1.145-.854-2.072-1.907-2.072s-1.907.927-1.907 2.072c0 1.144.854 2.072 1.907 2.072zm-13.418 7.021c1.053 0 1.906-.928 1.906-2.072 0-1.145-.853-2.072-1.906-2.072s-1.907.927-1.907 2.072c0 1.144.854 2.072 1.907 2.072zm-13.944 5.686c1.053 0 1.907-.928 1.907-2.072 0-1.144-.854-2.072-1.907-2.072s-1.907.928-1.907 2.072c0 1.144.854 2.072 1.907 2.072zm-14.357 4.307c1.053 0 1.906-.928 1.906-2.072 0-1.145-.853-2.072-1.906-2.072-1.054 0-1.907.927-1.907 2.072 0 1.144.853 2.072 1.907 2.072zm-14.654 2.889c1.053 0 1.907-.927 1.907-2.071 0-1.145-.854-2.072-1.907-2.072s-1.907.927-1.907 2.072c0 1.144.854 2.071 1.907 2.071zm-14.834 1.199c.926 0 1.676-.815 1.676-1.821s-.75-1.822-1.676-1.822c-.926 0-1.677.816-1.677 1.822 0 1.006.751 1.821 1.677 1.821zm-58.737-10.43c.018 0 .033-.016.033-.036 0-.02-.015-.037-.033-.037-.019 0-.034.017-.034.037 0 .02.015.036.034.036zm-13.944-5.687c.018 0 .033-.016.033-.036 0-.02-.015-.036-.033-.036-.019 0-.034.016-.034.036 0 .02.015.036.034.036zm-94.765-117.861c.018 0 .033-.016.033-.036 0-.02-.015-.036-.033-.036-.018 0-.033.016-.033.036 0 .02.015.036.033.036zm-3.314-15.778c.018 0 .033-.016.033-.036 0-.02-.015-.036-.033-.036-.019 0-.034.016-.034.036 0 .02.015.036.034.036zm-2-16.037c.019 0 .034-.016.034-.036 0-.02-.015-.036-.034-.036-.018 0-.033.016-.033.036 0 .02.015.036.033.036zM697.31 262.961c.727 0 1.316-.641 1.316-1.43 0-.79-.589-1.43-1.316-1.43-.726 0-1.316.64-1.316 1.43 0 .789.59 1.43 1.316 1.43zm-13.476 7.533c1.053 0 1.907-.928 1.907-2.072 0-1.145-.854-2.072-1.907-2.072s-1.907.927-1.907 2.072c0 1.144.854 2.072 1.907 2.072zm-13.96 5.641c1.053 0 1.907-.928 1.907-2.072 0-1.144-.854-2.072-1.907-2.072s-1.907.928-1.907 2.072c0 1.144.854 2.072 1.907 2.072zm-14.346 4.353c1.053 0 1.907-.927 1.907-2.072 0-1.144-.854-2.072-1.907-2.072s-1.907.928-1.907 2.072c0 1.145.854 2.072 1.907 2.072zm-14.63 3.031c1.053 0 1.906-.927 1.906-2.072 0-1.144-.853-2.072-1.906-2.072-1.054 0-1.907.928-1.907 2.072 0 1.145.853 2.072 1.907 2.072zm-14.814 1.478c.944 0 1.71-.831 1.71-1.857s-.766-1.857-1.71-1.857-1.709.831-1.709 1.857.765 1.857 1.709 1.857zm-73.155-13.56c.018 0 .033-.016.033-.036 0-.02-.015-.036-.033-.036-.018 0-.033.016-.033.036 0 .02.015.036.033.036zm-13.729-6.271c.018 0 .033-.016.033-.036 0-.02-.015-.036-.033-.036-.019 0-.034.016-.034.036 0 .02.015.036.034.036zm-94.53-118.998c.019 0 .034-.016.034-.036 0-.02-.015-.036-.034-.036-.018 0-.033.016-.033.036 0 .02.015.036.033.036zm-3.703-15.675c.019 0 .033-.016.033-.036 0-.02-.014-.037-.033-.037-.018 0-.033.017-.033.037 0 .02.015.036.033.036zm260.071 144.123c.345 0 .625-.304.625-.678 0-.375-.28-.678-.625-.678s-.624.303-.624.678c0 .374.279.678.624.678zm-13.527 8.027c.98 0 1.775-.864 1.775-1.929 0-1.066-.795-1.929-1.775-1.929-.981 0-1.775.863-1.775 1.929 0 1.065.794 1.929 1.775 1.929zm-13.974 5.745c1.053 0 1.907-.928 1.907-2.072 0-1.144-.854-2.072-1.907-2.072s-1.907.928-1.907 2.072c0 1.144.854 2.072 1.907 2.072zm-14.335 4.393c1.053 0 1.907-.928 1.907-2.072 0-1.145-.854-2.072-1.907-2.072s-1.907.927-1.907 2.072c0 1.144.854 2.072 1.907 2.072zm-14.609 3.158c1.053 0 1.907-.928 1.907-2.072 0-1.145-.854-2.072-1.907-2.072s-1.907.927-1.907 2.072c0 1.144.854 2.072 1.907 2.072zm-14.792 1.58c.89 0 1.611-.784 1.611-1.75 0-.967-.721-1.75-1.611-1.75-.889 0-1.611.783-1.611 1.75 0 .966.722 1.75 1.611 1.75zm-87.475-16.769c.019 0 .034-.016.034-.036 0-.02-.015-.036-.034-.036-.018 0-.033.016-.033.036 0 .02.015.036.033.036zm-13.527-6.776c.018 0 .033-.016.033-.036 0-.02-.015-.036-.033-.036-.018 0-.033.016-.033.036 0 .02.015.036.033.036zm-89.134-104.778c.018 0 .033-.016.033-.036 0-.02-.015-.036-.033-.036-.019 0-.034.016-.034.036 0 .02.015.036.034.036zm-5.156-15.183c.018 0 .033-.017.033-.037 0-.02-.015-.036-.033-.036-.018 0-.033.016-.033.036 0 .02.015.037.033.037zm-4.043-15.578c.019 0 .034-.016.034-.036 0-.02-.015-.036-.034-.036-.018 0-.033.016-.033.036 0 .02.015.036.033.036zm260.722 154.959c.201 0 .363-.176.363-.393 0-.218-.162-.394-.363-.394-.2 0-.362.176-.362.394 0 .217.162.393.362.393zm-13.987 7.174c1.017 0 1.841-.896 1.841-2.001s-.824-2-1.841-2-1.841.895-1.841 2 .824 2.001 1.841 2.001zm-14.327 4.501c1.053 0 1.906-.927 1.906-2.072 0-1.144-.853-2.072-1.906-2.072-1.054 0-1.907.928-1.907 2.072 0 1.145.853 2.072 1.907 2.072zm-14.588 3.268c1.053 0 1.907-.928 1.907-2.072 0-1.145-.854-2.072-1.907-2.072s-1.907.927-1.907 2.072c0 1.144.854 2.072 1.907 2.072zm-14.77 1.266c.637 0 1.152-.56 1.152-1.25 0-.691-.515-1.251-1.152-1.251-.636 0-1.151.56-1.151 1.251 0 .69.515 1.25 1.151 1.25zm-101.707-19.767c.019 0 .034-.016.034-.036 0-.02-.015-.036-.034-.036-.018 0-.033.016-.033.036 0 .02.015.036.033.036zm-13.334-7.214c.018 0 .033-.016.033-.036 0-.02-.015-.036-.033-.036-.019 0-.034.016-.034.036 0 .02.015.036.034.036zm-88.677-105.7c.018 0 .033-.016.033-.036 0-.02-.015-.036-.033-.036-.018 0-.033.016-.033.036 0 .02.015.036.033.036zm-5.38-15.092c.019 0 .034-.016.034-.036 0-.02-.015-.036-.034-.036-.018 0-.033.016-.033.036 0 .02.015.036.033.036zm-4.34-15.483c.018 0 .033-.016.033-.036 0-.02-.015-.036-.033-.036-.019 0-.034.016-.034.036 0 .02.015.036.034.036zm260.787 164.616c.073 0 .132-.064.132-.143 0-.079-.059-.143-.132-.143-.073 0-.132.064-.132.143 0 .079.059.143.132.143zm-14.318 5.461c.581 0 1.053-.512 1.053-1.143 0-.632-.472-1.144-1.053-1.144-.582 0-1.053.512-1.053 1.144 0 .631.471 1.143 1.053 1.143zm-14.57 3.366c.582 0 1.053-.512 1.053-1.144 0-.631-.471-1.143-1.053-1.143s-1.053.512-1.053 1.143c0 .632.471 1.144 1.053 1.144zm-14.751 2.073c.491 0 .889-.431.889-.964 0-.533-.398-.964-.889-.964-.49 0-.888.431-.888.964 0 .533.398.964.888.964zm-102.25-16.542c.018 0 .033-.017.033-.037 0-.02-.015-.036-.033-.036-.018 0-.033.016-.033.036 0 .02.015.037.033.037zm-13.608-6.583c.018 0 .033-.016.033-.036 0-.02-.015-.036-.033-.036-.019 0-.034.016-.034.036 0 .02.015.036.034.036zm-13.152-7.599c.019 0 .034-.017.034-.036 0-.02-.015-.037-.034-.037-.018 0-.033.017-.033.037 0 .019.015.036.033.036zm-65.946-62.844c.871 0 1.578-.767 1.578-1.714s-.707-1.714-1.578-1.714c-.872 0-1.578.767-1.578 1.714s.706 1.714 1.578 1.714zm-8.329-14.274c.436 0 .79-.384.79-.858 0-.473-.354-.857-.79-.857-.436 0-.789.384-.789.857 0 .474.353.858.789.858zm-19.557-44.393c.018 0 .033-.017.033-.037 0-.02-.015-.036-.033-.036-.018 0-.033.016-.033.036 0 .02.015.037.033.037zm-4.604-15.394c.018 0 .033-.016.033-.036 0-.02-.015-.036-.033-.036-.019 0-.033.016-.033.036 0 .02.014.036.033.036zM698.535 317.6c.019 0 .034-.016.034-.036 0-.02-.015-.036-.034-.036-.018 0-.033.016-.033.036 0 .02.015.036.033.036zm-174.103-3.127c.019 0 .034-.016.034-.036 0-.02-.015-.037-.034-.037-.018 0-.033.017-.033.037 0 .02.015.036.033.036zm-13.435-6.989c.019 0 .034-.016.034-.036 0-.02-.015-.037-.034-.037-.018 0-.033.017-.033.037 0 .02.015.036.033.036zm-12.982-7.937c.018 0 .033-.017.033-.037 0-.02-.015-.036-.033-.036-.018 0-.033.016-.033.036 0 .02.015.037.033.037zm-56.187-52.584c.019 0 .034-.016.034-.036 0-.02-.015-.036-.034-.036-.018 0-.033.016-.033.036 0 .02.015.036.033.036zm-9.15-10.738c1.053 0 1.906-.927 1.906-2.072 0-1.144-.853-2.072-1.906-2.072-1.054 0-1.907.928-1.907 2.072 0 1.145.853 2.072 1.907 2.072zm-8.352-13.401c1.053 0 1.906-.928 1.906-2.072 0-1.145-.853-2.072-1.906-2.072s-1.907.927-1.907 2.072c0 1.144.854 2.072 1.907 2.072zm-7.518-15.651c.2 0 .363-.177.363-.394 0-.217-.163-.394-.363-.394-.2 0-.363.177-.363.394 0 .217.163.394.363.394zM688.191 335.36c.019 0 .034-.016.034-.036 0-.02-.015-.036-.034-.036-.018 0-.033.016-.033.036 0 .02.015.036.033.036zm-14.304 4.517c.018 0 .033-.016.033-.036 0-.02-.015-.037-.033-.037-.019 0-.033.017-.033.037 0 .02.014.036.033.036zM513.96 323.45c.018 0 .033-.017.033-.037 0-.02-.015-.036-.033-.036-.019 0-.034.016-.034.036 0 .02.015.037.034.037zm-13.274-7.349c.018 0 .033-.016.033-.036 0-.02-.015-.036-.033-.036-.018 0-.033.016-.033.036 0 .02.015.036.033.036zm-12.821-8.24c.019 0 .034-.016.034-.036 0-.02-.015-.036-.034-.036-.018 0-.033.016-.033.036 0 .02.015.036.033.036zm-55.648-52.739c.309 0 .56-.272.56-.607 0-.335-.251-.606-.56-.606-.308 0-.559.271-.559.606 0 .335.251.607.559.607zm-9.13-11.324c1.053 0 1.907-.928 1.907-2.072 0-1.145-.854-2.072-1.907-2.072s-1.906.927-1.906 2.072c0 1.144.853 2.072 1.906 2.072zm-8.373-13.388c1.053 0 1.907-.927 1.907-2.072 0-1.144-.854-2.072-1.907-2.072s-1.907.928-1.907 2.072c0 1.145.854 2.072 1.907 2.072zm-7.582-13.967c1.034 0 1.873-.912 1.873-2.036 0-1.125-.839-2.036-1.873-2.036-1.035 0-1.874.911-1.874 2.036 0 1.124.839 2.036 1.874 2.036zm-6.763-16.102c.182 0 .33-.16.33-.357 0-.198-.148-.358-.33-.358-.182 0-.33.16-.33.358 0 .197.148.357.33.357zm-5.917-15.069c.073 0 .132-.064.132-.143 0-.079-.059-.143-.132-.143-.072 0-.131.064-.131.143 0 .079.059.143.131.143zm297.403 162.342c.018 0 .033-.017.033-.037 0-.02-.015-.036-.033-.036-.018 0-.033.016-.033.036 0 .02.015.037.033.037zm-14.298 4.539c.018 0 .033-.016.033-.036 0-.02-.015-.036-.033-.036-.018 0-.033.016-.033.036 0 .02.015.036.033.036zm-14.523 3.602c.018 0 .033-.016.033-.036 0-.02-.015-.037-.033-.037-.019 0-.034.017-.034.037 0 .02.015.036.034.036zM503.549 332.28c.019 0 .034-.017.034-.037 0-.02-.015-.036-.034-.036-.018 0-.033.016-.033.036 0 .02.015.037.033.037zm-13.117-7.671c.019 0 .034-.016.034-.036 0-.02-.015-.036-.034-.036-.018 0-.033.016-.033.036 0 .02.015.036.033.036zm-12.672-8.51c.018 0 .033-.016.033-.036 0-.02-.015-.036-.033-.036-.019 0-.034.016-.034.036 0 .02.015.036.034.036zm-45.351-41.664c.073 0 .132-.064.132-.143 0-.079-.059-.143-.132-.143-.072 0-.132.064-.132.143 0 .079.06.143.132.143zm-9.801-10.259c1.053 0 1.907-.928 1.907-2.072 0-1.145-.854-2.072-1.907-2.072s-1.907.927-1.907 2.072c0 1.144.854 2.072 1.907 2.072zm-9.112-12.806c1.053 0 1.907-.928 1.907-2.072 0-1.145-.854-2.072-1.907-2.072s-1.907.927-1.907 2.072c0 1.144.854 2.072 1.907 2.072zm-8.392-13.373c1.053 0 1.907-.928 1.907-2.072 0-1.145-.854-2.072-1.907-2.072s-1.907.927-1.907 2.072c0 1.144.854 2.072 1.907 2.072zm-7.64-13.896c1.053 0 1.907-.927 1.907-2.072 0-1.144-.854-2.072-1.907-2.072s-1.907.928-1.907 2.072c0 1.145.854 2.072 1.907 2.072zm-6.862-14.403c1.035 0 1.874-.912 1.874-2.037 0-1.124-.839-2.036-1.874-2.036-1.035 0-1.873.912-1.873 2.036 0 1.125.838 2.037 1.873 2.037zm-6.059-14.787c1.035 0 1.874-.912 1.874-2.036 0-1.125-.839-2.036-1.874-2.036-1.035 0-1.874.911-1.874 2.036 0 1.124.839 2.036 1.874 2.036zm-5.234-16.442c.381 0 .69-.335.69-.749s-.309-.75-.69-.75c-.382 0-.691.336-.691.75s.309.749.691.749zm-.001-175.592c.019 0 .034-.017.034-.037 0-.02-.015-.036-.034-.036-.018 0-.033.016-.033.036 0 .02.015.037.033.037zm316.211 356.988c.018 0 .033-.016.033-.036 0-.02-.015-.037-.033-.037-.019 0-.034.017-.034.037 0 .02.015.036.034.036zm-14.293 4.56c.018 0 .033-.016.033-.036 0-.02-.015-.036-.033-.036-.018 0-.033.016-.033.036 0 .02.015.036.033.036zm-14.509 3.667c.019 0 .034-.017.034-.036 0-.02-.015-.037-.034-.037-.018 0-.033.017-.033.037 0 .019.015.036.033.036zm-14.678 2.761c.019 0 .033-.017.033-.037 0-.02-.014-.036-.033-.036-.018 0-.033.016-.033.036 0 .02.015.037.033.037zm-158.84-29.871c.018 0 .033-.016.033-.036 0-.02-.015-.036-.033-.036-.019 0-.033.016-.033.036 0 .02.014.036.033.036zm-12.971-7.958c.019 0 .033-.016.033-.036 0-.02-.014-.036-.033-.036-.018 0-.033.016-.033.036 0 .02.015.036.033.036zm-12.533-8.751c.019 0 .034-.017.034-.037 0-.02-.015-.036-.034-.036-.018 0-.033.016-.033.036 0 .02.015.037.033.037zm-44.939-41.244c.563 0 1.02-.496 1.02-1.107 0-.612-.457-1.108-1.02-1.108-.564 0-1.02.496-1.02 1.108 0 .611.456 1.107 1.02 1.107zM413 271.76c1.053 0 1.907-.927 1.907-2.072 0-1.144-.854-2.072-1.907-2.072s-1.907.928-1.907 2.072c0 1.145.854 2.072 1.907 2.072zm-9.096-12.818c1.053 0 1.907-.928 1.907-2.072 0-1.144-.854-2.072-1.907-2.072s-1.907.928-1.907 2.072c0 1.144.854 2.072 1.907 2.072zm-8.409-13.361c1.053 0 1.907-.927 1.907-2.072 0-1.144-.854-2.071-1.907-2.071s-1.907.927-1.907 2.071c0 1.145.854 2.072 1.907 2.072zm-7.692-13.861c1.053 0 1.907-.928 1.907-2.072 0-1.144-.854-2.072-1.907-2.072s-1.907.928-1.907 2.072c0 1.144.854 2.072 1.907 2.072zm-6.952-14.318c1.053 0 1.907-.927 1.907-2.072 0-1.144-.854-2.072-1.907-2.072s-1.907.928-1.907 2.072c0 1.145.854 2.072 1.907 2.072zm-6.188-14.724c1.053 0 1.907-.927 1.907-2.072 0-1.144-.854-2.072-1.907-2.072s-1.907.928-1.907 2.072c0 1.145.854 2.072 1.907 2.072zm-5.404-15.119c1.035 0 1.873-.912 1.873-2.036 0-1.125-.838-2.036-1.873-2.036-1.035 0-1.874.911-1.874 2.036 0 1.124.839 2.036 1.874 2.036zm-4.604-16.86c.291 0 .526-.256.526-.571 0-.315-.235-.571-.526-.571-.29 0-.526.256-.526.571 0 .315.236.571.526.571zm0-160.089c.091 0 .165-.08.165-.178 0-.099-.074-.18-.165-.18-.091 0-.165.081-.165.18 0 .099.074.179.165.179zm320.24 366.086c.018 0 .033-.016.033-.036 0-.02-.015-.036-.033-.036-.019 0-.034.016-.034.036 0 .02.015.036.034.036zm-14.497 3.726c.018 0 .033-.017.033-.037 0-.02-.015-.036-.033-.036-.019 0-.034.016-.034.036 0 .02.015.037.034.037zm-14.662 2.859c.018 0 .033-.016.033-.036 0-.02-.015-.037-.033-.037-.019 0-.033.017-.033.037 0 .02.014.036.033.036zm-14.784 1.986c.019 0 .034-.016.034-.036 0-.02-.015-.036-.034-.036-.018 0-.033.016-.033.036 0 .02.015.036.033.036zm-158.053-35.689c.018 0 .033-.016.033-.036 0-.02-.015-.036-.033-.036-.018 0-.033.016-.033.036 0 .02.015.036.033.036zm-12.833-8.222c.019 0 .034-.016.034-.036 0-.02-.015-.036-.034-.036-.018 0-.033.016-.033.036 0 .02.015.036.033.036zm-56.958-50.739c.545 0 .987-.479.987-1.071s-.442-1.072-.987-1.072c-.545 0-.987.48-.987 1.072 0 .592.442 1.071.987 1.071zm-9.714-11.272c1.053 0 1.907-.928 1.907-2.072 0-1.144-.854-2.072-1.907-2.072s-1.907.928-1.907 2.072c0 1.144.854 2.072 1.907 2.072zm-9.082-12.831c1.054 0 1.907-.928 1.907-2.072 0-1.144-.853-2.072-1.907-2.072-1.053 0-1.906.928-1.906 2.072 0 1.144.853 2.072 1.906 2.072zm-8.424-13.35c1.053 0 1.907-.927 1.907-2.071 0-1.145-.854-2.072-1.907-2.072s-1.907.927-1.907 2.072c0 1.144.854 2.071 1.907 2.071zm-7.739-13.831c1.053 0 1.907-.928 1.907-2.072 0-1.144-.854-2.072-1.907-2.072s-1.907.928-1.907 2.072c0 1.144.854 2.072 1.907 2.072zm-7.035-14.269c1.054 0 1.907-.928 1.907-2.072 0-1.144-.853-2.072-1.907-2.072-1.053 0-1.906.928-1.906 2.072 0 1.144.853 2.072 1.906 2.072zm-6.305-14.665c1.054 0 1.907-.928 1.907-2.072 0-1.144-.853-2.072-1.907-2.072-1.053 0-1.906.928-1.906 2.072 0 1.144.853 2.072 1.906 2.072zm-5.559-15.017c1.053 0 1.907-.928 1.907-2.072 0-1.145-.854-2.072-1.907-2.072s-1.907.927-1.907 2.072c0 1.144.854 2.072 1.907 2.072zm-4.796-15.325c1.053 0 1.906-.928 1.906-2.072 0-1.145-.853-2.072-1.906-2.072-1.054 0-1.907.927-1.907 2.072 0 1.144.853 2.072 1.907 2.072zm-4.019-16.48c.6 0 1.086-.528 1.086-1.179s-.486-1.179-1.086-1.179c-.6 0-1.086.528-1.086 1.179s.486 1.179 1.086 1.179zm-5.662-32.844c.055 0 .099-.048.099-.107s-.044-.107-.099-.107c-.055 0-.099.048-.099.107s.044.107.099.107zm2.432-96.734c.019 0 .034-.016.034-.036 0-.02-.015-.036-.034-.036-.018 0-.033.016-.033.036 0 .02.015.036.033.036zm3.229-15.801c.019 0 .034-.016.034-.036 0-.02-.015-.036-.034-.036-.018 0-.033.016-.033.036 0 .02.015.036.033.036zm4.02-13.801c.925 0 1.676-.816 1.676-1.822 0-1.006-.751-1.821-1.676-1.821-.926 0-1.677.815-1.677 1.821s.751 1.822 1.677 1.822zm319.623 388.349c.019 0 .034-.016.034-.036 0-.02-.015-.036-.034-.036-.018 0-.033.016-.033.036 0 .02.015.036.033.036zm-14.646 2.951c.018 0 .033-.016.033-.036 0-.02-.015-.036-.033-.036-.019 0-.034.016-.034.036 0 .02.015.036.034.036zm-14.769 2.111c.018 0 .033-.016.033-.036 0-.02-.015-.036-.033-.036-.018 0-.033.016-.033.036 0 .02.015.036.033.036zm-14.851 1.27c.018 0 .033-.016.033-.036 0-.02-.015-.036-.033-.036-.019 0-.034.016-.034.036 0 .02.015.036.034.036zM403.465 297.844c.345 0 .624-.303.624-.678 0-.374-.279-.678-.624-.678s-.625.304-.625.678c0 .375.28.678.625.678zm-9.676-10.914c1.053 0 1.907-.928 1.907-2.072 0-1.145-.854-2.072-1.907-2.072s-1.907.927-1.907 2.072c0 1.144.854 2.072 1.907 2.072zm-9.069-12.844c1.054 0 1.907-.927 1.907-2.072 0-1.144-.853-2.072-1.907-2.072-1.053 0-1.906.928-1.906 2.072 0 1.145.853 2.072 1.906 2.072zm-8.437-13.339c1.053 0 1.907-.927 1.907-2.072 0-1.144-.854-2.072-1.907-2.072s-1.907.928-1.907 2.072c0 1.145.854 2.072 1.907 2.072zm-7.784-13.802c1.054 0 1.907-.928 1.907-2.072 0-1.144-.853-2.072-1.907-2.072-1.053 0-1.906.928-1.906 2.072 0 1.144.853 2.072 1.906 2.072zm-7.108-14.225c1.053 0 1.907-.927 1.907-2.072 0-1.144-.854-2.072-1.907-2.072s-1.907.928-1.907 2.072c0 1.145.854 2.072 1.907 2.072zm-6.414-14.611c1.053 0 1.907-.928 1.907-2.072 0-1.144-.854-2.072-1.907-2.072s-1.906.928-1.906 2.072c0 1.144.853 2.072 1.906 2.072zm-5.7-14.955c1.053 0 1.906-.927 1.906-2.072 0-1.144-.853-2.072-1.906-2.072-1.054 0-1.907.928-1.907 2.072 0 1.145.853 2.072 1.907 2.072zm-4.973-15.259c1.053 0 1.907-.927 1.907-2.072 0-1.144-.854-2.072-1.907-2.072s-1.907.928-1.907 2.072c0 1.145.854 2.072 1.907 2.072zm-4.231-15.556c1.035 0 1.874-.911 1.874-2.036 0-1.124-.839-2.036-1.874-2.036-1.035 0-1.874.912-1.874 2.036 0 1.125.839 2.036 1.874 2.036zm-3.477-17.704c.036 0 .066-.032.066-.072 0-.039-.03-.072-.066-.072-.037 0-.066.033-.066.072 0 .04.029.072.066.072zm-4.658-31.713c.164 0 .297-.145.297-.322 0-.178-.133-.323-.297-.323-.164 0-.297.145-.297.323 0 .177.133.322.297.322zm1.943-80.973c.018 0 .033-.016.033-.036 0-.02-.015-.036-.033-.036-.019 0-.033.016-.033.036 0 .02.014.036.033.036zm2.715-15.666c.146 0 .264-.128.264-.286 0-.158-.118-.287-.264-.287-.145 0-.264.129-.264.287 0 .158.119.286.264.286zm3.478-14.74c.655 0 1.185-.576 1.185-1.287 0-.71-.53-1.286-1.185-1.286-.654 0-1.185.576-1.185 1.286 0 .711.531 1.287 1.185 1.287zm308.295 398.784c.018 0 .033-.016.033-.036 0-.02-.015-.036-.033-.036-.019 0-.034.016-.034.036 0 .02.015.036.034.036zM393.825 306.352c.799 0 1.447-.703 1.447-1.571 0-.867-.648-1.571-1.447-1.571-.798 0-1.446.704-1.446 1.571 0 .868.648 1.571 1.446 1.571zm-9.64-11.841c1.053 0 1.907-.928 1.907-2.072 0-1.144-.854-2.072-1.907-2.072s-1.906.928-1.906 2.072c0 1.144.853 2.072 1.906 2.072zm-9.056-12.852c1.053 0 1.907-.928 1.907-2.072 0-1.145-.854-2.072-1.907-2.072s-1.907.927-1.907 2.072c0 1.144.854 2.072 1.907 2.072zm-8.451-13.331c1.053 0 1.907-.927 1.907-2.072 0-1.144-.854-2.072-1.907-2.072s-1.906.928-1.906 2.072c0 1.145.853 2.072 1.906 2.072zm-7.823-13.775c1.053 0 1.907-.928 1.907-2.072 0-1.144-.854-2.072-1.907-2.072s-1.907.928-1.907 2.072c0 1.144.854 2.072 1.907 2.072zm-7.178-14.185c1.054 0 1.907-.928 1.907-2.072 0-1.145-.853-2.072-1.907-2.072-1.053 0-1.906.927-1.906 2.072 0 1.144.853 2.072 1.906 2.072zm-6.51-14.558c1.053 0 1.906-.928 1.906-2.072 0-1.144-.853-2.072-1.906-2.072-1.054 0-1.907.928-1.907 2.072 0 1.144.853 2.072 1.907 2.072zm-5.831-14.897c1.053 0 1.907-.928 1.907-2.072 0-1.145-.854-2.072-1.907-2.072s-1.907.927-1.907 2.072c0 1.144.854 2.072 1.907 2.072zm-5.134-15.195c1.053 0 1.907-.928 1.907-2.072 0-1.144-.854-2.072-1.907-2.072s-1.907.928-1.907 2.072c0 1.144.854 2.072 1.907 2.072zm-4.425-15.458c1.053 0 1.907-.927 1.907-2.072 0-1.144-.854-2.072-1.907-2.072s-1.907.928-1.907 2.072c0 1.145.854 2.072 1.907 2.072zm-3.705-16.142c.817 0 1.48-.72 1.48-1.607s-.663-1.607-1.48-1.607c-.816 0-1.479.72-1.479 1.607s.663 1.607 1.479 1.607zm-5.213-32.794c.345 0 .625-.304.625-.678 0-.375-.28-.678-.625-.678s-.624.303-.624.678c0 .374.279.678.624.678zm0-81.267c.073 0 .132-.064.132-.143 0-.08-.059-.143-.132-.143-.073 0-.132.064-.132.143 0 .079.059.143.132.143zm2.238-15.397c.381 0 .691-.335.691-.75 0-.413-.31-.75-.691-.75-.381 0-.69.337-.69.75 0 .415.309.75.69.75zm2.975-14.718c.962 0 1.742-.848 1.742-1.893 0-1.046-.78-1.893-1.742-1.893s-1.742.847-1.742 1.893c0 1.045.78 1.893 1.742 1.893zm3.705-15.499c1.053 0 1.907-.927 1.907-2.072 0-1.144-.854-2.072-1.907-2.072s-1.907.928-1.907 2.072c0 1.144.854 2.072 1.907 2.072zm64.557 319.875c.036 0 .066-.032.066-.071 0-.04-.03-.072-.066-.072-.037 0-.066.032-.066.072 0 .039.029.071.066.071zm-10.145-9.852c1.053 0 1.907-.927 1.907-2.072 0-1.144-.854-2.071-1.907-2.071s-1.907.927-1.907 2.071c0 1.145.854 2.072 1.907 2.072zm-9.607-12.372c1.053 0 1.907-.928 1.907-2.072 0-1.145-.854-2.072-1.907-2.072s-1.907.927-1.907 2.072c0 1.144.854 2.072 1.907 2.072zm-9.045-12.863c1.053 0 1.907-.928 1.907-2.072 0-1.145-.854-2.072-1.907-2.072s-1.907.927-1.907 2.072c0 1.144.854 2.072 1.907 2.072zm-8.462-13.321c1.053 0 1.907-.928 1.907-2.072 0-1.145-.854-2.072-1.907-2.072s-1.907.927-1.907 2.072c0 1.144.854 2.072 1.907 2.072zm-7.861-13.751c1.053 0 1.907-.928 1.907-2.072 0-1.144-.854-2.072-1.907-2.072s-1.907.928-1.907 2.072c0 1.144.854 2.072 1.907 2.072zm-7.239-14.255c.999 0 1.808-.88 1.808-1.965s-.809-1.964-1.808-1.964c-.998 0-1.808.879-1.808 1.964s.81 1.965 1.808 1.965zm-6.603-14.404c1.053 0 1.907-.928 1.907-2.072 0-1.144-.854-2.072-1.907-2.072s-1.907.928-1.907 2.072c0 1.144.854 2.072 1.907 2.072zm-5.949-14.84c1.053 0 1.907-.928 1.907-2.072 0-1.144-.854-2.072-1.907-2.072s-1.907.928-1.907 2.072c0 1.144.854 2.072 1.907 2.072zm-5.282-15.135c1.053 0 1.906-.928 1.906-2.072 0-1.145-.853-2.072-1.906-2.072-1.054 0-1.907.927-1.907 2.072 0 1.144.853 2.072 1.907 2.072zm-4.604-15.395c1.053 0 1.906-.928 1.906-2.072 0-1.145-.853-2.072-1.906-2.072-1.054 0-1.907.927-1.907 2.072 0 1.144.853 2.072 1.907 2.072zm-3.913-15.69c1.017 0 1.841-.896 1.841-2.001s-.824-2-1.841-2-1.841.895-1.841 2 .824 2.001 1.841 2.001zm-3.214-17.593c.109 0 .198-.096.198-.214 0-.119-.089-.215-.198-.215-.109 0-.198.096-.198.215 0 .118.089.214.198.214zm-4.304-31.526c.363 0 .658-.32.658-.714 0-.395-.295-.714-.658-.714-.363 0-.658.319-.658.714 0 .394.295.714.658.714zm-1.439-33.005c.018 0 .033-.016.033-.036 0-.02-.015-.036-.033-.036-.019 0-.034.016-.034.036 0 .02.015.036.034.036zm.36-16.182c.019 0 .034-.016.034-.036 0-.02-.015-.036-.034-.036-.018 0-.033.016-.033.036 0 .02.015.036.033.036zm1.079-15.252c.472 0 .855-.416.855-.929 0-.513-.383-.928-.855-.928s-.855.415-.855.928c0 .513.383.929.855.929zm1.794-15.105c.963 0 1.743-.848 1.743-1.893 0-1.046-.78-1.893-1.743-1.893-.962 0-1.742.847-1.742 1.893 0 1.045.78 1.893 1.742 1.893zm2.51-15.778c1.053 0 1.907-.928 1.907-2.072 0-1.144-.854-2.072-1.907-2.072s-1.907.928-1.907 2.072c0 1.144.854 2.072 1.907 2.072zm3.214-15.806c1.053 0 1.907-.928 1.907-2.072 0-1.145-.854-2.072-1.907-2.072s-1.907.927-1.907 2.072c0 1.144.854 2.072 1.907 2.072zm69.028 320.284c.291 0 .526-.255.526-.57 0-.316-.235-.571-.526-.571-.29 0-.526.255-.526.571 0 .315.236.57.526.57zm-10.096-10.402c1.053 0 1.907-.928 1.907-2.072 0-1.145-.854-2.072-1.907-2.072s-1.907.927-1.907 2.072c0 1.144.854 2.072 1.907 2.072zm-9.575-12.4c1.053 0 1.906-.928 1.906-2.072 0-1.144-.853-2.072-1.906-2.072s-1.907.928-1.907 2.072c0 1.144.854 2.072 1.907 2.072zm-9.036-12.872c1.053 0 1.907-.928 1.907-2.072 0-1.144-.854-2.072-1.907-2.072s-1.907.928-1.907 2.072c0 1.144.854 2.072 1.907 2.072zm-8.473-13.312c1.053 0 1.907-.928 1.907-2.072 0-1.145-.854-2.072-1.907-2.072s-1.907.927-1.907 2.072c0 1.144.854 2.072 1.907 2.072zm-7.894-13.729c1.053 0 1.907-.928 1.907-2.072 0-1.145-.854-2.072-1.907-2.072s-1.907.927-1.907 2.072c0 1.144.854 2.072 1.907 2.072zm-7.298-14.22c.998 0 1.808-.879 1.808-1.964s-.81-1.965-1.808-1.965c-.999 0-1.808.88-1.808 1.965s.809 1.964 1.808 1.964zm-6.685-14.393c1.035 0 1.873-.911 1.873-2.036 0-1.124-.838-2.036-1.873-2.036-1.035 0-1.874.912-1.874 2.036 0 1.125.839 2.036 1.874 2.036zm-6.06-14.752c1.053 0 1.907-.928 1.907-2.072 0-1.144-.854-2.072-1.907-2.072s-1.907.928-1.907 2.072c0 1.144.854 2.072 1.907 2.072zm-5.419-15.078c1.053 0 1.906-.928 1.906-2.072 0-1.145-.853-2.072-1.906-2.072s-1.907.927-1.907 2.072c0 1.144.854 2.072 1.907 2.072zm-4.769-15.336c1.053 0 1.907-.928 1.907-2.072 0-1.144-.854-2.072-1.907-2.072s-1.907.928-1.907 2.072c0 1.144.854 2.072 1.907 2.072zm-4.107-15.597c1.035 0 1.874-.912 1.874-2.037 0-1.124-.839-2.036-1.874-2.036-1.035 0-1.874.912-1.874 2.036 0 1.125.839 2.037 1.874 2.037zm-3.434-17.716c.036 0 .066-.032.066-.071 0-.04-.03-.072-.066-.072-.037 0-.066.032-.066.072 0 .039.029.071.066.071zm-4.832-31.902c.055 0 .099-.049.099-.108s-.044-.107-.099-.107c-.054 0-.099.048-.099.107s.045.108.099.108zm-1.382-15.403c.417 0 .756-.367.756-.821 0-.453-.339-.821-.756-.821-.418 0-.757.368-.757.821 0 .454.339.821.757.821zm-.694-16.278c.363 0 .658-.32.658-.714 0-.395-.295-.714-.658-.714-.363 0-.657.32-.657.714 0 .394.294.714.657.714zm0-15.864c.527 0 .955-.464.955-1.036 0-.572-.428-1.036-.955-1.036-.526 0-.954.464-.954 1.036 0 .572.428 1.036.954 1.036zm.693-15.671c.782 0 1.415-.688 1.415-1.537 0-.848-.633-1.537-1.415-1.537-.781 0-1.415.689-1.415 1.538 0 .848.634 1.536 1.415 1.536zm1.383-15.652c1.017 0 1.841-.896 1.841-2 0-1.105-.824-2-1.841-2-1.016 0-1.841.895-1.841 2 0 1.104.825 2 1.841 2zm2.075-15.959c1.053 0 1.907-.927 1.907-2.072 0-1.144-.854-2.072-1.907-2.072s-1.907.928-1.907 2.073c0 1.144.854 2.071 1.907 2.071zm2.756-15.908c1.053 0 1.907-.928 1.907-2.072 0-1.144-.854-2.072-1.907-2.072s-1.906.928-1.906 2.072c0 1.144.853 2.072 1.906 2.072zm3.435-15.751c1.053 0 1.907-.928 1.907-2.072 0-1.144-.854-2.072-1.907-2.072s-1.907.928-1.907 2.072c0 1.144.854 2.072 1.907 2.072zm69.738 336.061c.4 0 .723-.352.723-.786 0-.433-.323-.785-.723-.785-.4 0-.723.352-.723.785 0 .434.323.786.723.786zm-10.052-10.662c1.053 0 1.907-.928 1.907-2.072 0-1.144-.854-2.072-1.907-2.072s-1.907.928-1.907 2.072c0 1.144.854 2.072 1.907 2.072zm-9.547-12.425c1.053 0 1.907-.928 1.907-2.072 0-1.144-.854-2.072-1.907-2.072s-1.907.928-1.907 2.072c0 1.144.854 2.072 1.907 2.072zm-9.025-12.881c1.053 0 1.907-.928 1.907-2.072 0-1.144-.854-2.072-1.907-2.072s-1.907.928-1.907 2.072c0 1.144.854 2.072 1.907 2.072zm-8.484-13.305c1.053 0 1.907-.928 1.907-2.072 0-1.144-.854-2.072-1.907-2.072s-1.907.928-1.907 2.072c0 1.144.854 2.072 1.907 2.072zm-7.925-13.707c1.053 0 1.907-.928 1.907-2.072 0-1.145-.854-2.072-1.907-2.072s-1.907.927-1.907 2.072c0 1.144.854 2.072 1.907 2.072zm-7.352-14.186c.998 0 1.808-.88 1.808-1.965s-.81-1.964-1.808-1.964c-.999 0-1.808.879-1.808 1.964s.809 1.965 1.808 1.965zm-6.763-14.316c1.053 0 1.907-.928 1.907-2.072 0-1.144-.854-2.072-1.907-2.072s-1.907.928-1.907 2.072c0 1.144.854 2.072 1.907 2.072zm-6.162-14.738c1.053 0 1.907-.928 1.907-2.072 0-1.144-.854-2.072-1.907-2.072s-1.907.928-1.907 2.072c0 1.144.854 2.072 1.907 2.072zm-5.546-15.025c1.053 0 1.907-.927 1.907-2.072 0-1.144-.854-2.072-1.907-2.072s-1.907.928-1.907 2.072c0 1.145.854 2.072 1.907 2.072zm-4.92-15.386c.999 0 1.808-.879 1.808-1.964s-.809-1.965-1.808-1.965c-.998 0-1.808.88-1.808 1.965s.81 1.964 1.808 1.964zm-4.284-17.146c.164 0 .297-.144.297-.322 0-.178-.133-.322-.297-.322-.164 0-.297.144-.297.322 0 .178.133.322.297.322zm-3.639-15.198c.418 0 .756-.368.756-.822 0-.453-.338-.821-.756-.821s-.756.368-.756.821c0 .454.338.822.756.822zm-7.99-64.833c.036 0 .066-.032.066-.071 0-.04-.03-.072-.066-.072-.037 0-.066.032-.066.072 0 .039.029.071.066.071zm-.334-16.148c.054 0 .099-.048.099-.107 0-.06-.045-.107-.099-.107-.055 0-.099.048-.099.107 0 .06.044.107.099.107zm.334-14.47c.926 0 1.676-.815 1.676-1.821s-.75-1.822-1.676-1.822c-.926 0-1.676.816-1.676 1.822 0 1.006.75 1.821 1.676 1.821zm1.003-15.935c1.035 0 1.873-.912 1.873-2.036 0-1.125-.838-2.036-1.873-2.036-1.035 0-1.874.911-1.874 2.036 0 1.124.839 2.036 1.874 2.036zm1.668-16.05c1.053 0 1.907-.927 1.907-2.072 0-1.144-.854-2.072-1.907-2.072s-1.907.928-1.907 2.072c0 1.145.854 2.072 1.907 2.072zm2.33-15.989c1.053 0 1.907-.927 1.907-2.072 0-1.144-.854-2.072-1.907-2.072s-1.907.928-1.907 2.072c0 1.145.854 2.072 1.907 2.072zm2.988-15.858c1.053 0 1.907-.928 1.907-2.072 0-1.144-.854-2.072-1.907-2.072s-1.907.928-1.907 2.072c0 1.145.854 2.072 1.907 2.072zm74.029 336.762c.835 0 1.512-.735 1.512-1.642 0-.907-.677-1.643-1.512-1.643s-1.512.736-1.512 1.643.677 1.642 1.512 1.642zm-10.009-11.562c1.054 0 1.907-.927 1.907-2.072 0-1.144-.853-2.072-1.907-2.072-1.053 0-1.906.928-1.906 2.072 0 1.145.853 2.072 1.906 2.072zm-9.52-12.45c1.053 0 1.906-.927 1.906-2.072 0-1.144-.853-2.072-1.906-2.072-1.054 0-1.907.928-1.907 2.072 0 1.145.853 2.072 1.907 2.072zm-9.016-12.886c1.053 0 1.907-.928 1.907-2.072 0-1.144-.854-2.072-1.907-2.072s-1.907.928-1.907 2.072c0 1.144.854 2.072 1.907 2.072zm-8.493-13.3c1.053 0 1.907-.927 1.907-2.072 0-1.144-.854-2.072-1.907-2.072s-1.907.928-1.907 2.072c0 1.145.854 2.072 1.907 2.072zm-7.954-14.543c.618 0 1.119-.544 1.119-1.215s-.501-1.215-1.119-1.215-1.119.544-1.119 1.215.501 1.215 1.119 1.215zm-7.403-13.335c.98 0 1.775-.864 1.775-1.929s-.795-1.929-1.775-1.929c-.98 0-1.775.864-1.775 1.929s.795 1.929 1.775 1.929zm-6.835-14.239c1.053 0 1.907-.928 1.907-2.072 0-1.145-.854-2.072-1.907-2.072s-1.907.927-1.907 2.072c0 1.144.854 2.072 1.907 2.072zm-6.256-14.692c1.053 0 1.907-.927 1.907-2.072 0-1.144-.854-2.072-1.907-2.072s-1.907.928-1.907 2.072c0 1.145.854 2.072 1.907 2.072zm-5.662-14.973c1.053 0 1.906-.927 1.906-2.072 0-1.144-.853-2.072-1.906-2.072-1.054 0-1.907.928-1.907 2.072 0 1.145.853 2.072 1.907 2.072zm-5.062-15.831c.745 0 1.349-.656 1.349-1.465 0-.81-.604-1.466-1.349-1.466s-1.349.656-1.349 1.466c0 .809.604 1.465 1.349 1.465zm-8.279-31.772c.399 0 .723-.352.723-.786 0-.433-.324-.785-.723-.785-.4 0-.724.352-.724.785 0 .434.324.786.724.786zm-3.203-15.415c.6 0 1.086-.528 1.086-1.179s-.486-1.179-1.086-1.179c-.599 0-1.086.528-1.086 1.179s.487 1.179 1.086 1.179zm-2.569-15.731c.709 0 1.283-.624 1.283-1.394 0-.77-.574-1.394-1.283-1.394s-1.283.624-1.283 1.394c0 .77.574 1.394 1.283 1.394zm-1.931-17.409c.018 0 .033-.016.033-.036 0-.02-.015-.036-.033-.036-.019 0-.034.016-.034.036 0 .02.015.036.034.036zm-1.29-16.056c.055 0 .099-.048.099-.107s-.044-.107-.099-.107c-.055 0-.099.048-.099.107s.044.107.099.107zm-.645-16.243c.018 0 .033-.015.033-.035 0-.02-.015-.036-.033-.036-.019 0-.033.016-.033.036 0 .02.014.036.033.036zm0-15.903c.164 0 .297-.144.297-.322 0-.178-.133-.322-.297-.322-.164 0-.297.144-.297.322 0 .178.133.322.297.322zm.645-14.386c1.071 0 1.94-.943 1.94-2.107 0-1.164-.869-2.108-1.94-2.108s-1.94.944-1.94 2.108c0 1.164.869 2.108 1.94 2.108zm1.289-16.162c1.053 0 1.907-.928 1.907-2.072 0-1.144-.854-2.072-1.907-2.072s-1.906.928-1.906 2.072c0 1.144.853 2.072 1.906 2.072zm1.932-16.052c1.053 0 1.907-.927 1.907-2.072 0-1.144-.854-2.072-1.907-2.072s-1.907.928-1.907 2.072c0 1.145.854 2.072 1.907 2.072zm2.569-15.946c1.053 0 1.906-.927 1.906-2.071 0-1.145-.853-2.072-1.906-2.072-1.054 0-1.907.927-1.907 2.072 0 1.144.853 2.071 1.907 2.071zm3.202-15.808c1.053 0 1.907-.927 1.907-2.072 0-1.144-.854-2.072-1.907-2.072s-1.907.928-1.907 2.072c0 1.145.854 2.072 1.907 2.072zm282.143 468.5c.019 0 .034-.016.034-.036 0-.02-.015-.036-.034-.036-.018 0-.033.016-.033.036 0 .02.015.036.033.036zm-14.688-2.7c.019 0 .034-.016.034-.036 0-.02-.015-.036-.034-.036-.018 0-.033.016-.033.036 0 .02.015.036.033.036zM355.643 356.559c.871 0 1.578-.767 1.578-1.714 0-.946-.707-1.714-1.578-1.714-.872 0-1.578.768-1.578 1.714 0 .947.706 1.714 1.578 1.714zm-9.97-11.671c1.054 0 1.907-.928 1.907-2.072 0-1.145-.853-2.072-1.907-2.072-1.053 0-1.906.927-1.906 2.072 0 1.144.853 2.072 1.906 2.072zm-9.496-12.473c1.054 0 1.907-.928 1.907-2.072 0-1.145-.853-2.072-1.907-2.072-1.053 0-1.906.927-1.906 2.072 0 1.144.853 2.072 1.906 2.072zm-9.007-12.894c1.053 0 1.907-.927 1.907-2.072 0-1.144-.854-2.072-1.907-2.072s-1.906.928-1.906 2.072c0 1.145.853 2.072 1.906 2.072zm-8.5-14.292c.545 0 .987-.48.987-1.072 0-.592-.442-1.072-.987-1.072-.546 0-.988.48-.988 1.072 0 .592.442 1.072.988 1.072zm-7.984-14.704c.018 0 .033-.016.033-.036 0-.02-.015-.036-.033-.036-.018 0-.033.016-.033.036 0 .02.015.036.033.036zm-7.448-13.877c.091 0 .165-.08.165-.178 0-.099-.074-.179-.165-.179-.091 0-.165.08-.165.179 0 .098.074.178.165.178zm-6.902-13.918c.309 0 .559-.272.559-.607 0-.335-.25-.606-.559-.606-.309 0-.559.271-.559.606 0 .335.25.607.559.607zm-6.343-14.54c.363 0 .657-.319.657-.714 0-.394-.294-.714-.657-.714-.363 0-.658.32-.658.714 0 .395.295.714.658.714zm-5.773-14.672c.49 0 .888-.432.888-.964 0-.533-.398-.965-.888-.965-.491 0-.888.432-.888.965 0 .532.397.964.888.964zm-5.192-16.101c.018 0 .033-.016.033-.036 0-.02-.015-.036-.033-.036-.019 0-.033.016-.033.036 0 .02.014.036.033.036zm-12.012-46.497c.145 0 .263-.128.263-.286 0-.158-.118-.286-.263-.286-.146 0-.264.128-.264.286 0 .158.118.286.264.286zm-2.792-14.509c.854 0 1.545-.751 1.545-1.678 0-.927-.691-1.678-1.545-1.678-.853 0-1.545.751-1.545 1.678 0 .927.692 1.678 1.545 1.678zm-2.176-16.085c.817 0 1.479-.72 1.479-1.607s-.662-1.607-1.479-1.607c-.817 0-1.48.72-1.48 1.607s.663 1.607 1.48 1.607zm-1.556-16.599c.563 0 1.02-.496 1.02-1.108 0-.611-.457-1.107-1.02-1.107s-1.02.496-1.02 1.107c0 .612.457 1.108 1.02 1.108zm-.937-17.227c.018 0 .033-.016.033-.036 0-.02-.015-.036-.033-.036-.019 0-.034.016-.034.036 0 .02.015.036.034.036zm-.312-16.149c.036 0 .066-.032.066-.071 0-.04-.03-.072-.066-.072-.037 0-.066.032-.066.072 0 .04.029.071.066.071zm.311-14.219c1.035 0 1.874-.912 1.874-2.036 0-1.125-.839-2.036-1.874-2.036-1.035 0-1.874.911-1.874 2.036 0 1.124.839 2.036 1.874 2.036zm.937-16.119c1.053 0 1.907-.928 1.907-2.072 0-1.145-.854-2.072-1.907-2.072s-1.907.927-1.907 2.072c0 1.144.854 2.072 1.907 2.072zm1.556-16.1c1.053 0 1.907-.928 1.907-2.072 0-1.145-.854-2.072-1.907-2.072s-1.907.927-1.907 2.072c0 1.144.854 2.072 1.907 2.072zm2.177-16.014c1.053 0 1.907-.928 1.907-2.072 0-1.145-.854-2.072-1.907-2.072s-1.907.928-1.907 2.072c0 1.144.854 2.072 1.907 2.072zm2.791-15.901c1.053 0 1.907-.928 1.907-2.072 0-1.145-.854-2.072-1.907-2.072s-1.907.927-1.907 2.071c0 1.145.854 2.072 1.907 2.072zm299.624 474.223c.018 0 .033-.016.033-.036 0-.02-.015-.036-.033-.036-.018 0-.033.016-.033.036 0 .02.015.036.033.036zm-14.726-2.451c.019 0 .033-.016.033-.036 0-.02-.014-.036-.033-.036-.018 0-.033.016-.033.036 0 .02.015.036.033.036zm-14.622-3.097c.018 0 .033-.017.033-.036 0-.02-.015-.037-.033-.037-.019 0-.033.017-.033.037 0 .019.014.036.033.036zm-135.377-64.901c.018 0 .033-.016.033-.036 0-.02-.015-.036-.033-.036-.019 0-.034.016-.034.036 0 .02.015.036.034.036zm-55.933-51.397c.963 0 1.743-.848 1.743-1.893 0-1.046-.78-1.893-1.743-1.893-.962 0-1.742.847-1.742 1.893 0 1.045.78 1.893 1.742 1.893zm-9.93-11.888c1.053 0 1.907-.928 1.907-2.072 0-1.145-.854-2.072-1.907-2.072s-1.907.927-1.907 2.072c0 1.144.854 2.072 1.907 2.072zm-9.473-12.493c1.053 0 1.906-.928 1.906-2.072 0-1.144-.853-2.072-1.906-2.072-1.054 0-1.907.928-1.907 2.072 0 1.144.853 2.072 1.907 2.072zm-8.998-13.65c.672 0 1.217-.592 1.217-1.322 0-.731-.545-1.323-1.217-1.323-.673 0-1.218.592-1.218 1.323 0 .73.545 1.322 1.218 1.322zm-16.518-28.224c.018 0 .033-.016.033-.036 0-.02-.015-.036-.033-.036-.019 0-.034.016-.034.036 0 .02.015.036.034.036zm-49.981-149.44c.98 0 1.775-.864 1.775-1.929s-.795-1.929-1.775-1.929c-.981 0-1.776.864-1.776 1.929s.795 1.929 1.776 1.929zm-1.808-17.675c.164 0 .297-.144.297-.322 0-.177-.133-.322-.297-.322-.164 0-.297.145-.297.322 0 .178.133.322.297.322zm-1.207-16.421c.018 0 .033-.016.033-.036 0-.02-.015-.036-.033-.036-.018 0-.033.016-.033.036 0 .02.015.036.033.036zm-.603-30.969c.727 0 1.316-.64 1.316-1.43 0-.79-.589-1.43-1.316-1.43-.727 0-1.316.64-1.316 1.43 0 .79.589 1.43 1.316 1.43zm.603-15.531c1.053 0 1.906-.928 1.906-2.072 0-1.144-.853-2.072-1.906-2.072-1.054 0-1.907.928-1.907 2.072 0 1.144.853 2.072 1.907 2.072zm1.206-16.136c1.054 0 1.907-.927 1.907-2.072 0-1.144-.853-2.072-1.907-2.072-1.053 0-1.906.928-1.906 2.072 0 1.145.853 2.072 1.906 2.072zm1.809-16.068c1.053 0 1.906-.927 1.906-2.072 0-1.144-.853-2.071-1.906-2.071-1.054 0-1.907.927-1.907 2.072 0 1.144.853 2.072 1.907 2.072zm2.404-15.976c1.053 0 1.906-.927 1.906-2.072 0-1.144-.853-2.072-1.906-2.072-1.054 0-1.907.928-1.907 2.072 0 1.145.853 2.072 1.907 2.072zm2.998-15.856c1.053 0 1.907-.928 1.907-2.072 0-1.145-.854-2.072-1.907-2.072s-1.907.927-1.907 2.072c0 1.144.854 2.072 1.907 2.072zm313.843 495.659c.018 0 .033-.016.033-.036 0-.02-.015-.036-.033-.036-.019 0-.034.016-.034.036 0 .02.015.036.034.036zm-14.757-2.219c.018 0 .033-.016.033-.036 0-.02-.015-.036-.033-.036-.019 0-.034.016-.034.036 0 .02.015.036.034.036zm-14.665-2.845c.018 0 .033-.016.033-.036 0-.02-.015-.036-.033-.036-.019 0-.034.016-.034.036 0 .02.015.036.034.036zm-136.761-61.554c.019 0 .034-.016.034-.036 0-.02-.015-.037-.034-.037-.018 0-.033.017-.033.037 0 .02.015.036.033.036zm-12.223-9.256c.018 0 .033-.016.033-.036 0-.02-.015-.036-.033-.036-.018 0-.033.016-.033.036 0 .02.015.036.033.036zm-11.877-9.771c.018 0 .033-.017.033-.037 0-.02-.015-.036-.033-.036-.019 0-.034.016-.034.036 0 .02.015.037.034.037zm-11.517-10.269c.019 0 .033-.016.033-.036 0-.02-.014-.036-.033-.036-.018 0-.033.016-.033.036 0 .02.015.036.033.036zm-21.874-21.939c.036 0 .066-.032.066-.071 0-.04-.03-.072-.066-.072-.037 0-.066.032-.066.072 0 .039.029.071.066.071zm-10.326-9.703c1.035 0 1.874-.912 1.874-2.036 0-1.125-.839-2.037-1.874-2.037-1.035 0-1.874.912-1.874 2.037 0 1.124.839 2.036 1.874 2.036zm-9.897-12.065c1.054 0 1.907-.928 1.907-2.072 0-1.144-.853-2.072-1.907-2.072-1.053 0-1.906.928-1.906 2.072 0 1.144.853 2.072 1.906 2.072zm-9.449-12.944c.835 0 1.512-.735 1.512-1.642 0-.907-.677-1.643-1.512-1.643s-1.512.736-1.512 1.643.677 1.642 1.512 1.642zm-25.542-41.426c.019 0 .034-.016.034-.036 0-.02-.015-.036-.034-.036-.018 0-.033.016-.033.036 0 .02.015.036.033.036zm-7.533-13.967c.019 0 .033-.016.033-.036 0-.02-.014-.036-.033-.036-.018 0-.033.016-.033.036 0 .02.015.036.033.036zm-45.744-151.014c1.017 0 1.841-.895 1.841-2s-.824-2-1.841-2-1.841.895-1.841 2 .824 2 1.841 2zm-1.46-17.468c.327 0 .592-.288.592-.642 0-.355-.265-.643-.592-.643-.327 0-.592.288-.592.643 0 .354.265.642.592.642zm-.876-15.803c.509 0 .921-.448.921-1 0-.553-.412-1-.921-1-.509 0-.921.447-.921 1 0 .552.412 1 .921 1zm-.294-15.363c.926 0 1.676-.815 1.676-1.821s-.75-1.822-1.676-1.822c-.926 0-1.676.816-1.676 1.822 0 1.006.75 1.821 1.676 1.821zm.293-15.933c1.054 0 1.907-.928 1.907-2.072 0-1.145-.853-2.072-1.907-2.072-1.053 0-1.906.927-1.906 2.072 0 1.144.853 2.072 1.906 2.072zm.876-16.161c1.054 0 1.907-.927 1.907-2.072 0-1.144-.853-2.072-1.907-2.072-1.053 0-1.906.928-1.906 2.072 0 1.145.853 2.072 1.906 2.072zm1.461-16.11c1.053 0 1.907-.928 1.907-2.072 0-1.145-.854-2.072-1.907-2.072s-1.907.927-1.907 2.072c0 1.144.854 2.072 1.907 2.072zm2.042-16.034c1.053 0 1.907-.928 1.907-2.072 0-1.145-.854-2.072-1.907-2.072s-1.907.927-1.907 2.072c0 1.144.854 2.072 1.907 2.072zm2.618-15.937c1.053 0 1.907-.928 1.907-2.072 0-1.144-.854-2.072-1.907-2.072s-1.907.928-1.907 2.072c0 1.144.854 2.072 1.907 2.072zm301.715 496.586c.019 0 .034-.016.034-.036 0-.02-.015-.036-.034-.036-.018 0-.033.016-.033.036 0 .02.015.036.033.036zm-14.601-3.215c.019 0 .034-.017.034-.037 0-.019-.015-.036-.034-.036-.018 0-.033.017-.033.036 0 .02.015.037.033.037zm-14.477-3.817c.019 0 .033-.016.033-.036 0-.02-.014-.036-.033-.036-.018 0-.033.016-.033.036 0 .02.015.036.033.036zm-121.374-60.23c.018 0 .033-.016.033-.036 0-.02-.015-.037-.033-.037-.019 0-.034.017-.034.037 0 .02.015.036.034.036zm-12.134-9.39c.018 0 .033-.017.033-.037 0-.019-.015-.036-.033-.036-.019 0-.034.017-.034.036 0 .02.015.037.034.037zm-23.241-20.109c.091 0 .165-.08.165-.179 0-.099-.074-.179-.165-.179-.091 0-.165.08-.165.179 0 .099.074.179.165.179zm-21.753-21.149c.581 0 1.053-.512 1.053-1.143 0-.632-.472-1.144-1.053-1.144-.582 0-1.053.512-1.053 1.144 0 .631.471 1.143 1.053 1.143zm-10.283-10.788c1.053 0 1.907-.927 1.907-2.072 0-1.144-.854-2.072-1.907-2.072s-1.907.928-1.907 2.072c0 1.145.854 2.072 1.907 2.072zm-9.862-12.169c1.035 0 1.874-.911 1.874-2.036 0-1.124-.839-2.036-1.874-2.036-1.035 0-1.874.912-1.874 2.036 0 1.125.839 2.036 1.874 2.036zm-9.43-14.28c.146 0 .264-.128.264-.286 0-.158-.118-.286-.264-.286-.145 0-.264.128-.264.286 0 .158.119.286.264.286zm-25.564-40.057c.019 0 .034-.016.034-.036 0-.02-.015-.036-.034-.036-.018 0-.033.016-.033.036 0 .02.015.036.033.036zm-7.571-13.94c.018 0 .033-.017.033-.036 0-.02-.015-.037-.033-.037-.019 0-.033.017-.033.037 0 .019.014.036.033.036zm-47.101-151.88c.363 0 .658-.319.658-.714 0-.394-.295-.714-.658-.714-.363 0-.657.32-.657.714 0 .395.294.714.657.714zm-1.698-14.726c1.053 0 1.907-.927 1.907-2.072 0-1.144-.854-2.071-1.907-2.071s-1.907.927-1.907 2.071c0 1.145.854 2.072 1.907 2.072zm-1.133-16.141c1.053 0 1.907-.927 1.907-2.072 0-1.144-.854-2.071-1.907-2.071s-1.907.927-1.907 2.071c0 1.145.854 2.072 1.907 2.072zm-.568-16.175c1.053 0 1.907-.927 1.907-2.072 0-1.144-.854-2.072-1.907-2.072s-1.907.928-1.907 2.072c0 1.145.854 2.072 1.907 2.072zm0-16.189c1.053 0 1.907-.928 1.907-2.072 0-1.144-.854-2.072-1.907-2.072s-1.907.928-1.907 2.072c0 1.144.854 2.072 1.907 2.072zm.568-16.175c1.053 0 1.907-.928 1.907-2.072 0-1.144-.854-2.072-1.907-2.072s-1.907.928-1.907 2.072c0 1.144.854 2.072 1.907 2.072zm1.133-16.141c1.053 0 1.907-.928 1.907-2.072 0-1.144-.854-2.072-1.907-2.072s-1.907.928-1.907 2.072c0 1.144.854 2.072 1.907 2.072zm1.698-16.084c1.053 0 1.907-.927 1.907-2.072 0-1.144-.854-2.071-1.907-2.071s-1.907.927-1.907 2.072c0 1.144.854 2.071 1.907 2.071zm2.261-15.999c1.053 0 1.906-.928 1.906-2.072 0-1.145-.853-2.072-1.906-2.072s-1.907.927-1.907 2.072c0 1.144.854 2.072 1.907 2.072zm2.819-15.896c1.053 0 1.906-.928 1.906-2.072 0-1.144-.853-2.072-1.906-2.072s-1.907.928-1.907 2.072c0 1.144.854 2.072 1.907 2.072zm315.958 518.324c.019 0 .034-.017.034-.036 0-.02-.015-.037-.034-.037-.018 0-.033.017-.033.037 0 .019.015.036.033.036zm-14.643-2.974c.018 0 .033-.016.033-.036 0-.02-.015-.036-.033-.036-.018 0-.033.016-.033.036 0 .02.015.036.033.036zm-28.935-7.703c.018 0 .033-.016.033-.036 0-.02-.015-.036-.033-.036-.018 0-.033.016-.033.036 0 .02.015.036.033.036zm-120.556-62.236c.018 0 .033-.016.033-.036 0-.02-.015-.036-.033-.036-.018 0-.033.016-.033.036 0 .02.015.036.033.036zm-12.052-9.514c.019 0 .034-.016.034-.036 0-.02-.015-.036-.034-.036-.018 0-.033.016-.033.036 0 .02.015.036.033.036zm-34.103-31.355c.018 0 .033-.016.033-.036 0-.02-.015-.036-.033-.036-.019 0-.034.016-.034.036 0 .02.015.036.034.036zm-10.631-9.305c1.053 0 1.906-.927 1.906-2.072 0-1.144-.853-2.072-1.906-2.072-1.054 0-1.907.928-1.907 2.072 0 1.145.853 2.072 1.907 2.072zm-10.238-11.866c.999 0 1.808-.88 1.808-1.965s-.809-1.964-1.808-1.964c-.998 0-1.808.879-1.808 1.964s.81 1.965 1.808 1.965zm-9.831-13.593c.272 0 .493-.24.493-.535 0-.296-.221-.535-.493-.535s-.493.239-.493.535c0 .295.221.535.493.535zm-26.921-39.237c.018 0 .033-.016.033-.036 0-.02-.015-.036-.033-.036-.019 0-.034.016-.034.036 0 .02.015.036.034.036zm-8.075-13.601c.018 0 .033-.017.033-.037 0-.019-.015-.036-.033-.036-.019 0-.034.017-.034.036 0 .02.015.037.034.037zm-7.608-13.919c.018 0 .033-.016.033-.036 0-.02-.015-.037-.033-.037-.018 0-.033.017-.033.037 0 .02.015.036.033.036zm-50.295-167.235c.509 0 .921-.448.921-1 0-.553-.412-1.001-.921-1.001-.509 0-.921.448-.921 1.001 0 .552.412 1 .921 1zm-1.376-15.048c1.053 0 1.907-.928 1.907-2.072 0-1.144-.854-2.072-1.907-2.072s-1.906.928-1.906 2.072c0 1.144.853 2.072 1.906 2.072zm-.824-16.162c1.053 0 1.906-.928 1.906-2.072 0-1.145-.853-2.072-1.906-2.072-1.054 0-1.907.927-1.907 2.072 0 1.144.853 2.072 1.907 2.072zm-.275-16.186c1.053 0 1.906-.928 1.906-2.072 0-1.145-.853-2.072-1.906-2.072-1.054 0-1.907.927-1.907 2.072 0 1.144.853 2.072 1.907 2.072zm.275-16.186c1.053 0 1.906-.928 1.906-2.072 0-1.144-.853-2.072-1.906-2.072-1.054 0-1.907.928-1.907 2.072 0 1.144.853 2.072 1.907 2.072zm.824-16.162c1.053 0 1.907-.928 1.907-2.072 0-1.145-.854-2.072-1.907-2.072s-1.906.927-1.906 2.072c0 1.144.853 2.072 1.906 2.072zm1.375-16.12c1.054 0 1.907-.928 1.907-2.072 0-1.144-.853-2.072-1.907-2.072-1.053 0-1.906.928-1.906 2.072 0 1.144.853 2.072 1.906 2.072zm1.922-16.052c1.053 0 1.907-.927 1.907-2.072 0-1.144-.854-2.072-1.907-2.072s-1.907.928-1.907 2.072c0 1.145.854 2.072 1.907 2.072zm2.467-15.965c1.053 0 1.907-.928 1.907-2.072 0-1.144-.854-2.072-1.907-2.072s-1.907.928-1.907 2.072c0 1.144.854 2.072 1.907 2.072zm303.9 518.041c.019 0 .033-.016.033-.036 0-.02-.014-.036-.033-.036-.018 0-.033.016-.033.036 0 .02.015.036.033.036zm-14.462-3.884c.018 0 .033-.017.033-.037 0-.02-.015-.036-.033-.036-.019 0-.033.016-.033.036 0 .02.014.037.033.037zm-14.325-4.447c.019 0 .034-.016.034-.036 0-.02-.015-.036-.034-.036-.018 0-.033.016-.033.036 0 .02.015.036.033.036zm-119.759-64.113c.019 0 .034-.016.034-.036 0-.02-.015-.036-.034-.036-.018 0-.033.016-.033.036 0 .02.015.036.033.036zm-11.972-9.633c.018 0 .033-.017.033-.037 0-.02-.015-.036-.033-.036-.019 0-.034.016-.034.036 0 .02.015.037.034.037zm-22.954-20.384c.145 0 .263-.129.263-.287 0-.158-.118-.286-.263-.286-.146 0-.264.128-.264.286 0 .158.118.287.264.287zm-10.952-10.19c.545 0 .987-.48.987-1.072 0-.592-.442-1.072-.987-1.072-.545 0-.987.48-.987 1.072 0 .592.442 1.072.987 1.072zm-10.582-10.394c1.053 0 1.907-.928 1.907-2.072 0-1.145-.854-2.072-1.907-2.072s-1.907.927-1.907 2.072c0 1.144.854 2.072 1.907 2.072zm-10.197-12.874c.509 0 .921-.448.921-1 0-.553-.412-1-.921-1-.509 0-.921.447-.921 1 0 .552.412 1 .921 1zm-36.706-51.908c.019 0 .034-.016.034-.036 0-.02-.015-.036-.034-.036-.018 0-.033.016-.033.036 0 .02.015.036.033.036zm-8.095-13.589c.019 0 .034-.017.034-.037 0-.019-.015-.036-.034-.036-.018 0-.033.017-.033.036 0 .02.015.037.033.037zm-7.64-13.898c.018 0 .033-.016.033-.036 0-.02-.015-.036-.033-.036-.018 0-.033.016-.033.036 0 .02.015.036.033.036zm-53.305-183.753c.072 0 .132-.064.132-.143 0-.079-.06-.143-.132-.143-.073 0-.132.064-.132.143 0 .079.059.143.132.143zm-1.069-15.325c.491 0 .889-.432.889-.965 0-.532-.398-.964-.889-.964-.49 0-.888.432-.888.964 0 .533.398.965.888.965zm-.534-15.105c1.035 0 1.874-.912 1.874-2.036 0-1.125-.839-2.037-1.874-2.037-1.035 0-1.874.912-1.874 2.037 0 1.124.839 2.036 1.874 2.036zm0-16.154c1.053 0 1.907-.928 1.907-2.072 0-1.144-.854-2.072-1.907-2.072s-1.907.928-1.907 2.072c0 1.144.854 2.072 1.907 2.072zm.534-16.177c1.053 0 1.907-.927 1.907-2.072 0-1.144-.854-2.072-1.907-2.072s-1.907.928-1.907 2.072c0 1.145.854 2.072 1.907 2.072zm1.068-16.146c1.053 0 1.907-.928 1.907-2.072 0-1.144-.854-2.072-1.907-2.072s-1.906.928-1.906 2.072c0 1.144.853 2.072 1.906 2.072zm1.602-16.094c1.054 0 1.907-.928 1.907-2.073 0-1.144-.853-2.071-1.907-2.071-1.053 0-1.906.927-1.906 2.071 0 1.145.853 2.072 1.906 2.072zm2.133-16.022c1.053 0 1.907-.927 1.907-2.072 0-1.144-.854-2.072-1.907-2.072s-1.907.928-1.907 2.072c0 1.145.854 2.072 1.907 2.072zm2.659-15.928c1.053 0 1.907-.927 1.907-2.072 0-1.144-.854-2.072-1.907-2.072s-1.906.928-1.906 2.072c0 1.145.853 2.072 1.906 2.072zm289.247 532.239c.019 0 .034-.016.034-.036 0-.02-.015-.036-.034-.036-.018 0-.033.016-.033.036 0 .02.015.036.033.036zm-133.228-70.608c.018 0 .033-.016.033-.036 0-.02-.015-.036-.033-.036-.019 0-.034.016-.034.036 0 .02.015.036.034.036zm-11.897-9.742c.018 0 .033-.017.033-.037 0-.019-.015-.036-.033-.036-.019 0-.034.017-.034.036 0 .02.015.037.034.037zm-22.823-20.737c.055 0 .099-.048.099-.107 0-.06-.044-.108-.099-.108-.055 0-.099.048-.099.108 0 .059.044.107.099.107zm-10.894-10.183c.491 0 .889-.432.889-.964 0-.533-.398-.965-.889-.965-.49 0-.888.432-.888.965 0 .532.398.964.888.964zm-10.535-11.34c.545 0 .987-.48.987-1.072 0-.592-.442-1.072-.987-1.072-.545 0-.987.48-.987 1.072 0 .592.442 1.072.987 1.072zm-46.821-63.86c.018 0 .033-.017.033-.037 0-.02-.015-.036-.033-.036-.018 0-.033.016-.033.036 0 .02.015.037.033.037zm-8.113-13.577c.018 0 .033-.016.033-.036 0-.02-.015-.037-.033-.037-.018 0-.033.017-.033.037 0 .02.015.036.033.036zm-7.673-13.876c.018 0 .033-.016.033-.036 0-.02-.015-.036-.033-.036-.019 0-.034.016-.034.036 0 .02.015.036.034.036zm-56.143-199.467c.055 0 .099-.048.099-.107 0-.06-.044-.108-.099-.108-.055 0-.099.048-.099.108 0 .059.044.107.099.107zm-.778-15.058c.618 0 1.119-.544 1.119-1.215s-.501-1.215-1.119-1.215-1.119.544-1.119 1.215.501 1.215 1.119 1.215zm-.261-15.723c.854 0 1.545-.751 1.545-1.678 0-.927-.691-1.679-1.545-1.679-.853 0-1.545.752-1.545 1.679s.692 1.678 1.545 1.678zm.26-15.792c1.053 0 1.907-.928 1.907-2.072 0-1.144-.854-2.072-1.907-2.072s-1.907.928-1.907 2.072c0 1.144.854 2.072 1.907 2.072zM189.147 60c1.053 0 1.907-.928 1.907-2.072 0-1.144-.854-2.072-1.907-2.072s-1.907.928-1.907 2.072c0 1.144.854 2.072 1.907 2.072zm1.299-16.127c1.053 0 1.907-.927 1.907-2.072 0-1.144-.854-2.072-1.907-2.072s-1.907.928-1.907 2.072c0 1.145.854 2.072 1.907 2.072zm1.816-16.067c1.053 0 1.907-.928 1.907-2.072 0-1.145-.854-2.072-1.907-2.072s-1.906.927-1.906 2.072c0 1.144.853 2.072 1.906 2.072zm2.33-15.989c1.053 0 1.907-.928 1.907-2.072 0-1.145-.854-2.072-1.907-2.072s-1.907.927-1.907 2.072c0 1.144.854 2.072 1.907 2.072zm159.482 461.734c.018 0 .033-.016.033-.036 0-.02-.015-.036-.033-.036-.019 0-.034.016-.034.036 0 .02.015.036.034.036zm-11.827-9.846c.019 0 .034-.016.034-.036 0-.02-.015-.036-.034-.036-.018 0-.033.016-.033.036 0 .02.015.036.033.036zm-90.768-106.471c.019 0 .034-.016.034-.036 0-.02-.015-.036-.034-.036-.018 0-.033.016-.033.036 0 .02.015.036.033.036zm-8.131-13.562c.019 0 .034-.017.034-.037 0-.019-.015-.036-.034-.036-.018 0-.033.017-.033.036 0 .02.015.037.033.037zm-7.703-13.858c.019 0 .034-.016.034-.036 0-.02-.015-.036-.034-.036-.018 0-.033.016-.033.036 0 .02.015.036.033.036zm-48.747-135.122c.018 0 .033-.016.033-.036 0-.02-.015-.037-.033-.037-.019 0-.033.017-.033.037 0 .02.014.036.033.036zm-10.583-95.639c.345 0 .625-.304.625-.678 0-.375-.28-.679-.625-.679s-.625.304-.625.678c0 .375.28.679.625.679zm0-15.225c.835 0 1.512-.736 1.512-1.643s-.677-1.642-1.512-1.642-1.512.735-1.512 1.642c0 .907.677 1.643 1.512 1.643zm.507-15.749c1.053 0 1.906-.928 1.906-2.072 0-1.145-.853-2.072-1.906-2.072s-1.907.927-1.907 2.072c0 1.144.854 2.072 1.907 2.072zm1.011-16.151c1.053 0 1.907-.927 1.907-2.072 0-1.144-.854-2.072-1.907-2.072s-1.907.928-1.907 2.072c0 1.145.854 2.072 1.907 2.072zm1.515-16.105c1.053 0 1.906-.927 1.906-2.072 0-1.144-.853-2.072-1.906-2.072s-1.907.928-1.907 2.072c0 1.145.854 2.072 1.907 2.072zm2.017-16.039c1.053 0 1.907-.927 1.907-2.072 0-1.144-.854-2.072-1.907-2.072s-1.907.928-1.907 2.072c0 1.145.854 2.072 1.907 2.072zm2.518-15.954c1.053 0 1.906-.928 1.906-2.073 0-1.144-.853-2.072-1.906-2.072-1.054 0-1.907.928-1.907 2.072 0 1.145.853 2.072 1.907 2.072zm172.289 487.24c.018 0 .033-.016.033-.036 0-.02-.015-.036-.033-.036-.019 0-.034.016-.034.036 0 .02.015.036.034.036zm-12.054-9.515c.018 0 .033-.016.033-.036 0-.02-.015-.036-.033-.036-.018 0-.033.016-.033.036 0 .02.015.036.033.036zm-11.755-9.943c.018 0 .033-.016.033-.036 0-.02-.015-.036-.033-.036-.019 0-.034.016-.034.036 0 .02.015.036.034.036zm-90.48-106.8c.018 0 .033-.016.033-.036 0-.02-.015-.036-.033-.036-.019 0-.033.016-.033.036 0 .02.014.036.033.036zm-8.15-13.554c.019 0 .034-.016.034-.036 0-.02-.015-.036-.034-.036-.018 0-.033.016-.033.036 0 .02.015.036.033.036zm-57.319-148.629c.018 0 .033-.016.033-.036 0-.02-.015-.036-.033-.036-.019 0-.034.016-.034.036 0 .02.015.036.034.036zm-3.178-15.816c.018 0 .033-.016.033-.036 0-.02-.015-.036-.033-.036-.019 0-.034.016-.034.036 0 .02.015.036.034.036zm-8.593-112.468c.128 0 .231-.112.231-.25 0-.14-.103-.251-.231-.251-.127 0-.23.112-.23.25 0 .139.103.25.23.25zm.738-14.347c1.053 0 1.907-.927 1.907-2.072 0-1.144-.854-2.072-1.907-2.072s-1.907.928-1.907 2.072c0 1.145.854 2.072 1.907 2.072zm1.23-16.134c1.053 0 1.907-.927 1.907-2.072 0-1.144-.854-2.072-1.907-2.072s-1.907.928-1.907 2.072c0 1.145.854 2.072 1.907 2.072zm1.721-16.08c1.053 0 1.906-.927 1.906-2.072 0-1.144-.853-2.072-1.906-2.072-1.054 0-1.907.928-1.907 2.072 0 1.145.853 2.072 1.907 2.072zm2.209-16.009c1.054 0 1.907-.927 1.907-2.071 0-1.145-.853-2.072-1.907-2.072-1.053 0-1.906.927-1.906 2.072 0 1.144.853 2.071 1.906 2.071zm163.64 477.758c.018 0 .033-.016.033-.036 0-.02-.015-.036-.033-.036-.019 0-.034.016-.034.036 0 .02.015.036.034.036zm-11.692-10.034c.019 0 .034-.016.034-.036 0-.02-.015-.036-.034-.036-.018 0-.033.016-.033.036 0 .02.015.036.033.036zm-90.203-107.111c.019 0 .033-.016.033-.036 0-.02-.014-.037-.033-.037-.018 0-.033.017-.033.037 0 .02.015.036.033.036zm-8.164-13.541c.019 0 .033-.017.033-.037 0-.02-.014-.036-.033-.036-.018 0-.033.016-.033.036 0 .02.015.037.033.037zm-7.759-13.821c.018 0 .033-.016.033-.036 0-.02-.015-.036-.033-.036-.018 0-.033.016-.033.036 0 .02.015.036.033.036zm-50.386-134.471c.019 0 .034-.016.034-.036 0-.02-.015-.036-.034-.036-.018 0-.033.016-.033.036 0 .02.015.036.033.036zm-3.333-15.777c.019 0 .034-.017.034-.037 0-.02-.015-.036-.034-.036-.018 0-.033.016-.033.036 0 .02.015.037.033.037zm-2.861-15.887c.018 0 .033-.017.033-.037 0-.019-.015-.036-.033-.036-.019 0-.034.017-.034.036 0 .02.015.037.034.037zm-6.702-112.848c.018 0 .033-.016.033-.036 0-.02-.015-.036-.033-.036-.019 0-.034.016-.034.036 0 .02.015.036.034.036zm.96-15.156c.527 0 .954-.464.954-1.036 0-.572-.427-1.036-.954-1.036-.527 0-.954.464-.954 1.036 0 .572.427 1.036.954 1.036zm1.437-15.219c.98 0 1.775-.864 1.775-1.93 0-1.065-.795-1.928-1.775-1.928-.98 0-1.775.863-1.775 1.929 0 1.065.795 1.929 1.775 1.929zm1.915-15.912c1.053 0 1.907-.928 1.907-2.072 0-1.145-.854-2.072-1.907-2.072s-1.907.927-1.907 2.072c0 1.144.854 2.072 1.907 2.072zm2.39-16.372c.853 0 1.545-.752 1.545-1.679s-.692-1.678-1.545-1.678c-.854 0-1.545.751-1.545 1.678 0 .927.691 1.679 1.545 1.679zm176.388 503.827c.019 0 .034-.016.034-.036 0-.02-.015-.036-.034-.036-.018 0-.033.016-.033.036 0 .02.015.036.033.036zm-23.54-19.841c.018 0 .033-.016.033-.036 0-.02-.015-.036-.033-.036-.019 0-.033.016-.033.036 0 .02.014.036.033.036zm-89.942-107.406c.019 0 .034-.017.034-.037 0-.02-.015-.036-.034-.036-.018 0-.033.016-.033.036 0 .02.015.037.033.037zm-8.179-13.531c.019 0 .034-.016.034-.036 0-.02-.015-.036-.034-.036-.018 0-.033.016-.033.036 0 .02.015.036.033.036zm-58.926-147.964c.018 0 .033-.016.033-.036 0-.02-.015-.036-.033-.036-.019 0-.034.016-.034.036 0 .02.015.036.034.036zm-3.478-15.742c.018 0 .033-.016.033-.036 0-.02-.015-.036-.033-.036-.018 0-.033.016-.033.036 0 .02.015.036.033.036zm-3.022-15.851c.019 0 .034-.016.034-.036 0-.02-.015-.036-.034-.036-.018 0-.033.016-.033.036 0 .02.015.036.033.036zm-4.66-161.146a.034.034 0 00.034-.035c0-.02-.015-.037-.034-.037-.018 0-.033.017-.033.037 0 .02.015.036.033.036zm181.773 489.511c.019 0 .034-.016.034-.036 0-.02-.015-.036-.034-.036-.018 0-.033.016-.033.036 0 .02.015.036.033.036zm-11.847-9.814c.018 0 .033-.016.033-.036 0-.02-.015-.036-.033-.036-.019 0-.033.016-.033.036 0 .02.014.036.033.036zm-11.566-10.202c.018 0 .033-.016.033-.036 0-.02-.015-.036-.033-.036-.018 0-.033.016-.033.036 0 .02.015.036.033.036zm-89.691-107.686c.018 0 .033-.016.033-.036 0-.02-.015-.036-.033-.036-.019 0-.033.016-.033.036 0 .02.014.036.033.036zm-8.194-13.519c.018 0 .033-.017.033-.037 0-.02-.015-.036-.033-.036-.018 0-.033.016-.033.036 0 .02.015.037.033.037zM149.29 241.948c.019 0 .034-.016.034-.036 0-.02-.015-.036-.034-.036-.018 0-.033.016-.033.036 0 .02.015.036.033.036zm-4.059-15.577c.019 0 .034-.016.034-.036 0-.02-.015-.037-.034-.037-.018 0-.033.017-.033.037 0 .02.015.036.033.036zm-3.616-15.705c.019 0 .034-.016.034-.036 0-.02-.015-.036-.034-.036-.018 0-.033.016-.033.036 0 .02.015.036.033.036zM316.24 523.249c.019 0 .034-.017.034-.037 0-.02-.015-.036-.034-.036-.018 0-.033.016-.033.036 0 .02.015.037.033.037zm-11.785-9.903c.019 0 .034-.016.034-.036 0-.02-.015-.036-.034-.036-.018 0-.033.016-.033.036 0 .02.015.036.033.036zm-11.508-10.281c.018 0 .033-.016.033-.036 0-.02-.015-.036-.033-.036-.019 0-.033.016-.033.036 0 .02.014.036.033.036zm-89.451-107.95c.018 0 .033-.016.033-.036 0-.02-.015-.036-.033-.036-.018 0-.033.016-.033.036 0 .02.015.036.033.036zm-8.207-13.511c.019 0 .034-.016.034-.036 0-.02-.015-.036-.034-.036-.018 0-.033.016-.033.036 0 .02.015.036.033.036zm-56.193-131.803c.018 0 .033-.016.033-.036 0-.02-.015-.036-.033-.036-.019 0-.034.016-.034.036 0 .02.015.036.034.036zm-4.178-15.538c.019 0 .034-.016.034-.036 0-.02-.015-.036-.034-.036-.018 0-.033.016-.033.036 0 .02.015.036.033.036zm-3.749-15.668c.018 0 .033-.017.033-.037 0-.02-.015-.036-.033-.036-.018 0-.033.016-.033.036 0 .02.015.037.033.037zm-10.634-192.88c.018 0 .033-.017.033-.037 0-.02-.015-.036-.033-.036-.018 0-.033.017-.033.037 0 .02.015.036.033.036zm2.001-16.041c.018 0 .033-.016.033-.036 0-.02-.015-.036-.033-.036-.019 0-.034.016-.034.036 0 .02.015.036.034.036zm183.762 521.56c.018 0 .033-.016.033-.036 0-.02-.015-.036-.033-.036-.018 0-.033.016-.033.036 0 .02.015.036.033.036zm-11.724-9.988c.018 0 .033-.016.033-.036 0-.02-.015-.036-.033-.036-.019 0-.034.016-.034.036 0 .02.015.036.034.036zM128.931 257.645c.018 0 .033-.016.033-.036 0-.02-.015-.036-.033-.036-.018 0-.033.016-.033.036 0 .02.015.036.033.036zm-4.293-15.502c.019 0 .034-.016.034-.036 0-.02-.015-.036-.034-.036-.018 0-.033.016-.033.036 0 .02.015.036.033.036zm-3.873-15.631c.019 0 .034-.016.034-.036 0-.02-.015-.036-.034-.036-.018 0-.033.016-.033.036 0 .02.015.036.033.036zM106.477 49.88c.019 0 .034-.016.034-.036 0-.02-.015-.036-.034-.036-.018 0-.033.017-.033.036 0 .02.015.037.033.037zm1.305-16.126c.018 0 .033-.016.033-.036 0-.02-.015-.036-.033-.036-.019 0-.034.016-.034.036 0 .02.015.036.034.036zm1.737-16.079c.018 0 .033-.016.033-.036 0-.02-.015-.036-.033-.036-.019 0-.034.016-.034.036 0 .02.015.036.034.036zm175.185 511.457c.018 0 .033-.017.033-.037 0-.02-.015-.036-.033-.036-.019 0-.034.016-.034.036 0 .02.015.037.034.037zm-11.398-10.427c.018 0 .033-.016.033-.036 0-.02-.015-.036-.033-.036-.019 0-.034.016-.034.036 0 .02.015.036.034.036zM118.793 265.481c.018 0 .033-.016.033-.036 0-.02-.015-.037-.033-.037-.019 0-.034.017-.034.037 0 .02.015.036.034.036zm-4.4-15.467c.018 0 .033-.016.033-.036 0-.02-.015-.036-.033-.036-.019 0-.034.016-.034.036 0 .02.015.036.034.036zm-3.993-15.597c.018 0 .033-.016.033-.036 0-.02-.015-.036-.033-.036-.019 0-.034.016-.034.036 0 .02.015.036.034.036zM94.113 57.956c.018 0 .033-.017.033-.037 0-.02-.015-.036-.033-.036-.019 0-.034.017-.034.036 0 .02.015.037.034.037zm1.062-16.146c.018 0 .033-.017.033-.037 0-.02-.015-.036-.033-.036-.019 0-.033.016-.033.036 0 .02.014.036.033.036zm1.487-16.108c.018 0 .033-.016.033-.036 0-.02-.015-.036-.033-.036-.019 0-.034.016-.034.036 0 .02.015.036.034.036zm1.91-16.055c.018 0 .033-.016.033-.036 0-.02-.015-.036-.033-.036-.019 0-.033.016-.033.036 0 .02.014.036.033.036zm176.273 527.354c.019 0 .034-.016.034-.036 0-.02-.015-.037-.034-.037-.018 0-.033.017-.033.037 0 .02.015.036.033.036zM108.681 273.305c.018 0 .033-.016.033-.036 0-.02-.015-.036-.033-.036-.019 0-.034.016-.034.036 0 .02.015.036.034.036zm-4.506-15.431c.019 0 .034-.016.034-.036 0-.02-.015-.036-.034-.036-.018 0-.033.016-.033.036 0 .02.015.036.033.036zM81.873 66.04c.019 0 .034-.017.034-.037 0-.02-.015-.036-.034-.036-.018 0-.033.017-.033.036 0 .02.015.037.033.037zm.832-16.163c.018 0 .033-.016.033-.036 0-.02-.015-.036-.033-.036-.019 0-.034.016-.034.036 0 .02.015.036.034.036zm1.246-16.132c.019 0 .034-.016.034-.036 0-.02-.015-.036-.034-.036-.018 0-.033.016-.033.036 0 .02.015.036.033.036zm14.641 247.377c.018 0 .033-.016.033-.036 0-.02-.015-.036-.033-.036-.019 0-.034.016-.034.036 0 .02.015.036.034.036zm-4.602-15.394c.018 0 .033-.017.033-.037 0-.02-.015-.036-.034-.036-.018 0-.033.016-.033.036 0 .02.015.037.033.037zM69.754 74.129c.018 0 .033-.016.033-.036 0-.02-.015-.037-.033-.037-.019 0-.033.017-.033.037 0 .02.014.036.033.036zm.609-16.175c.019 0 .034-.016.034-.036 0-.02-.015-.036-.034-.036-.018 0-.033.016-.033.036 0 .02.015.036.033.036zm1.017-16.15c.02 0 .034-.016.034-.036 0-.02-.015-.036-.033-.036-.019 0-.034.016-.034.036 0 .02.015.036.034.036zm17.146 247.128c.018 0 .033-.016.033-.036 0-.02-.015-.036-.033-.036-.019 0-.034.016-.034.036 0 .02.015.036.034.036zm-4.698-15.362c.018 0 .033-.016.033-.036 0-.02-.015-.036-.033-.036-.019 0-.034.016-.034.036 0 .02.015.036.034.036zM57.743 98.41a.034.034 0 00.034-.035c0-.02-.015-.036-.034-.036-.018 0-.033.016-.033.036 0 .02.015.036.033.036zm0-16.188c.019 0 .034-.016.034-.036 0-.02-.015-.037-.034-.037-.018 0-.033.017-.033.037 0 .02.015.036.033.036zm.399-16.182c.018 0 .033-.017.033-.037 0-.02-.015-.036-.033-.036-.019 0-.034.017-.034.036 0 .02.015.037.034.037zm.797-16.167c.018 0 .033-.016.033-.036 0-.02-.015-.036-.033-.036-.019 0-.033.016-.033.036 0 .02.014.036.033.036zM78.48 296.734c.018 0 .033-.016.033-.036 0-.02-.015-.037-.033-.037-.019 0-.034.017-.034.037 0 .02.015.036.034.036zm-4.789-15.331c.019 0 .033-.016.033-.036 0-.02-.014-.036-.033-.036-.018 0-.033.016-.033.036 0 .02.015.036.033.036zM46.032 106.504c.019 0 .034-.016.034-.036 0-.02-.015-.036-.034-.036-.018 0-.033.016-.033.036 0 .02.015.036.033.036zm-.194-16.188c.018 0 .033-.016.033-.036 0-.02-.015-.036-.033-.036-.018 0-.033.016-.033.036 0 .02.015.036.033.036zm.194-16.187c.019 0 .034-.016.034-.036 0-.02-.015-.037-.034-.037-.018 0-.033.017-.033.037 0 .02.015.036.033.036zm.586-16.175c.019 0 .034-.016.034-.036 0-.02-.015-.036-.034-.036-.018 0-.033.016-.033.036 0 .02.015.036.033.036zm27.07 261.729c.018 0 .033-.016.033-.036 0-.02-.015-.036-.033-.036-.019 0-.034.016-.034.036 0 .02.015.036.034.036zm-5.235-15.155c.019 0 .033-.016.033-.036 0-.02-.014-.036-.033-.036-.018 0-.033.016-.033.036 0 .02.015.036.033.036zm-4.876-15.298c.019 0 .034-.017.034-.037 0-.02-.015-.036-.034-.036-.018 0-.033.016-.033.036 0 .02.015.037.033.037zM34.412 114.593c.018 0 .033-.016.033-.036 0-.02-.015-.036-.033-.036-.018 0-.033.016-.033.036 0 .02.015.036.033.036zM34.03 98.41c.018 0 .033-.015.033-.035 0-.02-.015-.036-.033-.036-.018 0-.033.016-.033.036 0 .02.015.036.033.036zm0-16.188c.018 0 .033-.016.033-.036 0-.02-.015-.037-.033-.037-.018 0-.033.017-.033.037 0 .02.015.036.033.036zm101.31 386.709c.018 0 .033-.016.033-.036 0-.02-.015-.036-.033-.036-.019 0-.033.016-.033.036 0 .02.014.036.033.036zm-8.606-13.215c.019 0 .034-.016.034-.036 0-.02-.015-.036-.034-.036-.018 0-.033.016-.033.036 0 .02.015.036.033.036zm-62.98-128.277c.018 0 .033-.016.033-.036 0-.02-.015-.036-.033-.036-.019 0-.034.016-.034.036 0 .02.015.036.034.036zm-5.309-15.126c.018 0 .033-.016.033-.036 0-.02-.015-.036-.033-.036-.019 0-.034.016-.034.036 0 .02.015.036.034.036zM22.876 122.681c.018 0 .033-.016.033-.036 0-.02-.015-.037-.033-.037-.019 0-.034.017-.034.037 0 .02.015.036.034.036zm-.562-16.177c.018 0 .033-.016.033-.036 0-.02-.015-.036-.033-.036-.018 0-.033.016-.033.036 0 .02.015.036.033.036zm-.188-16.188c.019 0 .034-.016.034-.036 0-.02-.015-.036-.034-.036-.018 0-.033.016-.033.036 0 .02.015.036.033.036zm103.622 386.188c.019 0 .033-.017.033-.036 0-.02-.014-.037-.033-.037-.018 0-.033.017-.033.037 0 .019.015.036.033.036zm-8.607-13.214c.019 0 .033-.016.033-.036 0-.02-.014-.036-.033-.036-.018 0-.033.016-.033.036 0 .02.015.036.033.036zM53.834 335.189c.019 0 .033-.016.033-.036 0-.02-.014-.036-.033-.036-.018 0-.033.016-.033.036 0 .02.015.036.033.036zm-5.381-15.094c.018 0 .033-.017.033-.037 0-.02-.015-.036-.033-.036-.018 0-.033.016-.033.036 0 .02.015.037.033.037zm-5.039-15.236c.018 0 .033-.016.033-.036 0-.02-.015-.036-.033-.036-.018 0-.033.016-.033.036 0 .02.015.036.033.036zM12.518 146.907c.019 0 .034-.016.034-.036 0-.02-.015-.036-.034-.036-.018 0-.033.016-.033.036 0 .02.015.036.033.036zm-1.101-16.144c.018 0 .033-.016.033-.036 0-.02-.015-.037-.033-.037-.019 0-.034.017-.034.037 0 .02.015.036.034.036zm-.733-16.168c.018 0 .033-.016.033-.036 0-.02-.015-.036-.033-.036-.019 0-.034.016-.034.036 0 .02.015.036.034.036zm-.367-16.185c.018 0 .033-.015.033-.035 0-.02-.015-.036-.033-.036-.019 0-.034.016-.034.036 0 .02.015.036.034.036zm114.741 398.647c.019 0 .034-.016.034-.036 0-.02-.015-.036-.034-.036-.018 0-.033.016-.033.036 0 .02.015.036.033.036zm-8.902-12.981c.019 0 .034-.016.034-.036 0-.02-.015-.036-.034-.036-.018 0-.033.016-.033.036 0 .02.015.036.033.036zm-8.61-13.212c.019 0 .033-.016.033-.036 0-.02-.014-.036-.033-.036-.018 0-.033.016-.033.036 0 .02.015.036.033.036zM43.928 342.933c.018 0 .033-.016.033-.036 0-.02-.015-.036-.033-.036-.018 0-.033.016-.033.036 0 .02.015.036.033.036zm-5.451-15.066c.019 0 .034-.016.034-.036 0-.02-.015-.036-.034-.036-.018 0-.033.016-.033.036 0 .02.015.036.033.036zm-5.114-15.205c.019 0 .033-.016.033-.036 0-.02-.014-.036-.033-.036-.018 0-.033.016-.033.036 0 .02.015.036.033.036zm-32.07-157.69c.018 0 .033-.017.033-.037 0-.019-.015-.036-.033-.036-.018 0-.033.017-.033.036 0 .02.015.037.033.037zm-1.26-16.131c.019 0 .034-.016.034-.036 0-.02-.015-.036-.034-.036-.018 0-.033.016-.033.036 0 .02.015.036.033.036zm115.432 365.79c.018 0 .033-.016.033-.036 0-.02-.015-.036-.033-.036-.019 0-.033.016-.033.036 0 .02.014.036.033.036zm-8.9-12.983c.018 0 .033-.016.033-.036 0-.02-.015-.036-.033-.036-.019 0-.034.016-.034.036 0 .02.015.036.034.036zm-8.614-13.208c.019 0 .034-.016.034-.036 0-.02-.015-.037-.034-.037-.018 0-.033.017-.033.037 0 .02.015.036.033.036zm7.919 33.765c.018 0 .033-.016.033-.036 0-.02-.015-.036-.033-.036-.019 0-.034.016-.034.036 0 .02.015.036.034.036zm-8.897-12.985c.018 0 .033-.016.033-.036 0-.02-.015-.036-.033-.036-.018 0-.033.016-.033.036 0 .02.015.036.033.036zm-8.615-13.206c.018 0 .033-.017.033-.037 0-.02-.015-.036-.033-.036-.019 0-.034.016-.034.036 0 .02.015.037.034.037zm7.918 33.765c.019 0 .034-.016.034-.036 0-.02-.015-.036-.034-.036-.018 0-.033.016-.033.036 0 .02.015.036.033.036zm-8.895-12.987c.019 0 .034-.016.034-.036 0-.02-.015-.036-.034-.036-.018 0-.033.016-.033.036 0 .02.015.036.033.036zm-8.618-13.204c.018 0 .033-.017.033-.036 0-.02-.015-.037-.033-.037-.019 0-.034.017-.034.037 0 .019.015.036.034.036zm7.918 33.767c.019 0 .034-.016.034-.036 0-.02-.015-.037-.034-.037-.018 0-.033.017-.033.037 0 .02.015.036.033.036zm-8.891-12.99c.018 0 .033-.016.033-.036 0-.02-.015-.037-.033-.037-.019 0-.034.017-.034.037 0 .02.015.036.034.036zm-8.62-13.203c.018 0 .033-.017.033-.037 0-.019-.015-.036-.034-.036-.018 0-.033.017-.033.036 0 .02.015.037.033.037zm7.918 33.767c.019 0 .033-.016.033-.036 0-.02-.014-.037-.033-.037-.018 0-.033.017-.033.037 0 .02.015.036.033.036zm-8.89-12.992c.018 0 .033-.016.033-.036 0-.02-.015-.036-.033-.036-.019 0-.033.016-.033.036 0 .02.014.036.033.036zm-8.623-13.201c.018 0 .033-.017.033-.037 0-.02-.015-.036-.033-.036-.019 0-.034.016-.034.036 0 .02.015.037.034.037zm-.967 20.773c.018 0 .033-.016.033-.036 0-.02-.015-.036-.033-.036-.019 0-.033.016-.033.036 0 .02.014.036.033.036z" opacity=".32" fill="#003B0F"/></svg>