<svg width="603" height="216" fill="none" xmlns="http://www.w3.org/2000/svg"><path d="M336.182.93c.576 0 1.043-.507 1.043-1.133s-.467-1.133-1.043-1.133c-.576 0-1.042.507-1.042 1.133s.466 1.134 1.042 1.134zm17.366 1.564c.575 0 1.042-.508 1.042-1.134 0-.626-.467-1.133-1.042-1.133-.576 0-1.043.507-1.043 1.133s.467 1.134 1.043 1.134zm-7.351 3.76c.576 0 1.043-.507 1.043-1.133s-.467-1.134-1.043-1.134c-.576 0-1.042.508-1.042 1.134 0 .626.466 1.133 1.042 1.133zm-7.98 1.656c.575 0 1.042-.508 1.042-1.134 0-.626-.467-1.133-1.042-1.133-.576 0-1.043.507-1.043 1.133s.467 1.134 1.043 1.134zm-8.108-.556c.576 0 1.042-.507 1.042-1.133s-.466-1.134-1.042-1.134c-.576 0-1.042.508-1.042 1.134 0 .626.466 1.133 1.042 1.133zm-7.726-2.729c.576 0 1.043-.507 1.043-1.133s-.467-1.134-1.043-1.134c-.575 0-1.042.508-1.042 1.134 0 .626.467 1.133 1.042 1.133zm39.821-.46c.576 0 1.043-.507 1.043-1.134 0-.626-.467-1.133-1.043-1.133-.575 0-1.042.507-1.042 1.133 0 .627.467 1.134 1.042 1.134zm-6.577 5.195c.576 0 1.043-.507 1.043-1.133s-.467-1.133-1.043-1.133c-.576 0-1.042.507-1.042 1.133s.466 1.134 1.042 1.134zm-7.427 3.597c.576 0 1.043-.507 1.043-1.133s-.467-1.134-1.043-1.134c-.576 0-1.042.508-1.042 1.134 0 .626.466 1.133 1.042 1.133zm-7.953 1.838c.576 0 1.043-.508 1.043-1.134 0-.626-.467-1.133-1.043-1.133-.575 0-1.042.507-1.042 1.133s.467 1.134 1.042 1.134zm-8.13 0c.575 0 1.042-.508 1.042-1.134 0-.626-.467-1.133-1.042-1.133-.576 0-1.043.507-1.043 1.133s.467 1.134 1.043 1.134zm-7.953-1.838c.576 0 1.042-.507 1.042-1.133s-.466-1.134-1.042-1.134c-.576 0-1.043.508-1.043 1.134 0 .626.467 1.133 1.043 1.133zm-7.427-3.597c.576 0 1.042-.507 1.042-1.133s-.466-1.133-1.042-1.133c-.576 0-1.043.507-1.043 1.133s.467 1.134 1.043 1.134zm-6.577-5.195c.576 0 1.042-.507 1.042-1.134 0-.626-.466-1.133-1.042-1.133-.576 0-1.043.507-1.043 1.133 0 .627.467 1.134 1.043 1.134zm60.19 1.034c.576 0 1.043-.508 1.043-1.134 0-.626-.467-1.133-1.043-1.133-.575 0-1.042.507-1.042 1.133s.467 1.134 1.042 1.134zm-5.879 6.112c.576 0 1.043-.508 1.043-1.133 0-.627-.467-1.134-1.043-1.134-.576 0-1.042.507-1.042 1.133 0 .627.466 1.134 1.042 1.134zm-6.789 4.873c.576 0 1.043-.508 1.043-1.134 0-.626-.467-1.134-1.043-1.134-.575 0-1.042.508-1.042 1.134 0 .626.467 1.134 1.042 1.134zm-7.48 3.476c.576 0 1.043-.507 1.043-1.133s-.467-1.134-1.043-1.134c-.575 0-1.042.508-1.042 1.134 0 .626.467 1.133 1.042 1.133zm-7.93 1.968c.576 0 1.043-.507 1.043-1.133s-.467-1.134-1.043-1.134c-.576 0-1.042.508-1.042 1.134 0 .626.466 1.133 1.042 1.133zm-8.125.397c.575 0 1.042-.508 1.042-1.134 0-.626-.467-1.133-1.042-1.133-.576 0-1.043.507-1.043 1.133s.467 1.134 1.043 1.134zm-8.061-2.165c.08 0 .145-.07.145-.156 0-.087-.065-.157-.145-.157-.079 0-.144.07-.144.157s.065.157.144.157zm-7.736-2.81c.04 0 .073-.036.073-.08 0-.042-.033-.077-.073-.077-.04 0-.072.035-.072.078s.032.078.072.078zm-7.163-3.292c.497 0 .899-.438.899-.977 0-.54-.402-.977-.899-.977-.496 0-.898.437-.898.977s.402.977.898.977zm-6.36-5.359c.575 0 1.042-.508 1.042-1.134 0-.626-.467-1.133-1.042-1.133-.576 0-1.043.507-1.043 1.133s.467 1.134 1.043 1.134zm-5.351-6.661c.576 0 1.042-.508 1.042-1.134 0-.626-.466-1.133-1.042-1.133-.576 0-1.043.507-1.043 1.133s.467 1.134 1.043 1.134zm78.656 4.142c.576 0 1.043-.508 1.043-1.134 0-.626-.467-1.133-1.043-1.133-.576 0-1.042.507-1.042 1.133s.466 1.134 1.042 1.134zm-5.284 6.728c.576 0 1.042-.508 1.042-1.134 0-.626-.466-1.133-1.042-1.133-.576 0-1.043.507-1.043 1.133s.467 1.134 1.043 1.134zm-6.187 5.746c.575 0 1.042-.508 1.042-1.134 0-.626-.467-1.133-1.042-1.133-.576 0-1.043.507-1.043 1.133 0 .627.467 1.134 1.043 1.134zm-6.938 4.624c.576 0 1.043-.508 1.043-1.134 0-.626-.467-1.134-1.043-1.134-.576 0-1.042.508-1.042 1.134 0 .626.466 1.134 1.042 1.134zm-7.518 3.386c.576 0 1.043-.508 1.043-1.134 0-.626-.467-1.133-1.043-1.133-.575 0-1.042.507-1.042 1.133s.467 1.134 1.042 1.134zm-7.911 2.065c.576 0 1.043-.508 1.043-1.134 0-.626-.467-1.133-1.043-1.133-.576 0-1.042.507-1.042 1.133s.466 1.134 1.042 1.134zm-8.112.694c.576 0 1.043-.507 1.043-1.134 0-.626-.467-1.133-1.043-1.133-.576 0-1.042.507-1.042 1.133 0 .627.466 1.134 1.042 1.134zm-8.111-1.28c.279 0 .504-.245.504-.547 0-.303-.225-.548-.504-.548s-.504.245-.504.548c0 .302.225.547.504.547zM305.705 17.67c.228 0 .414-.2.414-.449 0-.248-.186-.45-.414-.45-.229 0-.414.202-.414.45s.185.45.414.45zm-6.189-5.062c.576 0 1.043-.508 1.043-1.134 0-.626-.467-1.133-1.043-1.133-.575 0-1.042.507-1.042 1.133s.467 1.134 1.042 1.134zm-5.284-6.728c.576 0 1.042-.508 1.042-1.134 0-.626-.466-1.133-1.042-1.133-.576 0-1.043.507-1.043 1.133s.467 1.134 1.043 1.134zm91.422.473c.575 0 1.042-.508 1.042-1.134 0-.626-.467-1.134-1.042-1.134-.576 0-1.043.508-1.043 1.134 0 .626.467 1.134 1.043 1.134zm-4.784 7.16c.576 0 1.042-.508 1.042-1.134 0-.626-.466-1.133-1.042-1.133-.576 0-1.043.507-1.043 1.133s.467 1.134 1.043 1.134zm-5.654 6.365c.576 0 1.043-.507 1.043-1.133s-.467-1.134-1.043-1.134c-.575 0-1.042.508-1.042 1.134 0 .626.467 1.133 1.042 1.133zm-6.413 5.449c.576 0 1.043-.508 1.043-1.134 0-.626-.467-1.133-1.043-1.133-.576 0-1.042.507-1.042 1.133s.466 1.134 1.042 1.134zm-7.049 4.424c.576 0 1.043-.508 1.043-1.134 0-.626-.467-1.133-1.043-1.133-.576 0-1.042.507-1.042 1.133 0 .627.466 1.134 1.042 1.134zm-7.546 3.315c.576 0 1.043-.508 1.043-1.134 0-.626-.467-1.133-1.043-1.133-.575 0-1.042.507-1.042 1.133s.467 1.134 1.042 1.134zm-7.897 2.142c.576 0 1.043-.508 1.043-1.134 0-.626-.467-1.134-1.043-1.134-.575 0-1.042.508-1.042 1.134 0 .626.467 1.134 1.042 1.134zm-8.093.905c.565 0 1.024-.498 1.024-1.114 0-.615-.459-1.114-1.024-1.114-.566 0-1.025.499-1.025 1.114 0 .615.459 1.114 1.025 1.114zm-8.132-1.148c.139 0 .252-.123.252-.275 0-.151-.113-.274-.252-.274-.14 0-.253.123-.253.274 0 .152.113.275.253.275zm-8.017-1.792c.01 0 .018-.009.018-.02 0-.01-.008-.02-.018-.02-.01 0-.018.01-.018.02 0 .011.008.02.018.02zm-27.85-16.605c.457 0 .827-.403.827-.899s-.37-.899-.827-.899c-.456 0-.826.403-.826.9 0 .495.37.898.826.898zm-5.231-6.545c.576 0 1.043-.508 1.043-1.134 0-.626-.467-1.134-1.043-1.134-.576 0-1.042.508-1.042 1.134 0 .626.466 1.134 1.042 1.134zm-4.313-7.504c.576 0 1.042-.507 1.042-1.134 0-.626-.466-1.133-1.042-1.133-.576 0-1.043.507-1.043 1.133 0 .627.467 1.134 1.043 1.134zm108.307 4.174c.575 0 1.042-.508 1.042-1.134 0-.626-.467-1.133-1.042-1.133-.576 0-1.043.507-1.043 1.133s.467 1.134 1.043 1.134zm-4.362 7.473c.576 0 1.042-.507 1.042-1.133s-.466-1.134-1.042-1.134c-.576 0-1.042.508-1.042 1.134 0 .626.466 1.133 1.042 1.133zm-5.188 6.819c.576 0 1.042-.508 1.042-1.134 0-.626-.466-1.133-1.042-1.133-.576 0-1.042.507-1.042 1.133s.466 1.134 1.042 1.134zm-5.933 6.059c.575 0 1.042-.507 1.042-1.133s-.467-1.134-1.042-1.134c-.576 0-1.043.508-1.043 1.134 0 .626.467 1.133 1.043 1.133zm-6.586 5.204c.576 0 1.043-.508 1.043-1.134 0-.626-.467-1.134-1.043-1.134-.576 0-1.042.508-1.042 1.134 0 .626.466 1.134 1.042 1.134zm-7.133 4.264c.576 0 1.042-.508 1.042-1.134 0-.626-.466-1.133-1.042-1.133-.576 0-1.043.507-1.043 1.133s.467 1.134 1.043 1.134zm-7.568 3.258c.575 0 1.042-.508 1.042-1.134 0-.626-.467-1.134-1.042-1.134-.576 0-1.043.508-1.043 1.134 0 .626.467 1.133 1.043 1.133zm-7.885 2.2c.576 0 1.042-.507 1.042-1.133s-.466-1.133-1.042-1.133c-.576 0-1.042.507-1.042 1.133s.466 1.134 1.042 1.134zm-8.075 1.11c.576 0 1.043-.508 1.043-1.134 0-.626-.467-1.133-1.043-1.133-.576 0-1.042.507-1.042 1.133s.466 1.134 1.042 1.134zm-8.14-1.114c.01 0 .018-.009.018-.02 0-.01-.008-.02-.018-.02-.01 0-.018.01-.018.02 0 .011.008.02.018.02zm-8.075-1.109a.02.02 0 00.019-.02.02.02 0 00-.019-.02c-.01 0-.018.01-.018.02 0 .011.008.02.018.02zm-7.884-2.201c.01 0 .018-.009.018-.02 0-.01-.008-.02-.018-.02-.01 0-.018.01-.018.02 0 .011.008.02.018.02zm-32.409-25.564c.03 0 .055-.027.055-.06 0-.031-.025-.058-.055-.058-.029 0-.054.027-.054.059s.025.059.054.059zm-4.361-7.415c.059 0 .108-.053.108-.118 0-.064-.049-.117-.108-.117-.06 0-.109.053-.109.117 0 .065.049.118.109.118zm120.783 1.269c.575 0 1.042-.508 1.042-1.134 0-.626-.467-1.133-1.042-1.133-.576 0-1.043.507-1.043 1.133s.467 1.134 1.043 1.134zm-4.004 7.708c.576 0 1.043-.507 1.043-1.133s-.467-1.134-1.043-1.134c-.576 0-1.042.508-1.042 1.134 0 .626.466 1.133 1.042 1.133zm-4.785 7.161c.576 0 1.043-.507 1.043-1.133s-.467-1.134-1.043-1.134c-.575 0-1.042.508-1.042 1.134 0 .626.467 1.133 1.042 1.133zm-5.504 6.521c.575 0 1.042-.507 1.042-1.133s-.467-1.134-1.042-1.134c-.576 0-1.043.508-1.043 1.134 0 .626.467 1.133 1.043 1.133zm-6.153 5.798c.576 0 1.043-.508 1.043-1.134 0-.626-.467-1.133-1.043-1.133-.576 0-1.042.507-1.042 1.133s.466 1.134 1.042 1.134zm-6.719 4.996c.575 0 1.042-.508 1.042-1.134 0-.626-.467-1.133-1.042-1.133-.576 0-1.043.507-1.043 1.133s.467 1.134 1.043 1.134zm-7.2 4.13c.576 0 1.042-.507 1.042-1.133s-.466-1.133-1.042-1.133c-.576 0-1.043.507-1.043 1.133s.467 1.134 1.043 1.134zm-7.587 3.213c.576 0 1.043-.508 1.043-1.134 0-.626-.467-1.133-1.043-1.133-.575 0-1.042.507-1.042 1.133s.467 1.134 1.042 1.134zm-7.873 2.25c.576 0 1.042-.508 1.042-1.134 0-.626-.466-1.133-1.042-1.133-.576 0-1.043.507-1.043 1.133s.467 1.134 1.043 1.134zm-8.057 1.259c.576 0 1.042-.508 1.042-1.134 0-.626-.466-1.133-1.042-1.133-.576 0-1.043.507-1.043 1.133s.467 1.134 1.043 1.134zm-8.138-.841c.02 0 .036-.017.036-.039 0-.021-.016-.039-.036-.039-.02 0-.036.017-.036.04 0 .02.016.038.036.038zm-8.11-.777c.01 0 .018-.009.018-.02 0-.01-.008-.02-.018-.02a.02.02 0 00-.019.02c0 .011.009.02.019.02zm-7.979-1.758c.01 0 .018-.008.018-.02 0-.01-.008-.02-.018-.02-.01 0-.018.01-.018.02 0 .012.008.02.018.02zm-7.742-2.735c.01 0 .018-.009.018-.02 0-.01-.008-.02-.018-.02-.01 0-.018.01-.018.02 0 .011.008.02.018.02zM407.239 6.67c.338 0 .612-.297.612-.665 0-.367-.274-.664-.612-.664-.338 0-.613.297-.613.664 0 .368.275.665.613.665zm-3.696 7.868c.328 0 .594-.289.594-.645 0-.356-.266-.645-.594-.645-.328 0-.594.289-.594.645 0 .356.266.645.594.645zm-4.435 7.172c.199 0 .36-.175.36-.391 0-.216-.161-.391-.36-.391-.198 0-.36.175-.36.39 0 .216.162.391.36.391zm-5.123 6.743c.13 0 .235-.114.235-.255 0-.14-.105-.255-.235-.255s-.235.114-.235.255c0 .14.105.255.235.255zm-5.757 6.787c.398 0 .72-.35.72-.782 0-.432-.322-.782-.72-.782-.397 0-.72.35-.72.782 0 .432.323.782.72.782zm-6.328 5.922c.576 0 1.043-.507 1.043-1.133 0-.627-.467-1.134-1.043-1.134-.575 0-1.042.508-1.042 1.134 0 .626.467 1.133 1.042 1.133zm-6.828 4.822c.576 0 1.043-.508 1.043-1.134 0-.626-.467-1.133-1.043-1.133-.575 0-1.042.507-1.042 1.133s.467 1.134 1.042 1.134zm-7.254 4.018c.576 0 1.043-.507 1.043-1.133s-.467-1.134-1.043-1.134c-.576 0-1.042.508-1.042 1.134 0 .626.466 1.133 1.042 1.133zm-7.6 3.173c.575 0 1.042-.508 1.042-1.134 0-.626-.467-1.133-1.042-1.133-.576 0-1.043.507-1.043 1.133s.467 1.134 1.043 1.134zm-7.864 2.292c.576 0 1.042-.508 1.042-1.134 0-.626-.466-1.133-1.042-1.133-.576 0-1.042.507-1.042 1.133s.466 1.134 1.042 1.134zm-8.042 1.385c.576 0 1.042-.508 1.042-1.133 0-.627-.466-1.134-1.042-1.134-.576 0-1.042.508-1.042 1.133 0 .626.466 1.134 1.042 1.134zm-8.13.208c.447 0 .809-.394.809-.88 0-.485-.362-.878-.809-.878-.446 0-.809.393-.809.879 0 .485.363.879.809.879zm-16.172-2.707a.02.02 0 00.019-.02.02.02 0 00-.019-.02c-.01 0-.018.01-.018.02 0 .011.008.02.018.02zm-7.863-2.291c.01 0 .018-.01.018-.02 0-.011-.008-.02-.018-.02-.01 0-.018.009-.018.02 0 .01.008.02.018.02zm-7.601-3.173c.01 0 .018-.01.018-.02 0-.011-.008-.02-.018-.02-.01 0-.018.009-.018.02 0 .01.008.02.018.02zm85.973-6.784c.238 0 .432-.21.432-.47 0-.259-.194-.469-.432-.469-.239 0-.433.21-.433.47 0 .258.194.468.433.468zm-6.47 6.039c.575 0 1.042-.508 1.042-1.134 0-.626-.467-1.133-1.042-1.133-.576 0-1.043.507-1.043 1.133s.467 1.134 1.043 1.134zm-6.917 4.671c.576 0 1.042-.508 1.042-1.134 0-.626-.466-1.134-1.042-1.134-.576 0-1.043.508-1.043 1.134 0 .626.467 1.134 1.043 1.134zm-7.298 3.925c.576 0 1.042-.508 1.042-1.134 0-.626-.466-1.134-1.042-1.134-.576 0-1.043.508-1.043 1.134 0 .626.467 1.133 1.043 1.133zm-7.614 3.138c.576 0 1.043-.507 1.043-1.133s-.467-1.134-1.043-1.134c-.575 0-1.042.508-1.042 1.134 0 .626.467 1.133 1.042 1.133zm-7.856 2.326c.576 0 1.043-.507 1.043-1.133 0-.627-.467-1.134-1.043-1.134-.576 0-1.042.508-1.042 1.134 0 .626.466 1.133 1.042 1.133zm-8.025 1.491c.575 0 1.042-.508 1.042-1.134 0-.626-.467-1.133-1.042-1.133-.576 0-1.043.507-1.043 1.133s.467 1.134 1.043 1.134zm-8.12.622c.565 0 1.024-.499 1.024-1.114 0-.615-.459-1.114-1.024-1.114-.566 0-1.025.499-1.025 1.114 0 .615.459 1.114 1.025 1.114zm-24.173-4.287a.02.02 0 00.019-.02.02.02 0 00-.019-.02c-.01 0-.018.01-.018.02 0 .012.008.02.018.02zm-7.743-2.735c.01 0 .018-.008.018-.02 0-.01-.008-.02-.018-.02a.02.02 0 00-.019.02c0 .012.009.02.019.02zm-7.465-3.535c.01 0 .018-.009.018-.02 0-.01-.008-.02-.018-.02a.02.02 0 00-.019.02c0 .011.009.02.019.02zm93.923-4.481c.269 0 .486-.237.486-.528 0-.292-.217-.528-.486-.528-.268 0-.486.236-.486.528 0 .291.218.528.486.528zm-6.589 5.808c.576 0 1.043-.507 1.043-1.133s-.467-1.134-1.043-1.134c-.575 0-1.042.508-1.042 1.134 0 .626.467 1.133 1.042 1.133zm-6.989 4.542c.576 0 1.042-.508 1.042-1.134 0-.626-.466-1.133-1.042-1.133-.576 0-1.043.507-1.043 1.133s.467 1.134 1.043 1.134zm-7.336 3.841c.576 0 1.042-.508 1.042-1.134 0-.626-.466-1.133-1.042-1.133-.576 0-1.043.507-1.043 1.133s.467 1.134 1.043 1.134zm-7.623 3.111c.575 0 1.042-.508 1.042-1.133 0-.626-.467-1.134-1.042-1.134-.576 0-1.043.508-1.043 1.134 0 .626.467 1.133 1.043 1.133zm-7.85 2.356c.576 0 1.043-.507 1.043-1.133 0-.627-.467-1.134-1.043-1.134-.575 0-1.042.507-1.042 1.133 0 .627.467 1.134 1.042 1.134zm-8.011 1.581c.576 0 1.043-.508 1.043-1.134 0-.626-.467-1.133-1.043-1.133-.575 0-1.042.507-1.042 1.133s.467 1.134 1.042 1.134zm-8.11.656c.506 0 .916-.447.916-.997s-.41-.996-.916-.996-.916.446-.916.996.41.997.916.997zm-32.112-5.707c.01 0 .018-.009.018-.02 0-.01-.008-.02-.018-.02-.01 0-.018.01-.018.02 0 .011.008.02.018.02zm-7.624-3.111c.011 0 .019-.008.019-.02 0-.01-.008-.02-.019-.02-.01 0-.018.01-.018.02 0 .012.008.02.018.02zm94.448-6.463c.04 0 .072-.035.072-.079 0-.043-.032-.078-.072-.078-.04 0-.072.035-.072.078 0 .044.032.079.072.079zm-6.686 5.287c.159 0 .288-.14.288-.313 0-.172-.129-.312-.288-.312-.159 0-.288.14-.288.312 0 .173.129.313.288.313zm-7.052 4.896c.398 0 .72-.35.72-.782 0-.432-.322-.782-.72-.782-.398 0-.72.35-.72.782 0 .432.322.782.72.782zm-7.368 4.122c.576 0 1.042-.508 1.042-1.134 0-.626-.466-1.133-1.042-1.133-.576 0-1.043.507-1.043 1.133s.467 1.134 1.043 1.134zm-7.632 3.086c.575 0 1.042-.507 1.042-1.133s-.467-1.134-1.042-1.134c-.576 0-1.043.508-1.043 1.134 0 .626.467 1.133 1.043 1.133zm-7.843 2.382c.575 0 1.042-.507 1.042-1.133 0-.627-.467-1.134-1.042-1.134-.576 0-1.043.507-1.043 1.133 0 .627.467 1.134 1.043 1.134zm-7.999 1.658c.576 0 1.043-.507 1.043-1.133s-.467-1.134-1.043-1.134c-.576 0-1.042.508-1.042 1.134 0 .626.466 1.133 1.042 1.133zm-8.098.808c.516 0 .934-.455.934-1.016 0-.561-.418-1.016-.934-1.016s-.935.455-.935 1.016c0 .561.419 1.016.935 1.016zm-39.995-7.418c.01 0 .018-.009.018-.02 0-.01-.008-.02-.018-.02-.01 0-.018.01-.018.02 0 .011.008.02.018.02zm-7.506-3.431c.01 0 .018-.009.018-.02 0-.01-.008-.02-.018-.02-.01 0-.018.01-.018.02 0 .011.008.02.018.02zm-51.68-65.101c.01 0 .018-.01.018-.02 0-.011-.008-.02-.018-.02-.01 0-.018.009-.018.02 0 .01.008.02.018.02zm166.409 49.905c.378 0 .684-.333.684-.743s-.306-.743-.684-.743c-.378 0-.684.333-.684.743s.306.743.684.743zm-5.98 6.226c.486 0 .88-.429.88-.958 0-.528-.394-.957-.88-.957-.487 0-.881.429-.881.957 0 .529.394.958.881.958zm-6.395 4.641c.06 0 .109-.053.109-.118s-.049-.117-.109-.117-.108.052-.108.117.048.118.108.118zm-13.875 9.5c.189 0 .342-.166.342-.371s-.153-.372-.342-.372c-.189 0-.342.167-.342.372s.153.371.342.371zm-7.396 4.391c.536 0 .97-.473.97-1.055 0-.583-.434-1.056-.97-1.056s-.97.473-.97 1.056c0 .582.434 1.055.97 1.055zm-7.64 3.143c.576 0 1.043-.508 1.043-1.134 0-.626-.467-1.133-1.043-1.133-.575 0-1.042.507-1.042 1.133s.467 1.134 1.042 1.134zm-7.837 2.402c.576 0 1.043-.507 1.043-1.133s-.467-1.133-1.043-1.133c-.576 0-1.042.507-1.042 1.133s.466 1.134 1.042 1.134zm-7.987 1.729c.576 0 1.043-.508 1.043-1.134 0-.626-.467-1.133-1.043-1.133-.575 0-1.042.507-1.042 1.133s.467 1.134 1.042 1.134zm-8.086.864c.486 0 .88-.43.88-.958 0-.529-.394-.957-.88-.957-.487 0-.881.428-.881.957 0 .529.394.958.881.958zm-47.824-9.173c.011 0 .019-.01.019-.02 0-.012-.008-.02-.019-.02-.01 0-.018.008-.018.02 0 .01.008.02.018.02zm-7.395-3.708c.01 0 .018-.009.018-.02 0-.01-.008-.02-.018-.02a.02.02 0 00-.019.02c0 .011.009.02.019.02zM240.369 14.78c.01 0 .018-.01.018-.02s-.008-.02-.018-.02c-.01 0-.018.01-.018.02s.008.02.018.02zm-2.819-8.307a.02.02 0 00.019-.02.02.02 0 00-.019-.02c-.01 0-.018.01-.018.02 0 .011.008.02.018.02zm174.359 52.425c.13 0 .235-.114.235-.255 0-.14-.105-.255-.235-.255s-.235.114-.235.255c0 .14.105.255.235.255zm-6.12 6.664c.546 0 .989-.481.989-1.075s-.443-1.075-.989-1.075-.988.481-.988 1.075.442 1.075.988 1.075zm-6.498 5.062c.408 0 .738-.358.738-.801 0-.443-.33-.802-.738-.802-.407 0-.737.359-.737.802 0 .443.33.801.737.801zM377.88 82.727c.11 0 .199-.097.199-.216 0-.12-.089-.216-.199-.216-.11 0-.199.097-.199.216s.089.216.199.216zm-7.647 3.924c.556 0 1.006-.49 1.006-1.094 0-.605-.45-1.095-1.006-1.095s-1.007.49-1.007 1.095c0 .604.451 1.094 1.007 1.094zm-7.833 2.463c.575 0 1.042-.508 1.042-1.134 0-.626-.467-1.133-1.042-1.133-.576 0-1.043.507-1.043 1.133s.467 1.134 1.043 1.134zm-7.976 1.786c.576 0 1.043-.507 1.043-1.133s-.467-1.133-1.043-1.133c-.575 0-1.042.507-1.042 1.133s.467 1.134 1.042 1.134zm-8.074.694c.348 0 .63-.306.63-.684 0-.378-.282-.684-.63-.684-.348 0-.63.306-.63.684 0 .378.282.684.63.684zM290.745 80.78c.011 0 .019-.01.019-.02s-.008-.02-.019-.02c-.01 0-.018.01-.018.02s.008.02.018.02zm-7.29-3.947a.02.02 0 00.019-.02.02.02 0 00-.019-.02c-.01 0-.018.01-.018.02 0 .011.008.02.018.02zm-48.48-57.827c.01 0 .018-.009.018-.02 0-.01-.008-.02-.018-.02-.01 0-.018.01-.018.02 0 .011.008.02.018.02zm-2.941-8.256c.01 0 .018-.009.018-.02 0-.01-.008-.02-.018-.02-.01 0-.018.01-.018.02 0 .011.008.02.018.02zm-2.373-8.471c.01 0 .018-.009.018-.02 0-.01-.008-.02-.018-.02a.02.02 0 00-.019.02c0 .011.009.02.019.02zm190.447 57.473c.01 0 .018-.008.018-.02 0-.01-.008-.02-.018-.02a.02.02 0 00-.019.02c0 .012.009.02.019.02zm-5.858 6.152c.01 0 .018-.009.018-.02 0-.01-.008-.02-.018-.02-.01 0-.018.01-.018.02 0 .011.008.02.018.02zm-6.237 5.926c.13 0 .235-.114.235-.255 0-.14-.105-.255-.235-.255s-.235.114-.235.255c0 .14.105.255.235.255zm-6.589 5.205c.13 0 .235-.114.235-.255 0-.14-.105-.255-.235-.255s-.235.114-.235.255c0 .14.105.255.235.255zm-6.906 4.458c.01 0 .018-.01.018-.02 0-.011-.008-.02-.018-.02-.01 0-.018.009-.018.02 0 .01.008.02.018.02zm-7.191 4.157a.019.019 0 00.019-.02c0-.01-.008-.02-.019-.02-.01 0-.018.01-.018.02 0 .011.008.02.018.02zm-15.091 6.688c.04 0 .072-.035.072-.078 0-.044-.032-.079-.072-.079-.04 0-.072.035-.072.079 0 .043.032.078.072.078zm-7.828 2.988c.318 0 .576-.28.576-.626 0-.345-.258-.625-.576-.625-.318 0-.576.28-.576.625 0 .346.258.626.576.626zm-7.965 1.841c.318 0 .576-.28.576-.626 0-.345-.258-.625-.576-.625-.318 0-.576.28-.576.626 0 .345.258.625.576.625zm-8.064 1.136c.268 0 .486-.237.486-.528 0-.292-.218-.528-.486-.528-.269 0-.487.236-.487.528 0 .291.218.528.487.528zm-55.902-9.052c.01 0 .018-.009.018-.02 0-.01-.008-.02-.018-.02a.02.02 0 00-.019.02c0 .011.009.02.019.02zm-7.44-3.601c.01 0 .018-.009.018-.02 0-.01-.008-.02-.018-.02-.01 0-.018.01-.018.02 0 .011.008.02.018.02zm-7.19-4.157c.01 0 .018-.01.018-.02 0-.011-.008-.02-.018-.02-.01 0-.018.009-.018.02 0 .01.008.02.018.02zm-36.054-34.381c.477 0 .863-.42.863-.938s-.386-.938-.863-.938c-.476 0-.863.42-.863.938s.387.938.863.938zm-4.552-7.809c.238 0 .432-.21.432-.469 0-.26-.194-.47-.432-.47-.239 0-.432.21-.432.47s.193.47.432.47zm-10.693-24.287c.01 0 .018-.01.018-.02 0-.011-.008-.02-.018-.02-.01 0-.018.009-.018.02 0 .01.008.02.018.02zm-2.517-8.422c.01 0 .018-.009.018-.02 0-.01-.008-.02-.018-.02-.01 0-.018.01-.018.02 0 .011.008.02.018.02zM428.155 60.68c.01 0 .018-.01.018-.02 0-.011-.008-.02-.018-.02-.01 0-.018.009-.018.02 0 .01.008.02.018.02zM416.55 73.091c.01 0 .018-.008.018-.02 0-.01-.008-.02-.018-.02-.01 0-.018.01-.018.02 0 .011.008.02.018.02zm-6.343 5.554c.01 0 .018-.008.018-.02 0-.01-.008-.019-.018-.019-.01 0-.018.009-.018.02 0 .01.008.02.018.02zm-6.666 5.086c.01 0 .018-.008.018-.02 0-.01-.008-.02-.018-.02a.02.02 0 00-.019.02c0 .012.009.02.019.02zm-6.962 4.596c.01 0 .018-.009.018-.02 0-.01-.008-.02-.018-.02-.01 0-.018.01-.018.02 0 .011.008.02.018.02zm-7.225 4.085c.01 0 .018-.01.018-.02 0-.011-.008-.02-.018-.02-.01 0-.018.009-.018.02 0 .01.008.02.018.02zm-7.458 3.558a.02.02 0 00.019-.02.02.02 0 00-.019-.02c-.01 0-.018.008-.018.02 0 .01.008.02.018.02zm-95.183-1.712c.01 0 .018-.008.018-.02 0-.01-.008-.02-.018-.02-.011 0-.019.01-.019.02 0 .011.008.02.019.02zm-7.345-3.823c.01 0 .018-.01.018-.02 0-.011-.008-.02-.018-.02-.011 0-.019.009-.019.02 0 .01.008.02.019.02zm-7.098-4.343c.01 0 .018-.008.018-.02 0-.01-.008-.02-.018-.02-.01 0-.018.01-.018.02 0 .011.008.02.018.02zm-30.718-28.767c.01 0 .018-.01.018-.02 0-.011-.008-.02-.018-.02-.01 0-.018.009-.018.02 0 .01.008.02.018.02zm-5.003-5.875c.576 0 1.043-.507 1.043-1.133s-.467-1.133-1.043-1.133c-.576 0-1.042.507-1.042 1.133s.466 1.134 1.042 1.134zm-4.566-7.331c.576 0 1.043-.508 1.043-1.134 0-.626-.467-1.133-1.043-1.133-.576 0-1.042.507-1.042 1.133s.466 1.134 1.042 1.134zm-4.11-8.563c.11 0 .199-.096.199-.215 0-.12-.089-.216-.199-.216-.109 0-.198.096-.198.215 0 .12.089.216.198.216zM461.744 6.72c.03 0 .054-.027.054-.06 0-.032-.024-.058-.054-.058s-.055.026-.055.058c0 .033.025.06.055.06zm-2.272 8.464c.01 0 .018-.009.018-.02 0-.01-.008-.02-.018-.02a.02.02 0 00-.019.02c0 .011.009.02.019.02zm-28.791 52.935c.01 0 .018-.01.018-.02 0-.011-.008-.02-.018-.02-.01 0-.018.009-.018.02 0 .01.008.02.018.02zm-5.758 6.261c.01 0 .018-.009.018-.02 0-.01-.008-.02-.018-.02-.01 0-.018.01-.018.02 0 .011.008.02.018.02zm-6.109 5.857c.01 0 .018-.009.018-.02 0-.01-.008-.02-.018-.02-.01 0-.018.01-.018.02 0 .011.008.02.018.02zm-6.435 5.427c.01 0 .018-.01.018-.02 0-.011-.008-.02-.018-.02-.01 0-.018.009-.018.02 0 .01.008.02.018.02zm-6.735 4.977c.01 0 .018-.009.018-.02 0-.01-.008-.02-.018-.02a.02.02 0 00-.019.02c0 .011.009.02.019.02zm-7.01 4.507c.011 0 .019-.008.019-.02 0-.01-.008-.02-.019-.02-.01 0-.018.01-.018.02 0 .012.008.02.018.02zm-7.256 4.022c.01 0 .018-.01.018-.02 0-.011-.008-.02-.018-.02a.02.02 0 00-.019.02c0 .01.009.02.019.02zm-15.137 6.516c.01 0 .018-.009.018-.02 0-.011-.008-.02-.018-.02-.01 0-.018.009-.018.02 0 .011.008.02.018.02zm-7.82 2.47c.01 0 .018-.009.018-.019 0-.011-.008-.02-.018-.02-.01 0-.019.009-.019.02 0 .01.009.019.019.019zm-87.434-8.986c.01 0 .018-.01.018-.02 0-.011-.008-.02-.018-.02-.01 0-.018.009-.018.02 0 .01.008.02.018.02zm-7.257-4.022c.01 0 .018-.008.018-.02 0-.01-.008-.02-.018-.02-.01 0-.018.01-.018.02 0 .012.008.02.018.02zm-7.009-4.507c.01 0 .018-.009.018-.02 0-.01-.008-.02-.018-.02-.01 0-.018.01-.018.02 0 .011.008.02.018.02zm-30.423-28.852c.169 0 .306-.149.306-.332 0-.184-.137-.333-.306-.333-.169 0-.306.15-.306.333 0 .183.137.332.306.332zm-4.992-6.196c.576 0 1.043-.508 1.043-1.134 0-.626-.467-1.133-1.043-1.133-.576 0-1.042.507-1.042 1.133s.466 1.134 1.042 1.134zm-4.577-7.324c.575 0 1.042-.508 1.042-1.133 0-.627-.467-1.134-1.042-1.134-.576 0-1.043.507-1.043 1.133 0 .627.467 1.134 1.043 1.134zm-4.146-7.642c.566 0 1.024-.498 1.024-1.114 0-.615-.458-1.114-1.024-1.114-.566 0-1.025.5-1.025 1.114 0 .616.459 1.114 1.025 1.114zm-3.697-8.807c.1 0 .181-.089.181-.197 0-.108-.081-.196-.181-.196-.1 0-.18.088-.18.196 0 .108.08.196.18.196zm-3.235-8.245c.04 0 .072-.035.072-.079 0-.043-.032-.078-.072-.078-.04 0-.072.035-.072.078 0 .044.032.079.072.079zM468.418 7.166c.238 0 .432-.21.432-.47 0-.259-.194-.469-.432-.469-.239 0-.432.21-.432.47 0 .258.193.469.432.469zm-2.167 8.086a.02.02 0 00.019-.02.02.02 0 00-.019-.02c-.01 0-.018.009-.018.02 0 .01.008.02.018.02zm-2.632 8.38c.01 0 .018-.009.018-.02 0-.01-.008-.02-.018-.02-.01 0-.018.01-.018.02 0 .011.008.02.018.02zm-62.936 78.328c.01 0 .019-.009.019-.02 0-.011-.009-.02-.019-.02s-.018.009-.018.02c0 .011.008.02.018.02zm-7.284 3.961a.018.018 0 00.019-.019c0-.011-.008-.02-.019-.02-.01 0-.018.009-.018.02 0 .011.008.019.018.019zm-7.488 3.48c.01 0 .019-.008.019-.019s-.009-.02-.019-.02-.018.009-.018.02c0 .011.008.019.018.019zm-7.667 2.988c.01 0 .018-.009.018-.02 0-.011-.008-.02-.018-.02-.01 0-.018.009-.018.02 0 .011.008.02.018.02zm-7.817 2.484c.01 0 .018-.009.018-.02 0-.011-.008-.02-.018-.02-.01 0-.018.009-.018.02 0 .011.008.02.018.02zm-7.94 1.97c.01 0 .018-.009.018-.019 0-.011-.008-.02-.018-.02-.01 0-.018.009-.018.02 0 .01.008.019.018.019zM275.296 104c.01 0 .018-.009.018-.02 0-.011-.008-.02-.018-.02-.01 0-.019.009-.019.02 0 .011.009.02.019.02zm-7.172-4.196a.02.02 0 00.019-.02.02.02 0 00-.019-.02c-.01 0-.018.009-.018.02 0 .01.008.02.018.02zm-6.928-4.657c.01 0 .018-.008.018-.02 0-.01-.008-.02-.018-.02-.01 0-.018.01-.018.02 0 .012.008.02.018.02zm-24.793-22.792c.04 0 .072-.036.072-.079 0-.043-.032-.078-.072-.078-.04 0-.073.035-.073.078s.033.079.073.079zm-5.359-5.614c.576 0 1.043-.507 1.043-1.133s-.467-1.134-1.043-1.134c-.576 0-1.042.508-1.042 1.134 0 .626.466 1.133 1.042 1.133zm-4.982-7.006c.576 0 1.043-.507 1.043-1.133s-.467-1.134-1.043-1.134c-.575 0-1.042.508-1.042 1.134 0 .626.467 1.133 1.042 1.133zm-4.587-7.315c.575 0 1.042-.508 1.042-1.134 0-.626-.467-1.134-1.042-1.134-.576 0-1.043.508-1.043 1.134 0 .626.467 1.133 1.043 1.133zm-4.177-7.603c.575 0 1.042-.508 1.042-1.134 0-.626-.467-1.133-1.042-1.133-.576 0-1.043.507-1.043 1.133s.467 1.134 1.043 1.134zm-3.752-7.88c.566 0 1.025-.499 1.025-1.114 0-.615-.459-1.114-1.025-1.114-.566 0-1.024.499-1.024 1.114 0 .615.458 1.114 1.024 1.114zm-3.313-8.089c.566 0 1.025-.5 1.025-1.114 0-.616-.459-1.114-1.025-1.114-.565 0-1.024.498-1.024 1.114 0 .615.459 1.114 1.024 1.114zm-2.861-8.994c.209 0 .378-.184.378-.41 0-.227-.169-.411-.378-.411-.208 0-.378.183-.378.41 0 .227.17.41.378.41zM475.074 6.745a.02.02 0 00.019-.02.02.02 0 00-.019-.02c-.01 0-.018.01-.018.02 0 .011.008.02.018.02zm-2.07 8.565c.01 0 .018-.01.018-.02 0-.012-.008-.02-.018-.02-.01 0-.018.008-.018.02 0 .01.008.02.018.02zm-2.517 8.422c.01 0 .018-.01.018-.02 0-.011-.008-.02-.018-.02-.01 0-.018.009-.018.02 0 .01.008.02.018.02zm-82.569 92.383c.01 0 .018-.009.018-.02 0-.01-.008-.019-.018-.019-.01 0-.018.009-.018.019 0 .011.008.02.018.02zm-7.671 2.977c.01 0 .018-.009.018-.02 0-.011-.008-.02-.018-.02-.01 0-.018.009-.018.02 0 .011.008.02.018.02zm-7.814 2.495c.01 0 .018-.009.018-.02 0-.011-.008-.02-.018-.02-.01 0-.018.009-.018.02 0 .011.008.02.018.02zm-7.932 2.005c.01 0 .018-.009.018-.019 0-.011-.008-.02-.018-.02-.01 0-.018.009-.018.02 0 .01.008.019.018.019zm-8.025 1.511c.01 0 .019-.009.019-.02 0-.011-.009-.02-.019-.02s-.018.009-.018.02c0 .011.008.02.018.02zm-86.839-16.342c.01 0 .018-.009.018-.02 0-.01-.008-.019-.018-.019-.01 0-.018.009-.018.019 0 .011.008.02.018.02zm-7.092-4.354c.011 0 .019-.009.019-.02 0-.011-.008-.02-.019-.02-.01 0-.018.009-.018.02 0 .011.008.02.018.02zm-6.851-4.787c.01 0 .018-.01.018-.02 0-.011-.008-.02-.018-.02a.02.02 0 00-.019.02c0 .01.009.02.019.02zm-24.568-22.563c.308 0 .558-.271.558-.606 0-.335-.25-.607-.558-.607-.309 0-.559.272-.559.607 0 .335.25.606.559.606zm-5.335-6.166c.576 0 1.043-.507 1.043-1.133s-.467-1.134-1.043-1.134c-.575 0-1.042.508-1.042 1.134 0 .626.467 1.133 1.042 1.133zm-4.973-7.013c.576 0 1.043-.508 1.043-1.134 0-.626-.467-1.133-1.043-1.133-.575 0-1.042.507-1.042 1.133s.467 1.134 1.042 1.134zm-4.597-7.309c.576 0 1.042-.508 1.042-1.134 0-.626-.466-1.133-1.042-1.133-.576 0-1.043.507-1.043 1.133s.467 1.134 1.043 1.134zm-4.205-7.583c.576 0 1.042-.508 1.042-1.134 0-.626-.466-1.133-1.042-1.133-.576 0-1.043.507-1.043 1.133s.467 1.134 1.043 1.134zm-3.801-7.834c.576 0 1.042-.507 1.042-1.133s-.466-1.134-1.042-1.134c-.576 0-1.043.508-1.043 1.134 0 .626.467 1.133 1.043 1.133zm-3.383-8.055c.576 0 1.042-.507 1.042-1.133s-.466-1.134-1.042-1.134c-.576 0-1.042.508-1.042 1.134 0 .626.466 1.133 1.042 1.133zm-2.955-8.271c.566 0 1.025-.5 1.025-1.114 0-.616-.459-1.114-1.025-1.114-.565 0-1.024.498-1.024 1.114 0 .615.459 1.114 1.024 1.114zm-2.516-9.224c.159 0 .288-.14.288-.312 0-.173-.129-.313-.288-.313-.159 0-.288.14-.288.313 0 .172.129.312.288.312zm282.355-8.83c.01 0 .018-.01.018-.02 0-.011-.008-.02-.018-.02a.02.02 0 00-.019.02c0 .01.009.02.019.02zm-1.983 8.588c.01 0 .018-.008.018-.02 0-.01-.008-.02-.018-.02-.01 0-.018.01-.018.02 0 .011.008.02.018.02zM374.439 128.3c.01 0 .018-.009.018-.02 0-.011-.008-.02-.018-.02-.01 0-.019.009-.019.02 0 .011.009.02.019.02zm-7.926 2.037c.01 0 .018-.008.018-.019s-.008-.02-.018-.02c-.01 0-.018.009-.018.02 0 .011.008.019.018.019zm-8.016 1.565c.01 0 .019-.008.019-.019s-.009-.02-.019-.02-.018.009-.018.02c0 .011.008.019.018.019zm-8.082 1.086c.01 0 .018-.009.018-.019 0-.011-.008-.02-.018-.02-.01 0-.018.009-.018.02 0 .01.008.019.018.019zm-86.409-19.524c.01 0 .018-.009.018-.02 0-.011-.008-.02-.018-.02-.01 0-.019.009-.019.02 0 .011.009.02.019.02zm-7.016-4.499c.01 0 .018-.008.018-.019s-.008-.02-.018-.02c-.01 0-.018.009-.018.02 0 .011.008.019.018.019zm-31.139-27.757c.299 0 .541-.262.541-.587 0-.324-.242-.586-.541-.586-.298 0-.54.262-.54.587 0 .324.242.586.54.586zm-5.312-6.168c.576 0 1.043-.507 1.043-1.133s-.467-1.134-1.043-1.134c-.575 0-1.042.508-1.042 1.134 0 .626.467 1.133 1.042 1.133zm-4.964-7.02c.575 0 1.042-.507 1.042-1.133s-.467-1.134-1.042-1.134c-.576 0-1.043.508-1.043 1.134 0 .626.467 1.133 1.043 1.133zm-4.606-7.303c.576 0 1.042-.507 1.042-1.133s-.466-1.134-1.042-1.134c-.576 0-1.043.508-1.043 1.134 0 .626.467 1.133 1.043 1.133zm-4.231-7.567c.576 0 1.042-.507 1.042-1.133s-.466-1.133-1.042-1.133c-.576 0-1.043.507-1.043 1.133s.467 1.134 1.043 1.134zm-3.846-7.806c.576 0 1.042-.507 1.042-1.133s-.466-1.134-1.042-1.134c-.576 0-1.043.508-1.043 1.134 0 .626.467 1.133 1.043 1.133zm-3.447-8.023c.576 0 1.042-.507 1.042-1.133s-.466-1.134-1.042-1.134c-.576 0-1.043.508-1.043 1.134 0 .626.467 1.133 1.043 1.133zm-3.039-8.216c.575 0 1.042-.508 1.042-1.134 0-.626-.467-1.133-1.042-1.133-.576 0-1.043.507-1.043 1.133 0 .627.467 1.134 1.043 1.134zm-2.623-8.384c.576 0 1.043-.507 1.043-1.133s-.467-1.134-1.043-1.134c-.575 0-1.042.508-1.042 1.134 0 .626.467 1.133 1.042 1.133zm-2.196-9.015c.328 0 .594-.29.594-.645 0-.357-.266-.646-.594-.646-.328 0-.594.29-.594.646 0 .356.266.645.594.645zm296.757-4.912c.01 0 .018-.009.018-.02 0-.01-.008-.02-.018-.02-.01 0-.018.01-.018.02 0 .011.008.02.018.02zM368.525 137.08c.01 0 .018-.009.018-.02 0-.011-.008-.019-.018-.019-.01 0-.018.008-.018.019s.008.02.018.02zm-8.007 1.614c.01 0 .018-.009.018-.019 0-.011-.008-.02-.018-.02-.011 0-.019.009-.019.02 0 .01.008.019.019.019zm-8.075 1.156c.01 0 .018-.009.018-.02 0-.011-.008-.02-.018-.02-.01 0-.018.009-.018.02 0 .011.008.02.018.02zm-8.119.694c.01 0 .018-.008.018-.019s-.008-.02-.018-.02c-.01 0-.018.009-.018.02 0 .011.008.019.018.019zM220.579 85.162c.189 0 .342-.166.342-.371s-.153-.372-.342-.372c-.189 0-.342.167-.342.372s.153.371.342.371zm-5.291-5.972c.576 0 1.043-.508 1.043-1.134 0-.626-.467-1.134-1.043-1.134-.575 0-1.042.508-1.042 1.134 0 .626.467 1.133 1.042 1.133zm-4.958-7.026c.576 0 1.043-.508 1.043-1.134 0-.626-.467-1.133-1.043-1.133-.575 0-1.042.507-1.042 1.133s.467 1.134 1.042 1.134zm-4.612-7.298c.576 0 1.042-.508 1.042-1.134 0-.626-.466-1.133-1.042-1.133-.576 0-1.043.507-1.043 1.133s.467 1.134 1.043 1.134zm-4.256-7.551c.576 0 1.043-.508 1.043-1.134 0-.626-.467-1.134-1.043-1.134-.575 0-1.042.508-1.042 1.134 0 .626.467 1.134 1.042 1.134zm-3.886-7.782c.576 0 1.043-.508 1.043-1.134 0-.626-.467-1.133-1.043-1.133-.576 0-1.042.507-1.042 1.133s.466 1.134 1.042 1.134zm-3.506-7.994c.575 0 1.042-.508 1.042-1.133 0-.627-.467-1.134-1.042-1.134-.576 0-1.043.508-1.043 1.134 0 .626.467 1.133 1.043 1.133zm-3.117-8.182c.576 0 1.042-.507 1.042-1.133s-.466-1.134-1.042-1.134c-.576 0-1.042.508-1.042 1.134 0 .626.466 1.133 1.042 1.133zm-2.719-8.347c.576 0 1.043-.508 1.043-1.134 0-.626-.467-1.133-1.043-1.133-.575 0-1.042.507-1.042 1.133s.467 1.134 1.042 1.134zm-2.313-8.51c.566 0 1.025-.5 1.025-1.114 0-.616-.459-1.114-1.025-1.114-.565 0-1.024.498-1.024 1.114 0 .615.459 1.113 1.024 1.113zm-1.901-9.687c.02 0 .036-.017.036-.039s-.016-.04-.036-.04c-.02 0-.036.018-.036.04 0 .022.016.04.036.04zm310.941.217c.12 0 .217-.106.217-.236s-.097-.235-.217-.235c-.119 0-.216.105-.216.235s.097.235.216.235zM354.47 146.699c.01 0 .018-.009.018-.02 0-.011-.008-.02-.018-.02-.01 0-.019.009-.019.02 0 .011.009.02.019.02zM215.308 89.816c.437 0 .791-.385.791-.86s-.354-.86-.791-.86c-.436 0-.79.385-.79.86s.354.86.79.86zm-5.27-6.479c.576 0 1.042-.508 1.042-1.134 0-.626-.466-1.133-1.042-1.133-.576 0-1.043.507-1.043 1.133s.467 1.134 1.043 1.134zm-4.951-7.031c.575 0 1.042-.507 1.042-1.133s-.467-1.134-1.042-1.134c-.576 0-1.043.508-1.043 1.134 0 .626.467 1.133 1.043 1.133zm-4.62-7.292c.575 0 1.042-.508 1.042-1.134 0-.626-.467-1.133-1.042-1.133-.576 0-1.043.507-1.043 1.133s.467 1.134 1.043 1.134zm-4.277-7.537c.575 0 1.042-.508 1.042-1.134 0-.626-.467-1.134-1.042-1.134-.576 0-1.043.508-1.043 1.134 0 .626.467 1.134 1.043 1.134zm-3.925-7.761c.576 0 1.043-.507 1.043-1.133s-.467-1.134-1.043-1.134c-.575 0-1.042.508-1.042 1.134 0 .626.467 1.133 1.042 1.133zm-3.559-7.964c.576 0 1.043-.508 1.043-1.134 0-.626-.467-1.133-1.043-1.133-.576 0-1.042.507-1.042 1.133 0 .627.466 1.134 1.042 1.134zm-3.188-8.15c.576 0 1.043-.508 1.043-1.133 0-.627-.467-1.134-1.043-1.134-.575 0-1.042.508-1.042 1.133 0 .626.467 1.134 1.042 1.134zm-2.807-8.312c.576 0 1.043-.508 1.043-1.134 0-.626-.467-1.133-1.043-1.133-.575 0-1.042.507-1.042 1.133s.467 1.134 1.042 1.134zm-2.419-8.457c.576 0 1.043-.507 1.043-1.133 0-.627-.467-1.134-1.043-1.134-.575 0-1.042.507-1.042 1.134 0 .626.467 1.133 1.042 1.133zm-2.025-8.832c.447 0 .809-.393.809-.879 0-.485-.362-.879-.809-.879-.447 0-.809.394-.809.88 0 .485.362.878.809.878zm323.3-5.091c.05 0 .09-.044.09-.098 0-.054-.04-.098-.09-.098-.05 0-.091.044-.091.098 0 .054.041.098.091.098zm-1.757 8.96c.209 0 .378-.183.378-.41 0-.227-.169-.41-.378-.41s-.378.183-.378.41c0 .226.169.41.378.41zM215.586 99.644c.02 0 .036-.017.036-.039s-.016-.04-.036-.04c-.02 0-.036.018-.036.04 0 .022.016.04.036.04zm-5.546-5.39c.576 0 1.042-.507 1.042-1.133s-.466-1.134-1.042-1.134c-.576 0-1.043.508-1.043 1.134 0 .626.467 1.133 1.043 1.133zm-5.252-6.769c.576 0 1.042-.507 1.042-1.133s-.466-1.134-1.042-1.134c-.576 0-1.043.508-1.043 1.134 0 .626.467 1.133 1.043 1.133zm-4.945-7.036c.576 0 1.042-.508 1.042-1.134 0-.626-.466-1.133-1.042-1.133-.576 0-1.043.507-1.043 1.133s.467 1.134 1.043 1.134zm-4.626-7.289c.575 0 1.042-.507 1.042-1.133s-.467-1.133-1.042-1.133c-.576 0-1.043.507-1.043 1.133s.467 1.134 1.043 1.134zm-4.298-7.522c.576 0 1.042-.507 1.042-1.133s-.466-1.134-1.042-1.134c-.576 0-1.043.508-1.043 1.134 0 .626.467 1.133 1.043 1.133zm-3.958-7.798c.546 0 .989-.482.989-1.075 0-.594-.443-1.075-.989-1.075s-.988.481-.988 1.075c0 .593.442 1.075.988 1.075zm-3.61-7.88c.576 0 1.043-.508 1.043-1.134 0-.626-.467-1.134-1.043-1.134-.575 0-1.042.508-1.042 1.134 0 .626.467 1.133 1.042 1.133zm-3.252-8.12c.576 0 1.042-.507 1.042-1.133s-.466-1.134-1.042-1.134c-.576 0-1.043.508-1.043 1.134 0 .626.467 1.133 1.043 1.133zm-2.888-8.28c.576 0 1.042-.507 1.042-1.133s-.466-1.133-1.042-1.133c-.576 0-1.043.507-1.043 1.133s.467 1.133 1.043 1.133zm-2.517-8.422c.576 0 1.042-.507 1.042-1.133s-.466-1.134-1.042-1.134c-.576 0-1.043.508-1.043 1.134 0 .626.467 1.133 1.043 1.133zm-2.139-8.584c.556 0 1.006-.49 1.006-1.094 0-.605-.45-1.095-1.006-1.095s-1.007.49-1.007 1.095c0 .604.451 1.094 1.007 1.094zm-1.757-9.624c.06 0 .108-.053.108-.118s-.048-.117-.108-.117-.108.052-.108.117.048.118.108.118zm337.366.719c.418 0 .756-.368.756-.821 0-.454-.338-.822-.756-.822-.417 0-.755.368-.755.822 0 .453.338.82.755.82zm-1.692 8.605c.387 0 .702-.342.702-.763s-.315-.762-.702-.762c-.388 0-.702.34-.702.762 0 .421.314.763.702.763zm-2.063 7.883c.04 0 .072-.035.072-.079 0-.043-.032-.078-.072-.078-.04 0-.072.035-.072.078 0 .044.032.079.072.079zm-294.115 79.971c.159 0 .288-.139.288-.312s-.129-.313-.288-.313c-.159 0-.288.14-.288.313s.129.312.288.312zm-5.521-5.692c.576 0 1.043-.507 1.043-1.133s-.467-1.134-1.043-1.134c-.575 0-1.042.508-1.042 1.134 0 .626.467 1.133 1.042 1.133zm-5.234-6.782c.575 0 1.042-.508 1.042-1.134 0-.626-.467-1.133-1.042-1.133-.576 0-1.043.507-1.043 1.133s.467 1.134 1.043 1.134zm-4.94-7.043c.576 0 1.042-.507 1.042-1.133s-.466-1.134-1.042-1.134c-.576 0-1.043.508-1.043 1.134 0 .626.467 1.133 1.043 1.133zm-4.633-7.283c.576 0 1.043-.507 1.043-1.133s-.467-1.134-1.043-1.134c-.575 0-1.042.508-1.042 1.134 0 .626.467 1.133 1.042 1.133zm-4.315-7.511c.575 0 1.042-.507 1.042-1.133s-.467-1.134-1.042-1.134c-.576 0-1.043.508-1.043 1.134 0 .626.467 1.133 1.043 1.133zm-3.99-7.779c.546 0 .988-.48.988-1.075 0-.593-.442-1.074-.988-1.074s-.989.48-.989 1.075c0 .593.443 1.074.989 1.074zm-3.655-7.874c.566 0 1.024-.499 1.024-1.114 0-.615-.458-1.114-1.024-1.114-.566 0-1.025.499-1.025 1.114 0 .615.459 1.114 1.025 1.114zm-3.313-8.071c.576 0 1.042-.507 1.042-1.133s-.466-1.134-1.042-1.134c-.576 0-1.043.508-1.043 1.134 0 .626.467 1.133 1.043 1.133zm-2.963-8.249c.576 0 1.043-.507 1.043-1.133s-.467-1.134-1.043-1.134c-.576 0-1.042.508-1.042 1.134 0 .626.466 1.133 1.042 1.133zm-2.607-8.39c.576 0 1.043-.507 1.043-1.134 0-.626-.467-1.133-1.043-1.133-.576 0-1.042.507-1.042 1.133 0 .627.466 1.134 1.042 1.134zm-2.245-8.532c.566 0 1.024-.499 1.024-1.114 0-.615-.458-1.114-1.024-1.114-.566 0-1.025.499-1.025 1.114 0 .615.459 1.114 1.025 1.114zM165 11.21c.02 0 .036-.018.036-.04 0-.021-.016-.039-.036-.039-.02 0-.036.018-.036.04 0 .021.016.039.036.039zm349.753-4.348a.02.02 0 00.019-.02.02.02 0 00-.019-.02c-.01 0-.018.01-.018.02 0 .011.008.02.018.02zm-1.633 9.106c.229 0 .414-.201.414-.45 0-.248-.185-.45-.414-.45-.229 0-.414.202-.414.45 0 .249.185.45.414.45zm-1.99 9.134c.506 0 .916-.446.916-.996s-.41-.997-.916-.997-.917.446-.917.997c0 .55.411.996.917.996zm-306.125 83.31c.219 0 .396-.192.396-.43 0-.237-.177-.43-.396-.43-.219 0-.396.193-.396.43 0 .238.177.43.396.43zm-5.496-5.833c.576 0 1.042-.508 1.042-1.134 0-.626-.466-1.133-1.042-1.133-.576 0-1.043.507-1.043 1.133s.467 1.134 1.043 1.134zm-5.22-6.798c.576 0 1.043-.507 1.043-1.133s-.467-1.134-1.043-1.134c-.575 0-1.042.508-1.042 1.134 0 .626.467 1.133 1.042 1.133zm-4.934-7.048c.576 0 1.043-.507 1.043-1.133s-.467-1.134-1.043-1.134c-.576 0-1.042.508-1.042 1.134 0 .626.466 1.133 1.042 1.133zm-4.638-7.278c.576 0 1.042-.508 1.042-1.134 0-.626-.466-1.133-1.042-1.133-.576 0-1.043.507-1.043 1.133s.467 1.134 1.043 1.134zm-4.333-7.499c.576 0 1.043-.508 1.043-1.133 0-.626-.467-1.134-1.043-1.134-.576 0-1.042.508-1.042 1.134 0 .626.466 1.133 1.042 1.133zm-4.019-7.761c.546 0 .988-.481.988-1.075 0-.593-.442-1.075-.988-1.075s-.989.482-.989 1.075c0 .594.443 1.075.989 1.075zm-3.698-7.832c.576 0 1.043-.508 1.043-1.134 0-.626-.467-1.133-1.043-1.133-.575 0-1.042.507-1.042 1.133s.467 1.134 1.042 1.134zm-3.368-8.063c.576 0 1.042-.508 1.042-1.134 0-.626-.466-1.133-1.042-1.133-.576 0-1.043.507-1.043 1.133s.467 1.134 1.043 1.134zm-3.032-8.22c.575 0 1.042-.507 1.042-1.133 0-.627-.467-1.134-1.042-1.134-.576 0-1.043.508-1.043 1.134 0 .626.467 1.133 1.043 1.133zm-2.69-8.417c.546 0 .988-.481.988-1.075s-.442-1.075-.988-1.075-.989.481-.989 1.075.443 1.075.989 1.075zm-2.342-9.38c.09 0 .162-.08.162-.177 0-.097-.072-.176-.162-.176-.09 0-.163.08-.163.177 0 .097.073.176.163.176zm-1.989-8.315c.229 0 .414-.201.414-.45 0-.248-.185-.45-.414-.45-.229 0-.414.202-.414.45 0 .249.185.45.414.45zm358.59 8.533c.179 0 .324-.157.324-.351 0-.195-.145-.352-.324-.352-.179 0-.324.157-.324.352 0 .194.145.351.324.351zm-2.265 8.293c.07 0 .126-.062.126-.137 0-.076-.056-.137-.126-.137s-.126.061-.126.137c0 .075.056.137.126.137zm-315.854 80.27c.457 0 .827-.402.827-.898 0-.497-.37-.899-.827-.899-.457 0-.827.402-.827.899 0 .496.37.898.827.898zm-5.472-6.325c.576 0 1.043-.508 1.043-1.134 0-.626-.467-1.133-1.043-1.133-.576 0-1.042.507-1.042 1.133s.466 1.134 1.042 1.134zm-5.205-6.812c.576 0 1.043-.507 1.043-1.133s-.467-1.134-1.043-1.134c-.576 0-1.042.508-1.042 1.134 0 .626.466 1.133 1.042 1.133zm-4.929-7.05c.576 0 1.043-.507 1.043-1.133s-.467-1.134-1.043-1.134c-.575 0-1.042.508-1.042 1.134 0 .626.467 1.133 1.042 1.133zm-4.643-7.276c.576 0 1.042-.507 1.042-1.133 0-.627-.466-1.134-1.042-1.134-.576 0-1.043.507-1.043 1.133 0 .627.467 1.134 1.043 1.134zm-4.348-7.956c.338 0 .612-.297.612-.664 0-.367-.274-.665-.612-.665-.338 0-.612.297-.612.665 0 .367.274.664.612.664zm-4.048-7.295c.536 0 .971-.473.971-1.056 0-.583-.435-1.055-.971-1.055s-.97.472-.97 1.055.434 1.055.97 1.055zm-3.737-7.79c.576 0 1.043-.508 1.043-1.135 0-.625-.467-1.133-1.043-1.133-.575 0-1.042.508-1.042 1.133 0 .627.467 1.134 1.042 1.134zm-3.42-8.038c.576 0 1.043-.508 1.043-1.134 0-.626-.467-1.133-1.043-1.133-.575 0-1.042.507-1.042 1.133 0 .627.467 1.134 1.042 1.134zm-3.096-8.192c.576 0 1.043-.507 1.043-1.133s-.467-1.134-1.043-1.134c-.575 0-1.042.508-1.042 1.134 0 .626.467 1.134 1.042 1.134zm-2.767-8.66c.408 0 .738-.36.738-.802 0-.443-.33-.802-.738-.802-.407 0-.737.36-.737.802 0 .443.33.802.737.802zm-4.525-17.382c.218 0 .396-.193.396-.43 0-.238-.178-.43-.396-.43-.219 0-.397.192-.397.43 0 .237.178.43.397.43zm-1.751-8.433c.328 0 .594-.29.594-.646 0-.356-.266-.644-.594-.644-.329 0-.595.288-.595.645 0 .356.266.645.595.645zm-1.405-8.607c.388 0 .702-.342.702-.763 0-.42-.314-.762-.702-.762-.388 0-.702.341-.702.762s.314.763.702.763zm376.014 12.906c.299 0 .541-.263.541-.587 0-.324-.242-.587-.541-.587-.298 0-.54.263-.54.587 0 .324.242.587.54.587zm-1.86 8.055c.01 0 .018-.01.018-.02 0-.011-.008-.02-.018-.02a.02.02 0 00-.019.02c0 .01.009.02.019.02zm-2.19 8.921c.209 0 .378-.185.378-.411 0-.227-.169-.41-.378-.41s-.378.183-.378.41c0 .226.169.41.378.41zM307.776 180.796c.01 0 .018-.008.018-.019s-.008-.02-.018-.02c-.01 0-.018.009-.018.02 0 .011.008.019.018.019zm-8.03-1.477c.01 0 .018-.009.018-.02 0-.011-.008-.02-.018-.02-.01 0-.018.009-.018.02 0 .011.008.02.018.02zm-105.313-62.036c.477 0 .863-.42.863-.938s-.386-.938-.863-.938c-.476 0-.862.42-.862.938s.386.938.862.938zm-5.45-6.385c.576 0 1.043-.508 1.043-1.134 0-.626-.467-1.133-1.043-1.133-.576 0-1.042.507-1.042 1.133s.466 1.134 1.042 1.134zm-5.191-6.824c.575 0 1.042-.508 1.042-1.134 0-.626-.467-1.133-1.042-1.133-.576 0-1.043.507-1.043 1.133s.467 1.134 1.043 1.134zm-4.925-7.054c.576 0 1.043-.507 1.043-1.133 0-.627-.467-1.134-1.043-1.134-.575 0-1.042.507-1.042 1.133 0 .627.467 1.134 1.042 1.134zm-4.646-7.818c.298 0 .54-.263.54-.587 0-.324-.242-.587-.54-.587-.299 0-.541.263-.541.587 0 .324.242.587.541.587zm-4.366-8.045c.01 0 .018-.01.018-.02s-.008-.02-.018-.02c-.01 0-.018.01-.018.02s.008.02.018.02zm-4.072-7.592c.05 0 .091-.044.091-.098 0-.054-.041-.098-.091-.098-.049 0-.09.044-.09.098 0 .054.041.098.09.098zm-3.773-7.615c.17 0 .307-.148.307-.331 0-.184-.137-.332-.307-.332-.169 0-.306.148-.306.332 0 .183.137.332.306.332zm-3.467-7.954c.198 0 .36-.175.36-.39 0-.217-.162-.392-.36-.392-.199 0-.361.175-.361.391 0 .216.162.391.361.391zm-3.156-8.026c.268 0 .486-.236.486-.528 0-.291-.218-.528-.486-.528-.269 0-.487.236-.487.528 0 .292.218.528.487.528zm-2.84-8.81a.02.02 0 00.019-.02.02.02 0 00-.019-.019c-.01 0-.018.009-.018.02 0 .01.008.02.018.02zm-6.567-25.437c.08 0 .145-.07.145-.157 0-.086-.065-.156-.145-.156-.079 0-.144.07-.144.156 0 .087.065.157.144.157zm-1.526-7.938c.467 0 .845-.411.845-.918 0-.507-.378-.918-.845-.918-.466 0-.845.41-.845.918 0 .507.379.918.845.918zm390.026-.418c.249 0 .45-.219.45-.489s-.201-.488-.45-.488c-.248 0-.45.219-.45.488 0 .27.202.49.45.49zm-1.478 9.353c.576 0 1.042-.507 1.042-1.133s-.466-1.134-1.042-1.134c-.576 0-1.043.508-1.043 1.134 0 .626.467 1.133 1.043 1.133zm-1.799 7.993c.248 0 .45-.22.45-.49s-.202-.488-.45-.488c-.249 0-.451.219-.451.489s.202.489.451.489zm-2.123 8.531c.239 0 .433-.21.433-.47 0-.259-.194-.469-.433-.469-.238 0-.432.21-.432.47 0 .259.194.469.432.469zM501.1 96.44a.02.02 0 00.019-.02.02.02 0 00-.019-.02c-.01 0-.018.01-.018.02 0 .011.008.02.018.02zm-4.786 7.165c.01 0 .018-.009.018-.02 0-.011-.008-.02-.018-.02-.01 0-.018.009-.018.02 0 .011.008.02.018.02zm-5.051 6.948c.01 0 .019-.009.019-.02 0-.011-.009-.02-.019-.02s-.018.009-.018.02c0 .011.008.02.018.02zm-48.794 46.49c.01 0 .018-.009.018-.02 0-.011-.008-.02-.018-.02-.01 0-.018.009-.018.02 0 .011.008.02.018.02zm-132.682 31.176c.01 0 .018-.009.018-.02 0-.011-.008-.02-.018-.02-.01 0-.018.009-.018.02 0 .011.008.02.018.02zm-8.051-1.341c.01 0 .019-.009.019-.02 0-.011-.009-.02-.019-.02s-.018.009-.018.02c0 .011.008.02.018.02zm-7.994-1.694c.01 0 .019-.009.019-.02 0-.011-.009-.02-.019-.02s-.018.009-.018.02c0 .011.008.02.018.02zm-74.012-35.506c.01 0 .018-.009.018-.02 0-.011-.008-.02-.018-.02-.01 0-.018.009-.018.02 0 .011.008.02.018.02zm-30.578-28.119c.526 0 .952-.464.952-1.036 0-.572-.426-1.036-.952-1.036s-.953.464-.953 1.036c0 .572.427 1.036.953 1.036zm-5.43-6.504c.576 0 1.043-.508 1.043-1.134 0-.626-.467-1.133-1.043-1.133-.575 0-1.042.507-1.042 1.133s.467 1.134 1.042 1.134zm-5.179-6.835c.576 0 1.043-.508 1.043-1.134 0-.626-.467-1.133-1.043-1.133-.576 0-1.042.507-1.042 1.133s.466 1.134 1.042 1.134zm-4.919-7.468c.368 0 .667-.323.667-.723 0-.4-.299-.723-.667-.723-.368 0-.666.324-.666.723 0 .4.298.723.666.723zm-9.031-15.44c.011 0 .019-.009.019-.02 0-.01-.008-.02-.019-.02-.01 0-.018.01-.018.02 0 .011.008.02.018.02zM137.268 3.556c.536 0 .971-.473.971-1.055 0-.583-.435-1.056-.971-1.056s-.97.473-.97 1.056c0 .582.434 1.055.97 1.055zm403.776 3.86c.268 0 .486-.236.486-.528 0-.292-.218-.528-.486-.528-.269 0-.487.236-.487.528 0 .292.218.528.487.528zm-1.433 9.206c.517 0 .935-.455.935-1.017 0-.56-.418-1.016-.935-1.016-.516 0-.934.455-.934 1.016 0 .562.418 1.017.934 1.017zm-1.744 8.241c.309 0 .559-.272.559-.607 0-.335-.25-.606-.559-.606-.308 0-.558.271-.558.606 0 .335.25.607.558.607zm-2.057 8.177c.11 0 .199-.096.199-.215s-.089-.215-.199-.215c-.109 0-.198.096-.198.215 0 .12.089.216.198.216zm-18.659 48.786c.01 0 .018-.009.018-.02 0-.01-.008-.02-.018-.02a.02.02 0 00-.019.02c0 .011.009.02.019.02zm-4.119 7.641c.01 0 .018-.009.018-.02 0-.01-.008-.02-.018-.02-.01 0-.018.01-.018.02 0 .011.008.02.018.02zm-4.39 7.458c.01 0 .018-.008.018-.02 0-.01-.008-.02-.018-.02-.01 0-.018.01-.018.02 0 .011.008.02.018.02zm-4.657 7.266c.01 0 .018-.008.018-.019s-.008-.02-.018-.02c-.01 0-.018.009-.018.02 0 .011.008.019.018.019zm-4.916 7.061c.01 0 .018-.008.018-.019s-.008-.02-.018-.02c-.01 0-.019.009-.019.02 0 .011.009.019.019.019zm-5.167 6.847c.01 0 .018-.009.018-.02 0-.011-.008-.019-.018-.019-.01 0-.018.008-.018.019s.008.02.018.02zm-42.487 41.052c.011 0 .019-.009.019-.02 0-.011-.008-.02-.019-.02-.01 0-.018.009-.018.02 0 .011.008.02.018.02zm-6.859 4.774a.019.019 0 00.019-.019c0-.011-.008-.02-.019-.02-.01 0-.018.009-.018.02 0 .01.008.019.018.019zm-7.027 4.478c.01 0 .018-.008.018-.019s-.008-.02-.018-.02c-.01 0-.018.009-.018.02 0 .011.008.019.018.019zm-7.183 4.176c.01 0 .018-.009.018-.02 0-.011-.008-.02-.018-.02-.01 0-.018.009-.018.02 0 .011.008.02.018.02zm-7.328 3.864c.01 0 .018-.008.018-.019s-.008-.02-.018-.02c-.01 0-.018.009-.018.02 0 .011.008.019.018.019zm-111.215 19.154c.01 0 .018-.009.018-.02 0-.011-.008-.019-.018-.019-.01 0-.018.008-.018.019s.008.02.018.02zm-8.068-1.214c.01 0 .018-.009.018-.019 0-.011-.008-.02-.018-.02-.01 0-.018.009-.018.02 0 .01.008.019.018.019zm-8.017-1.556c.01 0 .018-.009.018-.02 0-.011-.008-.02-.018-.02-.011 0-.019.009-.019.02 0 .011.008.02.019.02zm-74.769-33.676c.01 0 .018-.009.018-.02 0-.011-.008-.02-.018-.02-.01 0-.018.009-.018.02 0 .011.008.02.018.02zm-6.682-5.064c.01 0 .018-.008.018-.019s-.008-.02-.018-.02c-.01 0-.019.009-.019.02 0 .011.009.019.019.019zm-6.494-5.346c.01 0 .019-.009.019-.02a.02.02 0 00-.019-.019c-.01 0-.018.009-.018.019 0 .011.008.02.018.02zm-6.296-5.617c.01 0 .018-.009.018-.02 0-.011-.008-.02-.018-.02-.01 0-.018.009-.018.02 0 .011.008.02.018.02zm-11.959-12.003c.02 0 .036-.017.036-.039s-.016-.039-.036-.039c-.02 0-.036.017-.036.039s.016.039.036.039zm-5.645-5.308c.565 0 1.024-.499 1.024-1.114 0-.615-.459-1.114-1.024-1.114-.566 0-1.025.499-1.025 1.114 0 .615.459 1.114 1.025 1.114zm-5.411-6.601c.576 0 1.043-.508 1.043-1.134 0-.626-.467-1.133-1.043-1.133-.576 0-1.042.507-1.042 1.133s.466 1.134 1.042 1.134zm-5.166-7.081c.457 0 .827-.402.827-.898 0-.497-.37-.899-.827-.899-.457 0-.827.402-.827.899 0 .496.37.898.827.898zm-13.964-22.664a.02.02 0 00.019-.02.02.02 0 00-.019-.02c-.01 0-.018.01-.018.02 0 .011.008.02.018.02zm-4.118-7.641c.01 0 .018-.009.018-.02 0-.01-.008-.02-.018-.02-.01 0-.018.01-.018.02 0 .011.008.02.018.02zm391-66.046c.079 0 .144-.07.144-.157s-.065-.157-.144-.157c-.08 0-.145.07-.145.157 0 .086.065.156.145.156zm-1.694 8.74c.12 0 .217-.105.217-.235s-.097-.235-.217-.235-.217.106-.217.235c0 .13.097.235.217.235zm-12.934 41.706c.01 0 .018-.009.018-.02 0-.01-.008-.02-.018-.02-.01 0-.018.01-.018.02 0 .011.008.02.018.02zm-3.453 8.02c.01 0 .018-.01.018-.02 0-.011-.008-.02-.018-.02-.01 0-.018.009-.018.02 0 .01.008.02.018.02zm-3.733 7.872a.02.02 0 00.019-.02.02.02 0 00-.019-.02c-.01 0-.018.01-.018.02 0 .011.008.02.018.02zm-4.005 7.711c.01 0 .018-.01.018-.02 0-.011-.008-.02-.018-.02-.01 0-.018.009-.018.02 0 .01.008.02.018.02zm-4.271 7.541c.01 0 .018-.01.018-.02 0-.012-.008-.02-.018-.02a.02.02 0 00-.019.02c0 .01.009.02.019.02zm-4.534 7.357c.01 0 .018-.009.018-.02 0-.011-.008-.019-.018-.019-.01 0-.018.008-.018.019s.008.02.018.02zm-4.786 7.165c.01 0 .018-.009.018-.02 0-.011-.008-.02-.018-.02-.011 0-.019.009-.019.02 0 .011.008.02.019.02zm-5.036 6.961c.01 0 .019-.009.019-.02 0-.011-.009-.02-.019-.02s-.018.009-.018.02c0 .011.008.02.018.02zm-41.513 42.229c.01 0 .018-.009.018-.02 0-.011-.008-.02-.018-.02-.01 0-.018.009-.018.02 0 .011.008.02.018.02zm-6.724 4.999c.01 0 .018-.009.018-.02 0-.011-.008-.02-.018-.02-.01 0-.018.009-.018.02 0 .011.008.02.018.02zm-6.893 4.717c.01 0 .018-.009.018-.02 0-.011-.008-.02-.018-.02-.01 0-.018.009-.018.02 0 .011.008.02.018.02zm-7.054 4.428c.01 0 .019-.009.019-.02 0-.011-.009-.02-.019-.02s-.018.009-.018.02c0 .011.008.02.018.02zm-7.203 4.132c.01 0 .018-.009.018-.02 0-.011-.008-.02-.018-.02-.01 0-.018.009-.018.02 0 .011.008.02.018.02zm-7.343 3.832a.018.018 0 00.019-.019c0-.011-.008-.02-.019-.02-.01 0-.018.009-.018.02 0 .011.008.019.018.019zm-7.471 3.525c.01 0 .018-.008.018-.019s-.008-.02-.018-.02c-.01 0-.019.009-.019.02 0 .011.009.019.019.019zm-119.863 13.699c.01 0 .018-.009.018-.02 0-.011-.008-.019-.018-.019a.018.018 0 00-.019.019c0 .011.008.02.019.02zm-7.983-1.759c.01 0 .018-.009.018-.02 0-.011-.008-.02-.018-.02-.01 0-.018.009-.018.02 0 .011.008.02.018.02zm-7.915-2.088c.01 0 .018-.008.018-.019s-.008-.02-.018-.02c-.01 0-.018.009-.018.02 0 .011.008.019.018.019zm-66.356-32.951c.01 0 .018-.009.018-.02 0-.01-.008-.019-.018-.019a.019.019 0 00-.019.019c0 .011.008.02.019.02zm-6.634-5.137c.01 0 .018-.009.018-.02 0-.011-.008-.02-.018-.02-.01 0-.019.009-.019.02 0 .011.009.02.019.02zm-12.706-11.001c.05 0 .09-.044.09-.098 0-.054-.04-.098-.09-.098-.05 0-.091.044-.091.098 0 .054.041.098.091.098zm-11.893-11.571c.319 0 .577-.28.577-.625 0-.346-.258-.626-.577-.626-.318 0-.576.28-.576.626 0 .345.258.625.576.625zm-5.621-5.902c.575 0 1.042-.507 1.042-1.133s-.467-1.134-1.042-1.134c-.576 0-1.043.508-1.043 1.134 0 .626.467 1.133 1.043 1.133zm-5.392-6.656c.566 0 1.024-.499 1.024-1.114 0-.616-.458-1.114-1.024-1.114-.566 0-1.025.498-1.025 1.114 0 .615.459 1.114 1.025 1.114zm-5.155-7.813c.079 0 .144-.071.144-.157 0-.087-.065-.157-.144-.157-.08 0-.145.07-.145.157 0 .086.065.157.145.157zm-13.977-21.915a.02.02 0 00.019-.02.02.02 0 00-.019-.02c-.01 0-.018.01-.018.02 0 .011.008.02.018.02zm-4.139-7.627c.01 0 .018-.009.018-.02 0-.01-.008-.02-.018-.02-.01 0-.018.01-.018.02 0 .011.008.02.018.02zm-25.75-83.09c.199 0 .36-.175.36-.39 0-.216-.161-.391-.36-.391-.199 0-.36.175-.36.39 0 .216.161.391.36.391zm429.974 4.058c.03 0 .054-.026.054-.058 0-.033-.024-.06-.054-.06s-.054.027-.054.06c0 .032.024.058.054.058zm-1.348 9.028c.179 0 .324-.158.324-.352 0-.194-.145-.352-.324-.352-.179 0-.324.158-.324.352 0 .194.145.352.324.352zm-1.645 8.87c.279 0 .505-.246.505-.548 0-.303-.226-.548-.505-.548-.278 0-.504.245-.504.548 0 .302.226.547.504.547zm-1.938 8.112c.03 0 .054-.026.054-.059 0-.032-.024-.058-.054-.058s-.054.026-.054.058c0 .033.024.059.054.059zm-2.229 8.479a.02.02 0 00.019-.02.02.02 0 00-.019-.02c-.01 0-.018.01-.018.02 0 .011.008.02.018.02zm-5.318 16.779c.03 0 .054-.027.054-.06 0-.032-.024-.058-.054-.058s-.054.026-.054.059c0 .032.024.058.054.058zm-3.082 9.036c.457 0 .827-.402.827-.899 0-.496-.37-.898-.827-.898-.456 0-.826.402-.826.898 0 .497.37.899.826.899zm-3.358 7.621c.229 0 .414-.202.414-.45s-.185-.45-.414-.45c-.229 0-.414.202-.414.45s.185.45.414.45zM527.71 90.16a.02.02 0 00.019-.02.02.02 0 00-.019-.02c-.01 0-.018.01-.018.02 0 .011.008.02.018.02zm-4.159 7.615a.02.02 0 00.019-.02.02.02 0 00-.019-.02c-.01 0-.018.01-.018.02 0 .012.008.02.018.02zm-4.414 7.442c.01 0 .018-.009.018-.02 0-.011-.008-.02-.018-.02-.01 0-.019.009-.019.02 0 .011.009.02.019.02zm-4.665 7.26c.01 0 .018-.009.018-.02 0-.011-.008-.019-.018-.019a.019.019 0 00-.019.019c0 .011.009.02.019.02zm-58.833 60.521c.01 0 .019-.009.019-.02 0-.011-.009-.02-.019-.02s-.018.009-.018.02c0 .011.008.02.018.02zm-6.924 4.662c.01 0 .018-.009.018-.02 0-.011-.008-.02-.018-.02-.01 0-.018.009-.018.02 0 .011.008.02.018.02zm-7.079 4.381c.01 0 .018-.009.018-.02 0-.011-.008-.02-.018-.02-.01 0-.018.009-.018.02 0 .011.008.02.018.02zm-7.223 4.093a.02.02 0 00.019-.019c0-.011-.009-.02-.019-.02s-.018.009-.018.02c0 .01.008.019.018.019zm-7.356 3.801c.01 0 .018-.009.018-.02 0-.011-.008-.02-.018-.02-.01 0-.018.009-.018.02 0 .011.008.02.018.02zm-7.481 3.502c.01 0 .018-.009.018-.02 0-.011-.008-.02-.018-.02-.01 0-.018.009-.018.02 0 .011.008.02.018.02zm-7.595 3.199c.01 0 .019-.009.019-.02 0-.011-.009-.02-.019-.02s-.018.009-.018.02c0 .011.008.02.018.02zm-7.699 2.892c.01 0 .019-.009.019-.02 0-.011-.009-.02-.019-.02s-.018.009-.018.02c0 .011.008.02.018.02zm-104.584 8.421c.01 0 .018-.009.018-.02 0-.01-.008-.019-.018-.019a.019.019 0 00-.019.019c0 .011.008.02.019.02zm-8.006-1.627c.01 0 .018-.009.018-.019 0-.011-.008-.02-.018-.02-.01 0-.019.009-.019.02 0 .01.009.019.019.019zm-15.819-4.214c.01 0 .018-.008.018-.019s-.008-.02-.018-.02c-.01 0-.019.009-.019.02 0 .011.009.019.019.019zm-65.909-34.048c.01 0 .018-.009.018-.02 0-.011-.008-.019-.018-.019a.018.018 0 00-.019.019c0 .011.008.02.019.02zm-6.589-5.205c.01 0 .018-.009.018-.02 0-.011-.008-.02-.018-.02-.01 0-.019.009-.019.02 0 .011.009.02.019.02zm-18.645-17.154c.01 0 .018-.009.018-.02 0-.011-.008-.019-.018-.019-.01 0-.018.008-.018.019s.008.02.018.02zm-5.812-5.09c.575 0 1.042-.508 1.042-1.134 0-.626-.467-1.133-1.042-1.133-.576 0-1.043.507-1.043 1.133s.467 1.134 1.043 1.134zm-5.597-6.492c.546 0 .988-.481.988-1.075s-.442-1.075-.988-1.075-.989.481-.989 1.075.443 1.075.989 1.075zm-5.375-7.436c.15 0 .27-.132.27-.293 0-.162-.12-.293-.27-.293-.149 0-.27.131-.27.293 0 .161.121.293.27.293zm-14.718-21.466c.01 0 .018-.009.018-.02 0-.011-.008-.02-.018-.02-.01 0-.018.009-.018.02 0 .011.008.02.018.02zm-4.415-7.442c.01 0 .018-.008.018-.02 0-.01-.008-.02-.018-.02-.01 0-.018.01-.018.02 0 .012.008.02.018.02zm-4.159-7.615c.01 0 .018-.009.018-.02 0-.01-.008-.02-.018-.02-.01 0-.018.01-.018.02 0 .011.008.02.018.02zm414.742-74.43c.04 0 .072-.035.072-.078s-.032-.078-.072-.078c-.04 0-.072.035-.072.078s.032.079.072.079zm-3.481 17.242c.01 0 .018-.009.018-.02 0-.01-.008-.02-.018-.02-.01 0-.018.01-.018.02 0 .011.008.02.018.02zm-4.614 16.984c.011 0 .019-.01.019-.02 0-.011-.008-.02-.019-.02-.01 0-.018.009-.018.02 0 .01.008.02.018.02zm-2.724 8.638c.159 0 .288-.14.288-.312 0-.173-.129-.313-.288-.313-.159 0-.288.14-.288.313 0 .172.129.312.288.312zm-2.999 9.016c.556 0 1.007-.49 1.007-1.094 0-.604-.451-1.094-1.007-1.094-.556 0-1.006.49-1.006 1.094 0 .605.45 1.095 1.006 1.095zm-3.269 8.133c.566 0 1.025-.5 1.025-1.114 0-.616-.459-1.114-1.025-1.114-.565 0-1.024.498-1.024 1.114 0 .615.459 1.114 1.024 1.114zm-3.532 7.589c.368 0 .666-.324.666-.724 0-.4-.298-.723-.666-.723-.368 0-.666.324-.666.723 0 .4.298.724.666.724zm-3.796 7.19c.04 0 .072-.035.072-.078 0-.044-.032-.079-.072-.079-.04 0-.072.035-.072.079 0 .043.032.078.072.078zm-98.537 102.384c.01 0 .018-.009.018-.02 0-.011-.008-.02-.018-.02-.011 0-.019.009-.019.02 0 .011.008.02.019.02zm-7.37 3.771c.01 0 .019-.009.019-.02 0-.011-.009-.02-.019-.02s-.018.009-.018.02c0 .011.008.02.018.02zm-7.489 3.48c.01 0 .018-.009.018-.02 0-.01-.008-.019-.018-.019-.01 0-.018.009-.018.019 0 .011.008.02.018.02zm-15.299 6.074c.01 0 .018-.009.018-.02 0-.011-.008-.02-.018-.02-.01 0-.019.009-.019.02 0 .011.009.02.019.02zm-7.79 2.585c.01 0 .018-.009.018-.02 0-.011-.008-.02-.018-.02-.01 0-.018.009-.018.02 0 .011.008.02.018.02zm-112.795 3.303c.011 0 .019-.009.019-.02a.018.018 0 00-.019-.019c-.01 0-.018.008-.018.019s.008.02.018.02zm-7.906-2.125c.01 0 .018-.009.018-.02 0-.011-.008-.019-.018-.019a.019.019 0 00-.019.019c0 .011.009.02.019.02zm-7.832-2.432c.01 0 .019-.009.019-.02 0-.011-.009-.02-.019-.02s-.018.009-.018.02c0 .011.008.02.018.02zm-65.473-35.076c.01 0 .018-.009.018-.019 0-.011-.008-.02-.018-.02-.01 0-.018.009-.018.02 0 .01.008.019.018.019zm-6.546-5.27a.019.019 0 00.019-.019c0-.011-.008-.02-.019-.02-.01 0-.018.009-.018.02 0 .01.008.019.018.019zm-12.549-11.151c.08 0 .145-.07.145-.157 0-.086-.065-.157-.145-.157-.079 0-.144.071-.144.157 0 .087.065.157.144.157zm-5.986-5.574c.298 0 .54-.263.54-.587 0-.324-.242-.587-.54-.587-.299 0-.541.263-.541.587 0 .324.242.587.541.587zm-5.786-5.688c.575 0 1.042-.507 1.042-1.133s-.467-1.134-1.042-1.134c-.576 0-1.043.508-1.043 1.134 0 .626.467 1.133 1.043 1.133zm-5.574-7.042c.278 0 .504-.245.504-.548 0-.302-.226-.547-.504-.547-.279 0-.505.245-.505.547 0 .303.226.548.505.548zm-20.069-28.399a.02.02 0 00.019-.019c0-.011-.009-.02-.019-.02s-.018.009-.018.02c0 .01.008.019.018.019zm-4.425-7.435c.01 0 .018-.009.018-.019 0-.011-.008-.02-.018-.02-.01 0-.019.009-.019.02 0 .01.009.019.019.019zm-4.177-7.602c.01 0 .018-.009.018-.02 0-.01-.008-.02-.018-.02a.02.02 0 00-.019.02c0 .011.009.02.019.02zm426.601-78.64c.01 0 .018-.01.018-.02 0-.011-.008-.02-.018-.02-.01 0-.018.009-.018.02 0 .01.008.02.018.02zm-1.554 8.811c.07 0 .126-.061.126-.137 0-.076-.056-.137-.126-.137s-.126.061-.126.137c0 .076.056.137.126.137zm-1.832 8.55c.029 0 .054-.026.054-.059 0-.032-.025-.058-.054-.058a.057.057 0 00-.055.058c0 .033.025.06.055.06zm-2.108 8.516c.01 0 .018-.009.018-.02 0-.01-.008-.02-.018-.02-.011 0-.019.01-.019.02 0 .011.008.02.019.02zm-2.381 8.919c.239 0 .432-.21.432-.47 0-.259-.193-.469-.432-.469s-.432.21-.432.47c0 .259.193.469.432.469zm-2.653 8.939c.526 0 .953-.463.953-1.035 0-.572-.427-1.035-.953-1.035s-.952.463-.952 1.035c0 .572.426 1.036.952 1.036zm-2.919 8.308c.546 0 .989-.481.989-1.075 0-.593-.443-1.074-.989-1.074-.545 0-.988.48-.988 1.074 0 .594.443 1.075.988 1.075zm-3.182 8.211c.576 0 1.043-.507 1.043-1.134 0-.626-.467-1.133-1.043-1.133-.575 0-1.042.507-1.042 1.133s.467 1.134 1.042 1.134zm-3.442 8.027c.575 0 1.042-.508 1.042-1.134 0-.626-.467-1.133-1.042-1.133-.576 0-1.043.507-1.043 1.133s.467 1.134 1.043 1.134zm-3.698 7.793c.527 0 .953-.464.953-1.036 0-.572-.426-1.035-.953-1.035-.526 0-.952.463-.952 1.035 0 .572.426 1.036.952 1.036zM423.594 206.877c.01 0 .018-.009.018-.02 0-.011-.008-.02-.018-.02-.01 0-.019.009-.019.02 0 .011.009.02.019.02zm-7.604 3.173c.01 0 .018-.009.018-.019 0-.011-.008-.02-.018-.02-.01 0-.018.009-.018.02 0 .01.008.019.018.019zm-7.701 2.884c.01 0 .018-.009.018-.02 0-.011-.008-.02-.018-.02-.01 0-.018.009-.018.02 0 .011.008.02.018.02zm-136.424 2.589c.01 0 .018-.009.018-.02 0-.011-.008-.02-.018-.02-.01 0-.018.009-.018.02 0 .011.008.02.018.02zm-72.838-38.628c.01 0 .019-.009.019-.02 0-.011-.009-.02-.019-.02s-.018.009-.018.02c0 .011.008.02.018.02zm-6.504-5.331c.01 0 .018-.008.018-.019s-.008-.02-.018-.02c-.01 0-.018.009-.018.02 0 .011.008.019.018.019zm-12.477-11.344c.03 0 .054-.026.054-.059 0-.032-.024-.058-.054-.058s-.054.026-.054.058c0 .033.024.059.054.059zm-5.955-5.57c.269 0 .486-.237.486-.528 0-.292-.217-.528-.486-.528s-.486.236-.486.528c0 .291.217.528.486.528zm-5.76-6.204c.299 0 .541-.263.541-.587 0-.324-.242-.587-.541-.587-.298 0-.54.263-.54.587 0 .324.242.587.54.587zm-25.598-34.939c.01 0 .018-.009.018-.019 0-.011-.008-.02-.018-.02-.01 0-.018.009-.018.02 0 .01.008.019.018.019zm-4.435-7.427c.01 0 .018-.009.018-.02 0-.011-.008-.019-.018-.019a.018.018 0 00-.019.019c0 .011.008.02.019.02zm-4.196-7.59a.02.02 0 00.019-.02.02.02 0 00-.019-.02c-.01 0-.018.009-.018.02 0 .01.008.02.018.02zm438.454-82.402c.209 0 .378-.184.378-.41 0-.227-.169-.41-.378-.41s-.378.183-.378.41c0 .226.169.41.378.41zm-1.512 8.409c.059 0 .108-.053.108-.118s-.049-.117-.108-.117c-.06 0-.109.052-.109.117s.049.118.109.118zm-3.837 17.133c.02 0 .036-.017.036-.039s-.016-.04-.036-.04c-.02 0-.036.018-.036.04 0 .022.016.04.036.04zm-2.318 9.428c.496 0 .898-.438.898-.977 0-.54-.402-.977-.898-.977-.497 0-.899.437-.899.977s.402.977.899.977zm-2.583 8.555c.576 0 1.043-.508 1.043-1.134 0-.626-.467-1.133-1.043-1.133-.575 0-1.042.507-1.042 1.133s.467 1.134 1.042 1.134zm-2.843 8.3c.575 0 1.042-.508 1.042-1.134 0-.626-.467-1.133-1.042-1.133-.576 0-1.043.507-1.043 1.133s.467 1.134 1.043 1.134zm-3.101 8.19c.576 0 1.043-.508 1.043-1.134 0-.626-.467-1.134-1.043-1.134-.576 0-1.042.508-1.042 1.134 0 .626.466 1.134 1.042 1.134zm-3.355 8.069c.576 0 1.043-.507 1.043-1.133s-.467-1.134-1.043-1.134c-.576 0-1.042.508-1.042 1.134 0 .626.466 1.133 1.042 1.133zm-3.604 7.492c.348 0 .631-.306.631-.684 0-.378-.283-.684-.631-.684-.348 0-.63.306-.63.684 0 .378.282.684.63.684zm-355.827 89.624c.01 0 .018-.009.018-.02 0-.011-.008-.02-.018-.02-.01 0-.019.009-.019.02 0 .011.009.02.019.02zm-6.466-5.387c.01 0 .018-.009.018-.02 0-.011-.008-.02-.018-.02-.01 0-.018.009-.018.02 0 .011.008.02.018.02zm-49.624-58.249c.01 0 .019-.008.019-.019s-.009-.02-.019-.02-.018.009-.018.02c0 .011.008.019.018.019zm-4.445-7.42c.01 0 .018-.008.018-.019s-.008-.02-.018-.02c-.01 0-.018.009-.018.02 0 .011.008.019.018.019zm-4.211-7.581c.01 0 .018-.009.018-.02 0-.011-.008-.02-.018-.02-.01 0-.019.009-.019.02 0 .011.009.02.019.02zm-26.651-73.923c.01 0 .018-.01.018-.02 0-.011-.008-.02-.018-.02-.01 0-.018.009-.018.02 0 .01.008.02.018.02zm475.477-3.802c.268 0 .486-.236.486-.528 0-.291-.218-.528-.486-.528-.269 0-.487.236-.487.528 0 .292.218.528.487.528zM573.919 42.3c.338 0 .612-.297.612-.664 0-.367-.274-.665-.612-.665-.338 0-.612.298-.612.665 0 .367.274.664.612.664zm-2.261 8.958c.566 0 1.025-.498 1.025-1.114 0-.615-.459-1.114-1.025-1.114-.566 0-1.024.499-1.024 1.114 0 .616.458 1.114 1.024 1.114zm-2.516 8.443c.575 0 1.042-.507 1.042-1.133s-.467-1.134-1.042-1.134c-.576 0-1.043.508-1.043 1.134 0 .626.467 1.133 1.043 1.133zm-2.772 8.327c.576 0 1.043-.507 1.043-1.133s-.467-1.134-1.043-1.134c-.576 0-1.042.508-1.042 1.134 0 .626.466 1.133 1.042 1.133zm-3.023 8.224c.576 0 1.042-.508 1.042-1.134 0-.626-.466-1.133-1.042-1.133-.576 0-1.043.507-1.043 1.133s.467 1.134 1.043 1.134zm-3.272 8.091c.566 0 1.024-.499 1.024-1.114 0-.615-.458-1.114-1.024-1.114-.566 0-1.025.499-1.025 1.114 0 .615.459 1.114 1.025 1.114zm-3.516 7.129c.13 0 .235-.114.235-.254 0-.141-.105-.255-.235-.255-.129 0-.234.114-.234.255 0 .14.105.254.234.254zm-361.836 99.4c.01 0 .018-.009.018-.02 0-.011-.008-.02-.018-.02-.01 0-.019.009-.019.02 0 .011.009.02.019.02zm-6.59-5.206c.01 0 .018-.009.018-.02 0-.011-.008-.02-.018-.02-.01 0-.019.009-.019.02 0 .011.009.02.019.02zm-6.427-5.439c.01 0 .018-.009.018-.02 0-.011-.008-.019-.018-.019-.01 0-.018.008-.018.019s.008.02.018.02zm-49.466-58.43c.01 0 .018-.008.018-.019s-.008-.02-.018-.02c-.01 0-.018.009-.018.02 0 .011.008.019.018.019zm-4.456-7.414c.011 0 .019-.009.019-.02 0-.011-.008-.02-.019-.02-.01 0-.018.009-.018.02 0 .011.008.02.018.02zM96.447 33.07c.01 0 .018-.008.018-.02 0-.01-.008-.02-.018-.02-.01 0-.018.01-.018.02 0 .012.008.02.018.02zm-1.737-8.652c.01 0 .018-.01.018-.02 0-.011-.008-.02-.018-.02-.01 0-.018.009-.018.02 0 .01.008.02.018.02zm490.986-8.701c.01 0 .018-.009.018-.02 0-.01-.008-.02-.018-.02a.02.02 0 00-.019.02c0 .011.009.02.019.02zm-1.436 9.715c.516 0 .934-.455.934-1.016 0-.562-.418-1.017-.934-1.017s-.935.455-.935 1.017c0 .56.419 1.016.935 1.016zm-1.693 7.764c.059 0 .108-.053.108-.117 0-.065-.049-.118-.108-.118-.06 0-.109.053-.109.117 0 .065.049.118.109.118zm-1.95 9.01c.269 0 .487-.237.487-.529 0-.291-.218-.528-.487-.528-.268 0-.486.237-.486.529 0 .291.218.528.486.528zm-2.203 9.112c.565 0 1.024-.498 1.024-1.114 0-.615-.459-1.114-1.024-1.114-.566 0-1.025.5-1.025 1.114 0 .615.459 1.114 1.025 1.114zm-2.455 8.463c.576 0 1.043-.507 1.043-1.133s-.467-1.134-1.043-1.134c-.575 0-1.042.508-1.042 1.134 0 .626.467 1.133 1.042 1.133zm-2.703 8.355c.576 0 1.042-.507 1.042-1.133s-.466-1.134-1.042-1.134c-.576 0-1.042.508-1.042 1.134 0 .626.466 1.133 1.042 1.133zm-2.949 8.256c.575 0 1.042-.508 1.042-1.134 0-.626-.467-1.133-1.042-1.133-.576 0-1.043.507-1.043 1.133s.467 1.134 1.043 1.134zm-3.192 7.991c.496 0 .899-.437.899-.977s-.403-.977-.899-.977-.899.438-.899.977c0 .54.403.977.899.977zM182.7 190.031c.01 0 .018-.009.018-.019 0-.011-.008-.02-.018-.02-.01 0-.018.009-.018.02 0 .01.008.019.018.019zm-6.392-5.489c.01 0 .018-.009.018-.02 0-.011-.008-.02-.018-.02-.01 0-.018.009-.018.02 0 .011.008.02.018.02zm-49.315-58.599c.01 0 .018-.009.018-.02 0-.011-.008-.02-.018-.02-.01 0-.018.009-.018.02 0 .011.008.02.018.02zm-4.463-7.408c.01 0 .018-.009.018-.02 0-.011-.008-.02-.018-.02-.01 0-.018.009-.018.02 0 .011.008.02.018.02zm-4.242-7.561c.01 0 .018-.009.018-.02 0-.011-.008-.02-.018-.02-.01 0-.018.009-.018.02 0 .011.008.02.018.02zM90.742 37.407c.01 0 .018-.01.018-.02s-.009-.02-.019-.02-.018.01-.018.02.008.02.019.02zm-1.822-8.632c.01 0 .018-.009.018-.02 0-.01-.009-.02-.019-.02s-.018.01-.018.02c0 .011.008.02.018.02zm-1.565-8.692c.01 0 .018-.009.018-.02 0-.01-.008-.02-.018-.02-.01 0-.019.01-.019.02 0 .011.009.02.019.02zm503.504 5.326c.496 0 .898-.437.898-.977s-.402-.977-.898-.977c-.497 0-.899.438-.899.977 0 .54.402.977.899.977zm-1.651 8.301c.308 0 .558-.27.558-.605 0-.335-.25-.607-.558-.607-.309 0-.559.272-.559.607 0 .334.25.606.559.606zm-4.051 16.978c.219 0 .396-.192.396-.43 0-.237-.177-.43-.396-.43-.219 0-.396.193-.396.43 0 .238.177.43.396.43zm-2.396 9.169c.575 0 1.042-.508 1.042-1.134 0-.626-.467-1.133-1.042-1.133-.576 0-1.043.507-1.043 1.133s.467 1.134 1.043 1.134zm-2.638 8.379c.576 0 1.043-.508 1.043-1.134 0-.626-.467-1.133-1.043-1.133-.576 0-1.042.507-1.042 1.133s.466 1.134 1.042 1.134zm-2.879 8.284c.576 0 1.042-.507 1.042-1.133 0-.627-.466-1.134-1.042-1.134-.576 0-1.043.507-1.043 1.133 0 .627.467 1.134 1.043 1.134zm-3.117 8.124c.546 0 .988-.481.988-1.075 0-.593-.442-1.074-.988-1.074s-.989.48-.989 1.074c0 .594.443 1.075.989 1.075zM183.788 199.702c.01 0 .018-.009.018-.02 0-.011-.008-.019-.018-.019-.01 0-.018.008-.018.019s.008.02.018.02zm-12.87-10.854c.01 0 .019-.009.019-.02 0-.011-.009-.02-.019-.02s-.018.009-.018.02c0 .011.008.02.018.02zm-49.171-58.761c.01 0 .018-.008.018-.019s-.008-.02-.018-.02c-.011 0-.019.009-.019.02 0 .011.008.019.019.019zm-4.472-7.402c.01 0 .018-.009.018-.02 0-.011-.008-.019-.018-.019-.01 0-.018.008-.018.019s.008.02.018.02zM85.06 41.736c.01 0 .017-.008.017-.02 0-.01-.008-.02-.018-.02-.01 0-.018.01-.018.02 0 .011.008.02.018.02zm-1.902-8.612c.01 0 .018-.009.018-.02 0-.01-.008-.02-.018-.02-.01 0-.018.01-.018.02 0 .011.008.02.018.02zm-1.652-8.672c.01 0 .018-.01.018-.02 0-.011-.008-.02-.018-.02-.01 0-.018.009-.018.02 0 .01.008.02.018.02zm515.946.678c.348 0 .63-.306.63-.684 0-.378-.282-.684-.63-.684-.348 0-.63.306-.63.684 0 .378.282.685.63.685zm-1.612 8.508c.259 0 .469-.228.469-.509 0-.28-.21-.508-.469-.508-.258 0-.468.227-.468.508 0 .28.21.509.468.509zm-1.856 8.739c.318 0 .576-.28.576-.626 0-.345-.258-.625-.576-.625-.318 0-.576.28-.576.626 0 .345.258.625.576.625zm-2.097 8.46c.268 0 .486-.236.486-.528 0-.291-.218-.528-.486-.528-.269 0-.487.237-.487.528 0 .292.218.528.487.528zm-2.339 9.09c.575 0 1.042-.508 1.042-1.134 0-.626-.467-1.133-1.042-1.133-.576 0-1.043.507-1.043 1.133s.467 1.134 1.043 1.134zm-2.577 8.401c.576 0 1.043-.507 1.043-1.133s-.467-1.134-1.043-1.134c-.576 0-1.042.507-1.042 1.134 0 .626.466 1.133 1.042 1.133zm-2.811 8.312c.575 0 1.042-.508 1.042-1.134 0-.626-.467-1.133-1.042-1.133-.576 0-1.043.507-1.043 1.133s.467 1.134 1.043 1.134zm-3.045 8.215c.576 0 1.042-.508 1.042-1.134 0-.626-.466-1.134-1.042-1.134-.576 0-1.042.508-1.042 1.134 0 .626.466 1.133 1.042 1.133zm-3.274 7.445c.239 0 .432-.21.432-.47 0-.259-.193-.469-.432-.469s-.432.21-.432.47c0 .259.193.469.432.469zM178.335 204.096c.011 0 .019-.009.019-.02 0-.011-.008-.02-.019-.02-.01 0-.018.009-.018.02 0 .011.008.02.018.02zm-6.477-5.369c.01 0 .019-.009.019-.02 0-.011-.009-.02-.019-.02s-.018.009-.018.02c0 .011.008.02.018.02zm-6.323-5.582c.01 0 .018-.009.018-.02 0-.011-.008-.02-.018-.02-.01 0-.018.009-.018.02 0 .011.008.02.018.02zM116.5 134.231c.01 0 .018-.008.018-.019s-.008-.02-.018-.02c-.01 0-.018.009-.018.02 0 .011.008.019.018.019zm-4.48-7.396c.01 0 .019-.009.019-.02 0-.011-.009-.02-.019-.02s-.018.009-.018.02c0 .011.008.02.018.02zM81.618 54.581c.01 0 .019-.009.019-.02 0-.01-.008-.02-.019-.02-.01 0-.018.01-.018.02 0 .011.008.02.019.02zM79.4 46.06c.01 0 .018-.01.018-.02 0-.012-.009-.02-.019-.02s-.018.008-.018.02c0 .01.008.02.018.02zm-1.978-8.593c.01 0 .019-.009.019-.02 0-.01-.008-.02-.019-.02-.01 0-.018.01-.018.02 0 .011.008.02.019.02zm525.044-3.769c.279 0 .505-.245.505-.547 0-.303-.226-.548-.505-.548-.278 0-.504.245-.504.548 0 .302.226.547.504.547zm-1.813 8.107c.01 0 .018-.009.018-.02 0-.01-.008-.02-.018-.02-.01 0-.018.01-.018.02 0 .011.008.02.018.02zm-2.05 9.626c.546 0 .989-.48.989-1.074 0-.594-.443-1.075-.989-1.075s-.988.481-.988 1.075c0 .593.442 1.074.988 1.074zm-2.284 8.559c.576 0 1.043-.507 1.043-1.133s-.467-1.133-1.043-1.133c-.575 0-1.042.507-1.042 1.133s.467 1.134 1.042 1.134zm-2.517 8.425c.576 0 1.043-.508 1.043-1.134 0-.626-.467-1.134-1.043-1.134-.576 0-1.042.508-1.042 1.134 0 .626.466 1.134 1.042 1.134zm-2.748 8.336c.576 0 1.043-.507 1.043-1.133s-.467-1.134-1.043-1.134c-.575 0-1.042.508-1.042 1.134 0 .626.467 1.133 1.042 1.133zm-2.975 8.245c.576 0 1.043-.508 1.043-1.134 0-.626-.467-1.133-1.043-1.133-.576 0-1.042.507-1.042 1.133s.466 1.134 1.042 1.134zm-3.201 7.967c.487 0 .881-.43.881-.958s-.394-.957-.881-.957c-.486 0-.88.428-.88.957 0 .529.394.958.88.958zm-3.423 7.098c.01 0 .018-.009.018-.02 0-.011-.008-.02-.018-.02-.011 0-.019.009-.019.02 0 .011.008.02.019.02zM172.892 208.476c.01 0 .018-.009.018-.02 0-.011-.008-.02-.018-.02-.01 0-.018.009-.018.02 0 .011.008.02.018.02zm-6.443-5.417c.01 0 .018-.009.018-.02 0-.011-.008-.02-.018-.02-.01 0-.018.009-.018.02 0 .011.008.02.018.02zm-6.292-5.625c.01 0 .018-.009.018-.02 0-.011-.008-.019-.018-.019-.01 0-.018.008-.018.019s.008.02.018.02zm-48.904-59.058c.01 0 .019-.009.019-.02 0-.011-.009-.02-.019-.02s-.018.009-.018.02c0 .011.008.02.018.02zm-4.486-7.391c.01 0 .018-.009.018-.02 0-.011-.008-.02-.018-.02-.01 0-.019.009-.019.02 0 .011.009.02.019.02zM76.045 58.877c.01 0 .018-.008.018-.02 0-.01-.008-.02-.018-.02-.01 0-.018.01-.018.02 0 .012.008.02.018.02zm-2.284-8.5c.01 0 .019-.009.019-.02 0-.01-.009-.02-.019-.02s-.018.01-.018.02c0 .011.008.02.018.02zm-2.05-8.572c.01 0 .019-.009.019-.02 0-.01-.008-.02-.019-.02-.01 0-.018.01-.018.02 0 .011.008.02.018.02zm531.367 18.167c.536 0 .971-.472.971-1.055s-.435-1.055-.971-1.055-.97.472-.97 1.055.434 1.055.97 1.055zm-2.46 8.522c.576 0 1.042-.508 1.042-1.134 0-.626-.466-1.133-1.042-1.133-.576 0-1.043.507-1.043 1.133s.467 1.134 1.043 1.134zm-2.685 8.362c.575 0 1.042-.508 1.042-1.134 0-.626-.467-1.134-1.042-1.134-.576 0-1.043.508-1.043 1.134 0 .626.467 1.134 1.043 1.134zm-2.911 8.27c.576 0 1.042-.507 1.042-1.133s-.466-1.134-1.042-1.134c-.576 0-1.043.508-1.043 1.134 0 .626.467 1.133 1.043 1.133zm-3.13 8.177c.576 0 1.042-.507 1.042-1.133s-.466-1.134-1.042-1.134c-.576 0-1.043.508-1.043 1.134 0 .626.467 1.133 1.043 1.133zm-3.349 7.799c.437 0 .791-.385.791-.859 0-.475-.354-.86-.791-.86-.437 0-.791.385-.791.86 0 .474.354.859.791.859zM167.456 212.845c.01 0 .018-.009.018-.02 0-.011-.008-.02-.018-.02-.01 0-.018.009-.018.02 0 .011.008.02.018.02zm-6.41-5.465c.01 0 .019-.008.019-.019s-.009-.02-.019-.02-.018.009-.018.02c0 .011.008.019.018.019zM70.488 63.169c.01 0 .018-.009.018-.02 0-.01-.008-.02-.018-.02-.01 0-.018.01-.018.02 0 .011.008.02.018.02zm-2.347-8.481c.01 0 .018-.009.018-.02 0-.01-.008-.02-.018-.02-.01 0-.018.01-.018.02 0 .011.008.02.018.02zm-2.117-8.552c.01 0 .018-.009.018-.02 0-.01-.008-.02-.018-.02-.01 0-.019.01-.019.02 0 .011.009.02.019.02zm535.922 39.113c.575 0 1.042-.507 1.042-1.133s-.467-1.134-1.042-1.134c-.576 0-1.043.508-1.043 1.133 0 .627.467 1.134 1.043 1.134zm-3.064 8.207c.576 0 1.043-.507 1.043-1.133s-.467-1.134-1.043-1.134c-.576 0-1.042.508-1.042 1.134 0 .626.466 1.133 1.042 1.133zm-3.277 7.99c.516 0 .934-.455.934-1.016 0-.562-.418-1.016-.934-1.016-.517 0-.935.454-.935 1.016 0 .561.418 1.016.935 1.016zm-3.489 7.007c.01 0 .018-.009.018-.02 0-.011-.008-.02-.018-.02-.01 0-.018.009-.018.02 0 .011.008.02.018.02zm-51.412 79.299c.01 0 .019-.008.019-.019s-.009-.02-.019-.02-.018.009-.018.02c0 .011.008.019.018.019zm-5.758 6.263c.01 0 .018-.009.018-.02 0-.011-.008-.019-.018-.019a.019.019 0 00-.019.019c0 .011.009.02.019.02zm-5.922 6.082c.01 0 .018-.009.018-.02 0-.011-.008-.019-.018-.019-.01 0-.018.008-.018.019s.008.02.018.02zm-6.079 5.894c.01 0 .018-.009.018-.02 0-.011-.008-.02-.018-.02-.01 0-.018.009-.018.02 0 .011.008.02.018.02zm-6.231 5.704c.01 0 .019-.009.019-.02 0-.011-.009-.02-.019-.02s-.018.009-.018.02c0 .011.008.02.018.02zm-361.064 0c.011 0 .019-.009.019-.02 0-.011-.008-.02-.019-.02-.01 0-.018.009-.018.02 0 .011.008.02.018.02zm-6.231-5.704c.01 0 .018-.009.018-.02 0-.011-.008-.02-.018-.02-.01 0-.018.009-.018.02 0 .011.008.02.018.02zM64.945 67.456c.01 0 .019-.01.019-.02 0-.011-.009-.02-.019-.02s-.018.009-.018.02c0 .01.008.02.018.02zm-2.405-8.462c.01 0 .018-.01.018-.02 0-.011-.008-.02-.018-.02-.01 0-.018.009-.018.02 0 .01.008.02.018.02zm-2.183-8.534c.01 0 .018-.008.018-.02 0-.01-.008-.02-.018-.02-.01 0-.019.01-.019.02 0 .012.009.02.019.02zm542.286 51.025c.446 0 .808-.393.808-.879 0-.485-.362-.879-.808-.879-.447 0-.809.394-.809.879 0 .486.362.879.809.879zm-3.416 7.415c.13 0 .235-.114.235-.255 0-.14-.105-.254-.235-.254s-.235.114-.235.254c0 .141.105.255.235.255zm-3.622 8.089c.209 0 .378-.183.378-.41 0-.227-.169-.411-.378-.411-.208 0-.378.184-.378.411 0 .227.17.41.378.41zm-12.066 22.705c.01 0 .018-.009.018-.02 0-.011-.008-.02-.018-.02-.01 0-.018.009-.018.02 0 .011.008.02.018.02zm-34.733 49.041c.01 0 .018-.009.018-.02 0-.011-.008-.02-.018-.02-.01 0-.018.009-.018.02 0 .011.008.02.018.02zm-5.658 6.37c.01 0 .018-.009.018-.02 0-.011-.008-.02-.018-.02-.01 0-.018.009-.018.02 0 .011.008.02.018.02zm-5.819 6.198c.01 0 .018-.009.018-.02 0-.011-.008-.02-.018-.02-.01 0-.018.009-.018.02 0 .011.008.02.018.02zm-5.977 6.016c.01 0 .018-.009.018-.019 0-.011-.008-.02-.018-.02-.01 0-.018.009-.018.02 0 .01.008.019.018.019zm-6.128 5.834c.01 0 .018-.008.018-.019s-.008-.02-.018-.02c-.01 0-.018.009-.018.02 0 .011.008.019.018.019zM150.261 216c.01 0 .018-.009.018-.02 0-.011-.008-.02-.018-.02-.01 0-.019.009-.019.02 0 .011.009.02.019.02zM59.417 71.736c.01 0 .018-.008.018-.02 0-.01-.008-.02-.018-.02-.01 0-.018.01-.018.02 0 .012.008.02.018.02zm-2.463-8.442c.01 0 .018-.009.018-.02 0-.01-.008-.02-.018-.02-.01 0-.019.01-.019.02 0 .011.009.02.019.02zm545.807 53.581c.03 0 .055-.026.055-.058 0-.033-.025-.059-.055-.059-.029 0-.054.026-.054.059 0 .032.025.058.054.058zm-3.746 7.824c.01 0 .018-.009.018-.02 0-.01-.008-.019-.018-.019-.01 0-.018.009-.018.019 0 .011.008.02.018.02zm-3.943 7.749c.01 0 .018-.009.018-.02 0-.01-.008-.019-.018-.019-.01 0-.018.009-.018.019 0 .011.008.02.018.02zm-4.137 7.63c.01 0 .018-.009.018-.02 0-.011-.008-.02-.018-.02-.01 0-.018.009-.018.02 0 .011.008.02.018.02zm-4.326 7.504c.01 0 .018-.009.018-.02 0-.011-.008-.02-.018-.02-.011 0-.019.009-.019.02 0 .011.008.02.019.02zm-35.321 48.548c.01 0 .018-.009.018-.02 0-.011-.008-.02-.018-.02-.01 0-.018.009-.018.02 0 .011.008.02.018.02zm-5.72 6.304c.01 0 .018-.009.018-.02 0-.011-.008-.019-.018-.019a.019.019 0 00-.019.019c0 .011.009.02.019.02zm-5.876 6.133c.01 0 .018-.009.018-.02 0-.011-.008-.02-.018-.02-.01 0-.019.009-.019.02 0 .011.009.02.019.02zm-6.028 5.956c.01 0 .018-.009.018-.02 0-.011-.008-.02-.018-.02-.01 0-.018.009-.018.02 0 .011.008.02.018.02zM53.901 76.013c.01 0 .018-.009.018-.02 0-.01-.008-.02-.018-.02-.01 0-.018.01-.018.02 0 .011.008.02.018.02zm-2.516-8.423c.01 0 .018-.008.018-.02 0-.01-.008-.02-.018-.02-.01 0-.018.01-.018.02 0 .012.008.02.018.02zm550.967 65.168c.01 0 .018-.009.018-.019 0-.011-.008-.02-.018-.02-.01 0-.018.009-.018.02 0 .01.008.019.018.019zm-4.057 7.68c.01 0 .019-.009.019-.02 0-.011-.009-.02-.019-.02s-.018.009-.018.02c0 .011.008.02.018.02zm-4.244 7.559c.01 0 .018-.009.018-.02 0-.011-.008-.019-.018-.019-.01 0-.018.008-.018.019s.008.02.018.02zm-4.428 7.433c.01 0 .018-.009.018-.02 0-.011-.008-.019-.018-.019a.018.018 0 00-.019.019c0 .011.008.02.019.02zM48.398 80.286c.01 0 .018-.01.018-.02 0-.011-.008-.02-.018-.02-.01 0-.018.009-.018.02 0 .01.008.02.018.02zM45.83 71.88c.01 0 .018-.008.018-.02 0-.01-.008-.02-.018-.02-.01 0-.019.01-.019.02 0 .011.008.02.019.02zm555.627 76.509c.01 0 .018-.009.018-.02 0-.011-.008-.02-.018-.02-.01 0-.018.009-.018.02 0 .011.008.02.018.02zM42.906 84.554c.01 0 .018-.01.018-.02 0-.011-.008-.02-.018-.02-.01 0-.019.009-.019.02 0 .01.009.02.019.02zm-2.618-8.388c.01 0 .018-.009.018-.02 0-.01-.008-.02-.018-.02-.01 0-.019.01-.019.02 0 .011.009.02.019.02zm-.002 20.942c.01 0 .018-.008.018-.02 0-.01-.008-.02-.018-.02-.01 0-.018.01-.018.02 0 .012.008.02.018.02zm-2.862-8.29c.01 0 .018-.009.018-.02 0-.01-.008-.02-.018-.02-.01 0-.018.01-.018.02 0 .011.008.02.018.02zm-2.666-8.37c.01 0 .019-.01.019-.02s-.008-.02-.019-.02c-.01 0-.018.01-.018.02s.008.02.018.02zm39.234 98.312c.01 0 .018-.009.018-.02 0-.01-.008-.019-.018-.019a.02.02 0 00-.019.019c0 .011.009.02.019.02zm-4.705-7.23c.01 0 .018-.009.018-.019 0-.011-.008-.02-.018-.02-.01 0-.018.009-.018.02 0 .01.008.019.018.019zm-34.432-70.178c.01 0 .018-.009.018-.02 0-.011-.008-.02-.018-.02-.01 0-.018.009-.018.02 0 .011.008.02.018.02zm-2.903-8.275c.01 0 .019-.009.019-.02 0-.01-.009-.02-.019-.02s-.018.01-.018.02c0 .011.008.02.018.02zm36.796 89.826c.01 0 .018-.009.018-.02 0-.011-.008-.02-.018-.02-.01 0-.018.009-.018.02 0 .011.008.02.018.02zm-4.706-7.229c.01 0 .019-.009.019-.02 0-.011-.009-.02-.019-.02s-.018.009-.018.02c0 .011.008.02.018.02zm-34.61-70.083c.01 0 .018-.009.018-.019 0-.011-.008-.02-.018-.02-.01 0-.018.009-.018.02 0 .01.008.019.018.019zm-2.942-8.257c.01 0 .018-.009.018-.02 0-.01-.008-.02-.018-.02-.01 0-.018.01-.018.02 0 .011.008.02.018.02zm-2.755-8.335c.01 0 .018-.01.018-.02 0-.011-.008-.02-.018-.02-.01 0-.018.009-.018.02 0 .01.008.02.018.02zM6.844 2.585c.01 0 .018-.008.018-.02 0-.01-.008-.02-.018-.02-.01 0-.018.01-.018.02 0 .012.008.02.018.02zM68.37 194.147c.01 0 .019-.009.019-.02 0-.011-.008-.02-.018-.02-.01 0-.019.009-.019.02 0 .011.008.02.019.02zm-4.866-7.102c.01 0 .018-.008.018-.019s-.008-.02-.018-.02c-.01 0-.018.009-.018.02 0 .011.008.019.018.019zm-4.707-7.228c.01 0 .018-.008.018-.019s-.008-.02-.018-.02c-.01 0-.019.009-.019.02 0 .011.008.019.019.019zm-34.781-69.989c.01 0 .018-.009.018-.02a.018.018 0 00-.018-.019.018.018 0 00-.018.019c0 .011.008.02.018.02zm-2.98-8.242c.01 0 .018-.008.018-.019s-.008-.02-.018-.02c-.01 0-.018.009-.018.02 0 .011.008.019.018.019zm-2.796-8.318c.01 0 .018-.01.018-.02 0-.011-.008-.02-.018-.02-.01 0-.018.009-.018.02 0 .01.008.02.018.02zM.707 6.998c.01 0 .018-.01.018-.02 0-.011-.008-.02-.018-.02-.01 0-.018.009-.018.02 0 .01.008.02.018.02zm62.419 191.293c.01 0 .018-.009.018-.02 0-.011-.008-.02-.018-.02-.01 0-.018.009-.018.02 0 .011.008.02.018.02zm-4.866-7.102c.01 0 .018-.009.018-.02 0-.011-.008-.02-.018-.02-.01 0-.018.009-.018.02 0 .011.008.02.018.02zm-4.71-7.227a.02.02 0 00.02-.02c0-.011-.01-.02-.02-.02s-.017.009-.017.02c0 .011.008.02.018.02zm4.33 18.472c.01 0 .018-.009.018-.02a.018.018 0 00-.018-.019.018.018 0 00-.018.019c0 .011.008.02.018.02zm-4.864-7.103c.01 0 .018-.009.018-.02 0-.011-.008-.02-.018-.02-.01 0-.018.009-.018.02 0 .011.008.02.018.02zm-4.71-7.225c.01 0 .018-.009.018-.02 0-.011-.008-.02-.018-.02-.01 0-.018.009-.018.02 0 .011.008.02.018.02zm4.329 18.473c.01 0 .019-.009.019-.02 0-.011-.009-.02-.019-.02s-.018.009-.018.02c0 .011.008.02.018.02zm-4.863-7.105c.01 0 .018-.009.018-.02 0-.011-.008-.02-.018-.02-.01 0-.018.009-.018.02 0 .011.008.02.018.02zm-4.712-7.225c.01 0 .019-.009.019-.02 0-.011-.008-.02-.019-.02-.01 0-.018.009-.018.02 0 .011.008.02.018.02zm4.33 18.474c.01 0 .018-.009.018-.02 0-.011-.008-.02-.018-.02-.01 0-.019.009-.019.02 0 .011.008.02.019.02zm-4.862-7.107c.01 0 .019-.009.019-.02 0-.011-.009-.02-.019-.02s-.018.009-.018.02c0 .011.008.02.018.02zm-4.712-7.223c.01 0 .018-.009.018-.02a.018.018 0 00-.018-.019.018.018 0 00-.019.019c0 .011.009.02.019.02zm4.329 18.473c.01 0 .018-.009.018-.02 0-.01-.008-.019-.018-.019-.01 0-.018.009-.018.019 0 .011.008.02.018.02zm-4.86-7.108c.01 0 .018-.009.018-.019 0-.011-.008-.02-.018-.02-.01 0-.019.009-.019.02 0 .01.008.019.019.019zm-4.715-7.222c.01 0 .018-.009.018-.02a.018.018 0 00-.018-.019.018.018 0 00-.018.019c0 .011.008.02.018.02zm-.529 11.365c.01 0 .019-.009.019-.02 0-.011-.008-.02-.019-.02-.01 0-.018.009-.018.02 0 .011.008.02.018.02z" opacity=".32" fill="#fff"/></svg>